%TF.GenerationSoftware,KiCad,Pcbnew,9.0.2*%
%TF.CreationDate,2025-07-03T17:47:07+02:00*%
%TF.ProjectId,PCB_accueil_STM,5043425f-6163-4637-9565-696c5f53544d,rev?*%
%TF.SameCoordinates,Original*%
%TF.FileFunction,Legend,Top*%
%TF.FilePolarity,Positive*%
%FSLAX46Y46*%
G04 Gerber Fmt 4.6, Leading zero omitted, Abs format (unit mm)*
G04 Created by KiCad (PCBNEW 9.0.2) date 2025-07-03 17:47:07*
%MOMM*%
%LPD*%
G01*
G04 APERTURE LIST*
%ADD10C,0.152400*%
%ADD11C,0.100000*%
%ADD12C,0.300000*%
%ADD13C,0.200000*%
%ADD14C,0.150000*%
%ADD15C,0.171450*%
%ADD16C,0.133350*%
%ADD17C,0.381000*%
%ADD18C,0.254000*%
G04 APERTURE END LIST*
D10*
X103825882Y-94523703D02*
X103867006Y-94441456D01*
X103867006Y-94441456D02*
X103867006Y-94318084D01*
X103867006Y-94318084D02*
X103825882Y-94194713D01*
X103825882Y-94194713D02*
X103743634Y-94112465D01*
X103743634Y-94112465D02*
X103661387Y-94071342D01*
X103661387Y-94071342D02*
X103496891Y-94030218D01*
X103496891Y-94030218D02*
X103373520Y-94030218D01*
X103373520Y-94030218D02*
X103209025Y-94071342D01*
X103209025Y-94071342D02*
X103126777Y-94112465D01*
X103126777Y-94112465D02*
X103044530Y-94194713D01*
X103044530Y-94194713D02*
X103003406Y-94318084D01*
X103003406Y-94318084D02*
X103003406Y-94400332D01*
X103003406Y-94400332D02*
X103044530Y-94523703D01*
X103044530Y-94523703D02*
X103085653Y-94564827D01*
X103085653Y-94564827D02*
X103373520Y-94564827D01*
X103373520Y-94564827D02*
X103373520Y-94400332D01*
X103003406Y-94934942D02*
X103867006Y-94934942D01*
X103867006Y-94934942D02*
X103867006Y-95263932D01*
X103867006Y-95263932D02*
X103825882Y-95346180D01*
X103825882Y-95346180D02*
X103784758Y-95387303D01*
X103784758Y-95387303D02*
X103702510Y-95428427D01*
X103702510Y-95428427D02*
X103579139Y-95428427D01*
X103579139Y-95428427D02*
X103496891Y-95387303D01*
X103496891Y-95387303D02*
X103455768Y-95346180D01*
X103455768Y-95346180D02*
X103414644Y-95263932D01*
X103414644Y-95263932D02*
X103414644Y-94934942D01*
X103867006Y-95963037D02*
X103867006Y-96127532D01*
X103867006Y-96127532D02*
X103825882Y-96209780D01*
X103825882Y-96209780D02*
X103743634Y-96292027D01*
X103743634Y-96292027D02*
X103579139Y-96333151D01*
X103579139Y-96333151D02*
X103291272Y-96333151D01*
X103291272Y-96333151D02*
X103126777Y-96292027D01*
X103126777Y-96292027D02*
X103044530Y-96209780D01*
X103044530Y-96209780D02*
X103003406Y-96127532D01*
X103003406Y-96127532D02*
X103003406Y-95963037D01*
X103003406Y-95963037D02*
X103044530Y-95880789D01*
X103044530Y-95880789D02*
X103126777Y-95798542D01*
X103126777Y-95798542D02*
X103291272Y-95757418D01*
X103291272Y-95757418D02*
X103579139Y-95757418D01*
X103579139Y-95757418D02*
X103743634Y-95798542D01*
X103743634Y-95798542D02*
X103825882Y-95880789D01*
X103825882Y-95880789D02*
X103867006Y-95963037D01*
X103867006Y-96703266D02*
X103167901Y-96703266D01*
X103167901Y-96703266D02*
X103085653Y-96744389D01*
X103085653Y-96744389D02*
X103044530Y-96785513D01*
X103044530Y-96785513D02*
X103003406Y-96867761D01*
X103003406Y-96867761D02*
X103003406Y-97032256D01*
X103003406Y-97032256D02*
X103044530Y-97114504D01*
X103044530Y-97114504D02*
X103085653Y-97155627D01*
X103085653Y-97155627D02*
X103167901Y-97196751D01*
X103167901Y-97196751D02*
X103867006Y-97196751D01*
X103867006Y-97484618D02*
X103867006Y-97978104D01*
X103003406Y-97731361D02*
X103867006Y-97731361D01*
D11*
X98317000Y-75237460D02*
G75*
G02*
X93237000Y-75237460I-2540000J0D01*
G01*
X93237000Y-75237460D02*
G75*
G02*
X98317000Y-75237460I2540000J0D01*
G01*
X108299200Y-126012060D02*
X106267200Y-126012060D01*
X107283200Y-124488060D01*
X108299200Y-126012060D01*
G36*
X108299200Y-126012060D02*
G01*
X106267200Y-126012060D01*
X107283200Y-124488060D01*
X108299200Y-126012060D01*
G37*
D12*
X111309510Y-132413098D02*
X111690463Y-132413098D01*
X111690463Y-132413098D02*
X111880939Y-132508336D01*
X111880939Y-132508336D02*
X112071415Y-132698812D01*
X112071415Y-132698812D02*
X112166653Y-133079764D01*
X112166653Y-133079764D02*
X112166653Y-133746431D01*
X112166653Y-133746431D02*
X112071415Y-134127383D01*
X112071415Y-134127383D02*
X111880939Y-134317860D01*
X111880939Y-134317860D02*
X111690463Y-134413098D01*
X111690463Y-134413098D02*
X111309510Y-134413098D01*
X111309510Y-134413098D02*
X111119034Y-134317860D01*
X111119034Y-134317860D02*
X110928558Y-134127383D01*
X110928558Y-134127383D02*
X110833320Y-133746431D01*
X110833320Y-133746431D02*
X110833320Y-133079764D01*
X110833320Y-133079764D02*
X110928558Y-132698812D01*
X110928558Y-132698812D02*
X111119034Y-132508336D01*
X111119034Y-132508336D02*
X111309510Y-132413098D01*
X113023796Y-134413098D02*
X113023796Y-132413098D01*
X113023796Y-132413098D02*
X114166653Y-134413098D01*
X114166653Y-134413098D02*
X114166653Y-132413098D01*
D13*
X90199235Y-129323083D02*
X89603997Y-129323083D01*
X89603997Y-129323083D02*
X89544473Y-129918321D01*
X89544473Y-129918321D02*
X89603997Y-129858798D01*
X89603997Y-129858798D02*
X89723044Y-129799274D01*
X89723044Y-129799274D02*
X90020663Y-129799274D01*
X90020663Y-129799274D02*
X90139711Y-129858798D01*
X90139711Y-129858798D02*
X90199235Y-129918321D01*
X90199235Y-129918321D02*
X90258758Y-130037369D01*
X90258758Y-130037369D02*
X90258758Y-130334988D01*
X90258758Y-130334988D02*
X90199235Y-130454036D01*
X90199235Y-130454036D02*
X90139711Y-130513560D01*
X90139711Y-130513560D02*
X90020663Y-130573083D01*
X90020663Y-130573083D02*
X89723044Y-130573083D01*
X89723044Y-130573083D02*
X89603997Y-130513560D01*
X89603997Y-130513560D02*
X89544473Y-130454036D01*
X90615901Y-129323083D02*
X91032568Y-130573083D01*
X91032568Y-130573083D02*
X91449234Y-129323083D01*
X92758759Y-129263560D02*
X91687330Y-130870702D01*
X93830187Y-130573083D02*
X93115902Y-130573083D01*
X93473045Y-130573083D02*
X93473045Y-129323083D01*
X93473045Y-129323083D02*
X93353997Y-129501655D01*
X93353997Y-129501655D02*
X93234949Y-129620702D01*
X93234949Y-129620702D02*
X93115902Y-129680226D01*
X94365902Y-130454036D02*
X94425425Y-130513560D01*
X94425425Y-130513560D02*
X94365902Y-130573083D01*
X94365902Y-130573083D02*
X94306378Y-130513560D01*
X94306378Y-130513560D02*
X94365902Y-130454036D01*
X94365902Y-130454036D02*
X94365902Y-130573083D01*
X95556378Y-129323083D02*
X94961140Y-129323083D01*
X94961140Y-129323083D02*
X94901616Y-129918321D01*
X94901616Y-129918321D02*
X94961140Y-129858798D01*
X94961140Y-129858798D02*
X95080187Y-129799274D01*
X95080187Y-129799274D02*
X95377806Y-129799274D01*
X95377806Y-129799274D02*
X95496854Y-129858798D01*
X95496854Y-129858798D02*
X95556378Y-129918321D01*
X95556378Y-129918321D02*
X95615901Y-130037369D01*
X95615901Y-130037369D02*
X95615901Y-130334988D01*
X95615901Y-130334988D02*
X95556378Y-130454036D01*
X95556378Y-130454036D02*
X95496854Y-130513560D01*
X95496854Y-130513560D02*
X95377806Y-130573083D01*
X95377806Y-130573083D02*
X95080187Y-130573083D01*
X95080187Y-130573083D02*
X94961140Y-130513560D01*
X94961140Y-130513560D02*
X94901616Y-130454036D01*
X96092092Y-130215940D02*
X96687330Y-130215940D01*
X95973044Y-130573083D02*
X96389711Y-129323083D01*
X96389711Y-129323083D02*
X96806377Y-130573083D01*
D12*
X120961510Y-132413098D02*
X121342463Y-132413098D01*
X121342463Y-132413098D02*
X121532939Y-132508336D01*
X121532939Y-132508336D02*
X121723415Y-132698812D01*
X121723415Y-132698812D02*
X121818653Y-133079764D01*
X121818653Y-133079764D02*
X121818653Y-133746431D01*
X121818653Y-133746431D02*
X121723415Y-134127383D01*
X121723415Y-134127383D02*
X121532939Y-134317860D01*
X121532939Y-134317860D02*
X121342463Y-134413098D01*
X121342463Y-134413098D02*
X120961510Y-134413098D01*
X120961510Y-134413098D02*
X120771034Y-134317860D01*
X120771034Y-134317860D02*
X120580558Y-134127383D01*
X120580558Y-134127383D02*
X120485320Y-133746431D01*
X120485320Y-133746431D02*
X120485320Y-133079764D01*
X120485320Y-133079764D02*
X120580558Y-132698812D01*
X120580558Y-132698812D02*
X120771034Y-132508336D01*
X120771034Y-132508336D02*
X120961510Y-132413098D01*
X123342463Y-133365479D02*
X122675796Y-133365479D01*
X122675796Y-134413098D02*
X122675796Y-132413098D01*
X122675796Y-132413098D02*
X123628177Y-132413098D01*
X125056749Y-133365479D02*
X124390082Y-133365479D01*
X124390082Y-134413098D02*
X124390082Y-132413098D01*
X124390082Y-132413098D02*
X125342463Y-132413098D01*
X112960558Y-127809098D02*
X112960558Y-125809098D01*
X112960558Y-125809098D02*
X113722463Y-125809098D01*
X113722463Y-125809098D02*
X113912939Y-125904336D01*
X113912939Y-125904336D02*
X114008177Y-125999574D01*
X114008177Y-125999574D02*
X114103415Y-126190050D01*
X114103415Y-126190050D02*
X114103415Y-126475764D01*
X114103415Y-126475764D02*
X114008177Y-126666240D01*
X114008177Y-126666240D02*
X113912939Y-126761479D01*
X113912939Y-126761479D02*
X113722463Y-126856717D01*
X113722463Y-126856717D02*
X112960558Y-126856717D01*
X115341510Y-125809098D02*
X115722463Y-125809098D01*
X115722463Y-125809098D02*
X115912939Y-125904336D01*
X115912939Y-125904336D02*
X116103415Y-126094812D01*
X116103415Y-126094812D02*
X116198653Y-126475764D01*
X116198653Y-126475764D02*
X116198653Y-127142431D01*
X116198653Y-127142431D02*
X116103415Y-127523383D01*
X116103415Y-127523383D02*
X115912939Y-127713860D01*
X115912939Y-127713860D02*
X115722463Y-127809098D01*
X115722463Y-127809098D02*
X115341510Y-127809098D01*
X115341510Y-127809098D02*
X115151034Y-127713860D01*
X115151034Y-127713860D02*
X114960558Y-127523383D01*
X114960558Y-127523383D02*
X114865320Y-127142431D01*
X114865320Y-127142431D02*
X114865320Y-126475764D01*
X114865320Y-126475764D02*
X114960558Y-126094812D01*
X114960558Y-126094812D02*
X115151034Y-125904336D01*
X115151034Y-125904336D02*
X115341510Y-125809098D01*
X116865320Y-125809098D02*
X117341510Y-127809098D01*
X117341510Y-127809098D02*
X117722463Y-126380526D01*
X117722463Y-126380526D02*
X118103415Y-127809098D01*
X118103415Y-127809098D02*
X118579606Y-125809098D01*
X119341510Y-126761479D02*
X120008177Y-126761479D01*
X120293891Y-127809098D02*
X119341510Y-127809098D01*
X119341510Y-127809098D02*
X119341510Y-125809098D01*
X119341510Y-125809098D02*
X120293891Y-125809098D01*
X122293891Y-127809098D02*
X121627224Y-126856717D01*
X121151034Y-127809098D02*
X121151034Y-125809098D01*
X121151034Y-125809098D02*
X121912939Y-125809098D01*
X121912939Y-125809098D02*
X122103415Y-125904336D01*
X122103415Y-125904336D02*
X122198653Y-125999574D01*
X122198653Y-125999574D02*
X122293891Y-126190050D01*
X122293891Y-126190050D02*
X122293891Y-126475764D01*
X122293891Y-126475764D02*
X122198653Y-126666240D01*
X122198653Y-126666240D02*
X122103415Y-126761479D01*
X122103415Y-126761479D02*
X121912939Y-126856717D01*
X121912939Y-126856717D02*
X121151034Y-126856717D01*
D11*
X98620884Y-73681310D02*
X98620884Y-72381310D01*
X98620884Y-72381310D02*
X99001836Y-72381310D01*
X99001836Y-72381310D02*
X99097074Y-72443215D01*
X99097074Y-72443215D02*
X99144693Y-72505120D01*
X99144693Y-72505120D02*
X99192312Y-72628929D01*
X99192312Y-72628929D02*
X99192312Y-72814644D01*
X99192312Y-72814644D02*
X99144693Y-72938453D01*
X99144693Y-72938453D02*
X99097074Y-73000358D01*
X99097074Y-73000358D02*
X99001836Y-73062263D01*
X99001836Y-73062263D02*
X98620884Y-73062263D01*
X99620884Y-73186072D02*
X100382789Y-73186072D01*
X100858979Y-73681310D02*
X100858979Y-72381310D01*
X100858979Y-72381310D02*
X101430407Y-73681310D01*
X101430407Y-73681310D02*
X101430407Y-72381310D01*
X101906598Y-72381310D02*
X101906598Y-73433691D01*
X101906598Y-73433691D02*
X101954217Y-73557501D01*
X101954217Y-73557501D02*
X102001836Y-73619406D01*
X102001836Y-73619406D02*
X102097074Y-73681310D01*
X102097074Y-73681310D02*
X102287550Y-73681310D01*
X102287550Y-73681310D02*
X102382788Y-73619406D01*
X102382788Y-73619406D02*
X102430407Y-73557501D01*
X102430407Y-73557501D02*
X102478026Y-73433691D01*
X102478026Y-73433691D02*
X102478026Y-72381310D01*
X103525645Y-73557501D02*
X103478026Y-73619406D01*
X103478026Y-73619406D02*
X103335169Y-73681310D01*
X103335169Y-73681310D02*
X103239931Y-73681310D01*
X103239931Y-73681310D02*
X103097074Y-73619406D01*
X103097074Y-73619406D02*
X103001836Y-73495596D01*
X103001836Y-73495596D02*
X102954217Y-73371786D01*
X102954217Y-73371786D02*
X102906598Y-73124167D01*
X102906598Y-73124167D02*
X102906598Y-72938453D01*
X102906598Y-72938453D02*
X102954217Y-72690834D01*
X102954217Y-72690834D02*
X103001836Y-72567025D01*
X103001836Y-72567025D02*
X103097074Y-72443215D01*
X103097074Y-72443215D02*
X103239931Y-72381310D01*
X103239931Y-72381310D02*
X103335169Y-72381310D01*
X103335169Y-72381310D02*
X103478026Y-72443215D01*
X103478026Y-72443215D02*
X103525645Y-72505120D01*
X104430407Y-73681310D02*
X103954217Y-73681310D01*
X103954217Y-73681310D02*
X103954217Y-72381310D01*
X104763741Y-73000358D02*
X105097074Y-73000358D01*
X105239931Y-73681310D02*
X104763741Y-73681310D01*
X104763741Y-73681310D02*
X104763741Y-72381310D01*
X104763741Y-72381310D02*
X105239931Y-72381310D01*
X105858979Y-72381310D02*
X106049455Y-72381310D01*
X106049455Y-72381310D02*
X106144693Y-72443215D01*
X106144693Y-72443215D02*
X106239931Y-72567025D01*
X106239931Y-72567025D02*
X106287550Y-72814644D01*
X106287550Y-72814644D02*
X106287550Y-73247977D01*
X106287550Y-73247977D02*
X106239931Y-73495596D01*
X106239931Y-73495596D02*
X106144693Y-73619406D01*
X106144693Y-73619406D02*
X106049455Y-73681310D01*
X106049455Y-73681310D02*
X105858979Y-73681310D01*
X105858979Y-73681310D02*
X105763741Y-73619406D01*
X105763741Y-73619406D02*
X105668503Y-73495596D01*
X105668503Y-73495596D02*
X105620884Y-73247977D01*
X105620884Y-73247977D02*
X105620884Y-72814644D01*
X105620884Y-72814644D02*
X105668503Y-72567025D01*
X105668503Y-72567025D02*
X105763741Y-72443215D01*
X105763741Y-72443215D02*
X105858979Y-72381310D01*
X106716122Y-73186072D02*
X107478027Y-73186072D01*
X107858979Y-72381310D02*
X108097074Y-73681310D01*
X108097074Y-73681310D02*
X108287550Y-72752739D01*
X108287550Y-72752739D02*
X108478026Y-73681310D01*
X108478026Y-73681310D02*
X108716122Y-72381310D01*
X109430407Y-73000358D02*
X109573264Y-73062263D01*
X109573264Y-73062263D02*
X109620883Y-73124167D01*
X109620883Y-73124167D02*
X109668502Y-73247977D01*
X109668502Y-73247977D02*
X109668502Y-73433691D01*
X109668502Y-73433691D02*
X109620883Y-73557501D01*
X109620883Y-73557501D02*
X109573264Y-73619406D01*
X109573264Y-73619406D02*
X109478026Y-73681310D01*
X109478026Y-73681310D02*
X109097074Y-73681310D01*
X109097074Y-73681310D02*
X109097074Y-72381310D01*
X109097074Y-72381310D02*
X109430407Y-72381310D01*
X109430407Y-72381310D02*
X109525645Y-72443215D01*
X109525645Y-72443215D02*
X109573264Y-72505120D01*
X109573264Y-72505120D02*
X109620883Y-72628929D01*
X109620883Y-72628929D02*
X109620883Y-72752739D01*
X109620883Y-72752739D02*
X109573264Y-72876548D01*
X109573264Y-72876548D02*
X109525645Y-72938453D01*
X109525645Y-72938453D02*
X109430407Y-73000358D01*
X109430407Y-73000358D02*
X109097074Y-73000358D01*
X110573264Y-72381310D02*
X110097074Y-72381310D01*
X110097074Y-72381310D02*
X110049455Y-73000358D01*
X110049455Y-73000358D02*
X110097074Y-72938453D01*
X110097074Y-72938453D02*
X110192312Y-72876548D01*
X110192312Y-72876548D02*
X110430407Y-72876548D01*
X110430407Y-72876548D02*
X110525645Y-72938453D01*
X110525645Y-72938453D02*
X110573264Y-73000358D01*
X110573264Y-73000358D02*
X110620883Y-73124167D01*
X110620883Y-73124167D02*
X110620883Y-73433691D01*
X110620883Y-73433691D02*
X110573264Y-73557501D01*
X110573264Y-73557501D02*
X110525645Y-73619406D01*
X110525645Y-73619406D02*
X110430407Y-73681310D01*
X110430407Y-73681310D02*
X110192312Y-73681310D01*
X110192312Y-73681310D02*
X110097074Y-73619406D01*
X110097074Y-73619406D02*
X110049455Y-73557501D01*
X111525645Y-72381310D02*
X111049455Y-72381310D01*
X111049455Y-72381310D02*
X111001836Y-73000358D01*
X111001836Y-73000358D02*
X111049455Y-72938453D01*
X111049455Y-72938453D02*
X111144693Y-72876548D01*
X111144693Y-72876548D02*
X111382788Y-72876548D01*
X111382788Y-72876548D02*
X111478026Y-72938453D01*
X111478026Y-72938453D02*
X111525645Y-73000358D01*
X111525645Y-73000358D02*
X111573264Y-73124167D01*
X111573264Y-73124167D02*
X111573264Y-73433691D01*
X111573264Y-73433691D02*
X111525645Y-73557501D01*
X111525645Y-73557501D02*
X111478026Y-73619406D01*
X111478026Y-73619406D02*
X111382788Y-73681310D01*
X111382788Y-73681310D02*
X111144693Y-73681310D01*
X111144693Y-73681310D02*
X111049455Y-73619406D01*
X111049455Y-73619406D02*
X111001836Y-73557501D01*
X99811360Y-75774237D02*
X99811360Y-75093285D01*
X99811360Y-75093285D02*
X99763741Y-74969475D01*
X99763741Y-74969475D02*
X99668503Y-74907571D01*
X99668503Y-74907571D02*
X99478027Y-74907571D01*
X99478027Y-74907571D02*
X99382789Y-74969475D01*
X99811360Y-75712333D02*
X99716122Y-75774237D01*
X99716122Y-75774237D02*
X99478027Y-75774237D01*
X99478027Y-75774237D02*
X99382789Y-75712333D01*
X99382789Y-75712333D02*
X99335170Y-75588523D01*
X99335170Y-75588523D02*
X99335170Y-75464713D01*
X99335170Y-75464713D02*
X99382789Y-75340904D01*
X99382789Y-75340904D02*
X99478027Y-75278999D01*
X99478027Y-75278999D02*
X99716122Y-75278999D01*
X99716122Y-75278999D02*
X99811360Y-75217094D01*
X100192313Y-74907571D02*
X100430408Y-75774237D01*
X100430408Y-75774237D02*
X100668503Y-74907571D01*
X101430408Y-75712333D02*
X101335170Y-75774237D01*
X101335170Y-75774237D02*
X101144694Y-75774237D01*
X101144694Y-75774237D02*
X101049456Y-75712333D01*
X101049456Y-75712333D02*
X101001837Y-75588523D01*
X101001837Y-75588523D02*
X101001837Y-75093285D01*
X101001837Y-75093285D02*
X101049456Y-74969475D01*
X101049456Y-74969475D02*
X101144694Y-74907571D01*
X101144694Y-74907571D02*
X101335170Y-74907571D01*
X101335170Y-74907571D02*
X101430408Y-74969475D01*
X101430408Y-74969475D02*
X101478027Y-75093285D01*
X101478027Y-75093285D02*
X101478027Y-75217094D01*
X101478027Y-75217094D02*
X101001837Y-75340904D01*
X102335170Y-75712333D02*
X102239932Y-75774237D01*
X102239932Y-75774237D02*
X102049456Y-75774237D01*
X102049456Y-75774237D02*
X101954218Y-75712333D01*
X101954218Y-75712333D02*
X101906599Y-75650428D01*
X101906599Y-75650428D02*
X101858980Y-75526618D01*
X101858980Y-75526618D02*
X101858980Y-75155190D01*
X101858980Y-75155190D02*
X101906599Y-75031380D01*
X101906599Y-75031380D02*
X101954218Y-74969475D01*
X101954218Y-74969475D02*
X102049456Y-74907571D01*
X102049456Y-74907571D02*
X102239932Y-74907571D01*
X102239932Y-74907571D02*
X102335170Y-74969475D01*
X103954218Y-75774237D02*
X103954218Y-75093285D01*
X103954218Y-75093285D02*
X103906599Y-74969475D01*
X103906599Y-74969475D02*
X103811361Y-74907571D01*
X103811361Y-74907571D02*
X103620885Y-74907571D01*
X103620885Y-74907571D02*
X103525647Y-74969475D01*
X103954218Y-75712333D02*
X103858980Y-75774237D01*
X103858980Y-75774237D02*
X103620885Y-75774237D01*
X103620885Y-75774237D02*
X103525647Y-75712333D01*
X103525647Y-75712333D02*
X103478028Y-75588523D01*
X103478028Y-75588523D02*
X103478028Y-75464713D01*
X103478028Y-75464713D02*
X103525647Y-75340904D01*
X103525647Y-75340904D02*
X103620885Y-75278999D01*
X103620885Y-75278999D02*
X103858980Y-75278999D01*
X103858980Y-75278999D02*
X103954218Y-75217094D01*
X104430409Y-74907571D02*
X104430409Y-75774237D01*
X104430409Y-75031380D02*
X104478028Y-74969475D01*
X104478028Y-74969475D02*
X104573266Y-74907571D01*
X104573266Y-74907571D02*
X104716123Y-74907571D01*
X104716123Y-74907571D02*
X104811361Y-74969475D01*
X104811361Y-74969475D02*
X104858980Y-75093285D01*
X104858980Y-75093285D02*
X104858980Y-75774237D01*
X105192314Y-74907571D02*
X105573266Y-74907571D01*
X105335171Y-74474237D02*
X105335171Y-75588523D01*
X105335171Y-75588523D02*
X105382790Y-75712333D01*
X105382790Y-75712333D02*
X105478028Y-75774237D01*
X105478028Y-75774237D02*
X105573266Y-75774237D01*
X106287552Y-75712333D02*
X106192314Y-75774237D01*
X106192314Y-75774237D02*
X106001838Y-75774237D01*
X106001838Y-75774237D02*
X105906600Y-75712333D01*
X105906600Y-75712333D02*
X105858981Y-75588523D01*
X105858981Y-75588523D02*
X105858981Y-75093285D01*
X105858981Y-75093285D02*
X105906600Y-74969475D01*
X105906600Y-74969475D02*
X106001838Y-74907571D01*
X106001838Y-74907571D02*
X106192314Y-74907571D01*
X106192314Y-74907571D02*
X106287552Y-74969475D01*
X106287552Y-74969475D02*
X106335171Y-75093285D01*
X106335171Y-75093285D02*
X106335171Y-75217094D01*
X106335171Y-75217094D02*
X105858981Y-75340904D01*
X106763743Y-74907571D02*
X106763743Y-75774237D01*
X106763743Y-75031380D02*
X106811362Y-74969475D01*
X106811362Y-74969475D02*
X106906600Y-74907571D01*
X106906600Y-74907571D02*
X107049457Y-74907571D01*
X107049457Y-74907571D02*
X107144695Y-74969475D01*
X107144695Y-74969475D02*
X107192314Y-75093285D01*
X107192314Y-75093285D02*
X107192314Y-75774237D01*
X107668505Y-74907571D02*
X107668505Y-75774237D01*
X107668505Y-75031380D02*
X107716124Y-74969475D01*
X107716124Y-74969475D02*
X107811362Y-74907571D01*
X107811362Y-74907571D02*
X107954219Y-74907571D01*
X107954219Y-74907571D02*
X108049457Y-74969475D01*
X108049457Y-74969475D02*
X108097076Y-75093285D01*
X108097076Y-75093285D02*
X108097076Y-75774237D01*
X108954219Y-75712333D02*
X108858981Y-75774237D01*
X108858981Y-75774237D02*
X108668505Y-75774237D01*
X108668505Y-75774237D02*
X108573267Y-75712333D01*
X108573267Y-75712333D02*
X108525648Y-75588523D01*
X108525648Y-75588523D02*
X108525648Y-75093285D01*
X108525648Y-75093285D02*
X108573267Y-74969475D01*
X108573267Y-74969475D02*
X108668505Y-74907571D01*
X108668505Y-74907571D02*
X108858981Y-74907571D01*
X108858981Y-74907571D02*
X108954219Y-74969475D01*
X108954219Y-74969475D02*
X109001838Y-75093285D01*
X109001838Y-75093285D02*
X109001838Y-75217094D01*
X109001838Y-75217094D02*
X108525648Y-75340904D01*
X99049455Y-77867164D02*
X99049455Y-76567164D01*
X99049455Y-77805260D02*
X98954217Y-77867164D01*
X98954217Y-77867164D02*
X98763741Y-77867164D01*
X98763741Y-77867164D02*
X98668503Y-77805260D01*
X98668503Y-77805260D02*
X98620884Y-77743355D01*
X98620884Y-77743355D02*
X98573265Y-77619545D01*
X98573265Y-77619545D02*
X98573265Y-77248117D01*
X98573265Y-77248117D02*
X98620884Y-77124307D01*
X98620884Y-77124307D02*
X98668503Y-77062402D01*
X98668503Y-77062402D02*
X98763741Y-77000498D01*
X98763741Y-77000498D02*
X98954217Y-77000498D01*
X98954217Y-77000498D02*
X99049455Y-77062402D01*
X99906598Y-77805260D02*
X99811360Y-77867164D01*
X99811360Y-77867164D02*
X99620884Y-77867164D01*
X99620884Y-77867164D02*
X99525646Y-77805260D01*
X99525646Y-77805260D02*
X99478027Y-77681450D01*
X99478027Y-77681450D02*
X99478027Y-77186212D01*
X99478027Y-77186212D02*
X99525646Y-77062402D01*
X99525646Y-77062402D02*
X99620884Y-77000498D01*
X99620884Y-77000498D02*
X99811360Y-77000498D01*
X99811360Y-77000498D02*
X99906598Y-77062402D01*
X99906598Y-77062402D02*
X99954217Y-77186212D01*
X99954217Y-77186212D02*
X99954217Y-77310021D01*
X99954217Y-77310021D02*
X99478027Y-77433831D01*
X101573265Y-77805260D02*
X101478027Y-77867164D01*
X101478027Y-77867164D02*
X101287551Y-77867164D01*
X101287551Y-77867164D02*
X101192313Y-77805260D01*
X101192313Y-77805260D02*
X101144694Y-77743355D01*
X101144694Y-77743355D02*
X101097075Y-77619545D01*
X101097075Y-77619545D02*
X101097075Y-77248117D01*
X101097075Y-77248117D02*
X101144694Y-77124307D01*
X101144694Y-77124307D02*
X101192313Y-77062402D01*
X101192313Y-77062402D02*
X101287551Y-77000498D01*
X101287551Y-77000498D02*
X101478027Y-77000498D01*
X101478027Y-77000498D02*
X101573265Y-77062402D01*
X102382789Y-77805260D02*
X102287551Y-77867164D01*
X102287551Y-77867164D02*
X102097075Y-77867164D01*
X102097075Y-77867164D02*
X102001837Y-77805260D01*
X102001837Y-77805260D02*
X101954218Y-77681450D01*
X101954218Y-77681450D02*
X101954218Y-77186212D01*
X101954218Y-77186212D02*
X102001837Y-77062402D01*
X102001837Y-77062402D02*
X102097075Y-77000498D01*
X102097075Y-77000498D02*
X102287551Y-77000498D01*
X102287551Y-77000498D02*
X102382789Y-77062402D01*
X102382789Y-77062402D02*
X102430408Y-77186212D01*
X102430408Y-77186212D02*
X102430408Y-77310021D01*
X102430408Y-77310021D02*
X101954218Y-77433831D01*
X104049456Y-77805260D02*
X103954218Y-77867164D01*
X103954218Y-77867164D02*
X103763742Y-77867164D01*
X103763742Y-77867164D02*
X103668504Y-77805260D01*
X103668504Y-77805260D02*
X103620885Y-77743355D01*
X103620885Y-77743355D02*
X103573266Y-77619545D01*
X103573266Y-77619545D02*
X103573266Y-77248117D01*
X103573266Y-77248117D02*
X103620885Y-77124307D01*
X103620885Y-77124307D02*
X103668504Y-77062402D01*
X103668504Y-77062402D02*
X103763742Y-77000498D01*
X103763742Y-77000498D02*
X103954218Y-77000498D01*
X103954218Y-77000498D02*
X104049456Y-77062402D01*
X104620885Y-77867164D02*
X104525647Y-77805260D01*
X104525647Y-77805260D02*
X104478028Y-77743355D01*
X104478028Y-77743355D02*
X104430409Y-77619545D01*
X104430409Y-77619545D02*
X104430409Y-77248117D01*
X104430409Y-77248117D02*
X104478028Y-77124307D01*
X104478028Y-77124307D02*
X104525647Y-77062402D01*
X104525647Y-77062402D02*
X104620885Y-77000498D01*
X104620885Y-77000498D02*
X104763742Y-77000498D01*
X104763742Y-77000498D02*
X104858980Y-77062402D01*
X104858980Y-77062402D02*
X104906599Y-77124307D01*
X104906599Y-77124307D02*
X104954218Y-77248117D01*
X104954218Y-77248117D02*
X104954218Y-77619545D01*
X104954218Y-77619545D02*
X104906599Y-77743355D01*
X104906599Y-77743355D02*
X104858980Y-77805260D01*
X104858980Y-77805260D02*
X104763742Y-77867164D01*
X104763742Y-77867164D02*
X104620885Y-77867164D01*
X104525647Y-76690974D02*
X104716123Y-76505260D01*
X104716123Y-76505260D02*
X104906599Y-76690974D01*
X105239933Y-77000498D02*
X105620885Y-77000498D01*
X105382790Y-76567164D02*
X105382790Y-77681450D01*
X105382790Y-77681450D02*
X105430409Y-77805260D01*
X105430409Y-77805260D02*
X105525647Y-77867164D01*
X105525647Y-77867164D02*
X105620885Y-77867164D01*
X106335171Y-77805260D02*
X106239933Y-77867164D01*
X106239933Y-77867164D02*
X106049457Y-77867164D01*
X106049457Y-77867164D02*
X105954219Y-77805260D01*
X105954219Y-77805260D02*
X105906600Y-77681450D01*
X105906600Y-77681450D02*
X105906600Y-77186212D01*
X105906600Y-77186212D02*
X105954219Y-77062402D01*
X105954219Y-77062402D02*
X106049457Y-77000498D01*
X106049457Y-77000498D02*
X106239933Y-77000498D01*
X106239933Y-77000498D02*
X106335171Y-77062402D01*
X106335171Y-77062402D02*
X106382790Y-77186212D01*
X106382790Y-77186212D02*
X106382790Y-77310021D01*
X106382790Y-77310021D02*
X105906600Y-77433831D01*
X106239933Y-76505260D02*
X106097076Y-76690974D01*
X97301000Y-74729460D02*
X97301000Y-74221460D01*
D13*
X101083816Y-127704591D02*
X101655244Y-127704591D01*
X101369530Y-128704591D02*
X101369530Y-127704591D01*
X102369530Y-128656972D02*
X102274292Y-128704591D01*
X102274292Y-128704591D02*
X102083816Y-128704591D01*
X102083816Y-128704591D02*
X101988578Y-128656972D01*
X101988578Y-128656972D02*
X101940959Y-128561733D01*
X101940959Y-128561733D02*
X101940959Y-128180781D01*
X101940959Y-128180781D02*
X101988578Y-128085543D01*
X101988578Y-128085543D02*
X102083816Y-128037924D01*
X102083816Y-128037924D02*
X102274292Y-128037924D01*
X102274292Y-128037924D02*
X102369530Y-128085543D01*
X102369530Y-128085543D02*
X102417149Y-128180781D01*
X102417149Y-128180781D02*
X102417149Y-128276019D01*
X102417149Y-128276019D02*
X101940959Y-128371257D01*
X102274292Y-127656972D02*
X102131435Y-127799829D01*
X102845721Y-128704591D02*
X102845721Y-128037924D01*
X102845721Y-128133162D02*
X102893340Y-128085543D01*
X102893340Y-128085543D02*
X102988578Y-128037924D01*
X102988578Y-128037924D02*
X103131435Y-128037924D01*
X103131435Y-128037924D02*
X103226673Y-128085543D01*
X103226673Y-128085543D02*
X103274292Y-128180781D01*
X103274292Y-128180781D02*
X103274292Y-128704591D01*
X103274292Y-128180781D02*
X103321911Y-128085543D01*
X103321911Y-128085543D02*
X103417149Y-128037924D01*
X103417149Y-128037924D02*
X103560006Y-128037924D01*
X103560006Y-128037924D02*
X103655245Y-128085543D01*
X103655245Y-128085543D02*
X103702864Y-128180781D01*
X103702864Y-128180781D02*
X103702864Y-128704591D01*
X104321911Y-128704591D02*
X104226673Y-128656972D01*
X104226673Y-128656972D02*
X104179054Y-128609352D01*
X104179054Y-128609352D02*
X104131435Y-128514114D01*
X104131435Y-128514114D02*
X104131435Y-128228400D01*
X104131435Y-128228400D02*
X104179054Y-128133162D01*
X104179054Y-128133162D02*
X104226673Y-128085543D01*
X104226673Y-128085543D02*
X104321911Y-128037924D01*
X104321911Y-128037924D02*
X104464768Y-128037924D01*
X104464768Y-128037924D02*
X104560006Y-128085543D01*
X104560006Y-128085543D02*
X104607625Y-128133162D01*
X104607625Y-128133162D02*
X104655244Y-128228400D01*
X104655244Y-128228400D02*
X104655244Y-128514114D01*
X104655244Y-128514114D02*
X104607625Y-128609352D01*
X104607625Y-128609352D02*
X104560006Y-128656972D01*
X104560006Y-128656972D02*
X104464768Y-128704591D01*
X104464768Y-128704591D02*
X104321911Y-128704591D01*
X105083816Y-128704591D02*
X105083816Y-128037924D01*
X105083816Y-127704591D02*
X105036197Y-127752210D01*
X105036197Y-127752210D02*
X105083816Y-127799829D01*
X105083816Y-127799829D02*
X105131435Y-127752210D01*
X105131435Y-127752210D02*
X105083816Y-127704591D01*
X105083816Y-127704591D02*
X105083816Y-127799829D01*
X105560006Y-128037924D02*
X105560006Y-128704591D01*
X105560006Y-128133162D02*
X105607625Y-128085543D01*
X105607625Y-128085543D02*
X105702863Y-128037924D01*
X105702863Y-128037924D02*
X105845720Y-128037924D01*
X105845720Y-128037924D02*
X105940958Y-128085543D01*
X105940958Y-128085543D02*
X105988577Y-128180781D01*
X105988577Y-128180781D02*
X105988577Y-128704591D01*
X101798101Y-131924479D02*
X101464768Y-131448288D01*
X101226673Y-131924479D02*
X101226673Y-130924479D01*
X101226673Y-130924479D02*
X101607625Y-130924479D01*
X101607625Y-130924479D02*
X101702863Y-130972098D01*
X101702863Y-130972098D02*
X101750482Y-131019717D01*
X101750482Y-131019717D02*
X101798101Y-131114955D01*
X101798101Y-131114955D02*
X101798101Y-131257812D01*
X101798101Y-131257812D02*
X101750482Y-131353050D01*
X101750482Y-131353050D02*
X101702863Y-131400669D01*
X101702863Y-131400669D02*
X101607625Y-131448288D01*
X101607625Y-131448288D02*
X101226673Y-131448288D01*
X102607625Y-131876860D02*
X102512387Y-131924479D01*
X102512387Y-131924479D02*
X102321911Y-131924479D01*
X102321911Y-131924479D02*
X102226673Y-131876860D01*
X102226673Y-131876860D02*
X102179054Y-131781621D01*
X102179054Y-131781621D02*
X102179054Y-131400669D01*
X102179054Y-131400669D02*
X102226673Y-131305431D01*
X102226673Y-131305431D02*
X102321911Y-131257812D01*
X102321911Y-131257812D02*
X102512387Y-131257812D01*
X102512387Y-131257812D02*
X102607625Y-131305431D01*
X102607625Y-131305431D02*
X102655244Y-131400669D01*
X102655244Y-131400669D02*
X102655244Y-131495907D01*
X102655244Y-131495907D02*
X102179054Y-131591145D01*
X103512387Y-131876860D02*
X103417149Y-131924479D01*
X103417149Y-131924479D02*
X103226673Y-131924479D01*
X103226673Y-131924479D02*
X103131435Y-131876860D01*
X103131435Y-131876860D02*
X103083816Y-131829240D01*
X103083816Y-131829240D02*
X103036197Y-131734002D01*
X103036197Y-131734002D02*
X103036197Y-131448288D01*
X103036197Y-131448288D02*
X103083816Y-131353050D01*
X103083816Y-131353050D02*
X103131435Y-131305431D01*
X103131435Y-131305431D02*
X103226673Y-131257812D01*
X103226673Y-131257812D02*
X103417149Y-131257812D01*
X103417149Y-131257812D02*
X103512387Y-131305431D01*
X103940959Y-131924479D02*
X103940959Y-130924479D01*
X104369530Y-131924479D02*
X104369530Y-131400669D01*
X104369530Y-131400669D02*
X104321911Y-131305431D01*
X104321911Y-131305431D02*
X104226673Y-131257812D01*
X104226673Y-131257812D02*
X104083816Y-131257812D01*
X104083816Y-131257812D02*
X103988578Y-131305431D01*
X103988578Y-131305431D02*
X103940959Y-131353050D01*
X105274292Y-131924479D02*
X105274292Y-131400669D01*
X105274292Y-131400669D02*
X105226673Y-131305431D01*
X105226673Y-131305431D02*
X105131435Y-131257812D01*
X105131435Y-131257812D02*
X104940959Y-131257812D01*
X104940959Y-131257812D02*
X104845721Y-131305431D01*
X105274292Y-131876860D02*
X105179054Y-131924479D01*
X105179054Y-131924479D02*
X104940959Y-131924479D01*
X104940959Y-131924479D02*
X104845721Y-131876860D01*
X104845721Y-131876860D02*
X104798102Y-131781621D01*
X104798102Y-131781621D02*
X104798102Y-131686383D01*
X104798102Y-131686383D02*
X104845721Y-131591145D01*
X104845721Y-131591145D02*
X104940959Y-131543526D01*
X104940959Y-131543526D02*
X105179054Y-131543526D01*
X105179054Y-131543526D02*
X105274292Y-131495907D01*
X105750483Y-131924479D02*
X105750483Y-131257812D01*
X105750483Y-131448288D02*
X105798102Y-131353050D01*
X105798102Y-131353050D02*
X105845721Y-131305431D01*
X105845721Y-131305431D02*
X105940959Y-131257812D01*
X105940959Y-131257812D02*
X106036197Y-131257812D01*
X106798102Y-131257812D02*
X106798102Y-132067336D01*
X106798102Y-132067336D02*
X106750483Y-132162574D01*
X106750483Y-132162574D02*
X106702864Y-132210193D01*
X106702864Y-132210193D02*
X106607626Y-132257812D01*
X106607626Y-132257812D02*
X106464769Y-132257812D01*
X106464769Y-132257812D02*
X106369531Y-132210193D01*
X106798102Y-131876860D02*
X106702864Y-131924479D01*
X106702864Y-131924479D02*
X106512388Y-131924479D01*
X106512388Y-131924479D02*
X106417150Y-131876860D01*
X106417150Y-131876860D02*
X106369531Y-131829240D01*
X106369531Y-131829240D02*
X106321912Y-131734002D01*
X106321912Y-131734002D02*
X106321912Y-131448288D01*
X106321912Y-131448288D02*
X106369531Y-131353050D01*
X106369531Y-131353050D02*
X106417150Y-131305431D01*
X106417150Y-131305431D02*
X106512388Y-131257812D01*
X106512388Y-131257812D02*
X106702864Y-131257812D01*
X106702864Y-131257812D02*
X106798102Y-131305431D01*
X107655245Y-131876860D02*
X107560007Y-131924479D01*
X107560007Y-131924479D02*
X107369531Y-131924479D01*
X107369531Y-131924479D02*
X107274293Y-131876860D01*
X107274293Y-131876860D02*
X107226674Y-131781621D01*
X107226674Y-131781621D02*
X107226674Y-131400669D01*
X107226674Y-131400669D02*
X107274293Y-131305431D01*
X107274293Y-131305431D02*
X107369531Y-131257812D01*
X107369531Y-131257812D02*
X107560007Y-131257812D01*
X107560007Y-131257812D02*
X107655245Y-131305431D01*
X107655245Y-131305431D02*
X107702864Y-131400669D01*
X107702864Y-131400669D02*
X107702864Y-131495907D01*
X107702864Y-131495907D02*
X107226674Y-131591145D01*
D11*
X94253000Y-74729460D02*
X97301000Y-74729460D01*
X92328750Y-81451279D02*
X92900178Y-81451279D01*
X92614464Y-82451279D02*
X92614464Y-81451279D01*
X93233512Y-82451279D02*
X93233512Y-81784612D01*
X93233512Y-81975088D02*
X93281131Y-81879850D01*
X93281131Y-81879850D02*
X93328750Y-81832231D01*
X93328750Y-81832231D02*
X93423988Y-81784612D01*
X93423988Y-81784612D02*
X93519226Y-81784612D01*
X93995417Y-82451279D02*
X93900179Y-82403660D01*
X93900179Y-82403660D02*
X93852560Y-82356040D01*
X93852560Y-82356040D02*
X93804941Y-82260802D01*
X93804941Y-82260802D02*
X93804941Y-81975088D01*
X93804941Y-81975088D02*
X93852560Y-81879850D01*
X93852560Y-81879850D02*
X93900179Y-81832231D01*
X93900179Y-81832231D02*
X93995417Y-81784612D01*
X93995417Y-81784612D02*
X94138274Y-81784612D01*
X94138274Y-81784612D02*
X94233512Y-81832231D01*
X94233512Y-81832231D02*
X94281131Y-81879850D01*
X94281131Y-81879850D02*
X94328750Y-81975088D01*
X94328750Y-81975088D02*
X94328750Y-82260802D01*
X94328750Y-82260802D02*
X94281131Y-82356040D01*
X94281131Y-82356040D02*
X94233512Y-82403660D01*
X94233512Y-82403660D02*
X94138274Y-82451279D01*
X94138274Y-82451279D02*
X93995417Y-82451279D01*
X95185893Y-81784612D02*
X95185893Y-82451279D01*
X94757322Y-81784612D02*
X94757322Y-82308421D01*
X94757322Y-82308421D02*
X94804941Y-82403660D01*
X94804941Y-82403660D02*
X94900179Y-82451279D01*
X94900179Y-82451279D02*
X95043036Y-82451279D01*
X95043036Y-82451279D02*
X95138274Y-82403660D01*
X95138274Y-82403660D02*
X95185893Y-82356040D01*
X96423989Y-81784612D02*
X96423989Y-82784612D01*
X96423989Y-81832231D02*
X96519227Y-81784612D01*
X96519227Y-81784612D02*
X96709703Y-81784612D01*
X96709703Y-81784612D02*
X96804941Y-81832231D01*
X96804941Y-81832231D02*
X96852560Y-81879850D01*
X96852560Y-81879850D02*
X96900179Y-81975088D01*
X96900179Y-81975088D02*
X96900179Y-82260802D01*
X96900179Y-82260802D02*
X96852560Y-82356040D01*
X96852560Y-82356040D02*
X96804941Y-82403660D01*
X96804941Y-82403660D02*
X96709703Y-82451279D01*
X96709703Y-82451279D02*
X96519227Y-82451279D01*
X96519227Y-82451279D02*
X96423989Y-82403660D01*
X97471608Y-82451279D02*
X97376370Y-82403660D01*
X97376370Y-82403660D02*
X97328751Y-82356040D01*
X97328751Y-82356040D02*
X97281132Y-82260802D01*
X97281132Y-82260802D02*
X97281132Y-81975088D01*
X97281132Y-81975088D02*
X97328751Y-81879850D01*
X97328751Y-81879850D02*
X97376370Y-81832231D01*
X97376370Y-81832231D02*
X97471608Y-81784612D01*
X97471608Y-81784612D02*
X97614465Y-81784612D01*
X97614465Y-81784612D02*
X97709703Y-81832231D01*
X97709703Y-81832231D02*
X97757322Y-81879850D01*
X97757322Y-81879850D02*
X97804941Y-81975088D01*
X97804941Y-81975088D02*
X97804941Y-82260802D01*
X97804941Y-82260802D02*
X97757322Y-82356040D01*
X97757322Y-82356040D02*
X97709703Y-82403660D01*
X97709703Y-82403660D02*
X97614465Y-82451279D01*
X97614465Y-82451279D02*
X97471608Y-82451279D01*
X98662084Y-81784612D02*
X98662084Y-82451279D01*
X98233513Y-81784612D02*
X98233513Y-82308421D01*
X98233513Y-82308421D02*
X98281132Y-82403660D01*
X98281132Y-82403660D02*
X98376370Y-82451279D01*
X98376370Y-82451279D02*
X98519227Y-82451279D01*
X98519227Y-82451279D02*
X98614465Y-82403660D01*
X98614465Y-82403660D02*
X98662084Y-82356040D01*
X99138275Y-82451279D02*
X99138275Y-81784612D01*
X99138275Y-81975088D02*
X99185894Y-81879850D01*
X99185894Y-81879850D02*
X99233513Y-81832231D01*
X99233513Y-81832231D02*
X99328751Y-81784612D01*
X99328751Y-81784612D02*
X99423989Y-81784612D01*
X100662085Y-82451279D02*
X100566847Y-82403660D01*
X100566847Y-82403660D02*
X100519228Y-82308421D01*
X100519228Y-82308421D02*
X100519228Y-81451279D01*
X101423990Y-82403660D02*
X101328752Y-82451279D01*
X101328752Y-82451279D02*
X101138276Y-82451279D01*
X101138276Y-82451279D02*
X101043038Y-82403660D01*
X101043038Y-82403660D02*
X100995419Y-82308421D01*
X100995419Y-82308421D02*
X100995419Y-81927469D01*
X100995419Y-81927469D02*
X101043038Y-81832231D01*
X101043038Y-81832231D02*
X101138276Y-81784612D01*
X101138276Y-81784612D02*
X101328752Y-81784612D01*
X101328752Y-81784612D02*
X101423990Y-81832231D01*
X101423990Y-81832231D02*
X101471609Y-81927469D01*
X101471609Y-81927469D02*
X101471609Y-82022707D01*
X101471609Y-82022707D02*
X100995419Y-82117945D01*
X101852562Y-82403660D02*
X101947800Y-82451279D01*
X101947800Y-82451279D02*
X102138276Y-82451279D01*
X102138276Y-82451279D02*
X102233514Y-82403660D01*
X102233514Y-82403660D02*
X102281133Y-82308421D01*
X102281133Y-82308421D02*
X102281133Y-82260802D01*
X102281133Y-82260802D02*
X102233514Y-82165564D01*
X102233514Y-82165564D02*
X102138276Y-82117945D01*
X102138276Y-82117945D02*
X101995419Y-82117945D01*
X101995419Y-82117945D02*
X101900181Y-82070326D01*
X101900181Y-82070326D02*
X101852562Y-81975088D01*
X101852562Y-81975088D02*
X101852562Y-81927469D01*
X101852562Y-81927469D02*
X101900181Y-81832231D01*
X101900181Y-81832231D02*
X101995419Y-81784612D01*
X101995419Y-81784612D02*
X102138276Y-81784612D01*
X102138276Y-81784612D02*
X102233514Y-81832231D01*
X103328753Y-81784612D02*
X103709705Y-81784612D01*
X103471610Y-82451279D02*
X103471610Y-81594136D01*
X103471610Y-81594136D02*
X103519229Y-81498898D01*
X103519229Y-81498898D02*
X103614467Y-81451279D01*
X103614467Y-81451279D02*
X103709705Y-81451279D01*
X104043039Y-82451279D02*
X104043039Y-81784612D01*
X104043039Y-81451279D02*
X103995420Y-81498898D01*
X103995420Y-81498898D02*
X104043039Y-81546517D01*
X104043039Y-81546517D02*
X104090658Y-81498898D01*
X104090658Y-81498898D02*
X104043039Y-81451279D01*
X104043039Y-81451279D02*
X104043039Y-81546517D01*
X104662086Y-82451279D02*
X104566848Y-82403660D01*
X104566848Y-82403660D02*
X104519229Y-82308421D01*
X104519229Y-82308421D02*
X104519229Y-81451279D01*
X104995420Y-82403660D02*
X105090658Y-82451279D01*
X105090658Y-82451279D02*
X105281134Y-82451279D01*
X105281134Y-82451279D02*
X105376372Y-82403660D01*
X105376372Y-82403660D02*
X105423991Y-82308421D01*
X105423991Y-82308421D02*
X105423991Y-82260802D01*
X105423991Y-82260802D02*
X105376372Y-82165564D01*
X105376372Y-82165564D02*
X105281134Y-82117945D01*
X105281134Y-82117945D02*
X105138277Y-82117945D01*
X105138277Y-82117945D02*
X105043039Y-82070326D01*
X105043039Y-82070326D02*
X104995420Y-81975088D01*
X104995420Y-81975088D02*
X104995420Y-81927469D01*
X104995420Y-81927469D02*
X105043039Y-81832231D01*
X105043039Y-81832231D02*
X105138277Y-81784612D01*
X105138277Y-81784612D02*
X105281134Y-81784612D01*
X105281134Y-81784612D02*
X105376372Y-81832231D01*
X107043039Y-82451279D02*
X107043039Y-81451279D01*
X107043039Y-82403660D02*
X106947801Y-82451279D01*
X106947801Y-82451279D02*
X106757325Y-82451279D01*
X106757325Y-82451279D02*
X106662087Y-82403660D01*
X106662087Y-82403660D02*
X106614468Y-82356040D01*
X106614468Y-82356040D02*
X106566849Y-82260802D01*
X106566849Y-82260802D02*
X106566849Y-81975088D01*
X106566849Y-81975088D02*
X106614468Y-81879850D01*
X106614468Y-81879850D02*
X106662087Y-81832231D01*
X106662087Y-81832231D02*
X106757325Y-81784612D01*
X106757325Y-81784612D02*
X106947801Y-81784612D01*
X106947801Y-81784612D02*
X107043039Y-81832231D01*
X107900182Y-82403660D02*
X107804944Y-82451279D01*
X107804944Y-82451279D02*
X107614468Y-82451279D01*
X107614468Y-82451279D02*
X107519230Y-82403660D01*
X107519230Y-82403660D02*
X107471611Y-82308421D01*
X107471611Y-82308421D02*
X107471611Y-81927469D01*
X107471611Y-81927469D02*
X107519230Y-81832231D01*
X107519230Y-81832231D02*
X107614468Y-81784612D01*
X107614468Y-81784612D02*
X107804944Y-81784612D01*
X107804944Y-81784612D02*
X107900182Y-81832231D01*
X107900182Y-81832231D02*
X107947801Y-81927469D01*
X107947801Y-81927469D02*
X107947801Y-82022707D01*
X107947801Y-82022707D02*
X107471611Y-82117945D01*
X109138278Y-82451279D02*
X109138278Y-81451279D01*
X109138278Y-81832231D02*
X109233516Y-81784612D01*
X109233516Y-81784612D02*
X109423992Y-81784612D01*
X109423992Y-81784612D02*
X109519230Y-81832231D01*
X109519230Y-81832231D02*
X109566849Y-81879850D01*
X109566849Y-81879850D02*
X109614468Y-81975088D01*
X109614468Y-81975088D02*
X109614468Y-82260802D01*
X109614468Y-82260802D02*
X109566849Y-82356040D01*
X109566849Y-82356040D02*
X109519230Y-82403660D01*
X109519230Y-82403660D02*
X109423992Y-82451279D01*
X109423992Y-82451279D02*
X109233516Y-82451279D01*
X109233516Y-82451279D02*
X109138278Y-82403660D01*
X110471611Y-82451279D02*
X110471611Y-81927469D01*
X110471611Y-81927469D02*
X110423992Y-81832231D01*
X110423992Y-81832231D02*
X110328754Y-81784612D01*
X110328754Y-81784612D02*
X110138278Y-81784612D01*
X110138278Y-81784612D02*
X110043040Y-81832231D01*
X110471611Y-82403660D02*
X110376373Y-82451279D01*
X110376373Y-82451279D02*
X110138278Y-82451279D01*
X110138278Y-82451279D02*
X110043040Y-82403660D01*
X110043040Y-82403660D02*
X109995421Y-82308421D01*
X109995421Y-82308421D02*
X109995421Y-82213183D01*
X109995421Y-82213183D02*
X110043040Y-82117945D01*
X110043040Y-82117945D02*
X110138278Y-82070326D01*
X110138278Y-82070326D02*
X110376373Y-82070326D01*
X110376373Y-82070326D02*
X110471611Y-82022707D01*
X110804945Y-81784612D02*
X111185897Y-81784612D01*
X110947802Y-81451279D02*
X110947802Y-82308421D01*
X110947802Y-82308421D02*
X110995421Y-82403660D01*
X110995421Y-82403660D02*
X111090659Y-82451279D01*
X111090659Y-82451279D02*
X111185897Y-82451279D01*
X111376374Y-81784612D02*
X111757326Y-81784612D01*
X111519231Y-81451279D02*
X111519231Y-82308421D01*
X111519231Y-82308421D02*
X111566850Y-82403660D01*
X111566850Y-82403660D02*
X111662088Y-82451279D01*
X111662088Y-82451279D02*
X111757326Y-82451279D01*
X112471612Y-82403660D02*
X112376374Y-82451279D01*
X112376374Y-82451279D02*
X112185898Y-82451279D01*
X112185898Y-82451279D02*
X112090660Y-82403660D01*
X112090660Y-82403660D02*
X112043041Y-82308421D01*
X112043041Y-82308421D02*
X112043041Y-81927469D01*
X112043041Y-81927469D02*
X112090660Y-81832231D01*
X112090660Y-81832231D02*
X112185898Y-81784612D01*
X112185898Y-81784612D02*
X112376374Y-81784612D01*
X112376374Y-81784612D02*
X112471612Y-81832231D01*
X112471612Y-81832231D02*
X112519231Y-81927469D01*
X112519231Y-81927469D02*
X112519231Y-82022707D01*
X112519231Y-82022707D02*
X112043041Y-82117945D01*
X112947803Y-82451279D02*
X112947803Y-81784612D01*
X112947803Y-81975088D02*
X112995422Y-81879850D01*
X112995422Y-81879850D02*
X113043041Y-81832231D01*
X113043041Y-81832231D02*
X113138279Y-81784612D01*
X113138279Y-81784612D02*
X113233517Y-81784612D01*
X113566851Y-82451279D02*
X113566851Y-81784612D01*
X113566851Y-81451279D02*
X113519232Y-81498898D01*
X113519232Y-81498898D02*
X113566851Y-81546517D01*
X113566851Y-81546517D02*
X113614470Y-81498898D01*
X113614470Y-81498898D02*
X113566851Y-81451279D01*
X113566851Y-81451279D02*
X113566851Y-81546517D01*
X114423993Y-82403660D02*
X114328755Y-82451279D01*
X114328755Y-82451279D02*
X114138279Y-82451279D01*
X114138279Y-82451279D02*
X114043041Y-82403660D01*
X114043041Y-82403660D02*
X113995422Y-82308421D01*
X113995422Y-82308421D02*
X113995422Y-81927469D01*
X113995422Y-81927469D02*
X114043041Y-81832231D01*
X114043041Y-81832231D02*
X114138279Y-81784612D01*
X114138279Y-81784612D02*
X114328755Y-81784612D01*
X114328755Y-81784612D02*
X114423993Y-81832231D01*
X114423993Y-81832231D02*
X114471612Y-81927469D01*
X114471612Y-81927469D02*
X114471612Y-82022707D01*
X114471612Y-82022707D02*
X113995422Y-82117945D01*
X119262733Y-77612820D02*
X115843000Y-81993860D01*
X119262733Y-77612820D02*
X119031845Y-78861656D01*
X119262733Y-77612820D02*
X118107315Y-78139990D01*
X115843000Y-81993860D02*
X115212089Y-81993860D01*
X100435000Y-126545460D02*
X96371000Y-126545460D01*
X98403000Y-124513460D01*
X100435000Y-126545460D01*
G36*
X100435000Y-126545460D02*
G01*
X96371000Y-126545460D01*
X98403000Y-124513460D01*
X100435000Y-126545460D01*
G37*
X97301000Y-75745460D02*
X97301000Y-75237460D01*
X94253000Y-75237460D02*
X94253000Y-74729460D01*
X93491000Y-71681460D02*
X89427000Y-71681460D01*
X91459000Y-69649460D01*
X93491000Y-71681460D01*
G36*
X93491000Y-71681460D02*
G01*
X89427000Y-71681460D01*
X91459000Y-69649460D01*
X93491000Y-71681460D01*
G37*
X97301000Y-75237460D02*
X94253000Y-75237460D01*
X92221000Y-79301460D02*
X90697000Y-79301460D01*
X90697000Y-71681460D01*
X92221000Y-71681460D01*
X92221000Y-79301460D01*
G36*
X92221000Y-79301460D02*
G01*
X90697000Y-79301460D01*
X90697000Y-71681460D01*
X92221000Y-71681460D01*
X92221000Y-79301460D01*
G37*
X133623000Y-126037460D02*
X144291000Y-126037460D01*
X144291000Y-127053460D01*
X132607000Y-127053460D01*
X132607000Y-121973460D01*
X133623000Y-121973460D01*
X133623000Y-126037460D01*
G36*
X133623000Y-126037460D02*
G01*
X144291000Y-126037460D01*
X144291000Y-127053460D01*
X132607000Y-127053460D01*
X132607000Y-121973460D01*
X133623000Y-121973460D01*
X133623000Y-126037460D01*
G37*
X95777000Y-77777460D02*
X95777000Y-76253460D01*
X97301000Y-74221460D02*
X95269000Y-74221460D01*
X134131000Y-121973460D02*
X132099000Y-121973460D01*
X133115000Y-120449460D01*
X134131000Y-121973460D01*
G36*
X134131000Y-121973460D02*
G01*
X132099000Y-121973460D01*
X133115000Y-120449460D01*
X134131000Y-121973460D01*
G37*
X95777000Y-76253460D02*
X94253000Y-76253460D01*
X94253000Y-75745460D02*
X97301000Y-75745460D01*
D12*
X90586453Y-134218372D02*
X90086453Y-133504086D01*
X89729310Y-134218372D02*
X89729310Y-132718372D01*
X89729310Y-132718372D02*
X90300739Y-132718372D01*
X90300739Y-132718372D02*
X90443596Y-132789801D01*
X90443596Y-132789801D02*
X90515025Y-132861229D01*
X90515025Y-132861229D02*
X90586453Y-133004086D01*
X90586453Y-133004086D02*
X90586453Y-133218372D01*
X90586453Y-133218372D02*
X90515025Y-133361229D01*
X90515025Y-133361229D02*
X90443596Y-133432658D01*
X90443596Y-133432658D02*
X90300739Y-133504086D01*
X90300739Y-133504086D02*
X89729310Y-133504086D01*
X91800739Y-134146944D02*
X91657882Y-134218372D01*
X91657882Y-134218372D02*
X91372168Y-134218372D01*
X91372168Y-134218372D02*
X91229310Y-134146944D01*
X91229310Y-134146944D02*
X91157882Y-134004086D01*
X91157882Y-134004086D02*
X91157882Y-133432658D01*
X91157882Y-133432658D02*
X91229310Y-133289801D01*
X91229310Y-133289801D02*
X91372168Y-133218372D01*
X91372168Y-133218372D02*
X91657882Y-133218372D01*
X91657882Y-133218372D02*
X91800739Y-133289801D01*
X91800739Y-133289801D02*
X91872168Y-133432658D01*
X91872168Y-133432658D02*
X91872168Y-133575515D01*
X91872168Y-133575515D02*
X91157882Y-133718372D01*
X93157882Y-134146944D02*
X93015024Y-134218372D01*
X93015024Y-134218372D02*
X92729310Y-134218372D01*
X92729310Y-134218372D02*
X92586453Y-134146944D01*
X92586453Y-134146944D02*
X92515024Y-134075515D01*
X92515024Y-134075515D02*
X92443596Y-133932658D01*
X92443596Y-133932658D02*
X92443596Y-133504086D01*
X92443596Y-133504086D02*
X92515024Y-133361229D01*
X92515024Y-133361229D02*
X92586453Y-133289801D01*
X92586453Y-133289801D02*
X92729310Y-133218372D01*
X92729310Y-133218372D02*
X93015024Y-133218372D01*
X93015024Y-133218372D02*
X93157882Y-133289801D01*
X93800738Y-134218372D02*
X93800738Y-132718372D01*
X94443596Y-134218372D02*
X94443596Y-133432658D01*
X94443596Y-133432658D02*
X94372167Y-133289801D01*
X94372167Y-133289801D02*
X94229310Y-133218372D01*
X94229310Y-133218372D02*
X94015024Y-133218372D01*
X94015024Y-133218372D02*
X93872167Y-133289801D01*
X93872167Y-133289801D02*
X93800738Y-133361229D01*
X95800739Y-134218372D02*
X95800739Y-133432658D01*
X95800739Y-133432658D02*
X95729310Y-133289801D01*
X95729310Y-133289801D02*
X95586453Y-133218372D01*
X95586453Y-133218372D02*
X95300739Y-133218372D01*
X95300739Y-133218372D02*
X95157881Y-133289801D01*
X95800739Y-134146944D02*
X95657881Y-134218372D01*
X95657881Y-134218372D02*
X95300739Y-134218372D01*
X95300739Y-134218372D02*
X95157881Y-134146944D01*
X95157881Y-134146944D02*
X95086453Y-134004086D01*
X95086453Y-134004086D02*
X95086453Y-133861229D01*
X95086453Y-133861229D02*
X95157881Y-133718372D01*
X95157881Y-133718372D02*
X95300739Y-133646944D01*
X95300739Y-133646944D02*
X95657881Y-133646944D01*
X95657881Y-133646944D02*
X95800739Y-133575515D01*
X96515024Y-134218372D02*
X96515024Y-133218372D01*
X96515024Y-133504086D02*
X96586453Y-133361229D01*
X96586453Y-133361229D02*
X96657882Y-133289801D01*
X96657882Y-133289801D02*
X96800739Y-133218372D01*
X96800739Y-133218372D02*
X96943596Y-133218372D01*
X98086453Y-133218372D02*
X98086453Y-134432658D01*
X98086453Y-134432658D02*
X98015024Y-134575515D01*
X98015024Y-134575515D02*
X97943595Y-134646944D01*
X97943595Y-134646944D02*
X97800738Y-134718372D01*
X97800738Y-134718372D02*
X97586453Y-134718372D01*
X97586453Y-134718372D02*
X97443595Y-134646944D01*
X98086453Y-134146944D02*
X97943595Y-134218372D01*
X97943595Y-134218372D02*
X97657881Y-134218372D01*
X97657881Y-134218372D02*
X97515024Y-134146944D01*
X97515024Y-134146944D02*
X97443595Y-134075515D01*
X97443595Y-134075515D02*
X97372167Y-133932658D01*
X97372167Y-133932658D02*
X97372167Y-133504086D01*
X97372167Y-133504086D02*
X97443595Y-133361229D01*
X97443595Y-133361229D02*
X97515024Y-133289801D01*
X97515024Y-133289801D02*
X97657881Y-133218372D01*
X97657881Y-133218372D02*
X97943595Y-133218372D01*
X97943595Y-133218372D02*
X98086453Y-133289801D01*
X99372167Y-134146944D02*
X99229310Y-134218372D01*
X99229310Y-134218372D02*
X98943596Y-134218372D01*
X98943596Y-134218372D02*
X98800738Y-134146944D01*
X98800738Y-134146944D02*
X98729310Y-134004086D01*
X98729310Y-134004086D02*
X98729310Y-133432658D01*
X98729310Y-133432658D02*
X98800738Y-133289801D01*
X98800738Y-133289801D02*
X98943596Y-133218372D01*
X98943596Y-133218372D02*
X99229310Y-133218372D01*
X99229310Y-133218372D02*
X99372167Y-133289801D01*
X99372167Y-133289801D02*
X99443596Y-133432658D01*
X99443596Y-133432658D02*
X99443596Y-133575515D01*
X99443596Y-133575515D02*
X98729310Y-133718372D01*
X90229310Y-135847574D02*
X90443596Y-135919002D01*
X90443596Y-135919002D02*
X90515025Y-135990431D01*
X90515025Y-135990431D02*
X90586453Y-136133288D01*
X90586453Y-136133288D02*
X90586453Y-136347574D01*
X90586453Y-136347574D02*
X90515025Y-136490431D01*
X90515025Y-136490431D02*
X90443596Y-136561860D01*
X90443596Y-136561860D02*
X90300739Y-136633288D01*
X90300739Y-136633288D02*
X89729310Y-136633288D01*
X89729310Y-136633288D02*
X89729310Y-135133288D01*
X89729310Y-135133288D02*
X90229310Y-135133288D01*
X90229310Y-135133288D02*
X90372168Y-135204717D01*
X90372168Y-135204717D02*
X90443596Y-135276145D01*
X90443596Y-135276145D02*
X90515025Y-135419002D01*
X90515025Y-135419002D02*
X90515025Y-135561860D01*
X90515025Y-135561860D02*
X90443596Y-135704717D01*
X90443596Y-135704717D02*
X90372168Y-135776145D01*
X90372168Y-135776145D02*
X90229310Y-135847574D01*
X90229310Y-135847574D02*
X89729310Y-135847574D01*
X91872168Y-136633288D02*
X91872168Y-135847574D01*
X91872168Y-135847574D02*
X91800739Y-135704717D01*
X91800739Y-135704717D02*
X91657882Y-135633288D01*
X91657882Y-135633288D02*
X91372168Y-135633288D01*
X91372168Y-135633288D02*
X91229310Y-135704717D01*
X91872168Y-136561860D02*
X91729310Y-136633288D01*
X91729310Y-136633288D02*
X91372168Y-136633288D01*
X91372168Y-136633288D02*
X91229310Y-136561860D01*
X91229310Y-136561860D02*
X91157882Y-136419002D01*
X91157882Y-136419002D02*
X91157882Y-136276145D01*
X91157882Y-136276145D02*
X91229310Y-136133288D01*
X91229310Y-136133288D02*
X91372168Y-136061860D01*
X91372168Y-136061860D02*
X91729310Y-136061860D01*
X91729310Y-136061860D02*
X91872168Y-135990431D01*
X92372168Y-135633288D02*
X92943596Y-135633288D01*
X92586453Y-135133288D02*
X92586453Y-136419002D01*
X92586453Y-136419002D02*
X92657882Y-136561860D01*
X92657882Y-136561860D02*
X92800739Y-136633288D01*
X92800739Y-136633288D02*
X92943596Y-136633288D01*
X93229311Y-135633288D02*
X93800739Y-135633288D01*
X93443596Y-135133288D02*
X93443596Y-136419002D01*
X93443596Y-136419002D02*
X93515025Y-136561860D01*
X93515025Y-136561860D02*
X93657882Y-136633288D01*
X93657882Y-136633288D02*
X93800739Y-136633288D01*
X94872168Y-136561860D02*
X94729311Y-136633288D01*
X94729311Y-136633288D02*
X94443597Y-136633288D01*
X94443597Y-136633288D02*
X94300739Y-136561860D01*
X94300739Y-136561860D02*
X94229311Y-136419002D01*
X94229311Y-136419002D02*
X94229311Y-135847574D01*
X94229311Y-135847574D02*
X94300739Y-135704717D01*
X94300739Y-135704717D02*
X94443597Y-135633288D01*
X94443597Y-135633288D02*
X94729311Y-135633288D01*
X94729311Y-135633288D02*
X94872168Y-135704717D01*
X94872168Y-135704717D02*
X94943597Y-135847574D01*
X94943597Y-135847574D02*
X94943597Y-135990431D01*
X94943597Y-135990431D02*
X94229311Y-136133288D01*
X95586453Y-136633288D02*
X95586453Y-135633288D01*
X95586453Y-135919002D02*
X95657882Y-135776145D01*
X95657882Y-135776145D02*
X95729311Y-135704717D01*
X95729311Y-135704717D02*
X95872168Y-135633288D01*
X95872168Y-135633288D02*
X96015025Y-135633288D01*
X96515024Y-136633288D02*
X96515024Y-135633288D01*
X96515024Y-135133288D02*
X96443596Y-135204717D01*
X96443596Y-135204717D02*
X96515024Y-135276145D01*
X96515024Y-135276145D02*
X96586453Y-135204717D01*
X96586453Y-135204717D02*
X96515024Y-135133288D01*
X96515024Y-135133288D02*
X96515024Y-135276145D01*
X97800739Y-136561860D02*
X97657882Y-136633288D01*
X97657882Y-136633288D02*
X97372168Y-136633288D01*
X97372168Y-136633288D02*
X97229310Y-136561860D01*
X97229310Y-136561860D02*
X97157882Y-136419002D01*
X97157882Y-136419002D02*
X97157882Y-135847574D01*
X97157882Y-135847574D02*
X97229310Y-135704717D01*
X97229310Y-135704717D02*
X97372168Y-135633288D01*
X97372168Y-135633288D02*
X97657882Y-135633288D01*
X97657882Y-135633288D02*
X97800739Y-135704717D01*
X97800739Y-135704717D02*
X97872168Y-135847574D01*
X97872168Y-135847574D02*
X97872168Y-135990431D01*
X97872168Y-135990431D02*
X97157882Y-136133288D01*
D11*
X98911000Y-132285860D02*
X89505000Y-132285860D01*
X89505000Y-131142860D01*
X97895000Y-131142860D01*
X97895000Y-126545460D01*
X98911000Y-126545460D01*
X98911000Y-132285860D01*
G36*
X98911000Y-132285860D02*
G01*
X89505000Y-132285860D01*
X89505000Y-131142860D01*
X97895000Y-131142860D01*
X97895000Y-126545460D01*
X98911000Y-126545460D01*
X98911000Y-132285860D01*
G37*
X107791200Y-130584060D02*
X100933200Y-130558660D01*
X100933200Y-129542660D01*
X106775200Y-129568060D01*
X106775200Y-126012060D01*
X107791200Y-126012060D01*
X107791200Y-130584060D01*
G36*
X107791200Y-130584060D02*
G01*
X100933200Y-130558660D01*
X100933200Y-129542660D01*
X106775200Y-129568060D01*
X106775200Y-126012060D01*
X107791200Y-126012060D01*
X107791200Y-130584060D01*
G37*
X94253000Y-76253460D02*
X94253000Y-75745460D01*
D13*
X134500673Y-125224791D02*
X134500673Y-124224791D01*
X134500673Y-124224791D02*
X134834006Y-124939076D01*
X134834006Y-124939076D02*
X135167339Y-124224791D01*
X135167339Y-124224791D02*
X135167339Y-125224791D01*
X135643530Y-125224791D02*
X135643530Y-124558124D01*
X135643530Y-124224791D02*
X135595911Y-124272410D01*
X135595911Y-124272410D02*
X135643530Y-124320029D01*
X135643530Y-124320029D02*
X135691149Y-124272410D01*
X135691149Y-124272410D02*
X135643530Y-124224791D01*
X135643530Y-124224791D02*
X135643530Y-124320029D01*
X136548291Y-125177172D02*
X136453053Y-125224791D01*
X136453053Y-125224791D02*
X136262577Y-125224791D01*
X136262577Y-125224791D02*
X136167339Y-125177172D01*
X136167339Y-125177172D02*
X136119720Y-125129552D01*
X136119720Y-125129552D02*
X136072101Y-125034314D01*
X136072101Y-125034314D02*
X136072101Y-124748600D01*
X136072101Y-124748600D02*
X136119720Y-124653362D01*
X136119720Y-124653362D02*
X136167339Y-124605743D01*
X136167339Y-124605743D02*
X136262577Y-124558124D01*
X136262577Y-124558124D02*
X136453053Y-124558124D01*
X136453053Y-124558124D02*
X136548291Y-124605743D01*
X136976863Y-125224791D02*
X136976863Y-124558124D01*
X136976863Y-124748600D02*
X137024482Y-124653362D01*
X137024482Y-124653362D02*
X137072101Y-124605743D01*
X137072101Y-124605743D02*
X137167339Y-124558124D01*
X137167339Y-124558124D02*
X137262577Y-124558124D01*
X137738768Y-125224791D02*
X137643530Y-125177172D01*
X137643530Y-125177172D02*
X137595911Y-125129552D01*
X137595911Y-125129552D02*
X137548292Y-125034314D01*
X137548292Y-125034314D02*
X137548292Y-124748600D01*
X137548292Y-124748600D02*
X137595911Y-124653362D01*
X137595911Y-124653362D02*
X137643530Y-124605743D01*
X137643530Y-124605743D02*
X137738768Y-124558124D01*
X137738768Y-124558124D02*
X137881625Y-124558124D01*
X137881625Y-124558124D02*
X137976863Y-124605743D01*
X137976863Y-124605743D02*
X138024482Y-124653362D01*
X138024482Y-124653362D02*
X138072101Y-124748600D01*
X138072101Y-124748600D02*
X138072101Y-125034314D01*
X138072101Y-125034314D02*
X138024482Y-125129552D01*
X138024482Y-125129552D02*
X137976863Y-125177172D01*
X137976863Y-125177172D02*
X137881625Y-125224791D01*
X137881625Y-125224791D02*
X137738768Y-125224791D01*
X138500673Y-124843838D02*
X139262578Y-124843838D01*
X139738768Y-124224791D02*
X139738768Y-125034314D01*
X139738768Y-125034314D02*
X139786387Y-125129552D01*
X139786387Y-125129552D02*
X139834006Y-125177172D01*
X139834006Y-125177172D02*
X139929244Y-125224791D01*
X139929244Y-125224791D02*
X140119720Y-125224791D01*
X140119720Y-125224791D02*
X140214958Y-125177172D01*
X140214958Y-125177172D02*
X140262577Y-125129552D01*
X140262577Y-125129552D02*
X140310196Y-125034314D01*
X140310196Y-125034314D02*
X140310196Y-124224791D01*
X140738768Y-125177172D02*
X140881625Y-125224791D01*
X140881625Y-125224791D02*
X141119720Y-125224791D01*
X141119720Y-125224791D02*
X141214958Y-125177172D01*
X141214958Y-125177172D02*
X141262577Y-125129552D01*
X141262577Y-125129552D02*
X141310196Y-125034314D01*
X141310196Y-125034314D02*
X141310196Y-124939076D01*
X141310196Y-124939076D02*
X141262577Y-124843838D01*
X141262577Y-124843838D02*
X141214958Y-124796219D01*
X141214958Y-124796219D02*
X141119720Y-124748600D01*
X141119720Y-124748600D02*
X140929244Y-124700981D01*
X140929244Y-124700981D02*
X140834006Y-124653362D01*
X140834006Y-124653362D02*
X140786387Y-124605743D01*
X140786387Y-124605743D02*
X140738768Y-124510505D01*
X140738768Y-124510505D02*
X140738768Y-124415267D01*
X140738768Y-124415267D02*
X140786387Y-124320029D01*
X140786387Y-124320029D02*
X140834006Y-124272410D01*
X140834006Y-124272410D02*
X140929244Y-124224791D01*
X140929244Y-124224791D02*
X141167339Y-124224791D01*
X141167339Y-124224791D02*
X141310196Y-124272410D01*
X142072101Y-124700981D02*
X142214958Y-124748600D01*
X142214958Y-124748600D02*
X142262577Y-124796219D01*
X142262577Y-124796219D02*
X142310196Y-124891457D01*
X142310196Y-124891457D02*
X142310196Y-125034314D01*
X142310196Y-125034314D02*
X142262577Y-125129552D01*
X142262577Y-125129552D02*
X142214958Y-125177172D01*
X142214958Y-125177172D02*
X142119720Y-125224791D01*
X142119720Y-125224791D02*
X141738768Y-125224791D01*
X141738768Y-125224791D02*
X141738768Y-124224791D01*
X141738768Y-124224791D02*
X142072101Y-124224791D01*
X142072101Y-124224791D02*
X142167339Y-124272410D01*
X142167339Y-124272410D02*
X142214958Y-124320029D01*
X142214958Y-124320029D02*
X142262577Y-124415267D01*
X142262577Y-124415267D02*
X142262577Y-124510505D01*
X142262577Y-124510505D02*
X142214958Y-124605743D01*
X142214958Y-124605743D02*
X142167339Y-124653362D01*
X142167339Y-124653362D02*
X142072101Y-124700981D01*
X142072101Y-124700981D02*
X141738768Y-124700981D01*
X134500673Y-128444679D02*
X134500673Y-127444679D01*
X134500673Y-127444679D02*
X134881625Y-127444679D01*
X134881625Y-127444679D02*
X134976863Y-127492298D01*
X134976863Y-127492298D02*
X135024482Y-127539917D01*
X135024482Y-127539917D02*
X135072101Y-127635155D01*
X135072101Y-127635155D02*
X135072101Y-127778012D01*
X135072101Y-127778012D02*
X135024482Y-127873250D01*
X135024482Y-127873250D02*
X134976863Y-127920869D01*
X134976863Y-127920869D02*
X134881625Y-127968488D01*
X134881625Y-127968488D02*
X134500673Y-127968488D01*
X135500673Y-128444679D02*
X135500673Y-127778012D01*
X135500673Y-127968488D02*
X135548292Y-127873250D01*
X135548292Y-127873250D02*
X135595911Y-127825631D01*
X135595911Y-127825631D02*
X135691149Y-127778012D01*
X135691149Y-127778012D02*
X135786387Y-127778012D01*
X136262578Y-128444679D02*
X136167340Y-128397060D01*
X136167340Y-128397060D02*
X136119721Y-128349440D01*
X136119721Y-128349440D02*
X136072102Y-128254202D01*
X136072102Y-128254202D02*
X136072102Y-127968488D01*
X136072102Y-127968488D02*
X136119721Y-127873250D01*
X136119721Y-127873250D02*
X136167340Y-127825631D01*
X136167340Y-127825631D02*
X136262578Y-127778012D01*
X136262578Y-127778012D02*
X136405435Y-127778012D01*
X136405435Y-127778012D02*
X136500673Y-127825631D01*
X136500673Y-127825631D02*
X136548292Y-127873250D01*
X136548292Y-127873250D02*
X136595911Y-127968488D01*
X136595911Y-127968488D02*
X136595911Y-128254202D01*
X136595911Y-128254202D02*
X136548292Y-128349440D01*
X136548292Y-128349440D02*
X136500673Y-128397060D01*
X136500673Y-128397060D02*
X136405435Y-128444679D01*
X136405435Y-128444679D02*
X136262578Y-128444679D01*
X137453054Y-127778012D02*
X137453054Y-128587536D01*
X137453054Y-128587536D02*
X137405435Y-128682774D01*
X137405435Y-128682774D02*
X137357816Y-128730393D01*
X137357816Y-128730393D02*
X137262578Y-128778012D01*
X137262578Y-128778012D02*
X137119721Y-128778012D01*
X137119721Y-128778012D02*
X137024483Y-128730393D01*
X137453054Y-128397060D02*
X137357816Y-128444679D01*
X137357816Y-128444679D02*
X137167340Y-128444679D01*
X137167340Y-128444679D02*
X137072102Y-128397060D01*
X137072102Y-128397060D02*
X137024483Y-128349440D01*
X137024483Y-128349440D02*
X136976864Y-128254202D01*
X136976864Y-128254202D02*
X136976864Y-127968488D01*
X136976864Y-127968488D02*
X137024483Y-127873250D01*
X137024483Y-127873250D02*
X137072102Y-127825631D01*
X137072102Y-127825631D02*
X137167340Y-127778012D01*
X137167340Y-127778012D02*
X137357816Y-127778012D01*
X137357816Y-127778012D02*
X137453054Y-127825631D01*
X137929245Y-128444679D02*
X137929245Y-127778012D01*
X137929245Y-127968488D02*
X137976864Y-127873250D01*
X137976864Y-127873250D02*
X138024483Y-127825631D01*
X138024483Y-127825631D02*
X138119721Y-127778012D01*
X138119721Y-127778012D02*
X138214959Y-127778012D01*
X138976864Y-128444679D02*
X138976864Y-127920869D01*
X138976864Y-127920869D02*
X138929245Y-127825631D01*
X138929245Y-127825631D02*
X138834007Y-127778012D01*
X138834007Y-127778012D02*
X138643531Y-127778012D01*
X138643531Y-127778012D02*
X138548293Y-127825631D01*
X138976864Y-128397060D02*
X138881626Y-128444679D01*
X138881626Y-128444679D02*
X138643531Y-128444679D01*
X138643531Y-128444679D02*
X138548293Y-128397060D01*
X138548293Y-128397060D02*
X138500674Y-128301821D01*
X138500674Y-128301821D02*
X138500674Y-128206583D01*
X138500674Y-128206583D02*
X138548293Y-128111345D01*
X138548293Y-128111345D02*
X138643531Y-128063726D01*
X138643531Y-128063726D02*
X138881626Y-128063726D01*
X138881626Y-128063726D02*
X138976864Y-128016107D01*
X139453055Y-128444679D02*
X139453055Y-127778012D01*
X139453055Y-127873250D02*
X139500674Y-127825631D01*
X139500674Y-127825631D02*
X139595912Y-127778012D01*
X139595912Y-127778012D02*
X139738769Y-127778012D01*
X139738769Y-127778012D02*
X139834007Y-127825631D01*
X139834007Y-127825631D02*
X139881626Y-127920869D01*
X139881626Y-127920869D02*
X139881626Y-128444679D01*
X139881626Y-127920869D02*
X139929245Y-127825631D01*
X139929245Y-127825631D02*
X140024483Y-127778012D01*
X140024483Y-127778012D02*
X140167340Y-127778012D01*
X140167340Y-127778012D02*
X140262579Y-127825631D01*
X140262579Y-127825631D02*
X140310198Y-127920869D01*
X140310198Y-127920869D02*
X140310198Y-128444679D01*
X140786388Y-128444679D02*
X140786388Y-127778012D01*
X140786388Y-127873250D02*
X140834007Y-127825631D01*
X140834007Y-127825631D02*
X140929245Y-127778012D01*
X140929245Y-127778012D02*
X141072102Y-127778012D01*
X141072102Y-127778012D02*
X141167340Y-127825631D01*
X141167340Y-127825631D02*
X141214959Y-127920869D01*
X141214959Y-127920869D02*
X141214959Y-128444679D01*
X141214959Y-127920869D02*
X141262578Y-127825631D01*
X141262578Y-127825631D02*
X141357816Y-127778012D01*
X141357816Y-127778012D02*
X141500673Y-127778012D01*
X141500673Y-127778012D02*
X141595912Y-127825631D01*
X141595912Y-127825631D02*
X141643531Y-127920869D01*
X141643531Y-127920869D02*
X141643531Y-128444679D01*
X142548292Y-128444679D02*
X142548292Y-127920869D01*
X142548292Y-127920869D02*
X142500673Y-127825631D01*
X142500673Y-127825631D02*
X142405435Y-127778012D01*
X142405435Y-127778012D02*
X142214959Y-127778012D01*
X142214959Y-127778012D02*
X142119721Y-127825631D01*
X142548292Y-128397060D02*
X142453054Y-128444679D01*
X142453054Y-128444679D02*
X142214959Y-128444679D01*
X142214959Y-128444679D02*
X142119721Y-128397060D01*
X142119721Y-128397060D02*
X142072102Y-128301821D01*
X142072102Y-128301821D02*
X142072102Y-128206583D01*
X142072102Y-128206583D02*
X142119721Y-128111345D01*
X142119721Y-128111345D02*
X142214959Y-128063726D01*
X142214959Y-128063726D02*
X142453054Y-128063726D01*
X142453054Y-128063726D02*
X142548292Y-128016107D01*
X142881626Y-127778012D02*
X143262578Y-127778012D01*
X143024483Y-127444679D02*
X143024483Y-128301821D01*
X143024483Y-128301821D02*
X143072102Y-128397060D01*
X143072102Y-128397060D02*
X143167340Y-128444679D01*
X143167340Y-128444679D02*
X143262578Y-128444679D01*
X143595912Y-128444679D02*
X143595912Y-127778012D01*
X143595912Y-127444679D02*
X143548293Y-127492298D01*
X143548293Y-127492298D02*
X143595912Y-127539917D01*
X143595912Y-127539917D02*
X143643531Y-127492298D01*
X143643531Y-127492298D02*
X143595912Y-127444679D01*
X143595912Y-127444679D02*
X143595912Y-127539917D01*
X144214959Y-128444679D02*
X144119721Y-128397060D01*
X144119721Y-128397060D02*
X144072102Y-128349440D01*
X144072102Y-128349440D02*
X144024483Y-128254202D01*
X144024483Y-128254202D02*
X144024483Y-127968488D01*
X144024483Y-127968488D02*
X144072102Y-127873250D01*
X144072102Y-127873250D02*
X144119721Y-127825631D01*
X144119721Y-127825631D02*
X144214959Y-127778012D01*
X144214959Y-127778012D02*
X144357816Y-127778012D01*
X144357816Y-127778012D02*
X144453054Y-127825631D01*
X144453054Y-127825631D02*
X144500673Y-127873250D01*
X144500673Y-127873250D02*
X144548292Y-127968488D01*
X144548292Y-127968488D02*
X144548292Y-128254202D01*
X144548292Y-128254202D02*
X144500673Y-128349440D01*
X144500673Y-128349440D02*
X144453054Y-128397060D01*
X144453054Y-128397060D02*
X144357816Y-128444679D01*
X144357816Y-128444679D02*
X144214959Y-128444679D01*
X144976864Y-127778012D02*
X144976864Y-128444679D01*
X144976864Y-127873250D02*
X145024483Y-127825631D01*
X145024483Y-127825631D02*
X145119721Y-127778012D01*
X145119721Y-127778012D02*
X145262578Y-127778012D01*
X145262578Y-127778012D02*
X145357816Y-127825631D01*
X145357816Y-127825631D02*
X145405435Y-127920869D01*
X145405435Y-127920869D02*
X145405435Y-128444679D01*
D14*
X108754255Y-57748700D02*
X108754255Y-56998700D01*
X109111398Y-56998700D02*
X109111398Y-57605843D01*
X109111398Y-57605843D02*
X109147112Y-57677271D01*
X109147112Y-57677271D02*
X109182827Y-57712986D01*
X109182827Y-57712986D02*
X109254255Y-57748700D01*
X109254255Y-57748700D02*
X109397112Y-57748700D01*
X109397112Y-57748700D02*
X109468541Y-57712986D01*
X109468541Y-57712986D02*
X109504255Y-57677271D01*
X109504255Y-57677271D02*
X109539969Y-57605843D01*
X109539969Y-57605843D02*
X109539969Y-56998700D01*
X109789969Y-56998700D02*
X110218541Y-56998700D01*
X110004255Y-57748700D02*
X110004255Y-56998700D01*
X111432827Y-57748700D02*
X111004256Y-57748700D01*
X111218541Y-57748700D02*
X111218541Y-56998700D01*
X111218541Y-56998700D02*
X111147113Y-57105843D01*
X111147113Y-57105843D02*
X111075684Y-57177271D01*
X111075684Y-57177271D02*
X111004256Y-57212986D01*
X112325685Y-57462986D02*
X112897114Y-57462986D01*
X114218542Y-57034414D02*
X114147114Y-56998700D01*
X114147114Y-56998700D02*
X114039971Y-56998700D01*
X114039971Y-56998700D02*
X113932828Y-57034414D01*
X113932828Y-57034414D02*
X113861399Y-57105843D01*
X113861399Y-57105843D02*
X113825685Y-57177271D01*
X113825685Y-57177271D02*
X113789971Y-57320128D01*
X113789971Y-57320128D02*
X113789971Y-57427271D01*
X113789971Y-57427271D02*
X113825685Y-57570128D01*
X113825685Y-57570128D02*
X113861399Y-57641557D01*
X113861399Y-57641557D02*
X113932828Y-57712986D01*
X113932828Y-57712986D02*
X114039971Y-57748700D01*
X114039971Y-57748700D02*
X114111399Y-57748700D01*
X114111399Y-57748700D02*
X114218542Y-57712986D01*
X114218542Y-57712986D02*
X114254256Y-57677271D01*
X114254256Y-57677271D02*
X114254256Y-57427271D01*
X114254256Y-57427271D02*
X114111399Y-57427271D01*
X114575685Y-57748700D02*
X114575685Y-57248700D01*
X114575685Y-57391557D02*
X114611399Y-57320128D01*
X114611399Y-57320128D02*
X114647114Y-57284414D01*
X114647114Y-57284414D02*
X114718542Y-57248700D01*
X114718542Y-57248700D02*
X114789971Y-57248700D01*
X115325685Y-57712986D02*
X115254257Y-57748700D01*
X115254257Y-57748700D02*
X115111400Y-57748700D01*
X115111400Y-57748700D02*
X115039971Y-57712986D01*
X115039971Y-57712986D02*
X115004257Y-57641557D01*
X115004257Y-57641557D02*
X115004257Y-57355843D01*
X115004257Y-57355843D02*
X115039971Y-57284414D01*
X115039971Y-57284414D02*
X115111400Y-57248700D01*
X115111400Y-57248700D02*
X115254257Y-57248700D01*
X115254257Y-57248700D02*
X115325685Y-57284414D01*
X115325685Y-57284414D02*
X115361400Y-57355843D01*
X115361400Y-57355843D02*
X115361400Y-57427271D01*
X115361400Y-57427271D02*
X115004257Y-57498700D01*
X115682828Y-57248700D02*
X115682828Y-57748700D01*
X115682828Y-57320128D02*
X115718542Y-57284414D01*
X115718542Y-57284414D02*
X115789971Y-57248700D01*
X115789971Y-57248700D02*
X115897114Y-57248700D01*
X115897114Y-57248700D02*
X115968542Y-57284414D01*
X115968542Y-57284414D02*
X116004257Y-57355843D01*
X116004257Y-57355843D02*
X116004257Y-57748700D01*
X116468542Y-57748700D02*
X116397113Y-57712986D01*
X116397113Y-57712986D02*
X116361399Y-57677271D01*
X116361399Y-57677271D02*
X116325685Y-57605843D01*
X116325685Y-57605843D02*
X116325685Y-57391557D01*
X116325685Y-57391557D02*
X116361399Y-57320128D01*
X116361399Y-57320128D02*
X116397113Y-57284414D01*
X116397113Y-57284414D02*
X116468542Y-57248700D01*
X116468542Y-57248700D02*
X116575685Y-57248700D01*
X116575685Y-57248700D02*
X116647113Y-57284414D01*
X116647113Y-57284414D02*
X116682828Y-57320128D01*
X116682828Y-57320128D02*
X116718542Y-57391557D01*
X116718542Y-57391557D02*
X116718542Y-57605843D01*
X116718542Y-57605843D02*
X116682828Y-57677271D01*
X116682828Y-57677271D02*
X116647113Y-57712986D01*
X116647113Y-57712986D02*
X116575685Y-57748700D01*
X116575685Y-57748700D02*
X116468542Y-57748700D01*
X117039970Y-57748700D02*
X117039970Y-56998700D01*
X117039970Y-57284414D02*
X117111399Y-57248700D01*
X117111399Y-57248700D02*
X117254256Y-57248700D01*
X117254256Y-57248700D02*
X117325684Y-57284414D01*
X117325684Y-57284414D02*
X117361399Y-57320128D01*
X117361399Y-57320128D02*
X117397113Y-57391557D01*
X117397113Y-57391557D02*
X117397113Y-57605843D01*
X117397113Y-57605843D02*
X117361399Y-57677271D01*
X117361399Y-57677271D02*
X117325684Y-57712986D01*
X117325684Y-57712986D02*
X117254256Y-57748700D01*
X117254256Y-57748700D02*
X117111399Y-57748700D01*
X117111399Y-57748700D02*
X117039970Y-57712986D01*
X117825684Y-57748700D02*
X117754255Y-57712986D01*
X117754255Y-57712986D02*
X117718541Y-57641557D01*
X117718541Y-57641557D02*
X117718541Y-56998700D01*
X118397112Y-57712986D02*
X118325684Y-57748700D01*
X118325684Y-57748700D02*
X118182827Y-57748700D01*
X118182827Y-57748700D02*
X118111398Y-57712986D01*
X118111398Y-57712986D02*
X118075684Y-57641557D01*
X118075684Y-57641557D02*
X118075684Y-57355843D01*
X118075684Y-57355843D02*
X118111398Y-57284414D01*
X118111398Y-57284414D02*
X118182827Y-57248700D01*
X118182827Y-57248700D02*
X118325684Y-57248700D01*
X118325684Y-57248700D02*
X118397112Y-57284414D01*
X118397112Y-57284414D02*
X118432827Y-57355843D01*
X118432827Y-57355843D02*
X118432827Y-57427271D01*
X118432827Y-57427271D02*
X118075684Y-57498700D01*
X108718541Y-58920444D02*
X108825684Y-58956158D01*
X108825684Y-58956158D02*
X109004255Y-58956158D01*
X109004255Y-58956158D02*
X109075684Y-58920444D01*
X109075684Y-58920444D02*
X109111398Y-58884729D01*
X109111398Y-58884729D02*
X109147112Y-58813301D01*
X109147112Y-58813301D02*
X109147112Y-58741872D01*
X109147112Y-58741872D02*
X109111398Y-58670444D01*
X109111398Y-58670444D02*
X109075684Y-58634729D01*
X109075684Y-58634729D02*
X109004255Y-58599015D01*
X109004255Y-58599015D02*
X108861398Y-58563301D01*
X108861398Y-58563301D02*
X108789969Y-58527586D01*
X108789969Y-58527586D02*
X108754255Y-58491872D01*
X108754255Y-58491872D02*
X108718541Y-58420444D01*
X108718541Y-58420444D02*
X108718541Y-58349015D01*
X108718541Y-58349015D02*
X108754255Y-58277586D01*
X108754255Y-58277586D02*
X108789969Y-58241872D01*
X108789969Y-58241872D02*
X108861398Y-58206158D01*
X108861398Y-58206158D02*
X109039969Y-58206158D01*
X109039969Y-58206158D02*
X109147112Y-58241872D01*
X109789970Y-58456158D02*
X109789970Y-58956158D01*
X109468541Y-58456158D02*
X109468541Y-58849015D01*
X109468541Y-58849015D02*
X109504255Y-58920444D01*
X109504255Y-58920444D02*
X109575684Y-58956158D01*
X109575684Y-58956158D02*
X109682827Y-58956158D01*
X109682827Y-58956158D02*
X109754255Y-58920444D01*
X109754255Y-58920444D02*
X109789970Y-58884729D01*
X110147112Y-58956158D02*
X110147112Y-58456158D01*
X110147112Y-58206158D02*
X110111398Y-58241872D01*
X110111398Y-58241872D02*
X110147112Y-58277586D01*
X110147112Y-58277586D02*
X110182826Y-58241872D01*
X110182826Y-58241872D02*
X110147112Y-58206158D01*
X110147112Y-58206158D02*
X110147112Y-58277586D01*
X110432826Y-58456158D02*
X110611398Y-58956158D01*
X110611398Y-58956158D02*
X110789969Y-58456158D01*
X111075684Y-58956158D02*
X111075684Y-58456158D01*
X111075684Y-58206158D02*
X111039970Y-58241872D01*
X111039970Y-58241872D02*
X111075684Y-58277586D01*
X111075684Y-58277586D02*
X111111398Y-58241872D01*
X111111398Y-58241872D02*
X111075684Y-58206158D01*
X111075684Y-58206158D02*
X111075684Y-58277586D01*
X111432827Y-58956158D02*
X111432827Y-58206158D01*
X111432827Y-58206158D02*
X111611398Y-58206158D01*
X111611398Y-58206158D02*
X111718541Y-58241872D01*
X111718541Y-58241872D02*
X111789970Y-58313301D01*
X111789970Y-58313301D02*
X111825684Y-58384729D01*
X111825684Y-58384729D02*
X111861398Y-58527586D01*
X111861398Y-58527586D02*
X111861398Y-58634729D01*
X111861398Y-58634729D02*
X111825684Y-58777586D01*
X111825684Y-58777586D02*
X111789970Y-58849015D01*
X111789970Y-58849015D02*
X111718541Y-58920444D01*
X111718541Y-58920444D02*
X111611398Y-58956158D01*
X111611398Y-58956158D02*
X111432827Y-58956158D01*
X112468541Y-58920444D02*
X112397113Y-58956158D01*
X112397113Y-58956158D02*
X112254256Y-58956158D01*
X112254256Y-58956158D02*
X112182827Y-58920444D01*
X112182827Y-58920444D02*
X112147113Y-58849015D01*
X112147113Y-58849015D02*
X112147113Y-58563301D01*
X112147113Y-58563301D02*
X112182827Y-58491872D01*
X112182827Y-58491872D02*
X112254256Y-58456158D01*
X112254256Y-58456158D02*
X112397113Y-58456158D01*
X112397113Y-58456158D02*
X112468541Y-58491872D01*
X112468541Y-58491872D02*
X112504256Y-58563301D01*
X112504256Y-58563301D02*
X112504256Y-58634729D01*
X112504256Y-58634729D02*
X112147113Y-58706158D01*
X112825684Y-58956158D02*
X112825684Y-58206158D01*
X112825684Y-58206158D02*
X113111398Y-58206158D01*
X113111398Y-58206158D02*
X113182827Y-58241872D01*
X113182827Y-58241872D02*
X113218541Y-58277586D01*
X113218541Y-58277586D02*
X113254255Y-58349015D01*
X113254255Y-58349015D02*
X113254255Y-58456158D01*
X113254255Y-58456158D02*
X113218541Y-58527586D01*
X113218541Y-58527586D02*
X113182827Y-58563301D01*
X113182827Y-58563301D02*
X113111398Y-58599015D01*
X113111398Y-58599015D02*
X112825684Y-58599015D01*
X113682827Y-58956158D02*
X113611398Y-58920444D01*
X113611398Y-58920444D02*
X113575684Y-58884729D01*
X113575684Y-58884729D02*
X113539970Y-58813301D01*
X113539970Y-58813301D02*
X113539970Y-58599015D01*
X113539970Y-58599015D02*
X113575684Y-58527586D01*
X113575684Y-58527586D02*
X113611398Y-58491872D01*
X113611398Y-58491872D02*
X113682827Y-58456158D01*
X113682827Y-58456158D02*
X113789970Y-58456158D01*
X113789970Y-58456158D02*
X113861398Y-58491872D01*
X113861398Y-58491872D02*
X113897113Y-58527586D01*
X113897113Y-58527586D02*
X113932827Y-58599015D01*
X113932827Y-58599015D02*
X113932827Y-58813301D01*
X113932827Y-58813301D02*
X113897113Y-58884729D01*
X113897113Y-58884729D02*
X113861398Y-58920444D01*
X113861398Y-58920444D02*
X113789970Y-58956158D01*
X113789970Y-58956158D02*
X113682827Y-58956158D01*
X114218541Y-58920444D02*
X114289969Y-58956158D01*
X114289969Y-58956158D02*
X114432826Y-58956158D01*
X114432826Y-58956158D02*
X114504255Y-58920444D01*
X114504255Y-58920444D02*
X114539969Y-58849015D01*
X114539969Y-58849015D02*
X114539969Y-58813301D01*
X114539969Y-58813301D02*
X114504255Y-58741872D01*
X114504255Y-58741872D02*
X114432826Y-58706158D01*
X114432826Y-58706158D02*
X114325684Y-58706158D01*
X114325684Y-58706158D02*
X114254255Y-58670444D01*
X114254255Y-58670444D02*
X114218541Y-58599015D01*
X114218541Y-58599015D02*
X114218541Y-58563301D01*
X114218541Y-58563301D02*
X114254255Y-58491872D01*
X114254255Y-58491872D02*
X114325684Y-58456158D01*
X114325684Y-58456158D02*
X114432826Y-58456158D01*
X114432826Y-58456158D02*
X114504255Y-58491872D01*
X114754255Y-58456158D02*
X115039969Y-58456158D01*
X114861398Y-58206158D02*
X114861398Y-58849015D01*
X114861398Y-58849015D02*
X114897112Y-58920444D01*
X114897112Y-58920444D02*
X114968541Y-58956158D01*
X114968541Y-58956158D02*
X115039969Y-58956158D01*
X115611398Y-58456158D02*
X115611398Y-58956158D01*
X115289969Y-58456158D02*
X115289969Y-58849015D01*
X115289969Y-58849015D02*
X115325683Y-58920444D01*
X115325683Y-58920444D02*
X115397112Y-58956158D01*
X115397112Y-58956158D02*
X115504255Y-58956158D01*
X115504255Y-58956158D02*
X115575683Y-58920444D01*
X115575683Y-58920444D02*
X115611398Y-58884729D01*
X115968540Y-58956158D02*
X115968540Y-58456158D01*
X115968540Y-58599015D02*
X116004254Y-58527586D01*
X116004254Y-58527586D02*
X116039969Y-58491872D01*
X116039969Y-58491872D02*
X116111397Y-58456158D01*
X116111397Y-58456158D02*
X116182826Y-58456158D01*
X116718540Y-58920444D02*
X116647112Y-58956158D01*
X116647112Y-58956158D02*
X116504255Y-58956158D01*
X116504255Y-58956158D02*
X116432826Y-58920444D01*
X116432826Y-58920444D02*
X116397112Y-58849015D01*
X116397112Y-58849015D02*
X116397112Y-58563301D01*
X116397112Y-58563301D02*
X116432826Y-58491872D01*
X116432826Y-58491872D02*
X116504255Y-58456158D01*
X116504255Y-58456158D02*
X116647112Y-58456158D01*
X116647112Y-58456158D02*
X116718540Y-58491872D01*
X116718540Y-58491872D02*
X116754255Y-58563301D01*
X116754255Y-58563301D02*
X116754255Y-58634729D01*
X116754255Y-58634729D02*
X116397112Y-58706158D01*
X117647112Y-58456158D02*
X117647112Y-58956158D01*
X117647112Y-58527586D02*
X117682826Y-58491872D01*
X117682826Y-58491872D02*
X117754255Y-58456158D01*
X117754255Y-58456158D02*
X117861398Y-58456158D01*
X117861398Y-58456158D02*
X117932826Y-58491872D01*
X117932826Y-58491872D02*
X117968541Y-58563301D01*
X117968541Y-58563301D02*
X117968541Y-58956158D01*
X118432826Y-58206158D02*
X118361397Y-58241872D01*
X118361397Y-58241872D02*
X118325683Y-58313301D01*
X118325683Y-58313301D02*
X118361397Y-58384729D01*
X118361397Y-58384729D02*
X118432826Y-58420444D01*
X118432826Y-58420444D02*
X118504254Y-58384729D01*
X118504254Y-58384729D02*
X118539969Y-58313301D01*
X118539969Y-58313301D02*
X118504254Y-58241872D01*
X118504254Y-58241872D02*
X118432826Y-58206158D01*
X119039969Y-58206158D02*
X119111398Y-58206158D01*
X119111398Y-58206158D02*
X119182826Y-58241872D01*
X119182826Y-58241872D02*
X119218541Y-58277586D01*
X119218541Y-58277586D02*
X119254255Y-58349015D01*
X119254255Y-58349015D02*
X119289969Y-58491872D01*
X119289969Y-58491872D02*
X119289969Y-58670444D01*
X119289969Y-58670444D02*
X119254255Y-58813301D01*
X119254255Y-58813301D02*
X119218541Y-58884729D01*
X119218541Y-58884729D02*
X119182826Y-58920444D01*
X119182826Y-58920444D02*
X119111398Y-58956158D01*
X119111398Y-58956158D02*
X119039969Y-58956158D01*
X119039969Y-58956158D02*
X118968541Y-58920444D01*
X118968541Y-58920444D02*
X118932826Y-58884729D01*
X118932826Y-58884729D02*
X118897112Y-58813301D01*
X118897112Y-58813301D02*
X118861398Y-58670444D01*
X118861398Y-58670444D02*
X118861398Y-58491872D01*
X118861398Y-58491872D02*
X118897112Y-58349015D01*
X118897112Y-58349015D02*
X118932826Y-58277586D01*
X118932826Y-58277586D02*
X118968541Y-58241872D01*
X118968541Y-58241872D02*
X119039969Y-58206158D01*
X119754255Y-58206158D02*
X119825684Y-58206158D01*
X119825684Y-58206158D02*
X119897112Y-58241872D01*
X119897112Y-58241872D02*
X119932827Y-58277586D01*
X119932827Y-58277586D02*
X119968541Y-58349015D01*
X119968541Y-58349015D02*
X120004255Y-58491872D01*
X120004255Y-58491872D02*
X120004255Y-58670444D01*
X120004255Y-58670444D02*
X119968541Y-58813301D01*
X119968541Y-58813301D02*
X119932827Y-58884729D01*
X119932827Y-58884729D02*
X119897112Y-58920444D01*
X119897112Y-58920444D02*
X119825684Y-58956158D01*
X119825684Y-58956158D02*
X119754255Y-58956158D01*
X119754255Y-58956158D02*
X119682827Y-58920444D01*
X119682827Y-58920444D02*
X119647112Y-58884729D01*
X119647112Y-58884729D02*
X119611398Y-58813301D01*
X119611398Y-58813301D02*
X119575684Y-58670444D01*
X119575684Y-58670444D02*
X119575684Y-58491872D01*
X119575684Y-58491872D02*
X119611398Y-58349015D01*
X119611398Y-58349015D02*
X119647112Y-58277586D01*
X119647112Y-58277586D02*
X119682827Y-58241872D01*
X119682827Y-58241872D02*
X119754255Y-58206158D01*
X120289970Y-58277586D02*
X120325684Y-58241872D01*
X120325684Y-58241872D02*
X120397113Y-58206158D01*
X120397113Y-58206158D02*
X120575684Y-58206158D01*
X120575684Y-58206158D02*
X120647113Y-58241872D01*
X120647113Y-58241872D02*
X120682827Y-58277586D01*
X120682827Y-58277586D02*
X120718541Y-58349015D01*
X120718541Y-58349015D02*
X120718541Y-58420444D01*
X120718541Y-58420444D02*
X120682827Y-58527586D01*
X120682827Y-58527586D02*
X120254255Y-58956158D01*
X120254255Y-58956158D02*
X120718541Y-58956158D01*
X109111398Y-60163616D02*
X108754255Y-60163616D01*
X108754255Y-60163616D02*
X108754255Y-59413616D01*
X109468541Y-60163616D02*
X109397112Y-60127902D01*
X109397112Y-60127902D02*
X109361398Y-60092187D01*
X109361398Y-60092187D02*
X109325684Y-60020759D01*
X109325684Y-60020759D02*
X109325684Y-59806473D01*
X109325684Y-59806473D02*
X109361398Y-59735044D01*
X109361398Y-59735044D02*
X109397112Y-59699330D01*
X109397112Y-59699330D02*
X109468541Y-59663616D01*
X109468541Y-59663616D02*
X109575684Y-59663616D01*
X109575684Y-59663616D02*
X109647112Y-59699330D01*
X109647112Y-59699330D02*
X109682827Y-59735044D01*
X109682827Y-59735044D02*
X109718541Y-59806473D01*
X109718541Y-59806473D02*
X109718541Y-60020759D01*
X109718541Y-60020759D02*
X109682827Y-60092187D01*
X109682827Y-60092187D02*
X109647112Y-60127902D01*
X109647112Y-60127902D02*
X109575684Y-60163616D01*
X109575684Y-60163616D02*
X109468541Y-60163616D01*
X110361398Y-59663616D02*
X110361398Y-60163616D01*
X110039969Y-59663616D02*
X110039969Y-60056473D01*
X110039969Y-60056473D02*
X110075683Y-60127902D01*
X110075683Y-60127902D02*
X110147112Y-60163616D01*
X110147112Y-60163616D02*
X110254255Y-60163616D01*
X110254255Y-60163616D02*
X110325683Y-60127902D01*
X110325683Y-60127902D02*
X110361398Y-60092187D01*
X110718540Y-59663616D02*
X110718540Y-60163616D01*
X110718540Y-59735044D02*
X110754254Y-59699330D01*
X110754254Y-59699330D02*
X110825683Y-59663616D01*
X110825683Y-59663616D02*
X110932826Y-59663616D01*
X110932826Y-59663616D02*
X111004254Y-59699330D01*
X111004254Y-59699330D02*
X111039969Y-59770759D01*
X111039969Y-59770759D02*
X111039969Y-60163616D01*
X111682825Y-60127902D02*
X111611397Y-60163616D01*
X111611397Y-60163616D02*
X111468540Y-60163616D01*
X111468540Y-60163616D02*
X111397111Y-60127902D01*
X111397111Y-60127902D02*
X111361397Y-60056473D01*
X111361397Y-60056473D02*
X111361397Y-59770759D01*
X111361397Y-59770759D02*
X111397111Y-59699330D01*
X111397111Y-59699330D02*
X111468540Y-59663616D01*
X111468540Y-59663616D02*
X111611397Y-59663616D01*
X111611397Y-59663616D02*
X111682825Y-59699330D01*
X111682825Y-59699330D02*
X111718540Y-59770759D01*
X111718540Y-59770759D02*
X111718540Y-59842187D01*
X111718540Y-59842187D02*
X111361397Y-59913616D01*
X111468540Y-59377902D02*
X111575682Y-59485044D01*
X112004254Y-60127902D02*
X112075682Y-60163616D01*
X112075682Y-60163616D02*
X112218539Y-60163616D01*
X112218539Y-60163616D02*
X112289968Y-60127902D01*
X112289968Y-60127902D02*
X112325682Y-60056473D01*
X112325682Y-60056473D02*
X112325682Y-60020759D01*
X112325682Y-60020759D02*
X112289968Y-59949330D01*
X112289968Y-59949330D02*
X112218539Y-59913616D01*
X112218539Y-59913616D02*
X112111397Y-59913616D01*
X112111397Y-59913616D02*
X112039968Y-59877902D01*
X112039968Y-59877902D02*
X112004254Y-59806473D01*
X112004254Y-59806473D02*
X112004254Y-59770759D01*
X112004254Y-59770759D02*
X112039968Y-59699330D01*
X112039968Y-59699330D02*
X112111397Y-59663616D01*
X112111397Y-59663616D02*
X112218539Y-59663616D01*
X112218539Y-59663616D02*
X112289968Y-59699330D01*
X113218540Y-60163616D02*
X113218540Y-59413616D01*
X113218540Y-59413616D02*
X113397111Y-59413616D01*
X113397111Y-59413616D02*
X113504254Y-59449330D01*
X113504254Y-59449330D02*
X113575683Y-59520759D01*
X113575683Y-59520759D02*
X113611397Y-59592187D01*
X113611397Y-59592187D02*
X113647111Y-59735044D01*
X113647111Y-59735044D02*
X113647111Y-59842187D01*
X113647111Y-59842187D02*
X113611397Y-59985044D01*
X113611397Y-59985044D02*
X113575683Y-60056473D01*
X113575683Y-60056473D02*
X113504254Y-60127902D01*
X113504254Y-60127902D02*
X113397111Y-60163616D01*
X113397111Y-60163616D02*
X113218540Y-60163616D01*
X113968540Y-59413616D02*
X113968540Y-60020759D01*
X113968540Y-60020759D02*
X114004254Y-60092187D01*
X114004254Y-60092187D02*
X114039969Y-60127902D01*
X114039969Y-60127902D02*
X114111397Y-60163616D01*
X114111397Y-60163616D02*
X114254254Y-60163616D01*
X114254254Y-60163616D02*
X114325683Y-60127902D01*
X114325683Y-60127902D02*
X114361397Y-60092187D01*
X114361397Y-60092187D02*
X114397111Y-60020759D01*
X114397111Y-60020759D02*
X114397111Y-59413616D01*
X114754254Y-60163616D02*
X114754254Y-59413616D01*
X114754254Y-59413616D02*
X115039968Y-59413616D01*
X115039968Y-59413616D02*
X115111397Y-59449330D01*
X115111397Y-59449330D02*
X115147111Y-59485044D01*
X115147111Y-59485044D02*
X115182825Y-59556473D01*
X115182825Y-59556473D02*
X115182825Y-59663616D01*
X115182825Y-59663616D02*
X115147111Y-59735044D01*
X115147111Y-59735044D02*
X115111397Y-59770759D01*
X115111397Y-59770759D02*
X115039968Y-59806473D01*
X115039968Y-59806473D02*
X114754254Y-59806473D01*
X115504254Y-59413616D02*
X115504254Y-60020759D01*
X115504254Y-60020759D02*
X115539968Y-60092187D01*
X115539968Y-60092187D02*
X115575683Y-60127902D01*
X115575683Y-60127902D02*
X115647111Y-60163616D01*
X115647111Y-60163616D02*
X115789968Y-60163616D01*
X115789968Y-60163616D02*
X115861397Y-60127902D01*
X115861397Y-60127902D02*
X115897111Y-60092187D01*
X115897111Y-60092187D02*
X115932825Y-60020759D01*
X115932825Y-60020759D02*
X115932825Y-59413616D01*
X116289968Y-60163616D02*
X116289968Y-59413616D01*
X116611397Y-60127902D02*
X116718540Y-60163616D01*
X116718540Y-60163616D02*
X116897111Y-60163616D01*
X116897111Y-60163616D02*
X116968540Y-60127902D01*
X116968540Y-60127902D02*
X117004254Y-60092187D01*
X117004254Y-60092187D02*
X117039968Y-60020759D01*
X117039968Y-60020759D02*
X117039968Y-59949330D01*
X117039968Y-59949330D02*
X117004254Y-59877902D01*
X117004254Y-59877902D02*
X116968540Y-59842187D01*
X116968540Y-59842187D02*
X116897111Y-59806473D01*
X116897111Y-59806473D02*
X116754254Y-59770759D01*
X116754254Y-59770759D02*
X116682825Y-59735044D01*
X116682825Y-59735044D02*
X116647111Y-59699330D01*
X116647111Y-59699330D02*
X116611397Y-59627902D01*
X116611397Y-59627902D02*
X116611397Y-59556473D01*
X116611397Y-59556473D02*
X116647111Y-59485044D01*
X116647111Y-59485044D02*
X116682825Y-59449330D01*
X116682825Y-59449330D02*
X116754254Y-59413616D01*
X116754254Y-59413616D02*
X116932825Y-59413616D01*
X116932825Y-59413616D02*
X117039968Y-59449330D01*
X117361397Y-59877902D02*
X117932826Y-59877902D01*
X118289968Y-60163616D02*
X118289968Y-59413616D01*
X118289968Y-59413616D02*
X118468539Y-59413616D01*
X118468539Y-59413616D02*
X118575682Y-59449330D01*
X118575682Y-59449330D02*
X118647111Y-59520759D01*
X118647111Y-59520759D02*
X118682825Y-59592187D01*
X118682825Y-59592187D02*
X118718539Y-59735044D01*
X118718539Y-59735044D02*
X118718539Y-59842187D01*
X118718539Y-59842187D02*
X118682825Y-59985044D01*
X118682825Y-59985044D02*
X118647111Y-60056473D01*
X118647111Y-60056473D02*
X118575682Y-60127902D01*
X118575682Y-60127902D02*
X118468539Y-60163616D01*
X118468539Y-60163616D02*
X118289968Y-60163616D01*
X119004254Y-59949330D02*
X119361397Y-59949330D01*
X118932825Y-60163616D02*
X119182825Y-59413616D01*
X119182825Y-59413616D02*
X119432825Y-60163616D01*
X119932825Y-59770759D02*
X120039968Y-59806473D01*
X120039968Y-59806473D02*
X120075682Y-59842187D01*
X120075682Y-59842187D02*
X120111396Y-59913616D01*
X120111396Y-59913616D02*
X120111396Y-60020759D01*
X120111396Y-60020759D02*
X120075682Y-60092187D01*
X120075682Y-60092187D02*
X120039968Y-60127902D01*
X120039968Y-60127902D02*
X119968539Y-60163616D01*
X119968539Y-60163616D02*
X119682825Y-60163616D01*
X119682825Y-60163616D02*
X119682825Y-59413616D01*
X119682825Y-59413616D02*
X119932825Y-59413616D01*
X119932825Y-59413616D02*
X120004254Y-59449330D01*
X120004254Y-59449330D02*
X120039968Y-59485044D01*
X120039968Y-59485044D02*
X120075682Y-59556473D01*
X120075682Y-59556473D02*
X120075682Y-59627902D01*
X120075682Y-59627902D02*
X120039968Y-59699330D01*
X120039968Y-59699330D02*
X120004254Y-59735044D01*
X120004254Y-59735044D02*
X119932825Y-59770759D01*
X119932825Y-59770759D02*
X119682825Y-59770759D01*
X120397111Y-59949330D02*
X120754254Y-59949330D01*
X120325682Y-60163616D02*
X120575682Y-59413616D01*
X120575682Y-59413616D02*
X120825682Y-60163616D01*
X121289968Y-59413616D02*
X121289968Y-59949330D01*
X121289968Y-59949330D02*
X121254253Y-60056473D01*
X121254253Y-60056473D02*
X121182825Y-60127902D01*
X121182825Y-60127902D02*
X121075682Y-60163616D01*
X121075682Y-60163616D02*
X121004253Y-60163616D01*
X121647111Y-60163616D02*
X121647111Y-59413616D01*
X108897112Y-60621074D02*
X108968541Y-60621074D01*
X108968541Y-60621074D02*
X109039969Y-60656788D01*
X109039969Y-60656788D02*
X109075684Y-60692502D01*
X109075684Y-60692502D02*
X109111398Y-60763931D01*
X109111398Y-60763931D02*
X109147112Y-60906788D01*
X109147112Y-60906788D02*
X109147112Y-61085360D01*
X109147112Y-61085360D02*
X109111398Y-61228217D01*
X109111398Y-61228217D02*
X109075684Y-61299645D01*
X109075684Y-61299645D02*
X109039969Y-61335360D01*
X109039969Y-61335360D02*
X108968541Y-61371074D01*
X108968541Y-61371074D02*
X108897112Y-61371074D01*
X108897112Y-61371074D02*
X108825684Y-61335360D01*
X108825684Y-61335360D02*
X108789969Y-61299645D01*
X108789969Y-61299645D02*
X108754255Y-61228217D01*
X108754255Y-61228217D02*
X108718541Y-61085360D01*
X108718541Y-61085360D02*
X108718541Y-60906788D01*
X108718541Y-60906788D02*
X108754255Y-60763931D01*
X108754255Y-60763931D02*
X108789969Y-60692502D01*
X108789969Y-60692502D02*
X108825684Y-60656788D01*
X108825684Y-60656788D02*
X108897112Y-60621074D01*
X109397112Y-60621074D02*
X109861398Y-60621074D01*
X109861398Y-60621074D02*
X109611398Y-60906788D01*
X109611398Y-60906788D02*
X109718541Y-60906788D01*
X109718541Y-60906788D02*
X109789970Y-60942502D01*
X109789970Y-60942502D02*
X109825684Y-60978217D01*
X109825684Y-60978217D02*
X109861398Y-61049645D01*
X109861398Y-61049645D02*
X109861398Y-61228217D01*
X109861398Y-61228217D02*
X109825684Y-61299645D01*
X109825684Y-61299645D02*
X109789970Y-61335360D01*
X109789970Y-61335360D02*
X109718541Y-61371074D01*
X109718541Y-61371074D02*
X109504255Y-61371074D01*
X109504255Y-61371074D02*
X109432827Y-61335360D01*
X109432827Y-61335360D02*
X109397112Y-61299645D01*
X110718541Y-60585360D02*
X110075684Y-61549645D01*
X111111398Y-60621074D02*
X111182827Y-60621074D01*
X111182827Y-60621074D02*
X111254255Y-60656788D01*
X111254255Y-60656788D02*
X111289970Y-60692502D01*
X111289970Y-60692502D02*
X111325684Y-60763931D01*
X111325684Y-60763931D02*
X111361398Y-60906788D01*
X111361398Y-60906788D02*
X111361398Y-61085360D01*
X111361398Y-61085360D02*
X111325684Y-61228217D01*
X111325684Y-61228217D02*
X111289970Y-61299645D01*
X111289970Y-61299645D02*
X111254255Y-61335360D01*
X111254255Y-61335360D02*
X111182827Y-61371074D01*
X111182827Y-61371074D02*
X111111398Y-61371074D01*
X111111398Y-61371074D02*
X111039970Y-61335360D01*
X111039970Y-61335360D02*
X111004255Y-61299645D01*
X111004255Y-61299645D02*
X110968541Y-61228217D01*
X110968541Y-61228217D02*
X110932827Y-61085360D01*
X110932827Y-61085360D02*
X110932827Y-60906788D01*
X110932827Y-60906788D02*
X110968541Y-60763931D01*
X110968541Y-60763931D02*
X111004255Y-60692502D01*
X111004255Y-60692502D02*
X111039970Y-60656788D01*
X111039970Y-60656788D02*
X111111398Y-60621074D01*
X111611398Y-60621074D02*
X112111398Y-60621074D01*
X112111398Y-60621074D02*
X111789970Y-61371074D01*
X112932827Y-60585360D02*
X112289970Y-61549645D01*
X113147113Y-60692502D02*
X113182827Y-60656788D01*
X113182827Y-60656788D02*
X113254256Y-60621074D01*
X113254256Y-60621074D02*
X113432827Y-60621074D01*
X113432827Y-60621074D02*
X113504256Y-60656788D01*
X113504256Y-60656788D02*
X113539970Y-60692502D01*
X113539970Y-60692502D02*
X113575684Y-60763931D01*
X113575684Y-60763931D02*
X113575684Y-60835360D01*
X113575684Y-60835360D02*
X113539970Y-60942502D01*
X113539970Y-60942502D02*
X113111398Y-61371074D01*
X113111398Y-61371074D02*
X113575684Y-61371074D01*
X114039970Y-60621074D02*
X114111399Y-60621074D01*
X114111399Y-60621074D02*
X114182827Y-60656788D01*
X114182827Y-60656788D02*
X114218542Y-60692502D01*
X114218542Y-60692502D02*
X114254256Y-60763931D01*
X114254256Y-60763931D02*
X114289970Y-60906788D01*
X114289970Y-60906788D02*
X114289970Y-61085360D01*
X114289970Y-61085360D02*
X114254256Y-61228217D01*
X114254256Y-61228217D02*
X114218542Y-61299645D01*
X114218542Y-61299645D02*
X114182827Y-61335360D01*
X114182827Y-61335360D02*
X114111399Y-61371074D01*
X114111399Y-61371074D02*
X114039970Y-61371074D01*
X114039970Y-61371074D02*
X113968542Y-61335360D01*
X113968542Y-61335360D02*
X113932827Y-61299645D01*
X113932827Y-61299645D02*
X113897113Y-61228217D01*
X113897113Y-61228217D02*
X113861399Y-61085360D01*
X113861399Y-61085360D02*
X113861399Y-60906788D01*
X113861399Y-60906788D02*
X113897113Y-60763931D01*
X113897113Y-60763931D02*
X113932827Y-60692502D01*
X113932827Y-60692502D02*
X113968542Y-60656788D01*
X113968542Y-60656788D02*
X114039970Y-60621074D01*
X114575685Y-60692502D02*
X114611399Y-60656788D01*
X114611399Y-60656788D02*
X114682828Y-60621074D01*
X114682828Y-60621074D02*
X114861399Y-60621074D01*
X114861399Y-60621074D02*
X114932828Y-60656788D01*
X114932828Y-60656788D02*
X114968542Y-60692502D01*
X114968542Y-60692502D02*
X115004256Y-60763931D01*
X115004256Y-60763931D02*
X115004256Y-60835360D01*
X115004256Y-60835360D02*
X114968542Y-60942502D01*
X114968542Y-60942502D02*
X114539970Y-61371074D01*
X114539970Y-61371074D02*
X115004256Y-61371074D01*
X115682828Y-60621074D02*
X115325685Y-60621074D01*
X115325685Y-60621074D02*
X115289971Y-60978217D01*
X115289971Y-60978217D02*
X115325685Y-60942502D01*
X115325685Y-60942502D02*
X115397114Y-60906788D01*
X115397114Y-60906788D02*
X115575685Y-60906788D01*
X115575685Y-60906788D02*
X115647114Y-60942502D01*
X115647114Y-60942502D02*
X115682828Y-60978217D01*
X115682828Y-60978217D02*
X115718542Y-61049645D01*
X115718542Y-61049645D02*
X115718542Y-61228217D01*
X115718542Y-61228217D02*
X115682828Y-61299645D01*
X115682828Y-61299645D02*
X115647114Y-61335360D01*
X115647114Y-61335360D02*
X115575685Y-61371074D01*
X115575685Y-61371074D02*
X115397114Y-61371074D01*
X115397114Y-61371074D02*
X115325685Y-61335360D01*
X115325685Y-61335360D02*
X115289971Y-61299645D01*
D10*
X105662730Y-93866418D02*
X105621606Y-93989789D01*
X105621606Y-93989789D02*
X105621606Y-94195408D01*
X105621606Y-94195408D02*
X105662730Y-94277656D01*
X105662730Y-94277656D02*
X105703853Y-94318780D01*
X105703853Y-94318780D02*
X105786101Y-94359903D01*
X105786101Y-94359903D02*
X105868349Y-94359903D01*
X105868349Y-94359903D02*
X105950596Y-94318780D01*
X105950596Y-94318780D02*
X105991720Y-94277656D01*
X105991720Y-94277656D02*
X106032844Y-94195408D01*
X106032844Y-94195408D02*
X106073968Y-94030913D01*
X106073968Y-94030913D02*
X106115091Y-93948665D01*
X106115091Y-93948665D02*
X106156215Y-93907542D01*
X106156215Y-93907542D02*
X106238463Y-93866418D01*
X106238463Y-93866418D02*
X106320710Y-93866418D01*
X106320710Y-93866418D02*
X106402958Y-93907542D01*
X106402958Y-93907542D02*
X106444082Y-93948665D01*
X106444082Y-93948665D02*
X106485206Y-94030913D01*
X106485206Y-94030913D02*
X106485206Y-94236532D01*
X106485206Y-94236532D02*
X106444082Y-94359903D01*
X105703853Y-95223503D02*
X105662730Y-95182379D01*
X105662730Y-95182379D02*
X105621606Y-95059008D01*
X105621606Y-95059008D02*
X105621606Y-94976760D01*
X105621606Y-94976760D02*
X105662730Y-94853389D01*
X105662730Y-94853389D02*
X105744977Y-94771141D01*
X105744977Y-94771141D02*
X105827225Y-94730018D01*
X105827225Y-94730018D02*
X105991720Y-94688894D01*
X105991720Y-94688894D02*
X106115091Y-94688894D01*
X106115091Y-94688894D02*
X106279587Y-94730018D01*
X106279587Y-94730018D02*
X106361834Y-94771141D01*
X106361834Y-94771141D02*
X106444082Y-94853389D01*
X106444082Y-94853389D02*
X106485206Y-94976760D01*
X106485206Y-94976760D02*
X106485206Y-95059008D01*
X106485206Y-95059008D02*
X106444082Y-95182379D01*
X106444082Y-95182379D02*
X106402958Y-95223503D01*
X105621606Y-96004856D02*
X105621606Y-95593618D01*
X105621606Y-95593618D02*
X106485206Y-95593618D01*
X108202730Y-93866418D02*
X108161606Y-93989789D01*
X108161606Y-93989789D02*
X108161606Y-94195408D01*
X108161606Y-94195408D02*
X108202730Y-94277656D01*
X108202730Y-94277656D02*
X108243853Y-94318780D01*
X108243853Y-94318780D02*
X108326101Y-94359903D01*
X108326101Y-94359903D02*
X108408349Y-94359903D01*
X108408349Y-94359903D02*
X108490596Y-94318780D01*
X108490596Y-94318780D02*
X108531720Y-94277656D01*
X108531720Y-94277656D02*
X108572844Y-94195408D01*
X108572844Y-94195408D02*
X108613968Y-94030913D01*
X108613968Y-94030913D02*
X108655091Y-93948665D01*
X108655091Y-93948665D02*
X108696215Y-93907542D01*
X108696215Y-93907542D02*
X108778463Y-93866418D01*
X108778463Y-93866418D02*
X108860710Y-93866418D01*
X108860710Y-93866418D02*
X108942958Y-93907542D01*
X108942958Y-93907542D02*
X108984082Y-93948665D01*
X108984082Y-93948665D02*
X109025206Y-94030913D01*
X109025206Y-94030913D02*
X109025206Y-94236532D01*
X109025206Y-94236532D02*
X108984082Y-94359903D01*
X108161606Y-94730018D02*
X109025206Y-94730018D01*
X109025206Y-94730018D02*
X109025206Y-94935637D01*
X109025206Y-94935637D02*
X108984082Y-95059008D01*
X108984082Y-95059008D02*
X108901834Y-95141256D01*
X108901834Y-95141256D02*
X108819587Y-95182379D01*
X108819587Y-95182379D02*
X108655091Y-95223503D01*
X108655091Y-95223503D02*
X108531720Y-95223503D01*
X108531720Y-95223503D02*
X108367225Y-95182379D01*
X108367225Y-95182379D02*
X108284977Y-95141256D01*
X108284977Y-95141256D02*
X108202730Y-95059008D01*
X108202730Y-95059008D02*
X108161606Y-94935637D01*
X108161606Y-94935637D02*
X108161606Y-94730018D01*
X108408349Y-95552494D02*
X108408349Y-95963732D01*
X108161606Y-95470246D02*
X109025206Y-95758113D01*
X109025206Y-95758113D02*
X108161606Y-96045979D01*
X100870596Y-93784170D02*
X100911720Y-93825294D01*
X100911720Y-93825294D02*
X100952844Y-93907542D01*
X100952844Y-93907542D02*
X100870596Y-94072037D01*
X100870596Y-94072037D02*
X100911720Y-94154284D01*
X100911720Y-94154284D02*
X100952844Y-94195408D01*
X100623853Y-95017884D02*
X100582730Y-94976760D01*
X100582730Y-94976760D02*
X100541606Y-94853389D01*
X100541606Y-94853389D02*
X100541606Y-94771141D01*
X100541606Y-94771141D02*
X100582730Y-94647770D01*
X100582730Y-94647770D02*
X100664977Y-94565522D01*
X100664977Y-94565522D02*
X100747225Y-94524399D01*
X100747225Y-94524399D02*
X100911720Y-94483275D01*
X100911720Y-94483275D02*
X101035091Y-94483275D01*
X101035091Y-94483275D02*
X101199587Y-94524399D01*
X101199587Y-94524399D02*
X101281834Y-94565522D01*
X101281834Y-94565522D02*
X101364082Y-94647770D01*
X101364082Y-94647770D02*
X101405206Y-94771141D01*
X101405206Y-94771141D02*
X101405206Y-94853389D01*
X101405206Y-94853389D02*
X101364082Y-94976760D01*
X101364082Y-94976760D02*
X101322958Y-95017884D01*
X100993968Y-95387999D02*
X100993968Y-95675865D01*
X100541606Y-95799237D02*
X100541606Y-95387999D01*
X100541606Y-95387999D02*
X101405206Y-95387999D01*
X101405206Y-95387999D02*
X101405206Y-95799237D01*
X100870596Y-96045979D02*
X100911720Y-96087103D01*
X100911720Y-96087103D02*
X100952844Y-96169351D01*
X100952844Y-96169351D02*
X100870596Y-96333846D01*
X100870596Y-96333846D02*
X100911720Y-96416093D01*
X100911720Y-96416093D02*
X100952844Y-96457217D01*
X111565206Y-93784170D02*
X110701606Y-94072037D01*
X110701606Y-94072037D02*
X111565206Y-94359903D01*
X110701606Y-94647771D02*
X111565206Y-94647771D01*
X111565206Y-94647771D02*
X111565206Y-94976761D01*
X111565206Y-94976761D02*
X111524082Y-95059009D01*
X111524082Y-95059009D02*
X111482958Y-95100132D01*
X111482958Y-95100132D02*
X111400710Y-95141256D01*
X111400710Y-95141256D02*
X111277339Y-95141256D01*
X111277339Y-95141256D02*
X111195091Y-95100132D01*
X111195091Y-95100132D02*
X111153968Y-95059009D01*
X111153968Y-95059009D02*
X111112844Y-94976761D01*
X111112844Y-94976761D02*
X111112844Y-94647771D01*
X111565206Y-95511371D02*
X110866101Y-95511371D01*
X110866101Y-95511371D02*
X110783853Y-95552494D01*
X110783853Y-95552494D02*
X110742730Y-95593618D01*
X110742730Y-95593618D02*
X110701606Y-95675866D01*
X110701606Y-95675866D02*
X110701606Y-95840361D01*
X110701606Y-95840361D02*
X110742730Y-95922609D01*
X110742730Y-95922609D02*
X110783853Y-95963732D01*
X110783853Y-95963732D02*
X110866101Y-96004856D01*
X110866101Y-96004856D02*
X111565206Y-96004856D01*
D15*
X98590049Y-96288524D02*
X98266199Y-95316974D01*
X98266199Y-95316974D02*
X97942349Y-96288524D01*
D10*
X114064082Y-94359903D02*
X114105206Y-94277656D01*
X114105206Y-94277656D02*
X114105206Y-94154284D01*
X114105206Y-94154284D02*
X114064082Y-94030913D01*
X114064082Y-94030913D02*
X113981834Y-93948665D01*
X113981834Y-93948665D02*
X113899587Y-93907542D01*
X113899587Y-93907542D02*
X113735091Y-93866418D01*
X113735091Y-93866418D02*
X113611720Y-93866418D01*
X113611720Y-93866418D02*
X113447225Y-93907542D01*
X113447225Y-93907542D02*
X113364977Y-93948665D01*
X113364977Y-93948665D02*
X113282730Y-94030913D01*
X113282730Y-94030913D02*
X113241606Y-94154284D01*
X113241606Y-94154284D02*
X113241606Y-94236532D01*
X113241606Y-94236532D02*
X113282730Y-94359903D01*
X113282730Y-94359903D02*
X113323853Y-94401027D01*
X113323853Y-94401027D02*
X113611720Y-94401027D01*
X113611720Y-94401027D02*
X113611720Y-94236532D01*
X113241606Y-94771142D02*
X114105206Y-94771142D01*
X114105206Y-94771142D02*
X113241606Y-95264627D01*
X113241606Y-95264627D02*
X114105206Y-95264627D01*
X113241606Y-95675866D02*
X114105206Y-95675866D01*
X114105206Y-95675866D02*
X114105206Y-95881485D01*
X114105206Y-95881485D02*
X114064082Y-96004856D01*
X114064082Y-96004856D02*
X113981834Y-96087104D01*
X113981834Y-96087104D02*
X113899587Y-96128227D01*
X113899587Y-96128227D02*
X113735091Y-96169351D01*
X113735091Y-96169351D02*
X113611720Y-96169351D01*
X113611720Y-96169351D02*
X113447225Y-96128227D01*
X113447225Y-96128227D02*
X113364977Y-96087104D01*
X113364977Y-96087104D02*
X113282730Y-96004856D01*
X113282730Y-96004856D02*
X113241606Y-95881485D01*
X113241606Y-95881485D02*
X113241606Y-95675866D01*
D16*
X97473620Y-96044221D02*
X97329686Y-96044221D01*
X97329686Y-96044221D02*
X97257720Y-96008238D01*
X97257720Y-96008238D02*
X97185753Y-95936271D01*
X97185753Y-95936271D02*
X97149770Y-95792338D01*
X97149770Y-95792338D02*
X97149770Y-95540455D01*
X97149770Y-95540455D02*
X97185753Y-95396521D01*
X97185753Y-95396521D02*
X97257720Y-95324555D01*
X97257720Y-95324555D02*
X97329686Y-95288571D01*
X97329686Y-95288571D02*
X97473620Y-95288571D01*
X97473620Y-95288571D02*
X97545586Y-95324555D01*
X97545586Y-95324555D02*
X97617553Y-95396521D01*
X97617553Y-95396521D02*
X97653536Y-95540455D01*
X97653536Y-95540455D02*
X97653536Y-95792338D01*
X97653536Y-95792338D02*
X97617553Y-95936271D01*
X97617553Y-95936271D02*
X97545586Y-96008238D01*
X97545586Y-96008238D02*
X97473620Y-96044221D01*
X96825920Y-96044221D02*
X96825920Y-95432505D01*
X96825920Y-95432505D02*
X96789937Y-95360538D01*
X96789937Y-95360538D02*
X96753953Y-95324555D01*
X96753953Y-95324555D02*
X96681987Y-95288571D01*
X96681987Y-95288571D02*
X96538053Y-95288571D01*
X96538053Y-95288571D02*
X96466087Y-95324555D01*
X96466087Y-95324555D02*
X96430103Y-95360538D01*
X96430103Y-95360538D02*
X96394120Y-95432505D01*
X96394120Y-95432505D02*
X96394120Y-96044221D01*
X96142237Y-96044221D02*
X95710437Y-96044221D01*
X95926337Y-95288571D02*
X95926337Y-96044221D01*
D11*
X84032312Y-118562640D02*
X83984693Y-118610260D01*
X83984693Y-118610260D02*
X83841836Y-118657879D01*
X83841836Y-118657879D02*
X83746598Y-118657879D01*
X83746598Y-118657879D02*
X83603741Y-118610260D01*
X83603741Y-118610260D02*
X83508503Y-118515021D01*
X83508503Y-118515021D02*
X83460884Y-118419783D01*
X83460884Y-118419783D02*
X83413265Y-118229307D01*
X83413265Y-118229307D02*
X83413265Y-118086450D01*
X83413265Y-118086450D02*
X83460884Y-117895974D01*
X83460884Y-117895974D02*
X83508503Y-117800736D01*
X83508503Y-117800736D02*
X83603741Y-117705498D01*
X83603741Y-117705498D02*
X83746598Y-117657879D01*
X83746598Y-117657879D02*
X83841836Y-117657879D01*
X83841836Y-117657879D02*
X83984693Y-117705498D01*
X83984693Y-117705498D02*
X84032312Y-117753117D01*
X84460884Y-118657879D02*
X84460884Y-117657879D01*
X84460884Y-117657879D02*
X85032312Y-118657879D01*
X85032312Y-118657879D02*
X85032312Y-117657879D01*
X85413265Y-117657879D02*
X86079931Y-117657879D01*
X86079931Y-117657879D02*
X85651360Y-118657879D01*
X144474333Y-118562640D02*
X144426714Y-118610260D01*
X144426714Y-118610260D02*
X144283857Y-118657879D01*
X144283857Y-118657879D02*
X144188619Y-118657879D01*
X144188619Y-118657879D02*
X144045762Y-118610260D01*
X144045762Y-118610260D02*
X143950524Y-118515021D01*
X143950524Y-118515021D02*
X143902905Y-118419783D01*
X143902905Y-118419783D02*
X143855286Y-118229307D01*
X143855286Y-118229307D02*
X143855286Y-118086450D01*
X143855286Y-118086450D02*
X143902905Y-117895974D01*
X143902905Y-117895974D02*
X143950524Y-117800736D01*
X143950524Y-117800736D02*
X144045762Y-117705498D01*
X144045762Y-117705498D02*
X144188619Y-117657879D01*
X144188619Y-117657879D02*
X144283857Y-117657879D01*
X144283857Y-117657879D02*
X144426714Y-117705498D01*
X144426714Y-117705498D02*
X144474333Y-117753117D01*
X144902905Y-118657879D02*
X144902905Y-117657879D01*
X144902905Y-117657879D02*
X145474333Y-118657879D01*
X145474333Y-118657879D02*
X145474333Y-117657879D01*
X146474333Y-118657879D02*
X145902905Y-118657879D01*
X146188619Y-118657879D02*
X146188619Y-117657879D01*
X146188619Y-117657879D02*
X146093381Y-117800736D01*
X146093381Y-117800736D02*
X145998143Y-117895974D01*
X145998143Y-117895974D02*
X145902905Y-117943593D01*
X147093381Y-117657879D02*
X147188619Y-117657879D01*
X147188619Y-117657879D02*
X147283857Y-117705498D01*
X147283857Y-117705498D02*
X147331476Y-117753117D01*
X147331476Y-117753117D02*
X147379095Y-117848355D01*
X147379095Y-117848355D02*
X147426714Y-118038831D01*
X147426714Y-118038831D02*
X147426714Y-118276926D01*
X147426714Y-118276926D02*
X147379095Y-118467402D01*
X147379095Y-118467402D02*
X147331476Y-118562640D01*
X147331476Y-118562640D02*
X147283857Y-118610260D01*
X147283857Y-118610260D02*
X147188619Y-118657879D01*
X147188619Y-118657879D02*
X147093381Y-118657879D01*
X147093381Y-118657879D02*
X146998143Y-118610260D01*
X146998143Y-118610260D02*
X146950524Y-118562640D01*
X146950524Y-118562640D02*
X146902905Y-118467402D01*
X146902905Y-118467402D02*
X146855286Y-118276926D01*
X146855286Y-118276926D02*
X146855286Y-118038831D01*
X146855286Y-118038831D02*
X146902905Y-117848355D01*
X146902905Y-117848355D02*
X146950524Y-117753117D01*
X146950524Y-117753117D02*
X146998143Y-117705498D01*
X146998143Y-117705498D02*
X147093381Y-117657879D01*
D17*
%TO.C,1PIN*%
X88697000Y-131745460D02*
G75*
G02*
X84125000Y-131745460I-2286000J0D01*
G01*
X84125000Y-131745460D02*
G75*
G02*
X88697000Y-131745460I2286000J0D01*
G01*
X146697000Y-131745460D02*
G75*
G02*
X142125000Y-131745460I-2286000J0D01*
G01*
X142125000Y-131745460D02*
G75*
G02*
X146697000Y-131745460I2286000J0D01*
G01*
X88697000Y-60741060D02*
G75*
G02*
X84125000Y-60741060I-2286000J0D01*
G01*
X84125000Y-60741060D02*
G75*
G02*
X88697000Y-60741060I2286000J0D01*
G01*
D13*
%TO.C,S1*%
X112367000Y-129359460D02*
X122367000Y-129359460D01*
X112367000Y-131859460D02*
X112367000Y-129359460D01*
D11*
X117367000Y-132409460D02*
X117367000Y-132409460D01*
X117367000Y-132509460D02*
X117367000Y-132509460D01*
D13*
X122367000Y-129359460D02*
X122367000Y-131859460D01*
X122367000Y-131859460D02*
X112367000Y-131859460D01*
D11*
X117367000Y-132409460D02*
G75*
G02*
X117367000Y-132509460I0J-50000D01*
G01*
X117367000Y-132509460D02*
G75*
G02*
X117367000Y-132409460I0J50000D01*
G01*
D18*
%TO.C,J3*%
X95383300Y-94185860D02*
X96526300Y-94185860D01*
X97669300Y-94185860D02*
X98812300Y-94185860D01*
X98240800Y-94757360D02*
X98240800Y-93614360D01*
%TO.C,CN7*%
D11*
X82395000Y-69509460D02*
X86967000Y-69509460D01*
X86967000Y-117261460D01*
X82395000Y-117261460D01*
X82395000Y-69509460D01*
%TO.C,CN10*%
X143355000Y-69509460D02*
X147927000Y-69509460D01*
X147927000Y-117261460D01*
X143355000Y-117261460D01*
X143355000Y-69509460D01*
D17*
%TO.C,1PIN*%
X146697000Y-60745460D02*
G75*
G02*
X142125000Y-60745460I-2286000J0D01*
G01*
X142125000Y-60745460D02*
G75*
G02*
X146697000Y-60745460I2286000J0D01*
G01*
%TD*%
M02*
