M48
; DRILL file {KiCad 9.0.2} date 2025-05-16T17:18:47+0200
; FORMAT={-:-/ absolute / metric / decimal}
; #@! TF.CreationDate,2025-05-16T17:18:47+02:00
; #@! TF.GenerationSoftware,Kicad,Pcbnew,9.0.2
; #@! TF.FileFunction,Plated,1,2,PTH
FMAT,2
METRIC
; #@! TA.AperFunction,Plated,PTH,ComponentDrill
T1C0.762
; #@! TA.AperFunction,Plated,PTH,ViaDrill
T2C0.800
; #@! TA.AperFunction,Plated,PTH,ComponentDrill
T3C0.800
; #@! TA.AperFunction,Plated,PTH,ComponentDrill
T4C1.016
%
G90
G05
T1
X123.016Y-70.98
X123.016Y-73.52
X123.016Y-76.06
X123.016Y-78.6
X123.016Y-81.14
X123.016Y-83.68
X123.016Y-86.22
X123.016Y-88.76
X123.016Y-91.3
X123.016Y-93.84
X123.016Y-96.38
X123.016Y-98.92
X123.016Y-101.46
X123.016Y-104.0
X123.016Y-106.54
X123.016Y-109.08
X123.016Y-111.62
X123.016Y-114.16
X123.016Y-116.7
X125.556Y-70.98
X125.556Y-73.52
X125.556Y-76.06
X125.556Y-78.6
X125.556Y-81.14
X125.556Y-83.68
X125.556Y-86.22
X125.556Y-88.76
X125.556Y-91.3
X125.556Y-93.84
X125.556Y-96.38
X125.556Y-98.92
X125.556Y-101.46
X125.556Y-104.0
X125.556Y-106.54
X125.556Y-109.08
X125.556Y-111.62
X125.556Y-114.16
X125.556Y-116.7
X183.976Y-70.98
X183.976Y-73.52
X183.976Y-76.06
X183.976Y-78.6
X183.976Y-81.14
X183.976Y-83.68
X183.976Y-86.22
X183.976Y-88.76
X183.976Y-91.3
X183.976Y-93.84
X183.976Y-96.38
X183.976Y-98.92
X183.976Y-101.46
X183.976Y-104.0
X183.976Y-106.54
X183.976Y-109.08
X183.976Y-111.62
X183.976Y-114.16
X183.976Y-116.7
X186.516Y-70.98
X186.516Y-73.52
X186.516Y-76.06
X186.516Y-78.6
X186.516Y-81.14
X186.516Y-83.68
X186.516Y-86.22
X186.516Y-88.76
X186.516Y-91.3
X186.516Y-93.84
X186.516Y-96.38
X186.516Y-98.92
X186.516Y-101.46
X186.516Y-104.0
X186.516Y-106.54
X186.516Y-109.08
X186.516Y-111.62
X186.516Y-114.16
X186.516Y-116.7
T2
X138.963Y-88.595
X140.614Y-86.0
X148.158Y-89.154
X154.153Y-80.137
X154.508Y-87.143
X156.962Y-137.162
X159.562Y-137.16
X170.231Y-119.71
X177.368Y-121.742
T3
X154.432Y-131.064
X156.972Y-131.064
X159.512Y-131.064
T4
X135.433Y-92.799
X137.973Y-92.799
X140.513Y-92.799
X143.053Y-92.799
X145.593Y-92.799
X148.133Y-92.799
X150.673Y-92.799
X153.213Y-92.799
M30
