%TF.GenerationSoftware,KiCad,Pcbnew,9.0.2*%
%TF.CreationDate,2025-07-03T17:47:12+02:00*%
%TF.ProjectId,PCB_accueil_STM,5043425f-6163-4637-9565-696c5f53544d,rev?*%
%TF.SameCoordinates,Original*%
%TF.FileFunction,Drillmap*%
%TF.FilePolarity,Positive*%
%FSLAX45Y45*%
G04 Gerber Fmt 4.5, Leading zero omitted, Abs format (unit mm)*
G04 Created by KiCad (PCBNEW 9.0.2) date 2025-07-03 17:47:12*
%MOMM*%
%LPD*%
G01*
G04 APERTURE LIST*
%ADD10C,0.050000*%
%ADD11C,0.200000*%
%ADD12C,0.305000*%
%ADD13C,0.325000*%
%ADD14C,0.330200*%
%ADD15C,0.600000*%
%ADD16C,0.100000*%
G04 APERTURE END LIST*
D10*
X15191100Y-13924546D02*
X15191100Y-5324546D01*
X7891100Y-5324106D02*
X7891100Y-13924546D01*
X7891100Y-13924546D02*
X15191100Y-13924546D01*
X15191100Y-5324106D02*
X7891100Y-5324106D01*
D11*
D12*
X8488600Y-5921606D02*
X8793600Y-6226606D01*
X8793600Y-5921606D02*
X8488600Y-6226606D01*
X8488600Y-13022046D02*
X8793600Y-13327046D01*
X8793600Y-13022046D02*
X8488600Y-13327046D01*
X14288600Y-5922046D02*
X14593600Y-6227046D01*
X14593600Y-5922046D02*
X14288600Y-6227046D01*
X14288600Y-13022046D02*
X14593600Y-13327046D01*
X14593600Y-13022046D02*
X14288600Y-13327046D01*
D13*
X12847600Y-13440546D02*
G75*
G02*
X12522600Y-13440546I-162500J0D01*
G01*
X12522600Y-13440546D02*
G75*
G02*
X12847600Y-13440546I162500J0D01*
G01*
X12854240Y-5895180D02*
G75*
G02*
X12529240Y-5895180I-162500J0D01*
G01*
X12529240Y-5895180D02*
G75*
G02*
X12854240Y-5895180I162500J0D01*
G01*
X13863600Y-13440546D02*
G75*
G02*
X13538600Y-13440546I-162500J0D01*
G01*
X13538600Y-13440546D02*
G75*
G02*
X13863600Y-13440546I162500J0D01*
G01*
X13870240Y-5895180D02*
G75*
G02*
X13545240Y-5895180I-162500J0D01*
G01*
X13545240Y-5895180D02*
G75*
G02*
X13870240Y-5895180I162500J0D01*
G01*
D14*
X9074780Y-11990336D02*
X9074780Y-12320536D01*
X8909680Y-12155436D02*
X9239880Y-12155436D01*
X11868780Y-11990336D02*
X11868780Y-12320536D01*
X11703680Y-12155436D02*
X12033880Y-12155436D01*
D15*
X12451634Y-7666680D02*
X12451634Y-7242412D01*
X12027366Y-7242412D01*
X12027366Y-7666680D01*
X12451634Y-7666680D01*
D16*
X12339500Y-7154546D02*
X12139500Y-7154546D01*
X12139500Y-7754546D02*
G75*
G02*
X12139500Y-7154546I0J300000D01*
G01*
X12139500Y-7754546D02*
X12339500Y-7754546D01*
X12339500Y-7754546D02*
G75*
G03*
X12339500Y-7154546I0J300000D01*
G01*
D15*
X12451634Y-7666680D02*
X12451634Y-7242412D01*
X12027366Y-7242412D01*
X12027366Y-7666680D01*
X12451634Y-7666680D01*
D16*
X12339500Y-7154546D02*
X12139500Y-7154546D01*
X12139500Y-7754546D02*
G75*
G02*
X12139500Y-7154546I0J300000D01*
G01*
X12139500Y-7754546D02*
X12339500Y-7754546D01*
X12339500Y-7754546D02*
G75*
G03*
X12339500Y-7154546I0J300000D01*
G01*
D11*
X8149377Y-14238530D02*
X8149377Y-14038530D01*
X8149377Y-14038530D02*
X8196996Y-14038530D01*
X8196996Y-14038530D02*
X8225567Y-14048054D01*
X8225567Y-14048054D02*
X8244615Y-14067101D01*
X8244615Y-14067101D02*
X8254139Y-14086149D01*
X8254139Y-14086149D02*
X8263662Y-14124244D01*
X8263662Y-14124244D02*
X8263662Y-14152815D01*
X8263662Y-14152815D02*
X8254139Y-14190911D01*
X8254139Y-14190911D02*
X8244615Y-14209958D01*
X8244615Y-14209958D02*
X8225567Y-14229006D01*
X8225567Y-14229006D02*
X8196996Y-14238530D01*
X8196996Y-14238530D02*
X8149377Y-14238530D01*
X8349377Y-14238530D02*
X8349377Y-14105196D01*
X8349377Y-14143292D02*
X8358901Y-14124244D01*
X8358901Y-14124244D02*
X8368424Y-14114720D01*
X8368424Y-14114720D02*
X8387472Y-14105196D01*
X8387472Y-14105196D02*
X8406520Y-14105196D01*
X8473186Y-14238530D02*
X8473186Y-14105196D01*
X8473186Y-14038530D02*
X8463663Y-14048054D01*
X8463663Y-14048054D02*
X8473186Y-14057577D01*
X8473186Y-14057577D02*
X8482710Y-14048054D01*
X8482710Y-14048054D02*
X8473186Y-14038530D01*
X8473186Y-14038530D02*
X8473186Y-14057577D01*
X8596996Y-14238530D02*
X8577948Y-14229006D01*
X8577948Y-14229006D02*
X8568424Y-14209958D01*
X8568424Y-14209958D02*
X8568424Y-14038530D01*
X8701758Y-14238530D02*
X8682710Y-14229006D01*
X8682710Y-14229006D02*
X8673186Y-14209958D01*
X8673186Y-14209958D02*
X8673186Y-14038530D01*
X8930329Y-14238530D02*
X8930329Y-14038530D01*
X8930329Y-14038530D02*
X8996996Y-14181387D01*
X8996996Y-14181387D02*
X9063663Y-14038530D01*
X9063663Y-14038530D02*
X9063663Y-14238530D01*
X9244615Y-14238530D02*
X9244615Y-14133768D01*
X9244615Y-14133768D02*
X9235091Y-14114720D01*
X9235091Y-14114720D02*
X9216044Y-14105196D01*
X9216044Y-14105196D02*
X9177948Y-14105196D01*
X9177948Y-14105196D02*
X9158901Y-14114720D01*
X9244615Y-14229006D02*
X9225567Y-14238530D01*
X9225567Y-14238530D02*
X9177948Y-14238530D01*
X9177948Y-14238530D02*
X9158901Y-14229006D01*
X9158901Y-14229006D02*
X9149377Y-14209958D01*
X9149377Y-14209958D02*
X9149377Y-14190911D01*
X9149377Y-14190911D02*
X9158901Y-14171863D01*
X9158901Y-14171863D02*
X9177948Y-14162339D01*
X9177948Y-14162339D02*
X9225567Y-14162339D01*
X9225567Y-14162339D02*
X9244615Y-14152815D01*
X9339853Y-14105196D02*
X9339853Y-14305196D01*
X9339853Y-14114720D02*
X9358901Y-14105196D01*
X9358901Y-14105196D02*
X9396996Y-14105196D01*
X9396996Y-14105196D02*
X9416044Y-14114720D01*
X9416044Y-14114720D02*
X9425567Y-14124244D01*
X9425567Y-14124244D02*
X9435091Y-14143292D01*
X9435091Y-14143292D02*
X9435091Y-14200434D01*
X9435091Y-14200434D02*
X9425567Y-14219482D01*
X9425567Y-14219482D02*
X9416044Y-14229006D01*
X9416044Y-14229006D02*
X9396996Y-14238530D01*
X9396996Y-14238530D02*
X9358901Y-14238530D01*
X9358901Y-14238530D02*
X9339853Y-14229006D01*
X9520805Y-14219482D02*
X9530329Y-14229006D01*
X9530329Y-14229006D02*
X9520805Y-14238530D01*
X9520805Y-14238530D02*
X9511282Y-14229006D01*
X9511282Y-14229006D02*
X9520805Y-14219482D01*
X9520805Y-14219482D02*
X9520805Y-14238530D01*
X9520805Y-14114720D02*
X9530329Y-14124244D01*
X9530329Y-14124244D02*
X9520805Y-14133768D01*
X9520805Y-14133768D02*
X9511282Y-14124244D01*
X9511282Y-14124244D02*
X9520805Y-14114720D01*
X9520805Y-14114720D02*
X9520805Y-14133768D01*
X7688600Y-14467046D02*
X7888600Y-14667046D01*
X7888600Y-14467046D02*
X7688600Y-14667046D01*
X8130329Y-14458530D02*
X8254139Y-14458530D01*
X8254139Y-14458530D02*
X8187472Y-14534720D01*
X8187472Y-14534720D02*
X8216043Y-14534720D01*
X8216043Y-14534720D02*
X8235091Y-14544244D01*
X8235091Y-14544244D02*
X8244615Y-14553768D01*
X8244615Y-14553768D02*
X8254139Y-14572815D01*
X8254139Y-14572815D02*
X8254139Y-14620434D01*
X8254139Y-14620434D02*
X8244615Y-14639482D01*
X8244615Y-14639482D02*
X8235091Y-14649006D01*
X8235091Y-14649006D02*
X8216043Y-14658530D01*
X8216043Y-14658530D02*
X8158901Y-14658530D01*
X8158901Y-14658530D02*
X8139853Y-14649006D01*
X8139853Y-14649006D02*
X8130329Y-14639482D01*
X8339853Y-14639482D02*
X8349377Y-14649006D01*
X8349377Y-14649006D02*
X8339853Y-14658530D01*
X8339853Y-14658530D02*
X8330329Y-14649006D01*
X8330329Y-14649006D02*
X8339853Y-14639482D01*
X8339853Y-14639482D02*
X8339853Y-14658530D01*
X8473186Y-14458530D02*
X8492234Y-14458530D01*
X8492234Y-14458530D02*
X8511282Y-14468054D01*
X8511282Y-14468054D02*
X8520805Y-14477577D01*
X8520805Y-14477577D02*
X8530329Y-14496625D01*
X8530329Y-14496625D02*
X8539853Y-14534720D01*
X8539853Y-14534720D02*
X8539853Y-14582339D01*
X8539853Y-14582339D02*
X8530329Y-14620434D01*
X8530329Y-14620434D02*
X8520805Y-14639482D01*
X8520805Y-14639482D02*
X8511282Y-14649006D01*
X8511282Y-14649006D02*
X8492234Y-14658530D01*
X8492234Y-14658530D02*
X8473186Y-14658530D01*
X8473186Y-14658530D02*
X8454139Y-14649006D01*
X8454139Y-14649006D02*
X8444615Y-14639482D01*
X8444615Y-14639482D02*
X8435091Y-14620434D01*
X8435091Y-14620434D02*
X8425567Y-14582339D01*
X8425567Y-14582339D02*
X8425567Y-14534720D01*
X8425567Y-14534720D02*
X8435091Y-14496625D01*
X8435091Y-14496625D02*
X8444615Y-14477577D01*
X8444615Y-14477577D02*
X8454139Y-14468054D01*
X8454139Y-14468054D02*
X8473186Y-14458530D01*
X8720805Y-14458530D02*
X8625567Y-14458530D01*
X8625567Y-14458530D02*
X8616044Y-14553768D01*
X8616044Y-14553768D02*
X8625567Y-14544244D01*
X8625567Y-14544244D02*
X8644615Y-14534720D01*
X8644615Y-14534720D02*
X8692234Y-14534720D01*
X8692234Y-14534720D02*
X8711282Y-14544244D01*
X8711282Y-14544244D02*
X8720805Y-14553768D01*
X8720805Y-14553768D02*
X8730329Y-14572815D01*
X8730329Y-14572815D02*
X8730329Y-14620434D01*
X8730329Y-14620434D02*
X8720805Y-14639482D01*
X8720805Y-14639482D02*
X8711282Y-14649006D01*
X8711282Y-14649006D02*
X8692234Y-14658530D01*
X8692234Y-14658530D02*
X8644615Y-14658530D01*
X8644615Y-14658530D02*
X8625567Y-14649006D01*
X8625567Y-14649006D02*
X8616044Y-14639482D01*
X8854139Y-14458530D02*
X8873186Y-14458530D01*
X8873186Y-14458530D02*
X8892234Y-14468054D01*
X8892234Y-14468054D02*
X8901758Y-14477577D01*
X8901758Y-14477577D02*
X8911282Y-14496625D01*
X8911282Y-14496625D02*
X8920805Y-14534720D01*
X8920805Y-14534720D02*
X8920805Y-14582339D01*
X8920805Y-14582339D02*
X8911282Y-14620434D01*
X8911282Y-14620434D02*
X8901758Y-14639482D01*
X8901758Y-14639482D02*
X8892234Y-14649006D01*
X8892234Y-14649006D02*
X8873186Y-14658530D01*
X8873186Y-14658530D02*
X8854139Y-14658530D01*
X8854139Y-14658530D02*
X8835091Y-14649006D01*
X8835091Y-14649006D02*
X8825567Y-14639482D01*
X8825567Y-14639482D02*
X8816044Y-14620434D01*
X8816044Y-14620434D02*
X8806520Y-14582339D01*
X8806520Y-14582339D02*
X8806520Y-14534720D01*
X8806520Y-14534720D02*
X8816044Y-14496625D01*
X8816044Y-14496625D02*
X8825567Y-14477577D01*
X8825567Y-14477577D02*
X8835091Y-14468054D01*
X8835091Y-14468054D02*
X8854139Y-14458530D01*
X9006520Y-14658530D02*
X9006520Y-14525196D01*
X9006520Y-14544244D02*
X9016044Y-14534720D01*
X9016044Y-14534720D02*
X9035091Y-14525196D01*
X9035091Y-14525196D02*
X9063663Y-14525196D01*
X9063663Y-14525196D02*
X9082710Y-14534720D01*
X9082710Y-14534720D02*
X9092234Y-14553768D01*
X9092234Y-14553768D02*
X9092234Y-14658530D01*
X9092234Y-14553768D02*
X9101758Y-14534720D01*
X9101758Y-14534720D02*
X9120805Y-14525196D01*
X9120805Y-14525196D02*
X9149377Y-14525196D01*
X9149377Y-14525196D02*
X9168425Y-14534720D01*
X9168425Y-14534720D02*
X9177948Y-14553768D01*
X9177948Y-14553768D02*
X9177948Y-14658530D01*
X9273186Y-14658530D02*
X9273186Y-14525196D01*
X9273186Y-14544244D02*
X9282710Y-14534720D01*
X9282710Y-14534720D02*
X9301758Y-14525196D01*
X9301758Y-14525196D02*
X9330329Y-14525196D01*
X9330329Y-14525196D02*
X9349377Y-14534720D01*
X9349377Y-14534720D02*
X9358901Y-14553768D01*
X9358901Y-14553768D02*
X9358901Y-14658530D01*
X9358901Y-14553768D02*
X9368425Y-14534720D01*
X9368425Y-14534720D02*
X9387472Y-14525196D01*
X9387472Y-14525196D02*
X9416044Y-14525196D01*
X9416044Y-14525196D02*
X9435091Y-14534720D01*
X9435091Y-14534720D02*
X9444615Y-14553768D01*
X9444615Y-14553768D02*
X9444615Y-14658530D01*
X9835091Y-14449006D02*
X9663663Y-14706149D01*
X10092234Y-14458530D02*
X10111282Y-14458530D01*
X10111282Y-14458530D02*
X10130329Y-14468054D01*
X10130329Y-14468054D02*
X10139853Y-14477577D01*
X10139853Y-14477577D02*
X10149377Y-14496625D01*
X10149377Y-14496625D02*
X10158901Y-14534720D01*
X10158901Y-14534720D02*
X10158901Y-14582339D01*
X10158901Y-14582339D02*
X10149377Y-14620434D01*
X10149377Y-14620434D02*
X10139853Y-14639482D01*
X10139853Y-14639482D02*
X10130329Y-14649006D01*
X10130329Y-14649006D02*
X10111282Y-14658530D01*
X10111282Y-14658530D02*
X10092234Y-14658530D01*
X10092234Y-14658530D02*
X10073187Y-14649006D01*
X10073187Y-14649006D02*
X10063663Y-14639482D01*
X10063663Y-14639482D02*
X10054139Y-14620434D01*
X10054139Y-14620434D02*
X10044615Y-14582339D01*
X10044615Y-14582339D02*
X10044615Y-14534720D01*
X10044615Y-14534720D02*
X10054139Y-14496625D01*
X10054139Y-14496625D02*
X10063663Y-14477577D01*
X10063663Y-14477577D02*
X10073187Y-14468054D01*
X10073187Y-14468054D02*
X10092234Y-14458530D01*
X10244615Y-14639482D02*
X10254139Y-14649006D01*
X10254139Y-14649006D02*
X10244615Y-14658530D01*
X10244615Y-14658530D02*
X10235091Y-14649006D01*
X10235091Y-14649006D02*
X10244615Y-14639482D01*
X10244615Y-14639482D02*
X10244615Y-14658530D01*
X10444615Y-14658530D02*
X10330329Y-14658530D01*
X10387472Y-14658530D02*
X10387472Y-14458530D01*
X10387472Y-14458530D02*
X10368425Y-14487101D01*
X10368425Y-14487101D02*
X10349377Y-14506149D01*
X10349377Y-14506149D02*
X10330329Y-14515673D01*
X10520806Y-14477577D02*
X10530329Y-14468054D01*
X10530329Y-14468054D02*
X10549377Y-14458530D01*
X10549377Y-14458530D02*
X10596996Y-14458530D01*
X10596996Y-14458530D02*
X10616044Y-14468054D01*
X10616044Y-14468054D02*
X10625568Y-14477577D01*
X10625568Y-14477577D02*
X10635091Y-14496625D01*
X10635091Y-14496625D02*
X10635091Y-14515673D01*
X10635091Y-14515673D02*
X10625568Y-14544244D01*
X10625568Y-14544244D02*
X10511282Y-14658530D01*
X10511282Y-14658530D02*
X10635091Y-14658530D01*
X10758901Y-14458530D02*
X10777949Y-14458530D01*
X10777949Y-14458530D02*
X10796996Y-14468054D01*
X10796996Y-14468054D02*
X10806520Y-14477577D01*
X10806520Y-14477577D02*
X10816044Y-14496625D01*
X10816044Y-14496625D02*
X10825568Y-14534720D01*
X10825568Y-14534720D02*
X10825568Y-14582339D01*
X10825568Y-14582339D02*
X10816044Y-14620434D01*
X10816044Y-14620434D02*
X10806520Y-14639482D01*
X10806520Y-14639482D02*
X10796996Y-14649006D01*
X10796996Y-14649006D02*
X10777949Y-14658530D01*
X10777949Y-14658530D02*
X10758901Y-14658530D01*
X10758901Y-14658530D02*
X10739853Y-14649006D01*
X10739853Y-14649006D02*
X10730329Y-14639482D01*
X10730329Y-14639482D02*
X10720806Y-14620434D01*
X10720806Y-14620434D02*
X10711282Y-14582339D01*
X10711282Y-14582339D02*
X10711282Y-14534720D01*
X10711282Y-14534720D02*
X10720806Y-14496625D01*
X10720806Y-14496625D02*
X10730329Y-14477577D01*
X10730329Y-14477577D02*
X10739853Y-14468054D01*
X10739853Y-14468054D02*
X10758901Y-14458530D01*
X11016044Y-14658530D02*
X10901758Y-14658530D01*
X10958901Y-14658530D02*
X10958901Y-14458530D01*
X10958901Y-14458530D02*
X10939853Y-14487101D01*
X10939853Y-14487101D02*
X10920806Y-14506149D01*
X10920806Y-14506149D02*
X10901758Y-14515673D01*
X11092234Y-14458530D02*
X11092234Y-14496625D01*
X11168425Y-14458530D02*
X11168425Y-14496625D01*
X11463663Y-14734720D02*
X11454139Y-14725196D01*
X11454139Y-14725196D02*
X11435091Y-14696625D01*
X11435091Y-14696625D02*
X11425568Y-14677577D01*
X11425568Y-14677577D02*
X11416044Y-14649006D01*
X11416044Y-14649006D02*
X11406520Y-14601387D01*
X11406520Y-14601387D02*
X11406520Y-14563292D01*
X11406520Y-14563292D02*
X11416044Y-14515673D01*
X11416044Y-14515673D02*
X11425568Y-14487101D01*
X11425568Y-14487101D02*
X11435091Y-14468054D01*
X11435091Y-14468054D02*
X11454139Y-14439482D01*
X11454139Y-14439482D02*
X11463663Y-14429958D01*
X11625568Y-14525196D02*
X11625568Y-14658530D01*
X11577948Y-14449006D02*
X11530329Y-14591863D01*
X11530329Y-14591863D02*
X11654139Y-14591863D01*
X11882710Y-14658530D02*
X11882710Y-14458530D01*
X11968425Y-14658530D02*
X11968425Y-14553768D01*
X11968425Y-14553768D02*
X11958901Y-14534720D01*
X11958901Y-14534720D02*
X11939853Y-14525196D01*
X11939853Y-14525196D02*
X11911282Y-14525196D01*
X11911282Y-14525196D02*
X11892234Y-14534720D01*
X11892234Y-14534720D02*
X11882710Y-14544244D01*
X12092234Y-14658530D02*
X12073187Y-14649006D01*
X12073187Y-14649006D02*
X12063663Y-14639482D01*
X12063663Y-14639482D02*
X12054139Y-14620434D01*
X12054139Y-14620434D02*
X12054139Y-14563292D01*
X12054139Y-14563292D02*
X12063663Y-14544244D01*
X12063663Y-14544244D02*
X12073187Y-14534720D01*
X12073187Y-14534720D02*
X12092234Y-14525196D01*
X12092234Y-14525196D02*
X12120806Y-14525196D01*
X12120806Y-14525196D02*
X12139853Y-14534720D01*
X12139853Y-14534720D02*
X12149377Y-14544244D01*
X12149377Y-14544244D02*
X12158901Y-14563292D01*
X12158901Y-14563292D02*
X12158901Y-14620434D01*
X12158901Y-14620434D02*
X12149377Y-14639482D01*
X12149377Y-14639482D02*
X12139853Y-14649006D01*
X12139853Y-14649006D02*
X12120806Y-14658530D01*
X12120806Y-14658530D02*
X12092234Y-14658530D01*
X12273187Y-14658530D02*
X12254139Y-14649006D01*
X12254139Y-14649006D02*
X12244615Y-14629958D01*
X12244615Y-14629958D02*
X12244615Y-14458530D01*
X12425568Y-14649006D02*
X12406520Y-14658530D01*
X12406520Y-14658530D02*
X12368425Y-14658530D01*
X12368425Y-14658530D02*
X12349377Y-14649006D01*
X12349377Y-14649006D02*
X12339853Y-14629958D01*
X12339853Y-14629958D02*
X12339853Y-14553768D01*
X12339853Y-14553768D02*
X12349377Y-14534720D01*
X12349377Y-14534720D02*
X12368425Y-14525196D01*
X12368425Y-14525196D02*
X12406520Y-14525196D01*
X12406520Y-14525196D02*
X12425568Y-14534720D01*
X12425568Y-14534720D02*
X12435091Y-14553768D01*
X12435091Y-14553768D02*
X12435091Y-14572815D01*
X12435091Y-14572815D02*
X12339853Y-14591863D01*
X12511282Y-14649006D02*
X12530330Y-14658530D01*
X12530330Y-14658530D02*
X12568425Y-14658530D01*
X12568425Y-14658530D02*
X12587472Y-14649006D01*
X12587472Y-14649006D02*
X12596996Y-14629958D01*
X12596996Y-14629958D02*
X12596996Y-14620434D01*
X12596996Y-14620434D02*
X12587472Y-14601387D01*
X12587472Y-14601387D02*
X12568425Y-14591863D01*
X12568425Y-14591863D02*
X12539853Y-14591863D01*
X12539853Y-14591863D02*
X12520806Y-14582339D01*
X12520806Y-14582339D02*
X12511282Y-14563292D01*
X12511282Y-14563292D02*
X12511282Y-14553768D01*
X12511282Y-14553768D02*
X12520806Y-14534720D01*
X12520806Y-14534720D02*
X12539853Y-14525196D01*
X12539853Y-14525196D02*
X12568425Y-14525196D01*
X12568425Y-14525196D02*
X12587472Y-14534720D01*
X12663663Y-14734720D02*
X12673187Y-14725196D01*
X12673187Y-14725196D02*
X12692234Y-14696625D01*
X12692234Y-14696625D02*
X12701758Y-14677577D01*
X12701758Y-14677577D02*
X12711282Y-14649006D01*
X12711282Y-14649006D02*
X12720806Y-14601387D01*
X12720806Y-14601387D02*
X12720806Y-14563292D01*
X12720806Y-14563292D02*
X12711282Y-14515673D01*
X12711282Y-14515673D02*
X12701758Y-14487101D01*
X12701758Y-14487101D02*
X12692234Y-14468054D01*
X12692234Y-14468054D02*
X12673187Y-14439482D01*
X12673187Y-14439482D02*
X12663663Y-14429958D01*
X13025568Y-14734720D02*
X13016044Y-14725196D01*
X13016044Y-14725196D02*
X12996996Y-14696625D01*
X12996996Y-14696625D02*
X12987472Y-14677577D01*
X12987472Y-14677577D02*
X12977949Y-14649006D01*
X12977949Y-14649006D02*
X12968425Y-14601387D01*
X12968425Y-14601387D02*
X12968425Y-14563292D01*
X12968425Y-14563292D02*
X12977949Y-14515673D01*
X12977949Y-14515673D02*
X12987472Y-14487101D01*
X12987472Y-14487101D02*
X12996996Y-14468054D01*
X12996996Y-14468054D02*
X13016044Y-14439482D01*
X13016044Y-14439482D02*
X13025568Y-14429958D01*
X13101758Y-14525196D02*
X13101758Y-14658530D01*
X13101758Y-14544244D02*
X13111282Y-14534720D01*
X13111282Y-14534720D02*
X13130330Y-14525196D01*
X13130330Y-14525196D02*
X13158901Y-14525196D01*
X13158901Y-14525196D02*
X13177949Y-14534720D01*
X13177949Y-14534720D02*
X13187472Y-14553768D01*
X13187472Y-14553768D02*
X13187472Y-14658530D01*
X13311282Y-14658530D02*
X13292234Y-14649006D01*
X13292234Y-14649006D02*
X13282711Y-14639482D01*
X13282711Y-14639482D02*
X13273187Y-14620434D01*
X13273187Y-14620434D02*
X13273187Y-14563292D01*
X13273187Y-14563292D02*
X13282711Y-14544244D01*
X13282711Y-14544244D02*
X13292234Y-14534720D01*
X13292234Y-14534720D02*
X13311282Y-14525196D01*
X13311282Y-14525196D02*
X13339853Y-14525196D01*
X13339853Y-14525196D02*
X13358901Y-14534720D01*
X13358901Y-14534720D02*
X13368425Y-14544244D01*
X13368425Y-14544244D02*
X13377949Y-14563292D01*
X13377949Y-14563292D02*
X13377949Y-14620434D01*
X13377949Y-14620434D02*
X13368425Y-14639482D01*
X13368425Y-14639482D02*
X13358901Y-14649006D01*
X13358901Y-14649006D02*
X13339853Y-14658530D01*
X13339853Y-14658530D02*
X13311282Y-14658530D01*
X13435092Y-14525196D02*
X13511282Y-14525196D01*
X13463663Y-14458530D02*
X13463663Y-14629958D01*
X13463663Y-14629958D02*
X13473187Y-14649006D01*
X13473187Y-14649006D02*
X13492234Y-14658530D01*
X13492234Y-14658530D02*
X13511282Y-14658530D01*
X13730330Y-14525196D02*
X13730330Y-14725196D01*
X13730330Y-14534720D02*
X13749377Y-14525196D01*
X13749377Y-14525196D02*
X13787473Y-14525196D01*
X13787473Y-14525196D02*
X13806520Y-14534720D01*
X13806520Y-14534720D02*
X13816044Y-14544244D01*
X13816044Y-14544244D02*
X13825568Y-14563292D01*
X13825568Y-14563292D02*
X13825568Y-14620434D01*
X13825568Y-14620434D02*
X13816044Y-14639482D01*
X13816044Y-14639482D02*
X13806520Y-14649006D01*
X13806520Y-14649006D02*
X13787473Y-14658530D01*
X13787473Y-14658530D02*
X13749377Y-14658530D01*
X13749377Y-14658530D02*
X13730330Y-14649006D01*
X13939853Y-14658530D02*
X13920806Y-14649006D01*
X13920806Y-14649006D02*
X13911282Y-14629958D01*
X13911282Y-14629958D02*
X13911282Y-14458530D01*
X14101758Y-14658530D02*
X14101758Y-14553768D01*
X14101758Y-14553768D02*
X14092234Y-14534720D01*
X14092234Y-14534720D02*
X14073187Y-14525196D01*
X14073187Y-14525196D02*
X14035092Y-14525196D01*
X14035092Y-14525196D02*
X14016044Y-14534720D01*
X14101758Y-14649006D02*
X14082711Y-14658530D01*
X14082711Y-14658530D02*
X14035092Y-14658530D01*
X14035092Y-14658530D02*
X14016044Y-14649006D01*
X14016044Y-14649006D02*
X14006520Y-14629958D01*
X14006520Y-14629958D02*
X14006520Y-14610911D01*
X14006520Y-14610911D02*
X14016044Y-14591863D01*
X14016044Y-14591863D02*
X14035092Y-14582339D01*
X14035092Y-14582339D02*
X14082711Y-14582339D01*
X14082711Y-14582339D02*
X14101758Y-14572815D01*
X14168425Y-14525196D02*
X14244615Y-14525196D01*
X14196996Y-14458530D02*
X14196996Y-14629958D01*
X14196996Y-14629958D02*
X14206520Y-14649006D01*
X14206520Y-14649006D02*
X14225568Y-14658530D01*
X14225568Y-14658530D02*
X14244615Y-14658530D01*
X14387473Y-14649006D02*
X14368425Y-14658530D01*
X14368425Y-14658530D02*
X14330330Y-14658530D01*
X14330330Y-14658530D02*
X14311282Y-14649006D01*
X14311282Y-14649006D02*
X14301758Y-14629958D01*
X14301758Y-14629958D02*
X14301758Y-14553768D01*
X14301758Y-14553768D02*
X14311282Y-14534720D01*
X14311282Y-14534720D02*
X14330330Y-14525196D01*
X14330330Y-14525196D02*
X14368425Y-14525196D01*
X14368425Y-14525196D02*
X14387473Y-14534720D01*
X14387473Y-14534720D02*
X14396996Y-14553768D01*
X14396996Y-14553768D02*
X14396996Y-14572815D01*
X14396996Y-14572815D02*
X14301758Y-14591863D01*
X14568425Y-14658530D02*
X14568425Y-14458530D01*
X14568425Y-14649006D02*
X14549377Y-14658530D01*
X14549377Y-14658530D02*
X14511282Y-14658530D01*
X14511282Y-14658530D02*
X14492234Y-14649006D01*
X14492234Y-14649006D02*
X14482711Y-14639482D01*
X14482711Y-14639482D02*
X14473187Y-14620434D01*
X14473187Y-14620434D02*
X14473187Y-14563292D01*
X14473187Y-14563292D02*
X14482711Y-14544244D01*
X14482711Y-14544244D02*
X14492234Y-14534720D01*
X14492234Y-14534720D02*
X14511282Y-14525196D01*
X14511282Y-14525196D02*
X14549377Y-14525196D01*
X14549377Y-14525196D02*
X14568425Y-14534720D01*
X14644615Y-14734720D02*
X14654139Y-14725196D01*
X14654139Y-14725196D02*
X14673187Y-14696625D01*
X14673187Y-14696625D02*
X14682711Y-14677577D01*
X14682711Y-14677577D02*
X14692234Y-14649006D01*
X14692234Y-14649006D02*
X14701758Y-14601387D01*
X14701758Y-14601387D02*
X14701758Y-14563292D01*
X14701758Y-14563292D02*
X14692234Y-14515673D01*
X14692234Y-14515673D02*
X14682711Y-14487101D01*
X14682711Y-14487101D02*
X14673187Y-14468054D01*
X14673187Y-14468054D02*
X14654139Y-14439482D01*
X14654139Y-14439482D02*
X14644615Y-14429958D01*
X7888600Y-14887046D02*
G75*
G02*
X7688600Y-14887046I-100000J0D01*
G01*
X7688600Y-14887046D02*
G75*
G02*
X7888600Y-14887046I100000J0D01*
G01*
X8130329Y-14778530D02*
X8254139Y-14778530D01*
X8254139Y-14778530D02*
X8187472Y-14854720D01*
X8187472Y-14854720D02*
X8216043Y-14854720D01*
X8216043Y-14854720D02*
X8235091Y-14864244D01*
X8235091Y-14864244D02*
X8244615Y-14873768D01*
X8244615Y-14873768D02*
X8254139Y-14892815D01*
X8254139Y-14892815D02*
X8254139Y-14940434D01*
X8254139Y-14940434D02*
X8244615Y-14959482D01*
X8244615Y-14959482D02*
X8235091Y-14969006D01*
X8235091Y-14969006D02*
X8216043Y-14978530D01*
X8216043Y-14978530D02*
X8158901Y-14978530D01*
X8158901Y-14978530D02*
X8139853Y-14969006D01*
X8139853Y-14969006D02*
X8130329Y-14959482D01*
X8339853Y-14959482D02*
X8349377Y-14969006D01*
X8349377Y-14969006D02*
X8339853Y-14978530D01*
X8339853Y-14978530D02*
X8330329Y-14969006D01*
X8330329Y-14969006D02*
X8339853Y-14959482D01*
X8339853Y-14959482D02*
X8339853Y-14978530D01*
X8425567Y-14797577D02*
X8435091Y-14788054D01*
X8435091Y-14788054D02*
X8454139Y-14778530D01*
X8454139Y-14778530D02*
X8501758Y-14778530D01*
X8501758Y-14778530D02*
X8520805Y-14788054D01*
X8520805Y-14788054D02*
X8530329Y-14797577D01*
X8530329Y-14797577D02*
X8539853Y-14816625D01*
X8539853Y-14816625D02*
X8539853Y-14835673D01*
X8539853Y-14835673D02*
X8530329Y-14864244D01*
X8530329Y-14864244D02*
X8416044Y-14978530D01*
X8416044Y-14978530D02*
X8539853Y-14978530D01*
X8720805Y-14778530D02*
X8625567Y-14778530D01*
X8625567Y-14778530D02*
X8616044Y-14873768D01*
X8616044Y-14873768D02*
X8625567Y-14864244D01*
X8625567Y-14864244D02*
X8644615Y-14854720D01*
X8644615Y-14854720D02*
X8692234Y-14854720D01*
X8692234Y-14854720D02*
X8711282Y-14864244D01*
X8711282Y-14864244D02*
X8720805Y-14873768D01*
X8720805Y-14873768D02*
X8730329Y-14892815D01*
X8730329Y-14892815D02*
X8730329Y-14940434D01*
X8730329Y-14940434D02*
X8720805Y-14959482D01*
X8720805Y-14959482D02*
X8711282Y-14969006D01*
X8711282Y-14969006D02*
X8692234Y-14978530D01*
X8692234Y-14978530D02*
X8644615Y-14978530D01*
X8644615Y-14978530D02*
X8625567Y-14969006D01*
X8625567Y-14969006D02*
X8616044Y-14959482D01*
X8854139Y-14778530D02*
X8873186Y-14778530D01*
X8873186Y-14778530D02*
X8892234Y-14788054D01*
X8892234Y-14788054D02*
X8901758Y-14797577D01*
X8901758Y-14797577D02*
X8911282Y-14816625D01*
X8911282Y-14816625D02*
X8920805Y-14854720D01*
X8920805Y-14854720D02*
X8920805Y-14902339D01*
X8920805Y-14902339D02*
X8911282Y-14940434D01*
X8911282Y-14940434D02*
X8901758Y-14959482D01*
X8901758Y-14959482D02*
X8892234Y-14969006D01*
X8892234Y-14969006D02*
X8873186Y-14978530D01*
X8873186Y-14978530D02*
X8854139Y-14978530D01*
X8854139Y-14978530D02*
X8835091Y-14969006D01*
X8835091Y-14969006D02*
X8825567Y-14959482D01*
X8825567Y-14959482D02*
X8816044Y-14940434D01*
X8816044Y-14940434D02*
X8806520Y-14902339D01*
X8806520Y-14902339D02*
X8806520Y-14854720D01*
X8806520Y-14854720D02*
X8816044Y-14816625D01*
X8816044Y-14816625D02*
X8825567Y-14797577D01*
X8825567Y-14797577D02*
X8835091Y-14788054D01*
X8835091Y-14788054D02*
X8854139Y-14778530D01*
X9006520Y-14978530D02*
X9006520Y-14845196D01*
X9006520Y-14864244D02*
X9016044Y-14854720D01*
X9016044Y-14854720D02*
X9035091Y-14845196D01*
X9035091Y-14845196D02*
X9063663Y-14845196D01*
X9063663Y-14845196D02*
X9082710Y-14854720D01*
X9082710Y-14854720D02*
X9092234Y-14873768D01*
X9092234Y-14873768D02*
X9092234Y-14978530D01*
X9092234Y-14873768D02*
X9101758Y-14854720D01*
X9101758Y-14854720D02*
X9120805Y-14845196D01*
X9120805Y-14845196D02*
X9149377Y-14845196D01*
X9149377Y-14845196D02*
X9168425Y-14854720D01*
X9168425Y-14854720D02*
X9177948Y-14873768D01*
X9177948Y-14873768D02*
X9177948Y-14978530D01*
X9273186Y-14978530D02*
X9273186Y-14845196D01*
X9273186Y-14864244D02*
X9282710Y-14854720D01*
X9282710Y-14854720D02*
X9301758Y-14845196D01*
X9301758Y-14845196D02*
X9330329Y-14845196D01*
X9330329Y-14845196D02*
X9349377Y-14854720D01*
X9349377Y-14854720D02*
X9358901Y-14873768D01*
X9358901Y-14873768D02*
X9358901Y-14978530D01*
X9358901Y-14873768D02*
X9368425Y-14854720D01*
X9368425Y-14854720D02*
X9387472Y-14845196D01*
X9387472Y-14845196D02*
X9416044Y-14845196D01*
X9416044Y-14845196D02*
X9435091Y-14854720D01*
X9435091Y-14854720D02*
X9444615Y-14873768D01*
X9444615Y-14873768D02*
X9444615Y-14978530D01*
X9835091Y-14769006D02*
X9663663Y-15026149D01*
X10092234Y-14778530D02*
X10111282Y-14778530D01*
X10111282Y-14778530D02*
X10130329Y-14788054D01*
X10130329Y-14788054D02*
X10139853Y-14797577D01*
X10139853Y-14797577D02*
X10149377Y-14816625D01*
X10149377Y-14816625D02*
X10158901Y-14854720D01*
X10158901Y-14854720D02*
X10158901Y-14902339D01*
X10158901Y-14902339D02*
X10149377Y-14940434D01*
X10149377Y-14940434D02*
X10139853Y-14959482D01*
X10139853Y-14959482D02*
X10130329Y-14969006D01*
X10130329Y-14969006D02*
X10111282Y-14978530D01*
X10111282Y-14978530D02*
X10092234Y-14978530D01*
X10092234Y-14978530D02*
X10073187Y-14969006D01*
X10073187Y-14969006D02*
X10063663Y-14959482D01*
X10063663Y-14959482D02*
X10054139Y-14940434D01*
X10054139Y-14940434D02*
X10044615Y-14902339D01*
X10044615Y-14902339D02*
X10044615Y-14854720D01*
X10044615Y-14854720D02*
X10054139Y-14816625D01*
X10054139Y-14816625D02*
X10063663Y-14797577D01*
X10063663Y-14797577D02*
X10073187Y-14788054D01*
X10073187Y-14788054D02*
X10092234Y-14778530D01*
X10244615Y-14959482D02*
X10254139Y-14969006D01*
X10254139Y-14969006D02*
X10244615Y-14978530D01*
X10244615Y-14978530D02*
X10235091Y-14969006D01*
X10235091Y-14969006D02*
X10244615Y-14959482D01*
X10244615Y-14959482D02*
X10244615Y-14978530D01*
X10444615Y-14978530D02*
X10330329Y-14978530D01*
X10387472Y-14978530D02*
X10387472Y-14778530D01*
X10387472Y-14778530D02*
X10368425Y-14807101D01*
X10368425Y-14807101D02*
X10349377Y-14826149D01*
X10349377Y-14826149D02*
X10330329Y-14835673D01*
X10520806Y-14797577D02*
X10530329Y-14788054D01*
X10530329Y-14788054D02*
X10549377Y-14778530D01*
X10549377Y-14778530D02*
X10596996Y-14778530D01*
X10596996Y-14778530D02*
X10616044Y-14788054D01*
X10616044Y-14788054D02*
X10625568Y-14797577D01*
X10625568Y-14797577D02*
X10635091Y-14816625D01*
X10635091Y-14816625D02*
X10635091Y-14835673D01*
X10635091Y-14835673D02*
X10625568Y-14864244D01*
X10625568Y-14864244D02*
X10511282Y-14978530D01*
X10511282Y-14978530D02*
X10635091Y-14978530D01*
X10749377Y-14864244D02*
X10730329Y-14854720D01*
X10730329Y-14854720D02*
X10720806Y-14845196D01*
X10720806Y-14845196D02*
X10711282Y-14826149D01*
X10711282Y-14826149D02*
X10711282Y-14816625D01*
X10711282Y-14816625D02*
X10720806Y-14797577D01*
X10720806Y-14797577D02*
X10730329Y-14788054D01*
X10730329Y-14788054D02*
X10749377Y-14778530D01*
X10749377Y-14778530D02*
X10787472Y-14778530D01*
X10787472Y-14778530D02*
X10806520Y-14788054D01*
X10806520Y-14788054D02*
X10816044Y-14797577D01*
X10816044Y-14797577D02*
X10825568Y-14816625D01*
X10825568Y-14816625D02*
X10825568Y-14826149D01*
X10825568Y-14826149D02*
X10816044Y-14845196D01*
X10816044Y-14845196D02*
X10806520Y-14854720D01*
X10806520Y-14854720D02*
X10787472Y-14864244D01*
X10787472Y-14864244D02*
X10749377Y-14864244D01*
X10749377Y-14864244D02*
X10730329Y-14873768D01*
X10730329Y-14873768D02*
X10720806Y-14883292D01*
X10720806Y-14883292D02*
X10711282Y-14902339D01*
X10711282Y-14902339D02*
X10711282Y-14940434D01*
X10711282Y-14940434D02*
X10720806Y-14959482D01*
X10720806Y-14959482D02*
X10730329Y-14969006D01*
X10730329Y-14969006D02*
X10749377Y-14978530D01*
X10749377Y-14978530D02*
X10787472Y-14978530D01*
X10787472Y-14978530D02*
X10806520Y-14969006D01*
X10806520Y-14969006D02*
X10816044Y-14959482D01*
X10816044Y-14959482D02*
X10825568Y-14940434D01*
X10825568Y-14940434D02*
X10825568Y-14902339D01*
X10825568Y-14902339D02*
X10816044Y-14883292D01*
X10816044Y-14883292D02*
X10806520Y-14873768D01*
X10806520Y-14873768D02*
X10787472Y-14864244D01*
X10949377Y-14778530D02*
X10968425Y-14778530D01*
X10968425Y-14778530D02*
X10987472Y-14788054D01*
X10987472Y-14788054D02*
X10996996Y-14797577D01*
X10996996Y-14797577D02*
X11006520Y-14816625D01*
X11006520Y-14816625D02*
X11016044Y-14854720D01*
X11016044Y-14854720D02*
X11016044Y-14902339D01*
X11016044Y-14902339D02*
X11006520Y-14940434D01*
X11006520Y-14940434D02*
X10996996Y-14959482D01*
X10996996Y-14959482D02*
X10987472Y-14969006D01*
X10987472Y-14969006D02*
X10968425Y-14978530D01*
X10968425Y-14978530D02*
X10949377Y-14978530D01*
X10949377Y-14978530D02*
X10930329Y-14969006D01*
X10930329Y-14969006D02*
X10920806Y-14959482D01*
X10920806Y-14959482D02*
X10911282Y-14940434D01*
X10911282Y-14940434D02*
X10901758Y-14902339D01*
X10901758Y-14902339D02*
X10901758Y-14854720D01*
X10901758Y-14854720D02*
X10911282Y-14816625D01*
X10911282Y-14816625D02*
X10920806Y-14797577D01*
X10920806Y-14797577D02*
X10930329Y-14788054D01*
X10930329Y-14788054D02*
X10949377Y-14778530D01*
X11092234Y-14778530D02*
X11092234Y-14816625D01*
X11168425Y-14778530D02*
X11168425Y-14816625D01*
X11463663Y-15054720D02*
X11454139Y-15045196D01*
X11454139Y-15045196D02*
X11435091Y-15016625D01*
X11435091Y-15016625D02*
X11425568Y-14997577D01*
X11425568Y-14997577D02*
X11416044Y-14969006D01*
X11416044Y-14969006D02*
X11406520Y-14921387D01*
X11406520Y-14921387D02*
X11406520Y-14883292D01*
X11406520Y-14883292D02*
X11416044Y-14835673D01*
X11416044Y-14835673D02*
X11425568Y-14807101D01*
X11425568Y-14807101D02*
X11435091Y-14788054D01*
X11435091Y-14788054D02*
X11454139Y-14759482D01*
X11454139Y-14759482D02*
X11463663Y-14749958D01*
X11625568Y-14845196D02*
X11625568Y-14978530D01*
X11577948Y-14769006D02*
X11530329Y-14911863D01*
X11530329Y-14911863D02*
X11654139Y-14911863D01*
X11882710Y-14978530D02*
X11882710Y-14778530D01*
X11968425Y-14978530D02*
X11968425Y-14873768D01*
X11968425Y-14873768D02*
X11958901Y-14854720D01*
X11958901Y-14854720D02*
X11939853Y-14845196D01*
X11939853Y-14845196D02*
X11911282Y-14845196D01*
X11911282Y-14845196D02*
X11892234Y-14854720D01*
X11892234Y-14854720D02*
X11882710Y-14864244D01*
X12092234Y-14978530D02*
X12073187Y-14969006D01*
X12073187Y-14969006D02*
X12063663Y-14959482D01*
X12063663Y-14959482D02*
X12054139Y-14940434D01*
X12054139Y-14940434D02*
X12054139Y-14883292D01*
X12054139Y-14883292D02*
X12063663Y-14864244D01*
X12063663Y-14864244D02*
X12073187Y-14854720D01*
X12073187Y-14854720D02*
X12092234Y-14845196D01*
X12092234Y-14845196D02*
X12120806Y-14845196D01*
X12120806Y-14845196D02*
X12139853Y-14854720D01*
X12139853Y-14854720D02*
X12149377Y-14864244D01*
X12149377Y-14864244D02*
X12158901Y-14883292D01*
X12158901Y-14883292D02*
X12158901Y-14940434D01*
X12158901Y-14940434D02*
X12149377Y-14959482D01*
X12149377Y-14959482D02*
X12139853Y-14969006D01*
X12139853Y-14969006D02*
X12120806Y-14978530D01*
X12120806Y-14978530D02*
X12092234Y-14978530D01*
X12273187Y-14978530D02*
X12254139Y-14969006D01*
X12254139Y-14969006D02*
X12244615Y-14949958D01*
X12244615Y-14949958D02*
X12244615Y-14778530D01*
X12425568Y-14969006D02*
X12406520Y-14978530D01*
X12406520Y-14978530D02*
X12368425Y-14978530D01*
X12368425Y-14978530D02*
X12349377Y-14969006D01*
X12349377Y-14969006D02*
X12339853Y-14949958D01*
X12339853Y-14949958D02*
X12339853Y-14873768D01*
X12339853Y-14873768D02*
X12349377Y-14854720D01*
X12349377Y-14854720D02*
X12368425Y-14845196D01*
X12368425Y-14845196D02*
X12406520Y-14845196D01*
X12406520Y-14845196D02*
X12425568Y-14854720D01*
X12425568Y-14854720D02*
X12435091Y-14873768D01*
X12435091Y-14873768D02*
X12435091Y-14892815D01*
X12435091Y-14892815D02*
X12339853Y-14911863D01*
X12511282Y-14969006D02*
X12530330Y-14978530D01*
X12530330Y-14978530D02*
X12568425Y-14978530D01*
X12568425Y-14978530D02*
X12587472Y-14969006D01*
X12587472Y-14969006D02*
X12596996Y-14949958D01*
X12596996Y-14949958D02*
X12596996Y-14940434D01*
X12596996Y-14940434D02*
X12587472Y-14921387D01*
X12587472Y-14921387D02*
X12568425Y-14911863D01*
X12568425Y-14911863D02*
X12539853Y-14911863D01*
X12539853Y-14911863D02*
X12520806Y-14902339D01*
X12520806Y-14902339D02*
X12511282Y-14883292D01*
X12511282Y-14883292D02*
X12511282Y-14873768D01*
X12511282Y-14873768D02*
X12520806Y-14854720D01*
X12520806Y-14854720D02*
X12539853Y-14845196D01*
X12539853Y-14845196D02*
X12568425Y-14845196D01*
X12568425Y-14845196D02*
X12587472Y-14854720D01*
X12663663Y-15054720D02*
X12673187Y-15045196D01*
X12673187Y-15045196D02*
X12692234Y-15016625D01*
X12692234Y-15016625D02*
X12701758Y-14997577D01*
X12701758Y-14997577D02*
X12711282Y-14969006D01*
X12711282Y-14969006D02*
X12720806Y-14921387D01*
X12720806Y-14921387D02*
X12720806Y-14883292D01*
X12720806Y-14883292D02*
X12711282Y-14835673D01*
X12711282Y-14835673D02*
X12701758Y-14807101D01*
X12701758Y-14807101D02*
X12692234Y-14788054D01*
X12692234Y-14788054D02*
X12673187Y-14759482D01*
X12673187Y-14759482D02*
X12663663Y-14749958D01*
X13025568Y-15054720D02*
X13016044Y-15045196D01*
X13016044Y-15045196D02*
X12996996Y-15016625D01*
X12996996Y-15016625D02*
X12987472Y-14997577D01*
X12987472Y-14997577D02*
X12977949Y-14969006D01*
X12977949Y-14969006D02*
X12968425Y-14921387D01*
X12968425Y-14921387D02*
X12968425Y-14883292D01*
X12968425Y-14883292D02*
X12977949Y-14835673D01*
X12977949Y-14835673D02*
X12987472Y-14807101D01*
X12987472Y-14807101D02*
X12996996Y-14788054D01*
X12996996Y-14788054D02*
X13016044Y-14759482D01*
X13016044Y-14759482D02*
X13025568Y-14749958D01*
X13101758Y-14845196D02*
X13101758Y-14978530D01*
X13101758Y-14864244D02*
X13111282Y-14854720D01*
X13111282Y-14854720D02*
X13130330Y-14845196D01*
X13130330Y-14845196D02*
X13158901Y-14845196D01*
X13158901Y-14845196D02*
X13177949Y-14854720D01*
X13177949Y-14854720D02*
X13187472Y-14873768D01*
X13187472Y-14873768D02*
X13187472Y-14978530D01*
X13311282Y-14978530D02*
X13292234Y-14969006D01*
X13292234Y-14969006D02*
X13282711Y-14959482D01*
X13282711Y-14959482D02*
X13273187Y-14940434D01*
X13273187Y-14940434D02*
X13273187Y-14883292D01*
X13273187Y-14883292D02*
X13282711Y-14864244D01*
X13282711Y-14864244D02*
X13292234Y-14854720D01*
X13292234Y-14854720D02*
X13311282Y-14845196D01*
X13311282Y-14845196D02*
X13339853Y-14845196D01*
X13339853Y-14845196D02*
X13358901Y-14854720D01*
X13358901Y-14854720D02*
X13368425Y-14864244D01*
X13368425Y-14864244D02*
X13377949Y-14883292D01*
X13377949Y-14883292D02*
X13377949Y-14940434D01*
X13377949Y-14940434D02*
X13368425Y-14959482D01*
X13368425Y-14959482D02*
X13358901Y-14969006D01*
X13358901Y-14969006D02*
X13339853Y-14978530D01*
X13339853Y-14978530D02*
X13311282Y-14978530D01*
X13435092Y-14845196D02*
X13511282Y-14845196D01*
X13463663Y-14778530D02*
X13463663Y-14949958D01*
X13463663Y-14949958D02*
X13473187Y-14969006D01*
X13473187Y-14969006D02*
X13492234Y-14978530D01*
X13492234Y-14978530D02*
X13511282Y-14978530D01*
X13730330Y-14845196D02*
X13730330Y-15045196D01*
X13730330Y-14854720D02*
X13749377Y-14845196D01*
X13749377Y-14845196D02*
X13787473Y-14845196D01*
X13787473Y-14845196D02*
X13806520Y-14854720D01*
X13806520Y-14854720D02*
X13816044Y-14864244D01*
X13816044Y-14864244D02*
X13825568Y-14883292D01*
X13825568Y-14883292D02*
X13825568Y-14940434D01*
X13825568Y-14940434D02*
X13816044Y-14959482D01*
X13816044Y-14959482D02*
X13806520Y-14969006D01*
X13806520Y-14969006D02*
X13787473Y-14978530D01*
X13787473Y-14978530D02*
X13749377Y-14978530D01*
X13749377Y-14978530D02*
X13730330Y-14969006D01*
X13939853Y-14978530D02*
X13920806Y-14969006D01*
X13920806Y-14969006D02*
X13911282Y-14949958D01*
X13911282Y-14949958D02*
X13911282Y-14778530D01*
X14101758Y-14978530D02*
X14101758Y-14873768D01*
X14101758Y-14873768D02*
X14092234Y-14854720D01*
X14092234Y-14854720D02*
X14073187Y-14845196D01*
X14073187Y-14845196D02*
X14035092Y-14845196D01*
X14035092Y-14845196D02*
X14016044Y-14854720D01*
X14101758Y-14969006D02*
X14082711Y-14978530D01*
X14082711Y-14978530D02*
X14035092Y-14978530D01*
X14035092Y-14978530D02*
X14016044Y-14969006D01*
X14016044Y-14969006D02*
X14006520Y-14949958D01*
X14006520Y-14949958D02*
X14006520Y-14930911D01*
X14006520Y-14930911D02*
X14016044Y-14911863D01*
X14016044Y-14911863D02*
X14035092Y-14902339D01*
X14035092Y-14902339D02*
X14082711Y-14902339D01*
X14082711Y-14902339D02*
X14101758Y-14892815D01*
X14168425Y-14845196D02*
X14244615Y-14845196D01*
X14196996Y-14778530D02*
X14196996Y-14949958D01*
X14196996Y-14949958D02*
X14206520Y-14969006D01*
X14206520Y-14969006D02*
X14225568Y-14978530D01*
X14225568Y-14978530D02*
X14244615Y-14978530D01*
X14387473Y-14969006D02*
X14368425Y-14978530D01*
X14368425Y-14978530D02*
X14330330Y-14978530D01*
X14330330Y-14978530D02*
X14311282Y-14969006D01*
X14311282Y-14969006D02*
X14301758Y-14949958D01*
X14301758Y-14949958D02*
X14301758Y-14873768D01*
X14301758Y-14873768D02*
X14311282Y-14854720D01*
X14311282Y-14854720D02*
X14330330Y-14845196D01*
X14330330Y-14845196D02*
X14368425Y-14845196D01*
X14368425Y-14845196D02*
X14387473Y-14854720D01*
X14387473Y-14854720D02*
X14396996Y-14873768D01*
X14396996Y-14873768D02*
X14396996Y-14892815D01*
X14396996Y-14892815D02*
X14301758Y-14911863D01*
X14568425Y-14978530D02*
X14568425Y-14778530D01*
X14568425Y-14969006D02*
X14549377Y-14978530D01*
X14549377Y-14978530D02*
X14511282Y-14978530D01*
X14511282Y-14978530D02*
X14492234Y-14969006D01*
X14492234Y-14969006D02*
X14482711Y-14959482D01*
X14482711Y-14959482D02*
X14473187Y-14940434D01*
X14473187Y-14940434D02*
X14473187Y-14883292D01*
X14473187Y-14883292D02*
X14482711Y-14864244D01*
X14482711Y-14864244D02*
X14492234Y-14854720D01*
X14492234Y-14854720D02*
X14511282Y-14845196D01*
X14511282Y-14845196D02*
X14549377Y-14845196D01*
X14549377Y-14845196D02*
X14568425Y-14854720D01*
X14644615Y-15054720D02*
X14654139Y-15045196D01*
X14654139Y-15045196D02*
X14673187Y-15016625D01*
X14673187Y-15016625D02*
X14682711Y-14997577D01*
X14682711Y-14997577D02*
X14692234Y-14969006D01*
X14692234Y-14969006D02*
X14701758Y-14921387D01*
X14701758Y-14921387D02*
X14701758Y-14883292D01*
X14701758Y-14883292D02*
X14692234Y-14835673D01*
X14692234Y-14835673D02*
X14682711Y-14807101D01*
X14682711Y-14807101D02*
X14673187Y-14788054D01*
X14673187Y-14788054D02*
X14654139Y-14759482D01*
X14654139Y-14759482D02*
X14644615Y-14749958D01*
X7788600Y-15107046D02*
X7788600Y-15307046D01*
X7688600Y-15207046D02*
X7888600Y-15207046D01*
X8130329Y-15098530D02*
X8254139Y-15098530D01*
X8254139Y-15098530D02*
X8187472Y-15174720D01*
X8187472Y-15174720D02*
X8216043Y-15174720D01*
X8216043Y-15174720D02*
X8235091Y-15184244D01*
X8235091Y-15184244D02*
X8244615Y-15193768D01*
X8244615Y-15193768D02*
X8254139Y-15212815D01*
X8254139Y-15212815D02*
X8254139Y-15260434D01*
X8254139Y-15260434D02*
X8244615Y-15279482D01*
X8244615Y-15279482D02*
X8235091Y-15289006D01*
X8235091Y-15289006D02*
X8216043Y-15298530D01*
X8216043Y-15298530D02*
X8158901Y-15298530D01*
X8158901Y-15298530D02*
X8139853Y-15289006D01*
X8139853Y-15289006D02*
X8130329Y-15279482D01*
X8339853Y-15279482D02*
X8349377Y-15289006D01*
X8349377Y-15289006D02*
X8339853Y-15298530D01*
X8339853Y-15298530D02*
X8330329Y-15289006D01*
X8330329Y-15289006D02*
X8339853Y-15279482D01*
X8339853Y-15279482D02*
X8339853Y-15298530D01*
X8416044Y-15098530D02*
X8539853Y-15098530D01*
X8539853Y-15098530D02*
X8473186Y-15174720D01*
X8473186Y-15174720D02*
X8501758Y-15174720D01*
X8501758Y-15174720D02*
X8520805Y-15184244D01*
X8520805Y-15184244D02*
X8530329Y-15193768D01*
X8530329Y-15193768D02*
X8539853Y-15212815D01*
X8539853Y-15212815D02*
X8539853Y-15260434D01*
X8539853Y-15260434D02*
X8530329Y-15279482D01*
X8530329Y-15279482D02*
X8520805Y-15289006D01*
X8520805Y-15289006D02*
X8501758Y-15298530D01*
X8501758Y-15298530D02*
X8444615Y-15298530D01*
X8444615Y-15298530D02*
X8425567Y-15289006D01*
X8425567Y-15289006D02*
X8416044Y-15279482D01*
X8663663Y-15098530D02*
X8682710Y-15098530D01*
X8682710Y-15098530D02*
X8701758Y-15108054D01*
X8701758Y-15108054D02*
X8711282Y-15117577D01*
X8711282Y-15117577D02*
X8720805Y-15136625D01*
X8720805Y-15136625D02*
X8730329Y-15174720D01*
X8730329Y-15174720D02*
X8730329Y-15222339D01*
X8730329Y-15222339D02*
X8720805Y-15260434D01*
X8720805Y-15260434D02*
X8711282Y-15279482D01*
X8711282Y-15279482D02*
X8701758Y-15289006D01*
X8701758Y-15289006D02*
X8682710Y-15298530D01*
X8682710Y-15298530D02*
X8663663Y-15298530D01*
X8663663Y-15298530D02*
X8644615Y-15289006D01*
X8644615Y-15289006D02*
X8635091Y-15279482D01*
X8635091Y-15279482D02*
X8625567Y-15260434D01*
X8625567Y-15260434D02*
X8616044Y-15222339D01*
X8616044Y-15222339D02*
X8616044Y-15174720D01*
X8616044Y-15174720D02*
X8625567Y-15136625D01*
X8625567Y-15136625D02*
X8635091Y-15117577D01*
X8635091Y-15117577D02*
X8644615Y-15108054D01*
X8644615Y-15108054D02*
X8663663Y-15098530D01*
X8806520Y-15117577D02*
X8816044Y-15108054D01*
X8816044Y-15108054D02*
X8835091Y-15098530D01*
X8835091Y-15098530D02*
X8882710Y-15098530D01*
X8882710Y-15098530D02*
X8901758Y-15108054D01*
X8901758Y-15108054D02*
X8911282Y-15117577D01*
X8911282Y-15117577D02*
X8920805Y-15136625D01*
X8920805Y-15136625D02*
X8920805Y-15155673D01*
X8920805Y-15155673D02*
X8911282Y-15184244D01*
X8911282Y-15184244D02*
X8796996Y-15298530D01*
X8796996Y-15298530D02*
X8920805Y-15298530D01*
X9006520Y-15298530D02*
X9006520Y-15165196D01*
X9006520Y-15184244D02*
X9016044Y-15174720D01*
X9016044Y-15174720D02*
X9035091Y-15165196D01*
X9035091Y-15165196D02*
X9063663Y-15165196D01*
X9063663Y-15165196D02*
X9082710Y-15174720D01*
X9082710Y-15174720D02*
X9092234Y-15193768D01*
X9092234Y-15193768D02*
X9092234Y-15298530D01*
X9092234Y-15193768D02*
X9101758Y-15174720D01*
X9101758Y-15174720D02*
X9120805Y-15165196D01*
X9120805Y-15165196D02*
X9149377Y-15165196D01*
X9149377Y-15165196D02*
X9168425Y-15174720D01*
X9168425Y-15174720D02*
X9177948Y-15193768D01*
X9177948Y-15193768D02*
X9177948Y-15298530D01*
X9273186Y-15298530D02*
X9273186Y-15165196D01*
X9273186Y-15184244D02*
X9282710Y-15174720D01*
X9282710Y-15174720D02*
X9301758Y-15165196D01*
X9301758Y-15165196D02*
X9330329Y-15165196D01*
X9330329Y-15165196D02*
X9349377Y-15174720D01*
X9349377Y-15174720D02*
X9358901Y-15193768D01*
X9358901Y-15193768D02*
X9358901Y-15298530D01*
X9358901Y-15193768D02*
X9368425Y-15174720D01*
X9368425Y-15174720D02*
X9387472Y-15165196D01*
X9387472Y-15165196D02*
X9416044Y-15165196D01*
X9416044Y-15165196D02*
X9435091Y-15174720D01*
X9435091Y-15174720D02*
X9444615Y-15193768D01*
X9444615Y-15193768D02*
X9444615Y-15298530D01*
X9835091Y-15089006D02*
X9663663Y-15346149D01*
X10092234Y-15098530D02*
X10111282Y-15098530D01*
X10111282Y-15098530D02*
X10130329Y-15108054D01*
X10130329Y-15108054D02*
X10139853Y-15117577D01*
X10139853Y-15117577D02*
X10149377Y-15136625D01*
X10149377Y-15136625D02*
X10158901Y-15174720D01*
X10158901Y-15174720D02*
X10158901Y-15222339D01*
X10158901Y-15222339D02*
X10149377Y-15260434D01*
X10149377Y-15260434D02*
X10139853Y-15279482D01*
X10139853Y-15279482D02*
X10130329Y-15289006D01*
X10130329Y-15289006D02*
X10111282Y-15298530D01*
X10111282Y-15298530D02*
X10092234Y-15298530D01*
X10092234Y-15298530D02*
X10073187Y-15289006D01*
X10073187Y-15289006D02*
X10063663Y-15279482D01*
X10063663Y-15279482D02*
X10054139Y-15260434D01*
X10054139Y-15260434D02*
X10044615Y-15222339D01*
X10044615Y-15222339D02*
X10044615Y-15174720D01*
X10044615Y-15174720D02*
X10054139Y-15136625D01*
X10054139Y-15136625D02*
X10063663Y-15117577D01*
X10063663Y-15117577D02*
X10073187Y-15108054D01*
X10073187Y-15108054D02*
X10092234Y-15098530D01*
X10244615Y-15279482D02*
X10254139Y-15289006D01*
X10254139Y-15289006D02*
X10244615Y-15298530D01*
X10244615Y-15298530D02*
X10235091Y-15289006D01*
X10235091Y-15289006D02*
X10244615Y-15279482D01*
X10244615Y-15279482D02*
X10244615Y-15298530D01*
X10444615Y-15298530D02*
X10330329Y-15298530D01*
X10387472Y-15298530D02*
X10387472Y-15098530D01*
X10387472Y-15098530D02*
X10368425Y-15127101D01*
X10368425Y-15127101D02*
X10349377Y-15146149D01*
X10349377Y-15146149D02*
X10330329Y-15155673D01*
X10511282Y-15098530D02*
X10635091Y-15098530D01*
X10635091Y-15098530D02*
X10568425Y-15174720D01*
X10568425Y-15174720D02*
X10596996Y-15174720D01*
X10596996Y-15174720D02*
X10616044Y-15184244D01*
X10616044Y-15184244D02*
X10625568Y-15193768D01*
X10625568Y-15193768D02*
X10635091Y-15212815D01*
X10635091Y-15212815D02*
X10635091Y-15260434D01*
X10635091Y-15260434D02*
X10625568Y-15279482D01*
X10625568Y-15279482D02*
X10616044Y-15289006D01*
X10616044Y-15289006D02*
X10596996Y-15298530D01*
X10596996Y-15298530D02*
X10539853Y-15298530D01*
X10539853Y-15298530D02*
X10520806Y-15289006D01*
X10520806Y-15289006D02*
X10511282Y-15279482D01*
X10758901Y-15098530D02*
X10777949Y-15098530D01*
X10777949Y-15098530D02*
X10796996Y-15108054D01*
X10796996Y-15108054D02*
X10806520Y-15117577D01*
X10806520Y-15117577D02*
X10816044Y-15136625D01*
X10816044Y-15136625D02*
X10825568Y-15174720D01*
X10825568Y-15174720D02*
X10825568Y-15222339D01*
X10825568Y-15222339D02*
X10816044Y-15260434D01*
X10816044Y-15260434D02*
X10806520Y-15279482D01*
X10806520Y-15279482D02*
X10796996Y-15289006D01*
X10796996Y-15289006D02*
X10777949Y-15298530D01*
X10777949Y-15298530D02*
X10758901Y-15298530D01*
X10758901Y-15298530D02*
X10739853Y-15289006D01*
X10739853Y-15289006D02*
X10730329Y-15279482D01*
X10730329Y-15279482D02*
X10720806Y-15260434D01*
X10720806Y-15260434D02*
X10711282Y-15222339D01*
X10711282Y-15222339D02*
X10711282Y-15174720D01*
X10711282Y-15174720D02*
X10720806Y-15136625D01*
X10720806Y-15136625D02*
X10730329Y-15117577D01*
X10730329Y-15117577D02*
X10739853Y-15108054D01*
X10739853Y-15108054D02*
X10758901Y-15098530D01*
X10949377Y-15098530D02*
X10968425Y-15098530D01*
X10968425Y-15098530D02*
X10987472Y-15108054D01*
X10987472Y-15108054D02*
X10996996Y-15117577D01*
X10996996Y-15117577D02*
X11006520Y-15136625D01*
X11006520Y-15136625D02*
X11016044Y-15174720D01*
X11016044Y-15174720D02*
X11016044Y-15222339D01*
X11016044Y-15222339D02*
X11006520Y-15260434D01*
X11006520Y-15260434D02*
X10996996Y-15279482D01*
X10996996Y-15279482D02*
X10987472Y-15289006D01*
X10987472Y-15289006D02*
X10968425Y-15298530D01*
X10968425Y-15298530D02*
X10949377Y-15298530D01*
X10949377Y-15298530D02*
X10930329Y-15289006D01*
X10930329Y-15289006D02*
X10920806Y-15279482D01*
X10920806Y-15279482D02*
X10911282Y-15260434D01*
X10911282Y-15260434D02*
X10901758Y-15222339D01*
X10901758Y-15222339D02*
X10901758Y-15174720D01*
X10901758Y-15174720D02*
X10911282Y-15136625D01*
X10911282Y-15136625D02*
X10920806Y-15117577D01*
X10920806Y-15117577D02*
X10930329Y-15108054D01*
X10930329Y-15108054D02*
X10949377Y-15098530D01*
X11092234Y-15098530D02*
X11092234Y-15136625D01*
X11168425Y-15098530D02*
X11168425Y-15136625D01*
X11463663Y-15374720D02*
X11454139Y-15365196D01*
X11454139Y-15365196D02*
X11435091Y-15336625D01*
X11435091Y-15336625D02*
X11425568Y-15317577D01*
X11425568Y-15317577D02*
X11416044Y-15289006D01*
X11416044Y-15289006D02*
X11406520Y-15241387D01*
X11406520Y-15241387D02*
X11406520Y-15203292D01*
X11406520Y-15203292D02*
X11416044Y-15155673D01*
X11416044Y-15155673D02*
X11425568Y-15127101D01*
X11425568Y-15127101D02*
X11435091Y-15108054D01*
X11435091Y-15108054D02*
X11454139Y-15079482D01*
X11454139Y-15079482D02*
X11463663Y-15069958D01*
X11530329Y-15117577D02*
X11539853Y-15108054D01*
X11539853Y-15108054D02*
X11558901Y-15098530D01*
X11558901Y-15098530D02*
X11606520Y-15098530D01*
X11606520Y-15098530D02*
X11625568Y-15108054D01*
X11625568Y-15108054D02*
X11635091Y-15117577D01*
X11635091Y-15117577D02*
X11644615Y-15136625D01*
X11644615Y-15136625D02*
X11644615Y-15155673D01*
X11644615Y-15155673D02*
X11635091Y-15184244D01*
X11635091Y-15184244D02*
X11520806Y-15298530D01*
X11520806Y-15298530D02*
X11644615Y-15298530D01*
X11882710Y-15298530D02*
X11882710Y-15098530D01*
X11968425Y-15298530D02*
X11968425Y-15193768D01*
X11968425Y-15193768D02*
X11958901Y-15174720D01*
X11958901Y-15174720D02*
X11939853Y-15165196D01*
X11939853Y-15165196D02*
X11911282Y-15165196D01*
X11911282Y-15165196D02*
X11892234Y-15174720D01*
X11892234Y-15174720D02*
X11882710Y-15184244D01*
X12092234Y-15298530D02*
X12073187Y-15289006D01*
X12073187Y-15289006D02*
X12063663Y-15279482D01*
X12063663Y-15279482D02*
X12054139Y-15260434D01*
X12054139Y-15260434D02*
X12054139Y-15203292D01*
X12054139Y-15203292D02*
X12063663Y-15184244D01*
X12063663Y-15184244D02*
X12073187Y-15174720D01*
X12073187Y-15174720D02*
X12092234Y-15165196D01*
X12092234Y-15165196D02*
X12120806Y-15165196D01*
X12120806Y-15165196D02*
X12139853Y-15174720D01*
X12139853Y-15174720D02*
X12149377Y-15184244D01*
X12149377Y-15184244D02*
X12158901Y-15203292D01*
X12158901Y-15203292D02*
X12158901Y-15260434D01*
X12158901Y-15260434D02*
X12149377Y-15279482D01*
X12149377Y-15279482D02*
X12139853Y-15289006D01*
X12139853Y-15289006D02*
X12120806Y-15298530D01*
X12120806Y-15298530D02*
X12092234Y-15298530D01*
X12273187Y-15298530D02*
X12254139Y-15289006D01*
X12254139Y-15289006D02*
X12244615Y-15269958D01*
X12244615Y-15269958D02*
X12244615Y-15098530D01*
X12425568Y-15289006D02*
X12406520Y-15298530D01*
X12406520Y-15298530D02*
X12368425Y-15298530D01*
X12368425Y-15298530D02*
X12349377Y-15289006D01*
X12349377Y-15289006D02*
X12339853Y-15269958D01*
X12339853Y-15269958D02*
X12339853Y-15193768D01*
X12339853Y-15193768D02*
X12349377Y-15174720D01*
X12349377Y-15174720D02*
X12368425Y-15165196D01*
X12368425Y-15165196D02*
X12406520Y-15165196D01*
X12406520Y-15165196D02*
X12425568Y-15174720D01*
X12425568Y-15174720D02*
X12435091Y-15193768D01*
X12435091Y-15193768D02*
X12435091Y-15212815D01*
X12435091Y-15212815D02*
X12339853Y-15231863D01*
X12511282Y-15289006D02*
X12530330Y-15298530D01*
X12530330Y-15298530D02*
X12568425Y-15298530D01*
X12568425Y-15298530D02*
X12587472Y-15289006D01*
X12587472Y-15289006D02*
X12596996Y-15269958D01*
X12596996Y-15269958D02*
X12596996Y-15260434D01*
X12596996Y-15260434D02*
X12587472Y-15241387D01*
X12587472Y-15241387D02*
X12568425Y-15231863D01*
X12568425Y-15231863D02*
X12539853Y-15231863D01*
X12539853Y-15231863D02*
X12520806Y-15222339D01*
X12520806Y-15222339D02*
X12511282Y-15203292D01*
X12511282Y-15203292D02*
X12511282Y-15193768D01*
X12511282Y-15193768D02*
X12520806Y-15174720D01*
X12520806Y-15174720D02*
X12539853Y-15165196D01*
X12539853Y-15165196D02*
X12568425Y-15165196D01*
X12568425Y-15165196D02*
X12587472Y-15174720D01*
X12663663Y-15374720D02*
X12673187Y-15365196D01*
X12673187Y-15365196D02*
X12692234Y-15336625D01*
X12692234Y-15336625D02*
X12701758Y-15317577D01*
X12701758Y-15317577D02*
X12711282Y-15289006D01*
X12711282Y-15289006D02*
X12720806Y-15241387D01*
X12720806Y-15241387D02*
X12720806Y-15203292D01*
X12720806Y-15203292D02*
X12711282Y-15155673D01*
X12711282Y-15155673D02*
X12701758Y-15127101D01*
X12701758Y-15127101D02*
X12692234Y-15108054D01*
X12692234Y-15108054D02*
X12673187Y-15079482D01*
X12673187Y-15079482D02*
X12663663Y-15069958D01*
X13025568Y-15374720D02*
X13016044Y-15365196D01*
X13016044Y-15365196D02*
X12996996Y-15336625D01*
X12996996Y-15336625D02*
X12987472Y-15317577D01*
X12987472Y-15317577D02*
X12977949Y-15289006D01*
X12977949Y-15289006D02*
X12968425Y-15241387D01*
X12968425Y-15241387D02*
X12968425Y-15203292D01*
X12968425Y-15203292D02*
X12977949Y-15155673D01*
X12977949Y-15155673D02*
X12987472Y-15127101D01*
X12987472Y-15127101D02*
X12996996Y-15108054D01*
X12996996Y-15108054D02*
X13016044Y-15079482D01*
X13016044Y-15079482D02*
X13025568Y-15069958D01*
X13101758Y-15165196D02*
X13101758Y-15298530D01*
X13101758Y-15184244D02*
X13111282Y-15174720D01*
X13111282Y-15174720D02*
X13130330Y-15165196D01*
X13130330Y-15165196D02*
X13158901Y-15165196D01*
X13158901Y-15165196D02*
X13177949Y-15174720D01*
X13177949Y-15174720D02*
X13187472Y-15193768D01*
X13187472Y-15193768D02*
X13187472Y-15298530D01*
X13311282Y-15298530D02*
X13292234Y-15289006D01*
X13292234Y-15289006D02*
X13282711Y-15279482D01*
X13282711Y-15279482D02*
X13273187Y-15260434D01*
X13273187Y-15260434D02*
X13273187Y-15203292D01*
X13273187Y-15203292D02*
X13282711Y-15184244D01*
X13282711Y-15184244D02*
X13292234Y-15174720D01*
X13292234Y-15174720D02*
X13311282Y-15165196D01*
X13311282Y-15165196D02*
X13339853Y-15165196D01*
X13339853Y-15165196D02*
X13358901Y-15174720D01*
X13358901Y-15174720D02*
X13368425Y-15184244D01*
X13368425Y-15184244D02*
X13377949Y-15203292D01*
X13377949Y-15203292D02*
X13377949Y-15260434D01*
X13377949Y-15260434D02*
X13368425Y-15279482D01*
X13368425Y-15279482D02*
X13358901Y-15289006D01*
X13358901Y-15289006D02*
X13339853Y-15298530D01*
X13339853Y-15298530D02*
X13311282Y-15298530D01*
X13435092Y-15165196D02*
X13511282Y-15165196D01*
X13463663Y-15098530D02*
X13463663Y-15269958D01*
X13463663Y-15269958D02*
X13473187Y-15289006D01*
X13473187Y-15289006D02*
X13492234Y-15298530D01*
X13492234Y-15298530D02*
X13511282Y-15298530D01*
X13730330Y-15165196D02*
X13730330Y-15365196D01*
X13730330Y-15174720D02*
X13749377Y-15165196D01*
X13749377Y-15165196D02*
X13787473Y-15165196D01*
X13787473Y-15165196D02*
X13806520Y-15174720D01*
X13806520Y-15174720D02*
X13816044Y-15184244D01*
X13816044Y-15184244D02*
X13825568Y-15203292D01*
X13825568Y-15203292D02*
X13825568Y-15260434D01*
X13825568Y-15260434D02*
X13816044Y-15279482D01*
X13816044Y-15279482D02*
X13806520Y-15289006D01*
X13806520Y-15289006D02*
X13787473Y-15298530D01*
X13787473Y-15298530D02*
X13749377Y-15298530D01*
X13749377Y-15298530D02*
X13730330Y-15289006D01*
X13939853Y-15298530D02*
X13920806Y-15289006D01*
X13920806Y-15289006D02*
X13911282Y-15269958D01*
X13911282Y-15269958D02*
X13911282Y-15098530D01*
X14101758Y-15298530D02*
X14101758Y-15193768D01*
X14101758Y-15193768D02*
X14092234Y-15174720D01*
X14092234Y-15174720D02*
X14073187Y-15165196D01*
X14073187Y-15165196D02*
X14035092Y-15165196D01*
X14035092Y-15165196D02*
X14016044Y-15174720D01*
X14101758Y-15289006D02*
X14082711Y-15298530D01*
X14082711Y-15298530D02*
X14035092Y-15298530D01*
X14035092Y-15298530D02*
X14016044Y-15289006D01*
X14016044Y-15289006D02*
X14006520Y-15269958D01*
X14006520Y-15269958D02*
X14006520Y-15250911D01*
X14006520Y-15250911D02*
X14016044Y-15231863D01*
X14016044Y-15231863D02*
X14035092Y-15222339D01*
X14035092Y-15222339D02*
X14082711Y-15222339D01*
X14082711Y-15222339D02*
X14101758Y-15212815D01*
X14168425Y-15165196D02*
X14244615Y-15165196D01*
X14196996Y-15098530D02*
X14196996Y-15269958D01*
X14196996Y-15269958D02*
X14206520Y-15289006D01*
X14206520Y-15289006D02*
X14225568Y-15298530D01*
X14225568Y-15298530D02*
X14244615Y-15298530D01*
X14387473Y-15289006D02*
X14368425Y-15298530D01*
X14368425Y-15298530D02*
X14330330Y-15298530D01*
X14330330Y-15298530D02*
X14311282Y-15289006D01*
X14311282Y-15289006D02*
X14301758Y-15269958D01*
X14301758Y-15269958D02*
X14301758Y-15193768D01*
X14301758Y-15193768D02*
X14311282Y-15174720D01*
X14311282Y-15174720D02*
X14330330Y-15165196D01*
X14330330Y-15165196D02*
X14368425Y-15165196D01*
X14368425Y-15165196D02*
X14387473Y-15174720D01*
X14387473Y-15174720D02*
X14396996Y-15193768D01*
X14396996Y-15193768D02*
X14396996Y-15212815D01*
X14396996Y-15212815D02*
X14301758Y-15231863D01*
X14568425Y-15298530D02*
X14568425Y-15098530D01*
X14568425Y-15289006D02*
X14549377Y-15298530D01*
X14549377Y-15298530D02*
X14511282Y-15298530D01*
X14511282Y-15298530D02*
X14492234Y-15289006D01*
X14492234Y-15289006D02*
X14482711Y-15279482D01*
X14482711Y-15279482D02*
X14473187Y-15260434D01*
X14473187Y-15260434D02*
X14473187Y-15203292D01*
X14473187Y-15203292D02*
X14482711Y-15184244D01*
X14482711Y-15184244D02*
X14492234Y-15174720D01*
X14492234Y-15174720D02*
X14511282Y-15165196D01*
X14511282Y-15165196D02*
X14549377Y-15165196D01*
X14549377Y-15165196D02*
X14568425Y-15174720D01*
X14644615Y-15374720D02*
X14654139Y-15365196D01*
X14654139Y-15365196D02*
X14673187Y-15336625D01*
X14673187Y-15336625D02*
X14682711Y-15317577D01*
X14682711Y-15317577D02*
X14692234Y-15289006D01*
X14692234Y-15289006D02*
X14701758Y-15241387D01*
X14701758Y-15241387D02*
X14701758Y-15203292D01*
X14701758Y-15203292D02*
X14692234Y-15155673D01*
X14692234Y-15155673D02*
X14682711Y-15127101D01*
X14682711Y-15127101D02*
X14673187Y-15108054D01*
X14673187Y-15108054D02*
X14654139Y-15079482D01*
X14654139Y-15079482D02*
X14644615Y-15069958D01*
X7859311Y-15597757D02*
X7859311Y-15456335D01*
X7717889Y-15456335D01*
X7717889Y-15597757D01*
X7859311Y-15597757D01*
X8235091Y-15418530D02*
X8196996Y-15418530D01*
X8196996Y-15418530D02*
X8177948Y-15428054D01*
X8177948Y-15428054D02*
X8168424Y-15437577D01*
X8168424Y-15437577D02*
X8149377Y-15466149D01*
X8149377Y-15466149D02*
X8139853Y-15504244D01*
X8139853Y-15504244D02*
X8139853Y-15580434D01*
X8139853Y-15580434D02*
X8149377Y-15599482D01*
X8149377Y-15599482D02*
X8158901Y-15609006D01*
X8158901Y-15609006D02*
X8177948Y-15618530D01*
X8177948Y-15618530D02*
X8216043Y-15618530D01*
X8216043Y-15618530D02*
X8235091Y-15609006D01*
X8235091Y-15609006D02*
X8244615Y-15599482D01*
X8244615Y-15599482D02*
X8254139Y-15580434D01*
X8254139Y-15580434D02*
X8254139Y-15532815D01*
X8254139Y-15532815D02*
X8244615Y-15513768D01*
X8244615Y-15513768D02*
X8235091Y-15504244D01*
X8235091Y-15504244D02*
X8216043Y-15494720D01*
X8216043Y-15494720D02*
X8177948Y-15494720D01*
X8177948Y-15494720D02*
X8158901Y-15504244D01*
X8158901Y-15504244D02*
X8149377Y-15513768D01*
X8149377Y-15513768D02*
X8139853Y-15532815D01*
X8339853Y-15599482D02*
X8349377Y-15609006D01*
X8349377Y-15609006D02*
X8339853Y-15618530D01*
X8339853Y-15618530D02*
X8330329Y-15609006D01*
X8330329Y-15609006D02*
X8339853Y-15599482D01*
X8339853Y-15599482D02*
X8339853Y-15618530D01*
X8473186Y-15418530D02*
X8492234Y-15418530D01*
X8492234Y-15418530D02*
X8511282Y-15428054D01*
X8511282Y-15428054D02*
X8520805Y-15437577D01*
X8520805Y-15437577D02*
X8530329Y-15456625D01*
X8530329Y-15456625D02*
X8539853Y-15494720D01*
X8539853Y-15494720D02*
X8539853Y-15542339D01*
X8539853Y-15542339D02*
X8530329Y-15580434D01*
X8530329Y-15580434D02*
X8520805Y-15599482D01*
X8520805Y-15599482D02*
X8511282Y-15609006D01*
X8511282Y-15609006D02*
X8492234Y-15618530D01*
X8492234Y-15618530D02*
X8473186Y-15618530D01*
X8473186Y-15618530D02*
X8454139Y-15609006D01*
X8454139Y-15609006D02*
X8444615Y-15599482D01*
X8444615Y-15599482D02*
X8435091Y-15580434D01*
X8435091Y-15580434D02*
X8425567Y-15542339D01*
X8425567Y-15542339D02*
X8425567Y-15494720D01*
X8425567Y-15494720D02*
X8435091Y-15456625D01*
X8435091Y-15456625D02*
X8444615Y-15437577D01*
X8444615Y-15437577D02*
X8454139Y-15428054D01*
X8454139Y-15428054D02*
X8473186Y-15418530D01*
X8663663Y-15418530D02*
X8682710Y-15418530D01*
X8682710Y-15418530D02*
X8701758Y-15428054D01*
X8701758Y-15428054D02*
X8711282Y-15437577D01*
X8711282Y-15437577D02*
X8720805Y-15456625D01*
X8720805Y-15456625D02*
X8730329Y-15494720D01*
X8730329Y-15494720D02*
X8730329Y-15542339D01*
X8730329Y-15542339D02*
X8720805Y-15580434D01*
X8720805Y-15580434D02*
X8711282Y-15599482D01*
X8711282Y-15599482D02*
X8701758Y-15609006D01*
X8701758Y-15609006D02*
X8682710Y-15618530D01*
X8682710Y-15618530D02*
X8663663Y-15618530D01*
X8663663Y-15618530D02*
X8644615Y-15609006D01*
X8644615Y-15609006D02*
X8635091Y-15599482D01*
X8635091Y-15599482D02*
X8625567Y-15580434D01*
X8625567Y-15580434D02*
X8616044Y-15542339D01*
X8616044Y-15542339D02*
X8616044Y-15494720D01*
X8616044Y-15494720D02*
X8625567Y-15456625D01*
X8625567Y-15456625D02*
X8635091Y-15437577D01*
X8635091Y-15437577D02*
X8644615Y-15428054D01*
X8644615Y-15428054D02*
X8663663Y-15418530D01*
X8854139Y-15418530D02*
X8873186Y-15418530D01*
X8873186Y-15418530D02*
X8892234Y-15428054D01*
X8892234Y-15428054D02*
X8901758Y-15437577D01*
X8901758Y-15437577D02*
X8911282Y-15456625D01*
X8911282Y-15456625D02*
X8920805Y-15494720D01*
X8920805Y-15494720D02*
X8920805Y-15542339D01*
X8920805Y-15542339D02*
X8911282Y-15580434D01*
X8911282Y-15580434D02*
X8901758Y-15599482D01*
X8901758Y-15599482D02*
X8892234Y-15609006D01*
X8892234Y-15609006D02*
X8873186Y-15618530D01*
X8873186Y-15618530D02*
X8854139Y-15618530D01*
X8854139Y-15618530D02*
X8835091Y-15609006D01*
X8835091Y-15609006D02*
X8825567Y-15599482D01*
X8825567Y-15599482D02*
X8816044Y-15580434D01*
X8816044Y-15580434D02*
X8806520Y-15542339D01*
X8806520Y-15542339D02*
X8806520Y-15494720D01*
X8806520Y-15494720D02*
X8816044Y-15456625D01*
X8816044Y-15456625D02*
X8825567Y-15437577D01*
X8825567Y-15437577D02*
X8835091Y-15428054D01*
X8835091Y-15428054D02*
X8854139Y-15418530D01*
X9006520Y-15618530D02*
X9006520Y-15485196D01*
X9006520Y-15504244D02*
X9016044Y-15494720D01*
X9016044Y-15494720D02*
X9035091Y-15485196D01*
X9035091Y-15485196D02*
X9063663Y-15485196D01*
X9063663Y-15485196D02*
X9082710Y-15494720D01*
X9082710Y-15494720D02*
X9092234Y-15513768D01*
X9092234Y-15513768D02*
X9092234Y-15618530D01*
X9092234Y-15513768D02*
X9101758Y-15494720D01*
X9101758Y-15494720D02*
X9120805Y-15485196D01*
X9120805Y-15485196D02*
X9149377Y-15485196D01*
X9149377Y-15485196D02*
X9168425Y-15494720D01*
X9168425Y-15494720D02*
X9177948Y-15513768D01*
X9177948Y-15513768D02*
X9177948Y-15618530D01*
X9273186Y-15618530D02*
X9273186Y-15485196D01*
X9273186Y-15504244D02*
X9282710Y-15494720D01*
X9282710Y-15494720D02*
X9301758Y-15485196D01*
X9301758Y-15485196D02*
X9330329Y-15485196D01*
X9330329Y-15485196D02*
X9349377Y-15494720D01*
X9349377Y-15494720D02*
X9358901Y-15513768D01*
X9358901Y-15513768D02*
X9358901Y-15618530D01*
X9358901Y-15513768D02*
X9368425Y-15494720D01*
X9368425Y-15494720D02*
X9387472Y-15485196D01*
X9387472Y-15485196D02*
X9416044Y-15485196D01*
X9416044Y-15485196D02*
X9435091Y-15494720D01*
X9435091Y-15494720D02*
X9444615Y-15513768D01*
X9444615Y-15513768D02*
X9444615Y-15618530D01*
X9835091Y-15409006D02*
X9663663Y-15666149D01*
X10092234Y-15418530D02*
X10111282Y-15418530D01*
X10111282Y-15418530D02*
X10130329Y-15428054D01*
X10130329Y-15428054D02*
X10139853Y-15437577D01*
X10139853Y-15437577D02*
X10149377Y-15456625D01*
X10149377Y-15456625D02*
X10158901Y-15494720D01*
X10158901Y-15494720D02*
X10158901Y-15542339D01*
X10158901Y-15542339D02*
X10149377Y-15580434D01*
X10149377Y-15580434D02*
X10139853Y-15599482D01*
X10139853Y-15599482D02*
X10130329Y-15609006D01*
X10130329Y-15609006D02*
X10111282Y-15618530D01*
X10111282Y-15618530D02*
X10092234Y-15618530D01*
X10092234Y-15618530D02*
X10073187Y-15609006D01*
X10073187Y-15609006D02*
X10063663Y-15599482D01*
X10063663Y-15599482D02*
X10054139Y-15580434D01*
X10054139Y-15580434D02*
X10044615Y-15542339D01*
X10044615Y-15542339D02*
X10044615Y-15494720D01*
X10044615Y-15494720D02*
X10054139Y-15456625D01*
X10054139Y-15456625D02*
X10063663Y-15437577D01*
X10063663Y-15437577D02*
X10073187Y-15428054D01*
X10073187Y-15428054D02*
X10092234Y-15418530D01*
X10244615Y-15599482D02*
X10254139Y-15609006D01*
X10254139Y-15609006D02*
X10244615Y-15618530D01*
X10244615Y-15618530D02*
X10235091Y-15609006D01*
X10235091Y-15609006D02*
X10244615Y-15599482D01*
X10244615Y-15599482D02*
X10244615Y-15618530D01*
X10330329Y-15437577D02*
X10339853Y-15428054D01*
X10339853Y-15428054D02*
X10358901Y-15418530D01*
X10358901Y-15418530D02*
X10406520Y-15418530D01*
X10406520Y-15418530D02*
X10425568Y-15428054D01*
X10425568Y-15428054D02*
X10435091Y-15437577D01*
X10435091Y-15437577D02*
X10444615Y-15456625D01*
X10444615Y-15456625D02*
X10444615Y-15475673D01*
X10444615Y-15475673D02*
X10435091Y-15504244D01*
X10435091Y-15504244D02*
X10320806Y-15618530D01*
X10320806Y-15618530D02*
X10444615Y-15618530D01*
X10511282Y-15418530D02*
X10635091Y-15418530D01*
X10635091Y-15418530D02*
X10568425Y-15494720D01*
X10568425Y-15494720D02*
X10596996Y-15494720D01*
X10596996Y-15494720D02*
X10616044Y-15504244D01*
X10616044Y-15504244D02*
X10625568Y-15513768D01*
X10625568Y-15513768D02*
X10635091Y-15532815D01*
X10635091Y-15532815D02*
X10635091Y-15580434D01*
X10635091Y-15580434D02*
X10625568Y-15599482D01*
X10625568Y-15599482D02*
X10616044Y-15609006D01*
X10616044Y-15609006D02*
X10596996Y-15618530D01*
X10596996Y-15618530D02*
X10539853Y-15618530D01*
X10539853Y-15618530D02*
X10520806Y-15609006D01*
X10520806Y-15609006D02*
X10511282Y-15599482D01*
X10806520Y-15418530D02*
X10768425Y-15418530D01*
X10768425Y-15418530D02*
X10749377Y-15428054D01*
X10749377Y-15428054D02*
X10739853Y-15437577D01*
X10739853Y-15437577D02*
X10720806Y-15466149D01*
X10720806Y-15466149D02*
X10711282Y-15504244D01*
X10711282Y-15504244D02*
X10711282Y-15580434D01*
X10711282Y-15580434D02*
X10720806Y-15599482D01*
X10720806Y-15599482D02*
X10730329Y-15609006D01*
X10730329Y-15609006D02*
X10749377Y-15618530D01*
X10749377Y-15618530D02*
X10787472Y-15618530D01*
X10787472Y-15618530D02*
X10806520Y-15609006D01*
X10806520Y-15609006D02*
X10816044Y-15599482D01*
X10816044Y-15599482D02*
X10825568Y-15580434D01*
X10825568Y-15580434D02*
X10825568Y-15532815D01*
X10825568Y-15532815D02*
X10816044Y-15513768D01*
X10816044Y-15513768D02*
X10806520Y-15504244D01*
X10806520Y-15504244D02*
X10787472Y-15494720D01*
X10787472Y-15494720D02*
X10749377Y-15494720D01*
X10749377Y-15494720D02*
X10730329Y-15504244D01*
X10730329Y-15504244D02*
X10720806Y-15513768D01*
X10720806Y-15513768D02*
X10711282Y-15532815D01*
X10901758Y-15437577D02*
X10911282Y-15428054D01*
X10911282Y-15428054D02*
X10930329Y-15418530D01*
X10930329Y-15418530D02*
X10977949Y-15418530D01*
X10977949Y-15418530D02*
X10996996Y-15428054D01*
X10996996Y-15428054D02*
X11006520Y-15437577D01*
X11006520Y-15437577D02*
X11016044Y-15456625D01*
X11016044Y-15456625D02*
X11016044Y-15475673D01*
X11016044Y-15475673D02*
X11006520Y-15504244D01*
X11006520Y-15504244D02*
X10892234Y-15618530D01*
X10892234Y-15618530D02*
X11016044Y-15618530D01*
X11092234Y-15418530D02*
X11092234Y-15456625D01*
X11168425Y-15418530D02*
X11168425Y-15456625D01*
X11463663Y-15694720D02*
X11454139Y-15685196D01*
X11454139Y-15685196D02*
X11435091Y-15656625D01*
X11435091Y-15656625D02*
X11425568Y-15637577D01*
X11425568Y-15637577D02*
X11416044Y-15609006D01*
X11416044Y-15609006D02*
X11406520Y-15561387D01*
X11406520Y-15561387D02*
X11406520Y-15523292D01*
X11406520Y-15523292D02*
X11416044Y-15475673D01*
X11416044Y-15475673D02*
X11425568Y-15447101D01*
X11425568Y-15447101D02*
X11435091Y-15428054D01*
X11435091Y-15428054D02*
X11454139Y-15399482D01*
X11454139Y-15399482D02*
X11463663Y-15389958D01*
X11577948Y-15418530D02*
X11596996Y-15418530D01*
X11596996Y-15418530D02*
X11616044Y-15428054D01*
X11616044Y-15428054D02*
X11625568Y-15437577D01*
X11625568Y-15437577D02*
X11635091Y-15456625D01*
X11635091Y-15456625D02*
X11644615Y-15494720D01*
X11644615Y-15494720D02*
X11644615Y-15542339D01*
X11644615Y-15542339D02*
X11635091Y-15580434D01*
X11635091Y-15580434D02*
X11625568Y-15599482D01*
X11625568Y-15599482D02*
X11616044Y-15609006D01*
X11616044Y-15609006D02*
X11596996Y-15618530D01*
X11596996Y-15618530D02*
X11577948Y-15618530D01*
X11577948Y-15618530D02*
X11558901Y-15609006D01*
X11558901Y-15609006D02*
X11549377Y-15599482D01*
X11549377Y-15599482D02*
X11539853Y-15580434D01*
X11539853Y-15580434D02*
X11530329Y-15542339D01*
X11530329Y-15542339D02*
X11530329Y-15494720D01*
X11530329Y-15494720D02*
X11539853Y-15456625D01*
X11539853Y-15456625D02*
X11549377Y-15437577D01*
X11549377Y-15437577D02*
X11558901Y-15428054D01*
X11558901Y-15428054D02*
X11577948Y-15418530D01*
X11882710Y-15618530D02*
X11882710Y-15418530D01*
X11968425Y-15618530D02*
X11968425Y-15513768D01*
X11968425Y-15513768D02*
X11958901Y-15494720D01*
X11958901Y-15494720D02*
X11939853Y-15485196D01*
X11939853Y-15485196D02*
X11911282Y-15485196D01*
X11911282Y-15485196D02*
X11892234Y-15494720D01*
X11892234Y-15494720D02*
X11882710Y-15504244D01*
X12092234Y-15618530D02*
X12073187Y-15609006D01*
X12073187Y-15609006D02*
X12063663Y-15599482D01*
X12063663Y-15599482D02*
X12054139Y-15580434D01*
X12054139Y-15580434D02*
X12054139Y-15523292D01*
X12054139Y-15523292D02*
X12063663Y-15504244D01*
X12063663Y-15504244D02*
X12073187Y-15494720D01*
X12073187Y-15494720D02*
X12092234Y-15485196D01*
X12092234Y-15485196D02*
X12120806Y-15485196D01*
X12120806Y-15485196D02*
X12139853Y-15494720D01*
X12139853Y-15494720D02*
X12149377Y-15504244D01*
X12149377Y-15504244D02*
X12158901Y-15523292D01*
X12158901Y-15523292D02*
X12158901Y-15580434D01*
X12158901Y-15580434D02*
X12149377Y-15599482D01*
X12149377Y-15599482D02*
X12139853Y-15609006D01*
X12139853Y-15609006D02*
X12120806Y-15618530D01*
X12120806Y-15618530D02*
X12092234Y-15618530D01*
X12273187Y-15618530D02*
X12254139Y-15609006D01*
X12254139Y-15609006D02*
X12244615Y-15589958D01*
X12244615Y-15589958D02*
X12244615Y-15418530D01*
X12425568Y-15609006D02*
X12406520Y-15618530D01*
X12406520Y-15618530D02*
X12368425Y-15618530D01*
X12368425Y-15618530D02*
X12349377Y-15609006D01*
X12349377Y-15609006D02*
X12339853Y-15589958D01*
X12339853Y-15589958D02*
X12339853Y-15513768D01*
X12339853Y-15513768D02*
X12349377Y-15494720D01*
X12349377Y-15494720D02*
X12368425Y-15485196D01*
X12368425Y-15485196D02*
X12406520Y-15485196D01*
X12406520Y-15485196D02*
X12425568Y-15494720D01*
X12425568Y-15494720D02*
X12435091Y-15513768D01*
X12435091Y-15513768D02*
X12435091Y-15532815D01*
X12435091Y-15532815D02*
X12339853Y-15551863D01*
X12511282Y-15609006D02*
X12530330Y-15618530D01*
X12530330Y-15618530D02*
X12568425Y-15618530D01*
X12568425Y-15618530D02*
X12587472Y-15609006D01*
X12587472Y-15609006D02*
X12596996Y-15589958D01*
X12596996Y-15589958D02*
X12596996Y-15580434D01*
X12596996Y-15580434D02*
X12587472Y-15561387D01*
X12587472Y-15561387D02*
X12568425Y-15551863D01*
X12568425Y-15551863D02*
X12539853Y-15551863D01*
X12539853Y-15551863D02*
X12520806Y-15542339D01*
X12520806Y-15542339D02*
X12511282Y-15523292D01*
X12511282Y-15523292D02*
X12511282Y-15513768D01*
X12511282Y-15513768D02*
X12520806Y-15494720D01*
X12520806Y-15494720D02*
X12539853Y-15485196D01*
X12539853Y-15485196D02*
X12568425Y-15485196D01*
X12568425Y-15485196D02*
X12587472Y-15494720D01*
X12835092Y-15542339D02*
X12987473Y-15542339D01*
X12911282Y-15618530D02*
X12911282Y-15466149D01*
X13225568Y-15437577D02*
X13235092Y-15428054D01*
X13235092Y-15428054D02*
X13254139Y-15418530D01*
X13254139Y-15418530D02*
X13301758Y-15418530D01*
X13301758Y-15418530D02*
X13320806Y-15428054D01*
X13320806Y-15428054D02*
X13330330Y-15437577D01*
X13330330Y-15437577D02*
X13339853Y-15456625D01*
X13339853Y-15456625D02*
X13339853Y-15475673D01*
X13339853Y-15475673D02*
X13330330Y-15504244D01*
X13330330Y-15504244D02*
X13216044Y-15618530D01*
X13216044Y-15618530D02*
X13339853Y-15618530D01*
X13568425Y-15609006D02*
X13587473Y-15618530D01*
X13587473Y-15618530D02*
X13625568Y-15618530D01*
X13625568Y-15618530D02*
X13644615Y-15609006D01*
X13644615Y-15609006D02*
X13654139Y-15589958D01*
X13654139Y-15589958D02*
X13654139Y-15580434D01*
X13654139Y-15580434D02*
X13644615Y-15561387D01*
X13644615Y-15561387D02*
X13625568Y-15551863D01*
X13625568Y-15551863D02*
X13596996Y-15551863D01*
X13596996Y-15551863D02*
X13577949Y-15542339D01*
X13577949Y-15542339D02*
X13568425Y-15523292D01*
X13568425Y-15523292D02*
X13568425Y-15513768D01*
X13568425Y-15513768D02*
X13577949Y-15494720D01*
X13577949Y-15494720D02*
X13596996Y-15485196D01*
X13596996Y-15485196D02*
X13625568Y-15485196D01*
X13625568Y-15485196D02*
X13644615Y-15494720D01*
X13768425Y-15618530D02*
X13749377Y-15609006D01*
X13749377Y-15609006D02*
X13739854Y-15589958D01*
X13739854Y-15589958D02*
X13739854Y-15418530D01*
X13873187Y-15618530D02*
X13854139Y-15609006D01*
X13854139Y-15609006D02*
X13844615Y-15599482D01*
X13844615Y-15599482D02*
X13835092Y-15580434D01*
X13835092Y-15580434D02*
X13835092Y-15523292D01*
X13835092Y-15523292D02*
X13844615Y-15504244D01*
X13844615Y-15504244D02*
X13854139Y-15494720D01*
X13854139Y-15494720D02*
X13873187Y-15485196D01*
X13873187Y-15485196D02*
X13901758Y-15485196D01*
X13901758Y-15485196D02*
X13920806Y-15494720D01*
X13920806Y-15494720D02*
X13930330Y-15504244D01*
X13930330Y-15504244D02*
X13939854Y-15523292D01*
X13939854Y-15523292D02*
X13939854Y-15580434D01*
X13939854Y-15580434D02*
X13930330Y-15599482D01*
X13930330Y-15599482D02*
X13920806Y-15609006D01*
X13920806Y-15609006D02*
X13901758Y-15618530D01*
X13901758Y-15618530D02*
X13873187Y-15618530D01*
X13996996Y-15485196D02*
X14073187Y-15485196D01*
X14025568Y-15418530D02*
X14025568Y-15589958D01*
X14025568Y-15589958D02*
X14035092Y-15609006D01*
X14035092Y-15609006D02*
X14054139Y-15618530D01*
X14054139Y-15618530D02*
X14073187Y-15618530D01*
X14130330Y-15609006D02*
X14149377Y-15618530D01*
X14149377Y-15618530D02*
X14187473Y-15618530D01*
X14187473Y-15618530D02*
X14206520Y-15609006D01*
X14206520Y-15609006D02*
X14216044Y-15589958D01*
X14216044Y-15589958D02*
X14216044Y-15580434D01*
X14216044Y-15580434D02*
X14206520Y-15561387D01*
X14206520Y-15561387D02*
X14187473Y-15551863D01*
X14187473Y-15551863D02*
X14158901Y-15551863D01*
X14158901Y-15551863D02*
X14139854Y-15542339D01*
X14139854Y-15542339D02*
X14130330Y-15523292D01*
X14130330Y-15523292D02*
X14130330Y-15513768D01*
X14130330Y-15513768D02*
X14139854Y-15494720D01*
X14139854Y-15494720D02*
X14158901Y-15485196D01*
X14158901Y-15485196D02*
X14187473Y-15485196D01*
X14187473Y-15485196D02*
X14206520Y-15494720D01*
X14282711Y-15694720D02*
X14292235Y-15685196D01*
X14292235Y-15685196D02*
X14311282Y-15656625D01*
X14311282Y-15656625D02*
X14320806Y-15637577D01*
X14320806Y-15637577D02*
X14330330Y-15609006D01*
X14330330Y-15609006D02*
X14339854Y-15561387D01*
X14339854Y-15561387D02*
X14339854Y-15523292D01*
X14339854Y-15523292D02*
X14330330Y-15475673D01*
X14330330Y-15475673D02*
X14320806Y-15447101D01*
X14320806Y-15447101D02*
X14311282Y-15428054D01*
X14311282Y-15428054D02*
X14292235Y-15399482D01*
X14292235Y-15399482D02*
X14282711Y-15389958D01*
X14644616Y-15694720D02*
X14635092Y-15685196D01*
X14635092Y-15685196D02*
X14616044Y-15656625D01*
X14616044Y-15656625D02*
X14606520Y-15637577D01*
X14606520Y-15637577D02*
X14596996Y-15609006D01*
X14596996Y-15609006D02*
X14587473Y-15561387D01*
X14587473Y-15561387D02*
X14587473Y-15523292D01*
X14587473Y-15523292D02*
X14596996Y-15475673D01*
X14596996Y-15475673D02*
X14606520Y-15447101D01*
X14606520Y-15447101D02*
X14616044Y-15428054D01*
X14616044Y-15428054D02*
X14635092Y-15399482D01*
X14635092Y-15399482D02*
X14644616Y-15389958D01*
X14720806Y-15485196D02*
X14720806Y-15618530D01*
X14720806Y-15504244D02*
X14730330Y-15494720D01*
X14730330Y-15494720D02*
X14749377Y-15485196D01*
X14749377Y-15485196D02*
X14777949Y-15485196D01*
X14777949Y-15485196D02*
X14796996Y-15494720D01*
X14796996Y-15494720D02*
X14806520Y-15513768D01*
X14806520Y-15513768D02*
X14806520Y-15618530D01*
X14930330Y-15618530D02*
X14911282Y-15609006D01*
X14911282Y-15609006D02*
X14901758Y-15599482D01*
X14901758Y-15599482D02*
X14892235Y-15580434D01*
X14892235Y-15580434D02*
X14892235Y-15523292D01*
X14892235Y-15523292D02*
X14901758Y-15504244D01*
X14901758Y-15504244D02*
X14911282Y-15494720D01*
X14911282Y-15494720D02*
X14930330Y-15485196D01*
X14930330Y-15485196D02*
X14958901Y-15485196D01*
X14958901Y-15485196D02*
X14977949Y-15494720D01*
X14977949Y-15494720D02*
X14987473Y-15504244D01*
X14987473Y-15504244D02*
X14996996Y-15523292D01*
X14996996Y-15523292D02*
X14996996Y-15580434D01*
X14996996Y-15580434D02*
X14987473Y-15599482D01*
X14987473Y-15599482D02*
X14977949Y-15609006D01*
X14977949Y-15609006D02*
X14958901Y-15618530D01*
X14958901Y-15618530D02*
X14930330Y-15618530D01*
X15054139Y-15485196D02*
X15130330Y-15485196D01*
X15082711Y-15418530D02*
X15082711Y-15589958D01*
X15082711Y-15589958D02*
X15092235Y-15609006D01*
X15092235Y-15609006D02*
X15111282Y-15618530D01*
X15111282Y-15618530D02*
X15130330Y-15618530D01*
X15349377Y-15485196D02*
X15349377Y-15685196D01*
X15349377Y-15494720D02*
X15368425Y-15485196D01*
X15368425Y-15485196D02*
X15406520Y-15485196D01*
X15406520Y-15485196D02*
X15425568Y-15494720D01*
X15425568Y-15494720D02*
X15435092Y-15504244D01*
X15435092Y-15504244D02*
X15444616Y-15523292D01*
X15444616Y-15523292D02*
X15444616Y-15580434D01*
X15444616Y-15580434D02*
X15435092Y-15599482D01*
X15435092Y-15599482D02*
X15425568Y-15609006D01*
X15425568Y-15609006D02*
X15406520Y-15618530D01*
X15406520Y-15618530D02*
X15368425Y-15618530D01*
X15368425Y-15618530D02*
X15349377Y-15609006D01*
X15558901Y-15618530D02*
X15539854Y-15609006D01*
X15539854Y-15609006D02*
X15530330Y-15589958D01*
X15530330Y-15589958D02*
X15530330Y-15418530D01*
X15720806Y-15618530D02*
X15720806Y-15513768D01*
X15720806Y-15513768D02*
X15711282Y-15494720D01*
X15711282Y-15494720D02*
X15692235Y-15485196D01*
X15692235Y-15485196D02*
X15654139Y-15485196D01*
X15654139Y-15485196D02*
X15635092Y-15494720D01*
X15720806Y-15609006D02*
X15701758Y-15618530D01*
X15701758Y-15618530D02*
X15654139Y-15618530D01*
X15654139Y-15618530D02*
X15635092Y-15609006D01*
X15635092Y-15609006D02*
X15625568Y-15589958D01*
X15625568Y-15589958D02*
X15625568Y-15570911D01*
X15625568Y-15570911D02*
X15635092Y-15551863D01*
X15635092Y-15551863D02*
X15654139Y-15542339D01*
X15654139Y-15542339D02*
X15701758Y-15542339D01*
X15701758Y-15542339D02*
X15720806Y-15532815D01*
X15787473Y-15485196D02*
X15863663Y-15485196D01*
X15816044Y-15418530D02*
X15816044Y-15589958D01*
X15816044Y-15589958D02*
X15825568Y-15609006D01*
X15825568Y-15609006D02*
X15844616Y-15618530D01*
X15844616Y-15618530D02*
X15863663Y-15618530D01*
X16006520Y-15609006D02*
X15987473Y-15618530D01*
X15987473Y-15618530D02*
X15949377Y-15618530D01*
X15949377Y-15618530D02*
X15930330Y-15609006D01*
X15930330Y-15609006D02*
X15920806Y-15589958D01*
X15920806Y-15589958D02*
X15920806Y-15513768D01*
X15920806Y-15513768D02*
X15930330Y-15494720D01*
X15930330Y-15494720D02*
X15949377Y-15485196D01*
X15949377Y-15485196D02*
X15987473Y-15485196D01*
X15987473Y-15485196D02*
X16006520Y-15494720D01*
X16006520Y-15494720D02*
X16016044Y-15513768D01*
X16016044Y-15513768D02*
X16016044Y-15532815D01*
X16016044Y-15532815D02*
X15920806Y-15551863D01*
X16187473Y-15618530D02*
X16187473Y-15418530D01*
X16187473Y-15609006D02*
X16168425Y-15618530D01*
X16168425Y-15618530D02*
X16130330Y-15618530D01*
X16130330Y-15618530D02*
X16111282Y-15609006D01*
X16111282Y-15609006D02*
X16101758Y-15599482D01*
X16101758Y-15599482D02*
X16092235Y-15580434D01*
X16092235Y-15580434D02*
X16092235Y-15523292D01*
X16092235Y-15523292D02*
X16101758Y-15504244D01*
X16101758Y-15504244D02*
X16111282Y-15494720D01*
X16111282Y-15494720D02*
X16130330Y-15485196D01*
X16130330Y-15485196D02*
X16168425Y-15485196D01*
X16168425Y-15485196D02*
X16187473Y-15494720D01*
X16263663Y-15694720D02*
X16273187Y-15685196D01*
X16273187Y-15685196D02*
X16292235Y-15656625D01*
X16292235Y-15656625D02*
X16301758Y-15637577D01*
X16301758Y-15637577D02*
X16311282Y-15609006D01*
X16311282Y-15609006D02*
X16320806Y-15561387D01*
X16320806Y-15561387D02*
X16320806Y-15523292D01*
X16320806Y-15523292D02*
X16311282Y-15475673D01*
X16311282Y-15475673D02*
X16301758Y-15447101D01*
X16301758Y-15447101D02*
X16292235Y-15428054D01*
X16292235Y-15428054D02*
X16273187Y-15399482D01*
X16273187Y-15399482D02*
X16263663Y-15389958D01*
M02*
