%TF.GenerationSoftware,KiCad,Pcbnew,9.0.2*%
%TF.CreationDate,2025-07-03T17:47:09+02:00*%
%TF.ProjectId,PCB_accueil_STM,5043425f-6163-4637-9565-696c5f53544d,rev?*%
%TF.SameCoordinates,Original*%
%TF.FileFunction,AssemblyDrawing,Top*%
%FSLAX46Y46*%
G04 Gerber Fmt 4.6, Leading zero omitted, Abs format (unit mm)*
G04 Created by KiCad (PCBNEW 9.0.2) date 2025-07-03 17:47:09*
%MOMM*%
%LPD*%
G01*
G04 APERTURE LIST*
%ADD10C,0.254000*%
%ADD11C,0.150000*%
%ADD12C,0.100000*%
G04 APERTURE END LIST*
D10*
X117880842Y-131577079D02*
X117941318Y-131395650D01*
X117941318Y-131395650D02*
X117941318Y-131093269D01*
X117941318Y-131093269D02*
X117880842Y-130972317D01*
X117880842Y-130972317D02*
X117820365Y-130911841D01*
X117820365Y-130911841D02*
X117699413Y-130851364D01*
X117699413Y-130851364D02*
X117578461Y-130851364D01*
X117578461Y-130851364D02*
X117457508Y-130911841D01*
X117457508Y-130911841D02*
X117397032Y-130972317D01*
X117397032Y-130972317D02*
X117336556Y-131093269D01*
X117336556Y-131093269D02*
X117276080Y-131335174D01*
X117276080Y-131335174D02*
X117215603Y-131456126D01*
X117215603Y-131456126D02*
X117155127Y-131516603D01*
X117155127Y-131516603D02*
X117034175Y-131577079D01*
X117034175Y-131577079D02*
X116913222Y-131577079D01*
X116913222Y-131577079D02*
X116792270Y-131516603D01*
X116792270Y-131516603D02*
X116731794Y-131456126D01*
X116731794Y-131456126D02*
X116671318Y-131335174D01*
X116671318Y-131335174D02*
X116671318Y-131032793D01*
X116671318Y-131032793D02*
X116731794Y-130851364D01*
X117941318Y-129641840D02*
X117941318Y-130367555D01*
X117941318Y-130004698D02*
X116671318Y-130004698D01*
X116671318Y-130004698D02*
X116852746Y-130125650D01*
X116852746Y-130125650D02*
X116973699Y-130246602D01*
X116973699Y-130246602D02*
X117034175Y-130367555D01*
D11*
X108549095Y-99539326D02*
X108596714Y-99491707D01*
X108596714Y-99491707D02*
X108691952Y-99444088D01*
X108691952Y-99444088D02*
X108882428Y-99539326D01*
X108882428Y-99539326D02*
X108977666Y-99491707D01*
X108977666Y-99491707D02*
X109025285Y-99444088D01*
X108120523Y-101325040D02*
X108072904Y-101372660D01*
X108072904Y-101372660D02*
X107930047Y-101420279D01*
X107930047Y-101420279D02*
X107834809Y-101420279D01*
X107834809Y-101420279D02*
X107691952Y-101372660D01*
X107691952Y-101372660D02*
X107596714Y-101277421D01*
X107596714Y-101277421D02*
X107549095Y-101182183D01*
X107549095Y-101182183D02*
X107501476Y-100991707D01*
X107501476Y-100991707D02*
X107501476Y-100848850D01*
X107501476Y-100848850D02*
X107549095Y-100658374D01*
X107549095Y-100658374D02*
X107596714Y-100563136D01*
X107596714Y-100563136D02*
X107691952Y-100467898D01*
X107691952Y-100467898D02*
X107834809Y-100420279D01*
X107834809Y-100420279D02*
X107930047Y-100420279D01*
X107930047Y-100420279D02*
X108072904Y-100467898D01*
X108072904Y-100467898D02*
X108120523Y-100515517D01*
X108549095Y-101420279D02*
X108549095Y-100420279D01*
X108549095Y-100420279D02*
X109120523Y-101420279D01*
X109120523Y-101420279D02*
X109120523Y-100420279D01*
X109501476Y-100420279D02*
X110168142Y-100420279D01*
X110168142Y-100420279D02*
X109739571Y-101420279D01*
X108549095Y-99539326D02*
X108596714Y-99491707D01*
X108596714Y-99491707D02*
X108691952Y-99444088D01*
X108691952Y-99444088D02*
X108882428Y-99539326D01*
X108882428Y-99539326D02*
X108977666Y-99491707D01*
X108977666Y-99491707D02*
X109025285Y-99444088D01*
X107644333Y-101325040D02*
X107596714Y-101372660D01*
X107596714Y-101372660D02*
X107453857Y-101420279D01*
X107453857Y-101420279D02*
X107358619Y-101420279D01*
X107358619Y-101420279D02*
X107215762Y-101372660D01*
X107215762Y-101372660D02*
X107120524Y-101277421D01*
X107120524Y-101277421D02*
X107072905Y-101182183D01*
X107072905Y-101182183D02*
X107025286Y-100991707D01*
X107025286Y-100991707D02*
X107025286Y-100848850D01*
X107025286Y-100848850D02*
X107072905Y-100658374D01*
X107072905Y-100658374D02*
X107120524Y-100563136D01*
X107120524Y-100563136D02*
X107215762Y-100467898D01*
X107215762Y-100467898D02*
X107358619Y-100420279D01*
X107358619Y-100420279D02*
X107453857Y-100420279D01*
X107453857Y-100420279D02*
X107596714Y-100467898D01*
X107596714Y-100467898D02*
X107644333Y-100515517D01*
X108072905Y-101420279D02*
X108072905Y-100420279D01*
X108072905Y-100420279D02*
X108644333Y-101420279D01*
X108644333Y-101420279D02*
X108644333Y-100420279D01*
X109644333Y-101420279D02*
X109072905Y-101420279D01*
X109358619Y-101420279D02*
X109358619Y-100420279D01*
X109358619Y-100420279D02*
X109263381Y-100563136D01*
X109263381Y-100563136D02*
X109168143Y-100658374D01*
X109168143Y-100658374D02*
X109072905Y-100705993D01*
X110263381Y-100420279D02*
X110358619Y-100420279D01*
X110358619Y-100420279D02*
X110453857Y-100467898D01*
X110453857Y-100467898D02*
X110501476Y-100515517D01*
X110501476Y-100515517D02*
X110549095Y-100610755D01*
X110549095Y-100610755D02*
X110596714Y-100801231D01*
X110596714Y-100801231D02*
X110596714Y-101039326D01*
X110596714Y-101039326D02*
X110549095Y-101229802D01*
X110549095Y-101229802D02*
X110501476Y-101325040D01*
X110501476Y-101325040D02*
X110453857Y-101372660D01*
X110453857Y-101372660D02*
X110358619Y-101420279D01*
X110358619Y-101420279D02*
X110263381Y-101420279D01*
X110263381Y-101420279D02*
X110168143Y-101372660D01*
X110168143Y-101372660D02*
X110120524Y-101325040D01*
X110120524Y-101325040D02*
X110072905Y-101229802D01*
X110072905Y-101229802D02*
X110025286Y-101039326D01*
X110025286Y-101039326D02*
X110025286Y-100801231D01*
X110025286Y-100801231D02*
X110072905Y-100610755D01*
X110072905Y-100610755D02*
X110120524Y-100515517D01*
X110120524Y-100515517D02*
X110168143Y-100467898D01*
X110168143Y-100467898D02*
X110263381Y-100420279D01*
D12*
%TO.C,S1*%
X112367000Y-129359460D02*
X122367000Y-129359460D01*
X112367000Y-131859460D02*
X112367000Y-129359460D01*
X122367000Y-129359460D02*
X122367000Y-131859460D01*
X122367000Y-131859460D02*
X112367000Y-131859460D01*
%TD*%
M02*
