%TF.GenerationSoftware,KiCad,Pcbnew,9.0.2*%
%TF.CreationDate,2025-07-03T17:47:07+02:00*%
%TF.ProjectId,PCB_accueil_STM,5043425f-6163-4637-9565-696c5f53544d,rev?*%
%TF.SameCoordinates,Original*%
%TF.FileFunction,Soldermask,Top*%
%TF.FilePolarity,Negative*%
%FSLAX46Y46*%
G04 Gerber Fmt 4.6, Leading zero omitted, Abs format (unit mm)*
G04 Created by KiCad (PCBNEW 9.0.2) date 2025-07-03 17:47:07*
%MOMM*%
%LPD*%
G01*
G04 APERTURE LIST*
G04 Aperture macros list*
%AMRoundRect*
0 Rectangle with rounded corners*
0 $1 Rounding radius*
0 $2 $3 $4 $5 $6 $7 $8 $9 X,Y pos of 4 corners*
0 Add a 4 corners polygon primitive as box body*
4,1,4,$2,$3,$4,$5,$6,$7,$8,$9,$2,$3,0*
0 Add four circle primitives for the rounded corners*
1,1,$1+$1,$2,$3*
1,1,$1+$1,$4,$5*
1,1,$1+$1,$6,$7*
1,1,$1+$1,$8,$9*
0 Add four rect primitives between the rounded corners*
20,1,$1+$1,$2,$3,$4,$5,0*
20,1,$1+$1,$4,$5,$6,$7,0*
20,1,$1+$1,$6,$7,$8,$9,0*
20,1,$1+$1,$8,$9,$2,$3,0*%
G04 Aperture macros list end*
%ADD10C,5.000000*%
%ADD11C,3.250000*%
%ADD12O,8.000000X6.000000*%
%ADD13R,1.300000X1.300000*%
%ADD14C,1.300000*%
%ADD15C,3.302000*%
%ADD16RoundRect,0.101600X-0.939800X0.939800X-0.939800X-0.939800X0.939800X-0.939800X0.939800X0.939800X0*%
%ADD17C,2.082800*%
%ADD18C,1.524000*%
G04 APERTURE END LIST*
D10*
%TO.C,1PIN*%
X86411000Y-131745460D03*
%TD*%
D11*
%TO.C,J1*%
X126917400Y-58951800D03*
X137077400Y-58951800D03*
%TD*%
D12*
%TO.C,*%
X122395000Y-74545460D03*
%TD*%
D11*
%TO.C,J2*%
X137011000Y-134405460D03*
X126851000Y-134405460D03*
%TD*%
D10*
%TO.C,1PIN*%
X144411000Y-131745460D03*
%TD*%
%TO.C,1PIN*%
X86411000Y-60741060D03*
%TD*%
D13*
%TO.C,S1*%
X117367000Y-130609460D03*
D14*
X119907000Y-130609460D03*
X114827000Y-130609460D03*
%TD*%
D15*
%TO.C,J3*%
X118687800Y-121554360D03*
X90747800Y-121554360D03*
D16*
X113607800Y-92344360D03*
D17*
X111067800Y-92344360D03*
X108527800Y-92344360D03*
X105987800Y-92344360D03*
X103447800Y-92344360D03*
X100907800Y-92344360D03*
X98367800Y-92344360D03*
X95827800Y-92344360D03*
%TD*%
D18*
%TO.C,CN7*%
X83411000Y-70525460D03*
X85951000Y-70525460D03*
X83411000Y-73065460D03*
X85951000Y-73065460D03*
X83411000Y-75605460D03*
X85951000Y-75605460D03*
X83411000Y-78145460D03*
X85951000Y-78145460D03*
X83411000Y-80685460D03*
X85951000Y-80685460D03*
X83411000Y-83225460D03*
X85951000Y-83225460D03*
X83411000Y-85765460D03*
X85951000Y-85765460D03*
X83411000Y-88305460D03*
X85951000Y-88305460D03*
X83411000Y-90845460D03*
X85951000Y-90845460D03*
X83411000Y-93385460D03*
X85951000Y-93385460D03*
X83411000Y-95925460D03*
X85951000Y-95925460D03*
X83411000Y-98465460D03*
X85951000Y-98465460D03*
X83411000Y-101005460D03*
X85951000Y-101005460D03*
X83411000Y-103545460D03*
X85951000Y-103545460D03*
X83411000Y-106085460D03*
X85951000Y-106085460D03*
X83411000Y-108625460D03*
X85951000Y-108625460D03*
X83411000Y-111165460D03*
X85951000Y-111165460D03*
X83411000Y-113705460D03*
X85951000Y-113705460D03*
X83411000Y-116245460D03*
X85951000Y-116245460D03*
%TD*%
%TO.C,CN10*%
X144371000Y-70525460D03*
X146911000Y-70525460D03*
X144371000Y-73065460D03*
X146911000Y-73065460D03*
X144371000Y-75605460D03*
X146911000Y-75605460D03*
X144371000Y-78145460D03*
X146911000Y-78145460D03*
X144371000Y-80685460D03*
X146911000Y-80685460D03*
X144371000Y-83225460D03*
X146911000Y-83225460D03*
X144371000Y-85765460D03*
X146911000Y-85765460D03*
X144371000Y-88305460D03*
X146911000Y-88305460D03*
X144371000Y-90845460D03*
X146911000Y-90845460D03*
X144371000Y-93385460D03*
X146911000Y-93385460D03*
X144371000Y-95925460D03*
X146911000Y-95925460D03*
X144371000Y-98465460D03*
X146911000Y-98465460D03*
X144371000Y-101005460D03*
X146911000Y-101005460D03*
X144371000Y-103545460D03*
X146911000Y-103545460D03*
X144371000Y-106085460D03*
X146911000Y-106085460D03*
X144371000Y-108625460D03*
X146911000Y-108625460D03*
X144371000Y-111165460D03*
X146911000Y-111165460D03*
X144371000Y-113705460D03*
X146911000Y-113705460D03*
X144371000Y-116245460D03*
X146911000Y-116245460D03*
%TD*%
D10*
%TO.C,1PIN*%
X144411000Y-60745460D03*
%TD*%
D12*
%TO.C,*%
X122395000Y-74545460D03*
%TD*%
M02*
