%TF.GenerationSoftware,KiCad,Pcbnew,9.0.2*%
%TF.CreationDate,2025-07-03T17:47:10+02:00*%
%TF.ProjectId,PCB_accueil_STM,5043425f-6163-4637-9565-696c5f53544d,rev?*%
%TF.SameCoordinates,Original*%
%TF.FileFunction,AssemblyDrawing,Bot*%
%FSLAX46Y46*%
G04 Gerber Fmt 4.6, Leading zero omitted, Abs format (unit mm)*
G04 Created by KiCad (PCBNEW 9.0.2) date 2025-07-03 17:47:10*
%MOMM*%
%LPD*%
G01*
G04 APERTURE LIST*
%ADD10C,0.254000*%
%ADD11C,0.150000*%
%ADD12C,0.120000*%
%ADD13C,0.100000*%
G04 APERTURE END LIST*
D10*
X131789732Y-56262118D02*
X131789732Y-57169261D01*
X131789732Y-57169261D02*
X131850209Y-57350689D01*
X131850209Y-57350689D02*
X131971161Y-57471642D01*
X131971161Y-57471642D02*
X132152590Y-57532118D01*
X132152590Y-57532118D02*
X132273542Y-57532118D01*
X130519732Y-57532118D02*
X131245447Y-57532118D01*
X130882590Y-57532118D02*
X130882590Y-56262118D01*
X130882590Y-56262118D02*
X131003542Y-56443546D01*
X131003542Y-56443546D02*
X131124494Y-56564499D01*
X131124494Y-56564499D02*
X131245447Y-56624975D01*
D11*
X88499819Y-112950221D02*
X88499819Y-112378793D01*
X88499819Y-112664507D02*
X87499819Y-112664507D01*
X87499819Y-112664507D02*
X87642676Y-112569269D01*
X87642676Y-112569269D02*
X87737914Y-112474031D01*
X87737914Y-112474031D02*
X87785533Y-112378793D01*
X87499819Y-113569269D02*
X87499819Y-113664507D01*
X87499819Y-113664507D02*
X87547438Y-113759745D01*
X87547438Y-113759745D02*
X87595057Y-113807364D01*
X87595057Y-113807364D02*
X87690295Y-113854983D01*
X87690295Y-113854983D02*
X87880771Y-113902602D01*
X87880771Y-113902602D02*
X88118866Y-113902602D01*
X88118866Y-113902602D02*
X88309342Y-113854983D01*
X88309342Y-113854983D02*
X88404580Y-113807364D01*
X88404580Y-113807364D02*
X88452200Y-113759745D01*
X88452200Y-113759745D02*
X88499819Y-113664507D01*
X88499819Y-113664507D02*
X88499819Y-113569269D01*
X88499819Y-113569269D02*
X88452200Y-113474031D01*
X88452200Y-113474031D02*
X88404580Y-113426412D01*
X88404580Y-113426412D02*
X88309342Y-113378793D01*
X88309342Y-113378793D02*
X88118866Y-113331174D01*
X88118866Y-113331174D02*
X87880771Y-113331174D01*
X87880771Y-113331174D02*
X87690295Y-113378793D01*
X87690295Y-113378793D02*
X87595057Y-113426412D01*
X87595057Y-113426412D02*
X87547438Y-113474031D01*
X87547438Y-113474031D02*
X87499819Y-113569269D01*
X88499819Y-114331174D02*
X87499819Y-114331174D01*
X88118866Y-114426412D02*
X88499819Y-114712126D01*
X87833152Y-114712126D02*
X88214104Y-114331174D01*
D12*
X90258855Y-113412127D02*
X89877902Y-113145460D01*
X90258855Y-112954984D02*
X89458855Y-112954984D01*
X89458855Y-112954984D02*
X89458855Y-113259746D01*
X89458855Y-113259746D02*
X89496950Y-113335936D01*
X89496950Y-113335936D02*
X89535045Y-113374031D01*
X89535045Y-113374031D02*
X89611236Y-113412127D01*
X89611236Y-113412127D02*
X89725521Y-113412127D01*
X89725521Y-113412127D02*
X89801712Y-113374031D01*
X89801712Y-113374031D02*
X89839807Y-113335936D01*
X89839807Y-113335936D02*
X89877902Y-113259746D01*
X89877902Y-113259746D02*
X89877902Y-112954984D01*
X89535045Y-113716888D02*
X89496950Y-113754984D01*
X89496950Y-113754984D02*
X89458855Y-113831174D01*
X89458855Y-113831174D02*
X89458855Y-114021650D01*
X89458855Y-114021650D02*
X89496950Y-114097841D01*
X89496950Y-114097841D02*
X89535045Y-114135936D01*
X89535045Y-114135936D02*
X89611236Y-114174031D01*
X89611236Y-114174031D02*
X89687426Y-114174031D01*
X89687426Y-114174031D02*
X89801712Y-114135936D01*
X89801712Y-114135936D02*
X90258855Y-113678793D01*
X90258855Y-113678793D02*
X90258855Y-114174031D01*
D11*
X130074019Y-94307259D02*
X129074019Y-94307259D01*
X129454971Y-94307259D02*
X129407352Y-94402497D01*
X129407352Y-94402497D02*
X129407352Y-94592973D01*
X129407352Y-94592973D02*
X129454971Y-94688211D01*
X129454971Y-94688211D02*
X129502590Y-94735830D01*
X129502590Y-94735830D02*
X129597828Y-94783449D01*
X129597828Y-94783449D02*
X129883542Y-94783449D01*
X129883542Y-94783449D02*
X129978780Y-94735830D01*
X129978780Y-94735830D02*
X130026400Y-94688211D01*
X130026400Y-94688211D02*
X130074019Y-94592973D01*
X130074019Y-94592973D02*
X130074019Y-94402497D01*
X130074019Y-94402497D02*
X130026400Y-94307259D01*
X130074019Y-95640592D02*
X129550209Y-95640592D01*
X129550209Y-95640592D02*
X129454971Y-95592973D01*
X129454971Y-95592973D02*
X129407352Y-95497735D01*
X129407352Y-95497735D02*
X129407352Y-95307259D01*
X129407352Y-95307259D02*
X129454971Y-95212021D01*
X130026400Y-95640592D02*
X130074019Y-95545354D01*
X130074019Y-95545354D02*
X130074019Y-95307259D01*
X130074019Y-95307259D02*
X130026400Y-95212021D01*
X130026400Y-95212021D02*
X129931161Y-95164402D01*
X129931161Y-95164402D02*
X129835923Y-95164402D01*
X129835923Y-95164402D02*
X129740685Y-95212021D01*
X129740685Y-95212021D02*
X129693066Y-95307259D01*
X129693066Y-95307259D02*
X129693066Y-95545354D01*
X129693066Y-95545354D02*
X129645447Y-95640592D01*
X129407352Y-95973926D02*
X129407352Y-96354878D01*
X129074019Y-96116783D02*
X129931161Y-96116783D01*
X129931161Y-96116783D02*
X130026400Y-96164402D01*
X130026400Y-96164402D02*
X130074019Y-96259640D01*
X130074019Y-96259640D02*
X130074019Y-96354878D01*
X129407352Y-96545355D02*
X129407352Y-96926307D01*
X129074019Y-96688212D02*
X129931161Y-96688212D01*
X129931161Y-96688212D02*
X130026400Y-96735831D01*
X130026400Y-96735831D02*
X130074019Y-96831069D01*
X130074019Y-96831069D02*
X130074019Y-96926307D01*
X130026400Y-97640593D02*
X130074019Y-97545355D01*
X130074019Y-97545355D02*
X130074019Y-97354879D01*
X130074019Y-97354879D02*
X130026400Y-97259641D01*
X130026400Y-97259641D02*
X129931161Y-97212022D01*
X129931161Y-97212022D02*
X129550209Y-97212022D01*
X129550209Y-97212022D02*
X129454971Y-97259641D01*
X129454971Y-97259641D02*
X129407352Y-97354879D01*
X129407352Y-97354879D02*
X129407352Y-97545355D01*
X129407352Y-97545355D02*
X129454971Y-97640593D01*
X129454971Y-97640593D02*
X129550209Y-97688212D01*
X129550209Y-97688212D02*
X129645447Y-97688212D01*
X129645447Y-97688212D02*
X129740685Y-97212022D01*
X130074019Y-98116784D02*
X129407352Y-98116784D01*
X129597828Y-98116784D02*
X129502590Y-98164403D01*
X129502590Y-98164403D02*
X129454971Y-98212022D01*
X129454971Y-98212022D02*
X129407352Y-98307260D01*
X129407352Y-98307260D02*
X129407352Y-98402498D01*
X130074019Y-98735832D02*
X129407352Y-98735832D01*
X129074019Y-98735832D02*
X129121638Y-98688213D01*
X129121638Y-98688213D02*
X129169257Y-98735832D01*
X129169257Y-98735832D02*
X129121638Y-98783451D01*
X129121638Y-98783451D02*
X129074019Y-98735832D01*
X129074019Y-98735832D02*
X129169257Y-98735832D01*
X130026400Y-99592974D02*
X130074019Y-99497736D01*
X130074019Y-99497736D02*
X130074019Y-99307260D01*
X130074019Y-99307260D02*
X130026400Y-99212022D01*
X130026400Y-99212022D02*
X129931161Y-99164403D01*
X129931161Y-99164403D02*
X129550209Y-99164403D01*
X129550209Y-99164403D02*
X129454971Y-99212022D01*
X129454971Y-99212022D02*
X129407352Y-99307260D01*
X129407352Y-99307260D02*
X129407352Y-99497736D01*
X129407352Y-99497736D02*
X129454971Y-99592974D01*
X129454971Y-99592974D02*
X129550209Y-99640593D01*
X129550209Y-99640593D02*
X129645447Y-99640593D01*
X129645447Y-99640593D02*
X129740685Y-99164403D01*
X129407352Y-101259641D02*
X130074019Y-101259641D01*
X129026400Y-101021546D02*
X129740685Y-100783451D01*
X129740685Y-100783451D02*
X129740685Y-101402498D01*
X129074019Y-102259641D02*
X129074019Y-101783451D01*
X129074019Y-101783451D02*
X129550209Y-101735832D01*
X129550209Y-101735832D02*
X129502590Y-101783451D01*
X129502590Y-101783451D02*
X129454971Y-101878689D01*
X129454971Y-101878689D02*
X129454971Y-102116784D01*
X129454971Y-102116784D02*
X129502590Y-102212022D01*
X129502590Y-102212022D02*
X129550209Y-102259641D01*
X129550209Y-102259641D02*
X129645447Y-102307260D01*
X129645447Y-102307260D02*
X129883542Y-102307260D01*
X129883542Y-102307260D02*
X129978780Y-102259641D01*
X129978780Y-102259641D02*
X130026400Y-102212022D01*
X130026400Y-102212022D02*
X130074019Y-102116784D01*
X130074019Y-102116784D02*
X130074019Y-101878689D01*
X130074019Y-101878689D02*
X130026400Y-101783451D01*
X130026400Y-101783451D02*
X129978780Y-101735832D01*
X129074019Y-102926308D02*
X129074019Y-103021546D01*
X129074019Y-103021546D02*
X129121638Y-103116784D01*
X129121638Y-103116784D02*
X129169257Y-103164403D01*
X129169257Y-103164403D02*
X129264495Y-103212022D01*
X129264495Y-103212022D02*
X129454971Y-103259641D01*
X129454971Y-103259641D02*
X129693066Y-103259641D01*
X129693066Y-103259641D02*
X129883542Y-103212022D01*
X129883542Y-103212022D02*
X129978780Y-103164403D01*
X129978780Y-103164403D02*
X130026400Y-103116784D01*
X130026400Y-103116784D02*
X130074019Y-103021546D01*
X130074019Y-103021546D02*
X130074019Y-102926308D01*
X130074019Y-102926308D02*
X130026400Y-102831070D01*
X130026400Y-102831070D02*
X129978780Y-102783451D01*
X129978780Y-102783451D02*
X129883542Y-102735832D01*
X129883542Y-102735832D02*
X129693066Y-102688213D01*
X129693066Y-102688213D02*
X129454971Y-102688213D01*
X129454971Y-102688213D02*
X129264495Y-102735832D01*
X129264495Y-102735832D02*
X129169257Y-102783451D01*
X129169257Y-102783451D02*
X129121638Y-102831070D01*
X129121638Y-102831070D02*
X129074019Y-102926308D01*
X130074019Y-103688213D02*
X129407352Y-103688213D01*
X129502590Y-103688213D02*
X129454971Y-103735832D01*
X129454971Y-103735832D02*
X129407352Y-103831070D01*
X129407352Y-103831070D02*
X129407352Y-103973927D01*
X129407352Y-103973927D02*
X129454971Y-104069165D01*
X129454971Y-104069165D02*
X129550209Y-104116784D01*
X129550209Y-104116784D02*
X130074019Y-104116784D01*
X129550209Y-104116784D02*
X129454971Y-104164403D01*
X129454971Y-104164403D02*
X129407352Y-104259641D01*
X129407352Y-104259641D02*
X129407352Y-104402498D01*
X129407352Y-104402498D02*
X129454971Y-104497737D01*
X129454971Y-104497737D02*
X129550209Y-104545356D01*
X129550209Y-104545356D02*
X130074019Y-104545356D01*
X129788304Y-104973927D02*
X129788304Y-105450117D01*
X130074019Y-104878689D02*
X129074019Y-105212022D01*
X129074019Y-105212022D02*
X130074019Y-105545355D01*
X130074019Y-105878689D02*
X129074019Y-105878689D01*
X130074019Y-106307260D02*
X129550209Y-106307260D01*
X129550209Y-106307260D02*
X129454971Y-106259641D01*
X129454971Y-106259641D02*
X129407352Y-106164403D01*
X129407352Y-106164403D02*
X129407352Y-106021546D01*
X129407352Y-106021546D02*
X129454971Y-105926308D01*
X129454971Y-105926308D02*
X129502590Y-105878689D01*
X131574019Y-98973926D02*
X131097828Y-98640593D01*
X131574019Y-98402498D02*
X130574019Y-98402498D01*
X130574019Y-98402498D02*
X130574019Y-98783450D01*
X130574019Y-98783450D02*
X130621638Y-98878688D01*
X130621638Y-98878688D02*
X130669257Y-98926307D01*
X130669257Y-98926307D02*
X130764495Y-98973926D01*
X130764495Y-98973926D02*
X130907352Y-98973926D01*
X130907352Y-98973926D02*
X131002590Y-98926307D01*
X131002590Y-98926307D02*
X131050209Y-98878688D01*
X131050209Y-98878688D02*
X131097828Y-98783450D01*
X131097828Y-98783450D02*
X131097828Y-98402498D01*
X131050209Y-99402498D02*
X131050209Y-99735831D01*
X131574019Y-99878688D02*
X131574019Y-99402498D01*
X131574019Y-99402498D02*
X130574019Y-99402498D01*
X130574019Y-99402498D02*
X130574019Y-99878688D01*
X131050209Y-100640593D02*
X131050209Y-100307260D01*
X131574019Y-100307260D02*
X130574019Y-100307260D01*
X130574019Y-100307260D02*
X130574019Y-100783450D01*
X130574019Y-101307260D02*
X130812114Y-101307260D01*
X130716876Y-101069165D02*
X130812114Y-101307260D01*
X130812114Y-101307260D02*
X130716876Y-101545355D01*
X131002590Y-101164403D02*
X130812114Y-101307260D01*
X130812114Y-101307260D02*
X131002590Y-101450117D01*
X130574019Y-102069165D02*
X130812114Y-102069165D01*
X130716876Y-101831070D02*
X130812114Y-102069165D01*
X130812114Y-102069165D02*
X130716876Y-102307260D01*
X131002590Y-101926308D02*
X130812114Y-102069165D01*
X130812114Y-102069165D02*
X131002590Y-102212022D01*
D10*
X132985332Y-135703778D02*
X132985332Y-136610921D01*
X132985332Y-136610921D02*
X133045809Y-136792349D01*
X133045809Y-136792349D02*
X133166761Y-136913302D01*
X133166761Y-136913302D02*
X133348190Y-136973778D01*
X133348190Y-136973778D02*
X133469142Y-136973778D01*
X132441047Y-135824730D02*
X132380571Y-135764254D01*
X132380571Y-135764254D02*
X132259618Y-135703778D01*
X132259618Y-135703778D02*
X131957237Y-135703778D01*
X131957237Y-135703778D02*
X131836285Y-135764254D01*
X131836285Y-135764254D02*
X131775809Y-135824730D01*
X131775809Y-135824730D02*
X131715332Y-135945682D01*
X131715332Y-135945682D02*
X131715332Y-136066635D01*
X131715332Y-136066635D02*
X131775809Y-136248063D01*
X131775809Y-136248063D02*
X132501523Y-136973778D01*
X132501523Y-136973778D02*
X131715332Y-136973778D01*
D11*
X91543104Y-89287879D02*
X91543104Y-88287879D01*
X91543104Y-88287879D02*
X91305009Y-88287879D01*
X91305009Y-88287879D02*
X91162152Y-88335498D01*
X91162152Y-88335498D02*
X91066914Y-88430736D01*
X91066914Y-88430736D02*
X91019295Y-88525974D01*
X91019295Y-88525974D02*
X90971676Y-88716450D01*
X90971676Y-88716450D02*
X90971676Y-88859307D01*
X90971676Y-88859307D02*
X91019295Y-89049783D01*
X91019295Y-89049783D02*
X91066914Y-89145021D01*
X91066914Y-89145021D02*
X91162152Y-89240260D01*
X91162152Y-89240260D02*
X91305009Y-89287879D01*
X91305009Y-89287879D02*
X91543104Y-89287879D01*
X92019294Y-93037879D02*
X92019294Y-92037879D01*
X92019294Y-92037879D02*
X91781199Y-92037879D01*
X91781199Y-92037879D02*
X91638342Y-92085498D01*
X91638342Y-92085498D02*
X91543104Y-92180736D01*
X91543104Y-92180736D02*
X91495485Y-92275974D01*
X91495485Y-92275974D02*
X91447866Y-92466450D01*
X91447866Y-92466450D02*
X91447866Y-92609307D01*
X91447866Y-92609307D02*
X91495485Y-92799783D01*
X91495485Y-92799783D02*
X91543104Y-92895021D01*
X91543104Y-92895021D02*
X91638342Y-92990260D01*
X91638342Y-92990260D02*
X91781199Y-93037879D01*
X91781199Y-93037879D02*
X92019294Y-93037879D01*
X90495485Y-93037879D02*
X91066913Y-93037879D01*
X90781199Y-93037879D02*
X90781199Y-92037879D01*
X90781199Y-92037879D02*
X90876437Y-92180736D01*
X90876437Y-92180736D02*
X90971675Y-92275974D01*
X90971675Y-92275974D02*
X91066913Y-92323593D01*
X140699819Y-73425221D02*
X140699819Y-72853793D01*
X140699819Y-73139507D02*
X139699819Y-73139507D01*
X139699819Y-73139507D02*
X139842676Y-73044269D01*
X139842676Y-73044269D02*
X139937914Y-72949031D01*
X139937914Y-72949031D02*
X139985533Y-72853793D01*
X139699819Y-74044269D02*
X139699819Y-74139507D01*
X139699819Y-74139507D02*
X139747438Y-74234745D01*
X139747438Y-74234745D02*
X139795057Y-74282364D01*
X139795057Y-74282364D02*
X139890295Y-74329983D01*
X139890295Y-74329983D02*
X140080771Y-74377602D01*
X140080771Y-74377602D02*
X140318866Y-74377602D01*
X140318866Y-74377602D02*
X140509342Y-74329983D01*
X140509342Y-74329983D02*
X140604580Y-74282364D01*
X140604580Y-74282364D02*
X140652200Y-74234745D01*
X140652200Y-74234745D02*
X140699819Y-74139507D01*
X140699819Y-74139507D02*
X140699819Y-74044269D01*
X140699819Y-74044269D02*
X140652200Y-73949031D01*
X140652200Y-73949031D02*
X140604580Y-73901412D01*
X140604580Y-73901412D02*
X140509342Y-73853793D01*
X140509342Y-73853793D02*
X140318866Y-73806174D01*
X140318866Y-73806174D02*
X140080771Y-73806174D01*
X140080771Y-73806174D02*
X139890295Y-73853793D01*
X139890295Y-73853793D02*
X139795057Y-73901412D01*
X139795057Y-73901412D02*
X139747438Y-73949031D01*
X139747438Y-73949031D02*
X139699819Y-74044269D01*
X140699819Y-74806174D02*
X139699819Y-74806174D01*
X140318866Y-74901412D02*
X140699819Y-75187126D01*
X140033152Y-75187126D02*
X140414104Y-74806174D01*
D12*
X138758855Y-73887127D02*
X138377902Y-73620460D01*
X138758855Y-73429984D02*
X137958855Y-73429984D01*
X137958855Y-73429984D02*
X137958855Y-73734746D01*
X137958855Y-73734746D02*
X137996950Y-73810936D01*
X137996950Y-73810936D02*
X138035045Y-73849031D01*
X138035045Y-73849031D02*
X138111236Y-73887127D01*
X138111236Y-73887127D02*
X138225521Y-73887127D01*
X138225521Y-73887127D02*
X138301712Y-73849031D01*
X138301712Y-73849031D02*
X138339807Y-73810936D01*
X138339807Y-73810936D02*
X138377902Y-73734746D01*
X138377902Y-73734746D02*
X138377902Y-73429984D01*
X138758855Y-74649031D02*
X138758855Y-74191888D01*
X138758855Y-74420460D02*
X137958855Y-74420460D01*
X137958855Y-74420460D02*
X138073140Y-74344269D01*
X138073140Y-74344269D02*
X138149331Y-74268079D01*
X138149331Y-74268079D02*
X138187426Y-74191888D01*
D10*
%TO.C,J1*%
X125392400Y-51071800D02*
X138602400Y-51071800D01*
X125392400Y-69171800D02*
X125392400Y-51071800D01*
X138602400Y-51071800D02*
X138602400Y-69171800D01*
X138602400Y-69171800D02*
X125392400Y-69171800D01*
D13*
%TO.C,R2*%
X89095000Y-111945460D02*
X89095000Y-115145460D01*
X89095000Y-115145460D02*
X90695000Y-115145460D01*
X90695000Y-111945460D02*
X89095000Y-111945460D01*
X90695000Y-115145460D02*
X90695000Y-111945460D01*
D10*
%TO.C,J2*%
X125326000Y-124185460D02*
X138536000Y-124185460D01*
X125326000Y-142285460D02*
X125326000Y-124185460D01*
X138536000Y-124185460D02*
X138536000Y-142285460D01*
X138536000Y-142285460D02*
X125326000Y-142285460D01*
D13*
%TO.C,D1*%
X89681200Y-90033060D02*
X92881200Y-90033060D01*
X89681200Y-91633060D02*
X89681200Y-90033060D01*
X92881200Y-90033060D02*
X92881200Y-91633060D01*
X92881200Y-91633060D02*
X89681200Y-91633060D01*
%TO.C,R1*%
X137595000Y-72420460D02*
X137595000Y-75620460D01*
X137595000Y-75620460D02*
X139195000Y-75620460D01*
X139195000Y-72420460D02*
X137595000Y-72420460D01*
X139195000Y-75620460D02*
X139195000Y-72420460D01*
%TD*%
M02*
