M48
; DRILL file {KiCad 9.0.2} date 2025-07-03T17:47:12+0200
; FORMAT={-:-/ absolute / metric / decimal}
; #@! TF.CreationDate,2025-07-03T17:47:12+02:00
; #@! TF.GenerationSoftware,Kicad,Pcbnew,9.0.2
; #@! TF.FileFunction,Plated,1,2,PTH
FMAT,2
METRIC
; #@! TA.AperFunction,Plated,PTH,ComponentDrill
T1C0.762
; #@! TA.AperFunction,Plated,PTH,ViaDrill
T2C0.800
; #@! TA.AperFunction,Plated,PTH,ComponentDrill
T3C0.800
; #@! TA.AperFunction,Plated,PTH,ComponentDrill
T4C1.016
%
G90
G05
T1
X83.411Y-70.525
X83.411Y-73.065
X83.411Y-75.605
X83.411Y-78.145
X83.411Y-80.685
X83.411Y-83.225
X83.411Y-85.765
X83.411Y-88.305
X83.411Y-90.845
X83.411Y-93.385
X83.411Y-95.925
X83.411Y-98.465
X83.411Y-101.005
X83.411Y-103.545
X83.411Y-106.085
X83.411Y-108.625
X83.411Y-111.165
X83.411Y-113.705
X83.411Y-116.245
X85.951Y-70.525
X85.951Y-73.065
X85.951Y-75.605
X85.951Y-78.145
X85.951Y-80.685
X85.951Y-83.225
X85.951Y-85.765
X85.951Y-88.305
X85.951Y-90.845
X85.951Y-93.385
X85.951Y-95.925
X85.951Y-98.465
X85.951Y-101.005
X85.951Y-103.545
X85.951Y-106.085
X85.951Y-108.625
X85.951Y-111.165
X85.951Y-113.705
X85.951Y-116.245
X144.371Y-70.525
X144.371Y-73.065
X144.371Y-75.605
X144.371Y-78.145
X144.371Y-80.685
X144.371Y-83.225
X144.371Y-85.765
X144.371Y-88.305
X144.371Y-90.845
X144.371Y-93.385
X144.371Y-95.925
X144.371Y-98.465
X144.371Y-101.005
X144.371Y-103.545
X144.371Y-106.085
X144.371Y-108.625
X144.371Y-111.165
X144.371Y-113.705
X144.371Y-116.245
X146.911Y-70.525
X146.911Y-73.065
X146.911Y-75.605
X146.911Y-78.145
X146.911Y-80.685
X146.911Y-83.225
X146.911Y-85.765
X146.911Y-88.305
X146.911Y-90.845
X146.911Y-93.385
X146.911Y-95.925
X146.911Y-98.465
X146.911Y-101.005
X146.911Y-103.545
X146.911Y-106.085
X146.911Y-108.625
X146.911Y-111.165
X146.911Y-113.705
X146.911Y-116.245
T2
X99.358Y-88.141
X101.009Y-85.546
X108.553Y-88.699
X114.548Y-79.682
X114.903Y-86.689
X117.357Y-136.707
X119.957Y-136.705
X130.626Y-119.256
X137.763Y-121.288
T3
X114.827Y-130.609
X117.367Y-130.609
X119.907Y-130.609
T4
X95.828Y-92.344
X98.368Y-92.344
X100.908Y-92.344
X103.448Y-92.344
X105.988Y-92.344
X108.528Y-92.344
X111.068Y-92.344
X113.608Y-92.344
M30
