%TF.GenerationSoftware,KiCad,Pcbnew,9.0.2*%
%TF.CreationDate,2025-05-16T17:18:39+02:00*%
%TF.ProjectId,PCB_accueil_STM,5043425f-6163-4637-9565-696c5f53544d,rev?*%
%TF.SameCoordinates,Original*%
%TF.FileFunction,Soldermask,Top*%
%TF.FilePolarity,Negative*%
%FSLAX46Y46*%
G04 Gerber Fmt 4.6, Leading zero omitted, Abs format (unit mm)*
G04 Created by KiCad (PCBNEW 9.0.2) date 2025-05-16 17:18:39*
%MOMM*%
%LPD*%
G01*
G04 APERTURE LIST*
G04 Aperture macros list*
%AMRoundRect*
0 Rectangle with rounded corners*
0 $1 Rounding radius*
0 $2 $3 $4 $5 $6 $7 $8 $9 X,Y pos of 4 corners*
0 Add a 4 corners polygon primitive as box body*
4,1,4,$2,$3,$4,$5,$6,$7,$8,$9,$2,$3,0*
0 Add four circle primitives for the rounded corners*
1,1,$1+$1,$2,$3*
1,1,$1+$1,$4,$5*
1,1,$1+$1,$6,$7*
1,1,$1+$1,$8,$9*
0 Add four rect primitives between the rounded corners*
20,1,$1+$1,$2,$3,$4,$5,0*
20,1,$1+$1,$4,$5,$6,$7,0*
20,1,$1+$1,$6,$7,$8,$9,0*
20,1,$1+$1,$8,$9,$2,$3,0*%
G04 Aperture macros list end*
%ADD10C,1.524000*%
%ADD11O,8.000000X6.000000*%
%ADD12C,5.000000*%
%ADD13R,1.300000X1.300000*%
%ADD14C,1.300000*%
%ADD15C,3.302000*%
%ADD16RoundRect,0.101600X-0.939800X0.939800X-0.939800X-0.939800X0.939800X-0.939800X0.939800X0.939800X0*%
%ADD17C,2.082800*%
%ADD18C,3.250000*%
G04 APERTURE END LIST*
D10*
%TO.C,CN7*%
X123016000Y-70980000D03*
X125556000Y-70980000D03*
X123016000Y-73520000D03*
X125556000Y-73520000D03*
X123016000Y-76060000D03*
X125556000Y-76060000D03*
X123016000Y-78600000D03*
X125556000Y-78600000D03*
X123016000Y-81140000D03*
X125556000Y-81140000D03*
X123016000Y-83680000D03*
X125556000Y-83680000D03*
X123016000Y-86220000D03*
X125556000Y-86220000D03*
X123016000Y-88760000D03*
X125556000Y-88760000D03*
X123016000Y-91300000D03*
X125556000Y-91300000D03*
X123016000Y-93840000D03*
X125556000Y-93840000D03*
X123016000Y-96380000D03*
X125556000Y-96380000D03*
X123016000Y-98920000D03*
X125556000Y-98920000D03*
X123016000Y-101460000D03*
X125556000Y-101460000D03*
X123016000Y-104000000D03*
X125556000Y-104000000D03*
X123016000Y-106540000D03*
X125556000Y-106540000D03*
X123016000Y-109080000D03*
X125556000Y-109080000D03*
X123016000Y-111620000D03*
X125556000Y-111620000D03*
X123016000Y-114160000D03*
X125556000Y-114160000D03*
X123016000Y-116700000D03*
X125556000Y-116700000D03*
%TD*%
%TO.C,CN10*%
X183976000Y-70980000D03*
X186516000Y-70980000D03*
X183976000Y-73520000D03*
X186516000Y-73520000D03*
X183976000Y-76060000D03*
X186516000Y-76060000D03*
X183976000Y-78600000D03*
X186516000Y-78600000D03*
X183976000Y-81140000D03*
X186516000Y-81140000D03*
X183976000Y-83680000D03*
X186516000Y-83680000D03*
X183976000Y-86220000D03*
X186516000Y-86220000D03*
X183976000Y-88760000D03*
X186516000Y-88760000D03*
X183976000Y-91300000D03*
X186516000Y-91300000D03*
X183976000Y-93840000D03*
X186516000Y-93840000D03*
X183976000Y-96380000D03*
X186516000Y-96380000D03*
X183976000Y-98920000D03*
X186516000Y-98920000D03*
X183976000Y-101460000D03*
X186516000Y-101460000D03*
X183976000Y-104000000D03*
X186516000Y-104000000D03*
X183976000Y-106540000D03*
X186516000Y-106540000D03*
X183976000Y-109080000D03*
X186516000Y-109080000D03*
X183976000Y-111620000D03*
X186516000Y-111620000D03*
X183976000Y-114160000D03*
X186516000Y-114160000D03*
X183976000Y-116700000D03*
X186516000Y-116700000D03*
%TD*%
D11*
%TO.C,*%
X162000000Y-75000000D03*
%TD*%
D12*
%TO.C,1PIN*%
X126016000Y-132200000D03*
%TD*%
%TO.C,1PIN*%
X184016000Y-132200000D03*
%TD*%
D13*
%TO.C,S1*%
X156972000Y-131064000D03*
D14*
X159512000Y-131064000D03*
X154432000Y-131064000D03*
%TD*%
D12*
%TO.C,1PIN*%
X184016000Y-61200000D03*
%TD*%
D15*
%TO.C,J3*%
X158292800Y-122008900D03*
X130352800Y-122008900D03*
D16*
X153212800Y-92798900D03*
D17*
X150672800Y-92798900D03*
X148132800Y-92798900D03*
X145592800Y-92798900D03*
X143052800Y-92798900D03*
X140512800Y-92798900D03*
X137972800Y-92798900D03*
X135432800Y-92798900D03*
%TD*%
D12*
%TO.C,1PIN*%
X126016000Y-61195600D03*
%TD*%
D11*
%TO.C,*%
X162000000Y-75000000D03*
%TD*%
D18*
%TO.C,J2*%
X176616000Y-134860000D03*
X166456000Y-134860000D03*
%TD*%
%TO.C,J1*%
X166522400Y-59406340D03*
X176682400Y-59406340D03*
%TD*%
M02*
