%TF.GenerationSoftware,KiCad,Pcbnew,9.0.2*%
%TF.CreationDate,2025-07-03T17:47:05+02:00*%
%TF.ProjectId,PCB_accueil_STM,5043425f-6163-4637-9565-696c5f53544d,rev?*%
%TF.SameCoordinates,Original*%
%TF.FileFunction,Copper,L2,Bot*%
%TF.FilePolarity,Positive*%
%FSLAX46Y46*%
G04 Gerber Fmt 4.6, Leading zero omitted, Abs format (unit mm)*
G04 Created by KiCad (PCBNEW 9.0.2) date 2025-07-03 17:47:05*
%MOMM*%
%LPD*%
G01*
G04 APERTURE LIST*
G04 Aperture macros list*
%AMRoundRect*
0 Rectangle with rounded corners*
0 $1 Rounding radius*
0 $2 $3 $4 $5 $6 $7 $8 $9 X,Y pos of 4 corners*
0 Add a 4 corners polygon primitive as box body*
4,1,4,$2,$3,$4,$5,$6,$7,$8,$9,$2,$3,0*
0 Add four circle primitives for the rounded corners*
1,1,$1+$1,$2,$3*
1,1,$1+$1,$4,$5*
1,1,$1+$1,$6,$7*
1,1,$1+$1,$8,$9*
0 Add four rect primitives between the rounded corners*
20,1,$1+$1,$2,$3,$4,$5,0*
20,1,$1+$1,$4,$5,$6,$7,0*
20,1,$1+$1,$6,$7,$8,$9,0*
20,1,$1+$1,$8,$9,$2,$3,0*%
G04 Aperture macros list end*
%TA.AperFunction,WasherPad*%
%ADD10C,5.000000*%
%TD*%
%TA.AperFunction,SMDPad,CuDef*%
%ADD11R,0.760000X6.350000*%
%TD*%
%TA.AperFunction,SMDPad,CuDef*%
%ADD12RoundRect,0.250000X0.650000X-0.325000X0.650000X0.325000X-0.650000X0.325000X-0.650000X-0.325000X0*%
%TD*%
%TA.AperFunction,ComponentPad*%
%ADD13R,1.300000X1.300000*%
%TD*%
%TA.AperFunction,ComponentPad*%
%ADD14C,1.300000*%
%TD*%
%TA.AperFunction,SMDPad,CuDef*%
%ADD15R,1.000000X1.600000*%
%TD*%
%TA.AperFunction,SMDPad,CuDef*%
%ADD16RoundRect,0.250000X-0.650000X0.325000X-0.650000X-0.325000X0.650000X-0.325000X0.650000X0.325000X0*%
%TD*%
%TA.AperFunction,ComponentPad*%
%ADD17R,1.879600X1.879600*%
%TD*%
%TA.AperFunction,ComponentPad*%
%ADD18C,1.879600*%
%TD*%
%TA.AperFunction,ComponentPad*%
%ADD19C,1.524000*%
%TD*%
%TA.AperFunction,ViaPad*%
%ADD20C,2.100000*%
%TD*%
%TA.AperFunction,Conductor*%
%ADD21C,0.600000*%
%TD*%
G04 APERTURE END LIST*
D10*
%TO.P,1PIN,*%
%TO.N,*%
X86411000Y-131745460D03*
%TD*%
D11*
%TO.P,J1,1*%
%TO.N,+3V3*%
X128822400Y-69176800D03*
%TO.P,J1,2*%
X130092400Y-69176800D03*
%TO.P,J1,3*%
%TO.N,GND*%
X131362400Y-69176800D03*
%TO.P,J1,4*%
%TO.N,/I2C_SCL*%
X132632400Y-69176800D03*
%TO.P,J1,5*%
%TO.N,/I2C_SDA*%
X133902400Y-69176800D03*
%TO.P,J1,6*%
%TO.N,/temoin_connexion_haut*%
X135172400Y-69176800D03*
%TD*%
D12*
%TO.P,R2,1*%
%TO.N,/temoin_connexion_bas*%
X89895000Y-115020460D03*
%TO.P,R2,2*%
%TO.N,GND2*%
X89895000Y-112070460D03*
%TD*%
D11*
%TO.P,J2,1*%
%TO.N,+3V3*%
X135106000Y-124180460D03*
%TO.P,J2,2*%
%TO.N,GND2*%
X133836000Y-124180460D03*
%TO.P,J2,3*%
X132566000Y-124180460D03*
%TO.P,J2,4*%
%TO.N,/I2C_SCL*%
X131296000Y-124180460D03*
%TO.P,J2,5*%
%TO.N,/I2C_SDA*%
X130026000Y-124180460D03*
%TO.P,J2,6*%
%TO.N,/temoin_connexion_bas*%
X128756000Y-124180460D03*
%TD*%
D10*
%TO.P,1PIN,*%
%TO.N,*%
X144411000Y-131745460D03*
%TD*%
%TO.P,1PIN,*%
%TO.N,*%
X86411000Y-60741060D03*
%TD*%
D13*
%TO.P,S1,1,COM*%
%TO.N,Net-(J3-Pin_7)*%
X117367000Y-130609460D03*
D14*
%TO.P,S1,2,NO*%
%TO.N,Net-(D1-A)*%
X119907000Y-130609460D03*
%TO.P,S1,3,NC*%
%TO.N,unconnected-(S1-NC-Pad3)*%
X114827000Y-130609460D03*
%TD*%
D15*
%TO.P,D1,1,K*%
%TO.N,VBAT*%
X89781200Y-90833060D03*
%TO.P,D1,2,A*%
%TO.N,Net-(D1-A)*%
X92781200Y-90833060D03*
%TD*%
D16*
%TO.P,R1,1*%
%TO.N,/temoin_connexion_haut*%
X138395000Y-72545460D03*
%TO.P,R1,2*%
%TO.N,GND3*%
X138395000Y-75495460D03*
%TD*%
D17*
%TO.P,J3,1,Pin_1*%
%TO.N,unconnected-(J3-Pin_1-Pad1)*%
X113607800Y-92344360D03*
D18*
%TO.P,J3,2,Pin_2*%
%TO.N,+3V3*%
X111067800Y-92344360D03*
%TO.P,J3,3,Pin_3*%
%TO.N,/I2C_SDA*%
X108527800Y-92344360D03*
%TO.P,J3,4,Pin_4*%
%TO.N,/I2C_SCL*%
X105987800Y-92344360D03*
%TO.P,J3,5,Pin_5*%
%TO.N,/INT_LOW_BAT*%
X103447800Y-92344360D03*
%TO.P,J3,6,Pin_6*%
%TO.N,unconnected-(J3-Pin_6-Pad6)*%
X100907800Y-92344360D03*
%TO.P,J3,7,Pin_7*%
%TO.N,Net-(J3-Pin_7)*%
X98367800Y-92344360D03*
%TO.P,J3,8,Pin_8*%
%TO.N,GND2*%
X95827800Y-92344360D03*
%TD*%
D19*
%TO.P,CN7,1,I2C3_SDA/PB11*%
%TO.N,unconnected-(CN7-I2C3_SDA{slash}PB11-Pad1)*%
X83411000Y-70525460D03*
%TO.P,CN7,2,PB2*%
%TO.N,unconnected-(CN7-PB2-Pad2)*%
X85951000Y-70525460D03*
%TO.P,CN7,3,PC5*%
%TO.N,unconnected-(CN7-PC5-Pad3)*%
X83411000Y-73065460D03*
%TO.P,CN7,4,PE4*%
%TO.N,unconnected-(CN7-PE4-Pad4)*%
X85951000Y-73065460D03*
%TO.P,CN7,5,VCC*%
%TO.N,unconnected-(CN7-VCC-Pad5)*%
X83411000Y-75605460D03*
%TO.P,CN7,6,5V_EXT*%
%TO.N,unconnected-(CN7-5V_EXT-Pad6)*%
X85951000Y-75605460D03*
%TO.P,CN7,7,BOOT0*%
%TO.N,unconnected-(CN7-BOOT0-Pad7)*%
X83411000Y-78145460D03*
%TO.P,CN7,8,GND*%
%TO.N,GND*%
X85951000Y-78145460D03*
%TO.P,CN7,9*%
%TO.N,unconnected-(CN7-Pad9)*%
X83411000Y-80685460D03*
%TO.P,CN7,10*%
%TO.N,unconnected-(CN7-Pad10)*%
X85951000Y-80685460D03*
%TO.P,CN7,11*%
%TO.N,unconnected-(CN7-Pad11)*%
X83411000Y-83225460D03*
%TO.P,CN7,12,IOREF*%
%TO.N,unconnected-(CN7-IOREF-Pad12)*%
X85951000Y-83225460D03*
%TO.P,CN7,13,PA13*%
%TO.N,unconnected-(CN7-PA13-Pad13)*%
X83411000Y-85765460D03*
%TO.P,CN7,14,NRST*%
%TO.N,unconnected-(CN7-NRST-Pad14)*%
X85951000Y-85765460D03*
%TO.P,CN7,15,PA14*%
%TO.N,unconnected-(CN7-PA14-Pad15)*%
X83411000Y-88305460D03*
%TO.P,CN7,16,3V3*%
%TO.N,+3V3*%
X85951000Y-88305460D03*
%TO.P,CN7,17*%
%TO.N,unconnected-(CN7-Pad17)*%
X83411000Y-90845460D03*
%TO.P,CN7,18,5V*%
%TO.N,VBAT*%
X85951000Y-90845460D03*
%TO.P,CN7,19,GND*%
%TO.N,unconnected-(CN7-GND-Pad19)*%
X83411000Y-93385460D03*
%TO.P,CN7,20,GND*%
%TO.N,GND2*%
X85951000Y-93385460D03*
%TO.P,CN7,21*%
%TO.N,unconnected-(CN7-Pad21)*%
X83411000Y-95925460D03*
%TO.P,CN7,22*%
%TO.N,unconnected-(CN7-Pad22)*%
X85951000Y-95925460D03*
%TO.P,CN7,23*%
%TO.N,unconnected-(CN7-Pad23)*%
X83411000Y-98465460D03*
%TO.P,CN7,24,VIN*%
%TO.N,unconnected-(CN7-VIN-Pad24)*%
X85951000Y-98465460D03*
%TO.P,CN7,25,PC14*%
%TO.N,unconnected-(CN7-PC14-Pad25)*%
X83411000Y-101005460D03*
%TO.P,CN7,26*%
%TO.N,unconnected-(CN7-Pad26)*%
X85951000Y-101005460D03*
%TO.P,CN7,27,PC15*%
%TO.N,unconnected-(CN7-PC15-Pad27)*%
X83411000Y-103545460D03*
%TO.P,CN7,28,I2C3_SCL/PC0*%
%TO.N,unconnected-(CN7-I2C3_SCL{slash}PC0-Pad28)*%
X85951000Y-103545460D03*
%TO.P,CN7,29,OSC_IN*%
%TO.N,unconnected-(CN7-OSC_IN-Pad29)*%
X83411000Y-106085460D03*
%TO.P,CN7,30,I2C3_SDA/PC1*%
%TO.N,unconnected-(CN7-I2C3_SDA{slash}PC1-Pad30)*%
X85951000Y-106085460D03*
%TO.P,CN7,31,OSC_OUT*%
%TO.N,unconnected-(CN7-OSC_OUT-Pad31)*%
X83411000Y-108625460D03*
%TO.P,CN7,32,PA1*%
%TO.N,unconnected-(CN7-PA1-Pad32)*%
X85951000Y-108625460D03*
%TO.P,CN7,33,VBAT*%
%TO.N,unconnected-(CN7-VBAT-Pad33)*%
X83411000Y-111165460D03*
%TO.P,CN7,34,PA0*%
%TO.N,unconnected-(CN7-PA0-Pad34)*%
X85951000Y-111165460D03*
%TO.P,CN7,35*%
%TO.N,unconnected-(CN7-Pad35)*%
X83411000Y-113705460D03*
%TO.P,CN7,36,PC3*%
%TO.N,unconnected-(CN7-PC3-Pad36)*%
X85951000Y-113705460D03*
%TO.P,CN7,37*%
%TO.N,unconnected-(CN7-Pad37)*%
X83411000Y-116245460D03*
%TO.P,CN7,38,PC2*%
%TO.N,/temoin_connexion_bas*%
X85951000Y-116245460D03*
%TD*%
%TO.P,CN10,1,PC4*%
%TO.N,unconnected-(CN10-PC4-Pad1)*%
X144371000Y-70525460D03*
%TO.P,CN10,2*%
%TO.N,unconnected-(CN10-Pad2)*%
X146911000Y-70525460D03*
%TO.P,CN10,3,I2C1_SCL/PB8*%
%TO.N,/I2C_SCL*%
X144371000Y-73065460D03*
%TO.P,CN10,4,I2C3_SDA/PB4*%
%TO.N,unconnected-(CN10-I2C3_SDA{slash}PB4-Pad4)*%
X146911000Y-73065460D03*
%TO.P,CN10,5,I2C1_SDA/PB9*%
%TO.N,/I2C_SDA*%
X144371000Y-75605460D03*
%TO.P,CN10,6,PB7*%
%TO.N,unconnected-(CN10-PB7-Pad6)*%
X146911000Y-75605460D03*
%TO.P,CN10,7,AVDD*%
%TO.N,unconnected-(CN10-AVDD-Pad7)*%
X144371000Y-78145460D03*
%TO.P,CN10,8,5V_USB*%
%TO.N,unconnected-(CN10-5V_USB-Pad8)*%
X146911000Y-78145460D03*
%TO.P,CN10,9,GND*%
%TO.N,GND3*%
X144371000Y-80685460D03*
%TO.P,CN10,10*%
%TO.N,unconnected-(CN10-Pad10)*%
X146911000Y-80685460D03*
%TO.P,CN10,11,PA5*%
%TO.N,/temoin_connexion_haut*%
X144371000Y-83225460D03*
%TO.P,CN10,12*%
%TO.N,unconnected-(CN10-Pad12)*%
X146911000Y-83225460D03*
%TO.P,CN10,13,PA6*%
%TO.N,/INT_LOW_BAT*%
X144371000Y-85765460D03*
%TO.P,CN10,14*%
%TO.N,unconnected-(CN10-Pad14)*%
X146911000Y-85765460D03*
%TO.P,CN10,15,I2C3_SCL/PA7*%
%TO.N,unconnected-(CN10-I2C3_SCL{slash}PA7-Pad15)*%
X144371000Y-88305460D03*
%TO.P,CN10,16,PB12*%
%TO.N,unconnected-(CN10-PB12-Pad16)*%
X146911000Y-88305460D03*
%TO.P,CN10,17,PA4*%
%TO.N,unconnected-(CN10-PA4-Pad17)*%
X144371000Y-90845460D03*
%TO.P,CN10,18*%
%TO.N,unconnected-(CN10-Pad18)*%
X146911000Y-90845460D03*
%TO.P,CN10,19,I2C1_SCL/PA9*%
%TO.N,unconnected-(CN10-I2C1_SCL{slash}PA9-Pad19)*%
X144371000Y-93385460D03*
%TO.P,CN10,20,GND*%
%TO.N,unconnected-(CN10-GND-Pad20)*%
X146911000Y-93385460D03*
%TO.P,CN10,21,PC12*%
%TO.N,unconnected-(CN10-PC12-Pad21)*%
X144371000Y-95925460D03*
%TO.P,CN10,22,LED2/PB0*%
%TO.N,unconnected-(CN10-LED2{slash}PB0-Pad22)*%
X146911000Y-95925460D03*
%TO.P,CN10,23,PC13*%
%TO.N,unconnected-(CN10-PC13-Pad23)*%
X144371000Y-98465460D03*
%TO.P,CN10,24,LED3/PB1*%
%TO.N,unconnected-(CN10-LED3{slash}PB1-Pad24)*%
X146911000Y-98465460D03*
%TO.P,CN10,25,PA8*%
%TO.N,unconnected-(CN10-PA8-Pad25)*%
X144371000Y-101005460D03*
%TO.P,CN10,26,PB15*%
%TO.N,unconnected-(CN10-PB15-Pad26)*%
X146911000Y-101005460D03*
%TO.P,CN10,27,PA15*%
%TO.N,unconnected-(CN10-PA15-Pad27)*%
X144371000Y-103545460D03*
%TO.P,CN10,28,I2C3_SDA/PB14*%
%TO.N,unconnected-(CN10-I2C3_SDA{slash}PB14-Pad28)*%
X146911000Y-103545460D03*
%TO.P,CN10,29,PC10*%
%TO.N,unconnected-(CN10-PC10-Pad29)*%
X144371000Y-106085460D03*
%TO.P,CN10,30,I2C3_SCL/PB13*%
%TO.N,unconnected-(CN10-I2C3_SCL{slash}PB13-Pad30)*%
X146911000Y-106085460D03*
%TO.P,CN10,31,I2C1_SDA/PA10*%
%TO.N,unconnected-(CN10-I2C1_SDA{slash}PA10-Pad31)*%
X144371000Y-108625460D03*
%TO.P,CN10,32,AGND*%
%TO.N,unconnected-(CN10-AGND-Pad32)*%
X146911000Y-108625460D03*
%TO.P,CN10,33,PC6*%
%TO.N,unconnected-(CN10-PC6-Pad33)*%
X144371000Y-111165460D03*
%TO.P,CN10,34,PB6*%
%TO.N,unconnected-(CN10-PB6-Pad34)*%
X146911000Y-111165460D03*
%TO.P,CN10,35,PA2*%
%TO.N,unconnected-(CN10-PA2-Pad35)*%
X144371000Y-113705460D03*
%TO.P,CN10,36,PD0*%
%TO.N,unconnected-(CN10-PD0-Pad36)*%
X146911000Y-113705460D03*
%TO.P,CN10,37,PA3*%
%TO.N,unconnected-(CN10-PA3-Pad37)*%
X144371000Y-116245460D03*
%TO.P,CN10,38,PD1*%
%TO.N,unconnected-(CN10-PD1-Pad38)*%
X146911000Y-116245460D03*
%TD*%
D10*
%TO.P,1PIN,*%
%TO.N,*%
X144411000Y-60745460D03*
%TD*%
D20*
%TO.N,/I2C_SDA*%
X108553200Y-88699460D03*
%TO.N,+3V3*%
X114903200Y-86688660D03*
%TO.N,Net-(D1-A)*%
X119957489Y-136705422D03*
%TO.N,/I2C_SDA*%
X130625800Y-119255660D03*
%TO.N,+3V3*%
X137763200Y-121287660D03*
X114547600Y-79682460D03*
%TO.N,Net-(J3-Pin_7)*%
X117357487Y-136707363D03*
X101009400Y-85545660D03*
%TO.N,Net-(D1-A)*%
X99358400Y-88140660D03*
%TD*%
D21*
%TO.N,/I2C_SDA*%
X140910140Y-65201800D02*
X141616200Y-65907860D01*
X133992400Y-65201800D02*
X140910140Y-65201800D01*
X133902400Y-74958060D02*
X133902400Y-69176800D01*
X141616200Y-75605460D02*
X144371000Y-75605460D01*
X133902400Y-65291800D02*
X133992400Y-65201800D01*
X133902400Y-69176800D02*
X133902400Y-65291800D01*
%TO.N,+3V3*%
X114547600Y-79682460D02*
X100882400Y-79682460D01*
X128822400Y-73764260D02*
X128822400Y-69176800D01*
X114903200Y-86688660D02*
X111067800Y-90524060D01*
%TO.N,VBAT*%
X85963400Y-90833060D02*
X85951000Y-90845460D01*
%TO.N,+3V3*%
X135106000Y-123944860D02*
X137763200Y-121287660D01*
%TO.N,GND2*%
X89895000Y-93385460D02*
X94799400Y-93385460D01*
%TO.N,+3V3*%
X128860500Y-73802360D02*
X130092400Y-73802360D01*
%TO.N,GND2*%
X95853200Y-92331660D02*
X95853200Y-95787660D01*
%TO.N,+3V3*%
X128822400Y-69176800D02*
X130092400Y-69176800D01*
%TO.N,GND2*%
X85951000Y-93385460D02*
X89895000Y-93385460D01*
%TO.N,/temoin_connexion_bas*%
X128756000Y-116245460D02*
X111271000Y-116245460D01*
%TO.N,GND*%
X125370660Y-65201800D02*
X112427000Y-78145460D01*
X131362400Y-69176800D02*
X131362400Y-65291800D01*
%TO.N,+3V3*%
X130092400Y-73802360D02*
X130092400Y-69176800D01*
%TO.N,GND*%
X131362400Y-65291800D02*
X131272400Y-65201800D01*
%TO.N,/I2C_SCL*%
X149117000Y-69395460D02*
X149117000Y-117401460D01*
%TO.N,GND2*%
X133836000Y-124180460D02*
X133836000Y-118777960D01*
%TO.N,/I2C_SCL*%
X142172340Y-64101800D02*
X142716200Y-64645660D01*
X106013200Y-92331660D02*
X106013200Y-81532460D01*
X147728002Y-68006462D02*
X149117000Y-69395460D01*
X132632400Y-69176800D02*
X132632400Y-65006165D01*
X132632400Y-65006165D02*
X133536765Y-64101800D01*
X149117000Y-117401460D02*
X137433000Y-129085460D01*
X142716200Y-73065460D02*
X144371000Y-73065460D01*
X124534000Y-81532460D02*
X132632400Y-73434060D01*
X142716200Y-73065460D02*
X142716200Y-68006462D01*
X131296000Y-129085460D02*
X131296000Y-124180460D01*
X132632400Y-73434060D02*
X132632400Y-69176800D01*
X137433000Y-129085460D02*
X131296000Y-129085460D01*
X106013200Y-81532460D02*
X124534000Y-81532460D01*
%TO.N,GND2*%
X132294366Y-110289460D02*
X132566000Y-110561094D01*
%TO.N,/temoin_connexion_bas*%
X89895000Y-116245460D02*
X85951000Y-116245460D01*
%TO.N,+3V3*%
X135106000Y-124180460D02*
X135106000Y-123944860D01*
%TO.N,/I2C_SCL*%
X142716200Y-64645660D02*
X142716200Y-68006462D01*
%TO.N,+3V3*%
X123793200Y-79682460D02*
X128860500Y-74615160D01*
%TO.N,VBAT*%
X89781200Y-90833060D02*
X85963400Y-90833060D01*
%TO.N,+3V3*%
X111067800Y-90524060D02*
X111067800Y-92344360D01*
%TO.N,/I2C_SCL*%
X142716200Y-68006462D02*
X147728002Y-68006462D01*
%TO.N,/temoin_connexion_bas*%
X128756000Y-124180460D02*
X128756000Y-116245460D01*
%TO.N,GND2*%
X95853200Y-95787660D02*
X110355000Y-110289460D01*
%TO.N,GND*%
X131272400Y-65201800D02*
X125370660Y-65201800D01*
%TO.N,/temoin_connexion_bas*%
X89895000Y-115020460D02*
X89895000Y-116245460D01*
%TO.N,+3V3*%
X128860500Y-73802360D02*
X128822400Y-73764260D01*
%TO.N,GND2*%
X132566000Y-124180460D02*
X133836000Y-124180460D01*
%TO.N,/I2C_SCL*%
X133536765Y-64101800D02*
X142172340Y-64101800D01*
%TO.N,/I2C_SDA*%
X130026000Y-119855460D02*
X130625800Y-119255660D01*
%TO.N,Net-(D1-A)*%
X95473600Y-88140660D02*
X99358400Y-88140660D01*
%TO.N,/temoin_connexion_bas*%
X111271000Y-116245460D02*
X89895000Y-116245460D01*
%TO.N,/temoin_connexion_haut*%
X138395000Y-70545460D02*
X137026340Y-69176800D01*
%TO.N,Net-(J3-Pin_7)*%
X98727600Y-89990660D02*
X98367800Y-90350460D01*
%TO.N,+3V3*%
X100882400Y-79682460D02*
X92259400Y-88305460D01*
%TO.N,GND2*%
X132566000Y-124180460D02*
X132566000Y-118777960D01*
%TO.N,/I2C_SDA*%
X141616200Y-65907860D02*
X141616200Y-75605460D01*
%TO.N,+3V3*%
X114547600Y-79682460D02*
X123793200Y-79682460D01*
%TO.N,/temoin_connexion_haut*%
X138395000Y-72545460D02*
X138395000Y-70545460D01*
%TO.N,Net-(J3-Pin_7)*%
X101644400Y-88470956D02*
X100124696Y-89990660D01*
%TO.N,/INT_LOW_BAT*%
X142145000Y-85765460D02*
X144371000Y-85765460D01*
%TO.N,GND2*%
X94799400Y-93385460D02*
X95853200Y-92331660D01*
%TO.N,GND*%
X85951000Y-78145460D02*
X112427000Y-78145460D01*
%TO.N,+3V3*%
X128860500Y-74615160D02*
X128860500Y-73802360D01*
%TO.N,/I2C_SDA*%
X124021800Y-84838660D02*
X133902400Y-74958060D01*
%TO.N,+3V3*%
X92259400Y-88305460D02*
X85951000Y-88305460D01*
%TO.N,/INT_LOW_BAT*%
X131489400Y-96421060D02*
X142145000Y-85765460D01*
%TO.N,Net-(J3-Pin_7)*%
X98367800Y-90350460D02*
X98367800Y-92344360D01*
%TO.N,/I2C_SDA*%
X108553200Y-86210260D02*
X109924800Y-84838660D01*
%TO.N,Net-(D1-A)*%
X92781200Y-90833060D02*
X95473600Y-88140660D01*
%TO.N,/I2C_SDA*%
X108553200Y-92331660D02*
X108553200Y-86210260D01*
X130026000Y-124180460D02*
X130026000Y-119855460D01*
X109924800Y-84838660D02*
X124021800Y-84838660D01*
%TO.N,GND3*%
X144231000Y-80825460D02*
X144371000Y-80685460D01*
X142035000Y-80685460D02*
X144371000Y-80685460D01*
X138395000Y-77045460D02*
X142035000Y-80685460D01*
X138395000Y-75495460D02*
X138395000Y-77045460D01*
%TO.N,/temoin_connexion_haut*%
X137026340Y-69176800D02*
X135172400Y-69176800D01*
X135172400Y-76990060D02*
X135811400Y-77629060D01*
X135172400Y-69176800D02*
X135172400Y-76990060D01*
%TO.N,Net-(J3-Pin_7)*%
X117367000Y-136697850D02*
X117367000Y-130609460D01*
%TO.N,/temoin_connexion_haut*%
X141407800Y-83225460D02*
X144371000Y-83225460D01*
%TO.N,Net-(J3-Pin_7)*%
X117357487Y-136707363D02*
X117367000Y-136697850D01*
%TO.N,/temoin_connexion_haut*%
X136227800Y-78045460D02*
X135811400Y-77629060D01*
%TO.N,Net-(J3-Pin_7)*%
X101009400Y-85545660D02*
X101644400Y-86180660D01*
%TO.N,/temoin_connexion_haut*%
X135811400Y-77629060D02*
X141407800Y-83225460D01*
%TO.N,Net-(J3-Pin_7)*%
X101644400Y-86180660D02*
X101644400Y-88470956D01*
%TO.N,/INT_LOW_BAT*%
X107562600Y-96421060D02*
X131489400Y-96421060D01*
%TO.N,Net-(J3-Pin_7)*%
X100124696Y-89990660D02*
X98727600Y-89990660D01*
%TO.N,/INT_LOW_BAT*%
X103473200Y-92331660D02*
X107562600Y-96421060D01*
%TO.N,GND2*%
X132566000Y-110561094D02*
X132566000Y-118777960D01*
X110355000Y-110289460D02*
X132294366Y-110289460D01*
X132566000Y-118777960D02*
X133836000Y-118777960D01*
X89895000Y-112070460D02*
X89895000Y-93385460D01*
%TO.N,Net-(D1-A)*%
X119957800Y-136705111D02*
X119957800Y-130660260D01*
X119957489Y-136705422D02*
X119957800Y-136705111D01*
X119957800Y-130660260D02*
X119907000Y-130609460D01*
%TD*%
M02*
