%TF.GenerationSoftware,KiCad,Pcbnew,9.0.2*%
%TF.CreationDate,2025-05-16T17:18:38+02:00*%
%TF.ProjectId,PCB_accueil_STM,5043425f-6163-4637-9565-696c5f53544d,rev?*%
%TF.SameCoordinates,Original*%
%TF.FileFunction,Copper,L1,Top*%
%TF.FilePolarity,Positive*%
%FSLAX46Y46*%
G04 Gerber Fmt 4.6, Leading zero omitted, Abs format (unit mm)*
G04 Created by KiCad (PCBNEW 9.0.2) date 2025-05-16 17:18:38*
%MOMM*%
%LPD*%
G01*
G04 APERTURE LIST*
%TA.AperFunction,ComponentPad*%
%ADD10C,1.524000*%
%TD*%
%TA.AperFunction,WasherPad*%
%ADD11C,5.000000*%
%TD*%
%TA.AperFunction,ComponentPad*%
%ADD12R,1.300000X1.300000*%
%TD*%
%TA.AperFunction,ComponentPad*%
%ADD13C,1.300000*%
%TD*%
%TA.AperFunction,ComponentPad*%
%ADD14R,1.879600X1.879600*%
%TD*%
%TA.AperFunction,ComponentPad*%
%ADD15C,1.879600*%
%TD*%
%TA.AperFunction,ViaPad*%
%ADD16C,2.100000*%
%TD*%
%TA.AperFunction,Conductor*%
%ADD17C,0.600000*%
%TD*%
G04 APERTURE END LIST*
D10*
%TO.P,CN7,1,I2C3_SDA/PB11*%
%TO.N,unconnected-(CN7-I2C3_SDA{slash}PB11-Pad1)*%
X123016000Y-70980000D03*
%TO.P,CN7,2,PB2*%
%TO.N,unconnected-(CN7-PB2-Pad2)*%
X125556000Y-70980000D03*
%TO.P,CN7,3,PC5*%
%TO.N,unconnected-(CN7-PC5-Pad3)*%
X123016000Y-73520000D03*
%TO.P,CN7,4,PE4*%
%TO.N,unconnected-(CN7-PE4-Pad4)*%
X125556000Y-73520000D03*
%TO.P,CN7,5,VCC*%
%TO.N,unconnected-(CN7-VCC-Pad5)*%
X123016000Y-76060000D03*
%TO.P,CN7,6,5V_EXT*%
%TO.N,unconnected-(CN7-5V_EXT-Pad6)*%
X125556000Y-76060000D03*
%TO.P,CN7,7,BOOT0*%
%TO.N,unconnected-(CN7-BOOT0-Pad7)*%
X123016000Y-78600000D03*
%TO.P,CN7,8,GND*%
%TO.N,GND*%
X125556000Y-78600000D03*
%TO.P,CN7,9*%
%TO.N,unconnected-(CN7-Pad9)*%
X123016000Y-81140000D03*
%TO.P,CN7,10*%
%TO.N,unconnected-(CN7-Pad10)*%
X125556000Y-81140000D03*
%TO.P,CN7,11*%
%TO.N,unconnected-(CN7-Pad11)*%
X123016000Y-83680000D03*
%TO.P,CN7,12,IOREF*%
%TO.N,unconnected-(CN7-IOREF-Pad12)*%
X125556000Y-83680000D03*
%TO.P,CN7,13,PA13*%
%TO.N,unconnected-(CN7-PA13-Pad13)*%
X123016000Y-86220000D03*
%TO.P,CN7,14,NRST*%
%TO.N,unconnected-(CN7-NRST-Pad14)*%
X125556000Y-86220000D03*
%TO.P,CN7,15,PA14*%
%TO.N,unconnected-(CN7-PA14-Pad15)*%
X123016000Y-88760000D03*
%TO.P,CN7,16,3V3*%
%TO.N,+3V3*%
X125556000Y-88760000D03*
%TO.P,CN7,17*%
%TO.N,unconnected-(CN7-Pad17)*%
X123016000Y-91300000D03*
%TO.P,CN7,18,5V*%
%TO.N,VBAT*%
X125556000Y-91300000D03*
%TO.P,CN7,19,GND*%
%TO.N,unconnected-(CN7-GND-Pad19)*%
X123016000Y-93840000D03*
%TO.P,CN7,20,GND*%
%TO.N,GND2*%
X125556000Y-93840000D03*
%TO.P,CN7,21*%
%TO.N,unconnected-(CN7-Pad21)*%
X123016000Y-96380000D03*
%TO.P,CN7,22*%
%TO.N,unconnected-(CN7-Pad22)*%
X125556000Y-96380000D03*
%TO.P,CN7,23*%
%TO.N,unconnected-(CN7-Pad23)*%
X123016000Y-98920000D03*
%TO.P,CN7,24,VIN*%
%TO.N,unconnected-(CN7-VIN-Pad24)*%
X125556000Y-98920000D03*
%TO.P,CN7,25,PC14*%
%TO.N,unconnected-(CN7-PC14-Pad25)*%
X123016000Y-101460000D03*
%TO.P,CN7,26*%
%TO.N,unconnected-(CN7-Pad26)*%
X125556000Y-101460000D03*
%TO.P,CN7,27,PC15*%
%TO.N,unconnected-(CN7-PC15-Pad27)*%
X123016000Y-104000000D03*
%TO.P,CN7,28,I2C3_SCL/PC0*%
%TO.N,unconnected-(CN7-I2C3_SCL{slash}PC0-Pad28)*%
X125556000Y-104000000D03*
%TO.P,CN7,29,OSC_IN*%
%TO.N,unconnected-(CN7-OSC_IN-Pad29)*%
X123016000Y-106540000D03*
%TO.P,CN7,30,I2C3_SDA/PC1*%
%TO.N,unconnected-(CN7-I2C3_SDA{slash}PC1-Pad30)*%
X125556000Y-106540000D03*
%TO.P,CN7,31,OSC_OUT*%
%TO.N,unconnected-(CN7-OSC_OUT-Pad31)*%
X123016000Y-109080000D03*
%TO.P,CN7,32,PA1*%
%TO.N,unconnected-(CN7-PA1-Pad32)*%
X125556000Y-109080000D03*
%TO.P,CN7,33,VBAT*%
%TO.N,unconnected-(CN7-VBAT-Pad33)*%
X123016000Y-111620000D03*
%TO.P,CN7,34,PA0*%
%TO.N,unconnected-(CN7-PA0-Pad34)*%
X125556000Y-111620000D03*
%TO.P,CN7,35*%
%TO.N,unconnected-(CN7-Pad35)*%
X123016000Y-114160000D03*
%TO.P,CN7,36,PC3*%
%TO.N,unconnected-(CN7-PC3-Pad36)*%
X125556000Y-114160000D03*
%TO.P,CN7,37*%
%TO.N,unconnected-(CN7-Pad37)*%
X123016000Y-116700000D03*
%TO.P,CN7,38,PC2*%
%TO.N,/temoin_connexion_bas*%
X125556000Y-116700000D03*
%TD*%
%TO.P,CN10,1,PC4*%
%TO.N,unconnected-(CN10-PC4-Pad1)*%
X183976000Y-70980000D03*
%TO.P,CN10,2*%
%TO.N,unconnected-(CN10-Pad2)*%
X186516000Y-70980000D03*
%TO.P,CN10,3,I2C1_SCL/PB8*%
%TO.N,/I2C_SCL*%
X183976000Y-73520000D03*
%TO.P,CN10,4,I2C3_SDA/PB4*%
%TO.N,unconnected-(CN10-I2C3_SDA{slash}PB4-Pad4)*%
X186516000Y-73520000D03*
%TO.P,CN10,5,I2C1_SDA/PB9*%
%TO.N,/I2C_SDA*%
X183976000Y-76060000D03*
%TO.P,CN10,6,PB7*%
%TO.N,unconnected-(CN10-PB7-Pad6)*%
X186516000Y-76060000D03*
%TO.P,CN10,7,AVDD*%
%TO.N,unconnected-(CN10-AVDD-Pad7)*%
X183976000Y-78600000D03*
%TO.P,CN10,8,5V_USB*%
%TO.N,unconnected-(CN10-5V_USB-Pad8)*%
X186516000Y-78600000D03*
%TO.P,CN10,9,GND*%
%TO.N,GND3*%
X183976000Y-81140000D03*
%TO.P,CN10,10*%
%TO.N,unconnected-(CN10-Pad10)*%
X186516000Y-81140000D03*
%TO.P,CN10,11,PA5*%
%TO.N,/temoin_connexion_haut*%
X183976000Y-83680000D03*
%TO.P,CN10,12*%
%TO.N,unconnected-(CN10-Pad12)*%
X186516000Y-83680000D03*
%TO.P,CN10,13,PA6*%
%TO.N,/INT_LOW_BAT*%
X183976000Y-86220000D03*
%TO.P,CN10,14*%
%TO.N,unconnected-(CN10-Pad14)*%
X186516000Y-86220000D03*
%TO.P,CN10,15,I2C3_SCL/PA7*%
%TO.N,unconnected-(CN10-I2C3_SCL{slash}PA7-Pad15)*%
X183976000Y-88760000D03*
%TO.P,CN10,16,PB12*%
%TO.N,unconnected-(CN10-PB12-Pad16)*%
X186516000Y-88760000D03*
%TO.P,CN10,17,PA4*%
%TO.N,unconnected-(CN10-PA4-Pad17)*%
X183976000Y-91300000D03*
%TO.P,CN10,18*%
%TO.N,unconnected-(CN10-Pad18)*%
X186516000Y-91300000D03*
%TO.P,CN10,19,I2C1_SCL/PA9*%
%TO.N,unconnected-(CN10-I2C1_SCL{slash}PA9-Pad19)*%
X183976000Y-93840000D03*
%TO.P,CN10,20,GND*%
%TO.N,unconnected-(CN10-GND-Pad20)*%
X186516000Y-93840000D03*
%TO.P,CN10,21,PC12*%
%TO.N,unconnected-(CN10-PC12-Pad21)*%
X183976000Y-96380000D03*
%TO.P,CN10,22,LED2/PB0*%
%TO.N,unconnected-(CN10-LED2{slash}PB0-Pad22)*%
X186516000Y-96380000D03*
%TO.P,CN10,23,PC13*%
%TO.N,unconnected-(CN10-PC13-Pad23)*%
X183976000Y-98920000D03*
%TO.P,CN10,24,LED3/PB1*%
%TO.N,unconnected-(CN10-LED3{slash}PB1-Pad24)*%
X186516000Y-98920000D03*
%TO.P,CN10,25,PA8*%
%TO.N,unconnected-(CN10-PA8-Pad25)*%
X183976000Y-101460000D03*
%TO.P,CN10,26,PB15*%
%TO.N,unconnected-(CN10-PB15-Pad26)*%
X186516000Y-101460000D03*
%TO.P,CN10,27,PA15*%
%TO.N,unconnected-(CN10-PA15-Pad27)*%
X183976000Y-104000000D03*
%TO.P,CN10,28,I2C3_SDA/PB14*%
%TO.N,unconnected-(CN10-I2C3_SDA{slash}PB14-Pad28)*%
X186516000Y-104000000D03*
%TO.P,CN10,29,PC10*%
%TO.N,unconnected-(CN10-PC10-Pad29)*%
X183976000Y-106540000D03*
%TO.P,CN10,30,I2C3_SCL/PB13*%
%TO.N,unconnected-(CN10-I2C3_SCL{slash}PB13-Pad30)*%
X186516000Y-106540000D03*
%TO.P,CN10,31,I2C1_SDA/PA10*%
%TO.N,unconnected-(CN10-I2C1_SDA{slash}PA10-Pad31)*%
X183976000Y-109080000D03*
%TO.P,CN10,32,AGND*%
%TO.N,unconnected-(CN10-AGND-Pad32)*%
X186516000Y-109080000D03*
%TO.P,CN10,33,PC6*%
%TO.N,unconnected-(CN10-PC6-Pad33)*%
X183976000Y-111620000D03*
%TO.P,CN10,34,PB6*%
%TO.N,unconnected-(CN10-PB6-Pad34)*%
X186516000Y-111620000D03*
%TO.P,CN10,35,PA2*%
%TO.N,unconnected-(CN10-PA2-Pad35)*%
X183976000Y-114160000D03*
%TO.P,CN10,36,PD0*%
%TO.N,unconnected-(CN10-PD0-Pad36)*%
X186516000Y-114160000D03*
%TO.P,CN10,37,PA3*%
%TO.N,unconnected-(CN10-PA3-Pad37)*%
X183976000Y-116700000D03*
%TO.P,CN10,38,PD1*%
%TO.N,unconnected-(CN10-PD1-Pad38)*%
X186516000Y-116700000D03*
%TD*%
D11*
%TO.P,1PIN,*%
%TO.N,*%
X126016000Y-132200000D03*
%TD*%
%TO.P,1PIN,*%
%TO.N,*%
X184016000Y-132200000D03*
%TD*%
D12*
%TO.P,S1,1,COM*%
%TO.N,Net-(J3-Pin_7)*%
X156972000Y-131064000D03*
D13*
%TO.P,S1,2,NO*%
%TO.N,Net-(D1-A)*%
X159512000Y-131064000D03*
%TO.P,S1,3,NC*%
%TO.N,unconnected-(S1-NC-Pad3)*%
X154432000Y-131064000D03*
%TD*%
D11*
%TO.P,1PIN,*%
%TO.N,*%
X184016000Y-61200000D03*
%TD*%
D14*
%TO.P,J3,1,Pin_1*%
%TO.N,unconnected-(J3-Pin_1-Pad1)*%
X153212800Y-92798900D03*
D15*
%TO.P,J3,2,Pin_2*%
%TO.N,+3V3*%
X150672800Y-92798900D03*
%TO.P,J3,3,Pin_3*%
%TO.N,/I2C_SDA*%
X148132800Y-92798900D03*
%TO.P,J3,4,Pin_4*%
%TO.N,/I2C_SCL*%
X145592800Y-92798900D03*
%TO.P,J3,5,Pin_5*%
%TO.N,/INT_LOW_BAT*%
X143052800Y-92798900D03*
%TO.P,J3,6,Pin_6*%
%TO.N,unconnected-(J3-Pin_6-Pad6)*%
X140512800Y-92798900D03*
%TO.P,J3,7,Pin_7*%
%TO.N,Net-(J3-Pin_7)*%
X137972800Y-92798900D03*
%TO.P,J3,8,Pin_8*%
%TO.N,GND2*%
X135432800Y-92798900D03*
%TD*%
D11*
%TO.P,1PIN,*%
%TO.N,*%
X126016000Y-61195600D03*
%TD*%
D16*
%TO.N,+3V3*%
X154152600Y-80137000D03*
X177368200Y-121742200D03*
X154508200Y-87143200D03*
%TO.N,/I2C_SDA*%
X170230800Y-119710200D03*
X148158200Y-89154000D03*
%TO.N,Net-(J3-Pin_7)*%
X156962487Y-137161903D03*
X140614400Y-86000200D03*
%TO.N,Net-(D1-A)*%
X159562489Y-137159962D03*
X138963400Y-88595200D03*
%TD*%
D17*
%TO.N,+3V3*%
X154508200Y-86588600D02*
X177266600Y-109347000D01*
X154152600Y-80137000D02*
X154508200Y-80492600D01*
X154508200Y-80492600D02*
X154508200Y-86588600D01*
X177266600Y-109347000D02*
X177266600Y-121640600D01*
X154508200Y-86588600D02*
X154508200Y-87143200D01*
X177266600Y-121640600D02*
X177368200Y-121742200D01*
%TO.N,/I2C_SDA*%
X148158200Y-89154000D02*
X153085600Y-89154000D01*
X170230800Y-106299200D02*
X170230800Y-119710200D01*
X153085600Y-89154000D02*
X170230800Y-106299200D01*
%TO.N,Net-(J3-Pin_7)*%
X140614400Y-86000200D02*
X135308816Y-86000200D01*
X128151800Y-111616400D02*
X153697303Y-137161903D01*
X128151800Y-93157216D02*
X128151800Y-111616400D01*
X156960584Y-137160000D02*
X156962487Y-137161903D01*
X153697303Y-137161903D02*
X156962487Y-137161903D01*
X135308816Y-86000200D02*
X128151800Y-93157216D01*
%TO.N,Net-(D1-A)*%
X158089600Y-134493000D02*
X159562489Y-135965889D01*
X137115816Y-88595200D02*
X131466393Y-94244623D01*
X138963400Y-88595200D02*
X137115816Y-88595200D01*
X131466393Y-94244623D02*
X131466393Y-110765393D01*
X155194000Y-134493000D02*
X158089600Y-134493000D01*
X131466393Y-110765393D02*
X155194000Y-134493000D01*
X159562489Y-135965889D02*
X159562489Y-137159962D01*
%TD*%
M02*
