%TF.GenerationSoftware,KiCad,Pcbnew,9.0.2*%
%TF.CreationDate,2025-05-16T17:18:47+02:00*%
%TF.ProjectId,PCB_accueil_STM,5043425f-6163-4637-9565-696c5f53544d,rev?*%
%TF.SameCoordinates,Original*%
%TF.FileFunction,Drillmap*%
%TF.FilePolarity,Positive*%
%FSLAX45Y45*%
G04 Gerber Fmt 4.5, Leading zero omitted, Abs format (unit mm)*
G04 Created by KiCad (PCBNEW 9.0.2) date 2025-05-16 17:18:47*
%MOMM*%
%LPD*%
G01*
G04 APERTURE LIST*
%ADD10C,0.050000*%
%ADD11C,0.200000*%
%ADD12C,0.100000*%
%ADD13C,0.101600*%
G04 APERTURE END LIST*
D10*
X11851600Y-5369560D02*
X11851600Y-13970000D01*
X19151600Y-13970000D02*
X19151600Y-5370000D01*
X11851600Y-13970000D02*
X19151600Y-13970000D01*
X19151600Y-5369560D02*
X11851600Y-5369560D01*
D11*
D12*
X12263500Y-7059900D02*
X12339700Y-7136100D01*
X12339700Y-7059900D02*
X12263500Y-7136100D01*
X12263500Y-7313900D02*
X12339700Y-7390100D01*
X12339700Y-7313900D02*
X12263500Y-7390100D01*
X12263500Y-7567900D02*
X12339700Y-7644100D01*
X12339700Y-7567900D02*
X12263500Y-7644100D01*
X12263500Y-7821900D02*
X12339700Y-7898100D01*
X12339700Y-7821900D02*
X12263500Y-7898100D01*
X12263500Y-8075900D02*
X12339700Y-8152100D01*
X12339700Y-8075900D02*
X12263500Y-8152100D01*
X12263500Y-8329900D02*
X12339700Y-8406100D01*
X12339700Y-8329900D02*
X12263500Y-8406100D01*
X12263500Y-8583900D02*
X12339700Y-8660100D01*
X12339700Y-8583900D02*
X12263500Y-8660100D01*
X12263500Y-8837900D02*
X12339700Y-8914100D01*
X12339700Y-8837900D02*
X12263500Y-8914100D01*
X12263500Y-9091900D02*
X12339700Y-9168100D01*
X12339700Y-9091900D02*
X12263500Y-9168100D01*
X12263500Y-9345900D02*
X12339700Y-9422100D01*
X12339700Y-9345900D02*
X12263500Y-9422100D01*
X12263500Y-9599900D02*
X12339700Y-9676100D01*
X12339700Y-9599900D02*
X12263500Y-9676100D01*
X12263500Y-9853900D02*
X12339700Y-9930100D01*
X12339700Y-9853900D02*
X12263500Y-9930100D01*
X12263500Y-10107900D02*
X12339700Y-10184100D01*
X12339700Y-10107900D02*
X12263500Y-10184100D01*
X12263500Y-10361900D02*
X12339700Y-10438100D01*
X12339700Y-10361900D02*
X12263500Y-10438100D01*
X12263500Y-10615900D02*
X12339700Y-10692100D01*
X12339700Y-10615900D02*
X12263500Y-10692100D01*
X12263500Y-10869900D02*
X12339700Y-10946100D01*
X12339700Y-10869900D02*
X12263500Y-10946100D01*
X12263500Y-11123900D02*
X12339700Y-11200100D01*
X12339700Y-11123900D02*
X12263500Y-11200100D01*
X12263500Y-11377900D02*
X12339700Y-11454100D01*
X12339700Y-11377900D02*
X12263500Y-11454100D01*
X12263500Y-11631900D02*
X12339700Y-11708100D01*
X12339700Y-11631900D02*
X12263500Y-11708100D01*
X12517500Y-7059900D02*
X12593700Y-7136100D01*
X12593700Y-7059900D02*
X12517500Y-7136100D01*
X12517500Y-7313900D02*
X12593700Y-7390100D01*
X12593700Y-7313900D02*
X12517500Y-7390100D01*
X12517500Y-7567900D02*
X12593700Y-7644100D01*
X12593700Y-7567900D02*
X12517500Y-7644100D01*
X12517500Y-7821900D02*
X12593700Y-7898100D01*
X12593700Y-7821900D02*
X12517500Y-7898100D01*
X12517500Y-8075900D02*
X12593700Y-8152100D01*
X12593700Y-8075900D02*
X12517500Y-8152100D01*
X12517500Y-8329900D02*
X12593700Y-8406100D01*
X12593700Y-8329900D02*
X12517500Y-8406100D01*
X12517500Y-8583900D02*
X12593700Y-8660100D01*
X12593700Y-8583900D02*
X12517500Y-8660100D01*
X12517500Y-8837900D02*
X12593700Y-8914100D01*
X12593700Y-8837900D02*
X12517500Y-8914100D01*
X12517500Y-9091900D02*
X12593700Y-9168100D01*
X12593700Y-9091900D02*
X12517500Y-9168100D01*
X12517500Y-9345900D02*
X12593700Y-9422100D01*
X12593700Y-9345900D02*
X12517500Y-9422100D01*
X12517500Y-9599900D02*
X12593700Y-9676100D01*
X12593700Y-9599900D02*
X12517500Y-9676100D01*
X12517500Y-9853900D02*
X12593700Y-9930100D01*
X12593700Y-9853900D02*
X12517500Y-9930100D01*
X12517500Y-10107900D02*
X12593700Y-10184100D01*
X12593700Y-10107900D02*
X12517500Y-10184100D01*
X12517500Y-10361900D02*
X12593700Y-10438100D01*
X12593700Y-10361900D02*
X12517500Y-10438100D01*
X12517500Y-10615900D02*
X12593700Y-10692100D01*
X12593700Y-10615900D02*
X12517500Y-10692100D01*
X12517500Y-10869900D02*
X12593700Y-10946100D01*
X12593700Y-10869900D02*
X12517500Y-10946100D01*
X12517500Y-11123900D02*
X12593700Y-11200100D01*
X12593700Y-11123900D02*
X12517500Y-11200100D01*
X12517500Y-11377900D02*
X12593700Y-11454100D01*
X12593700Y-11377900D02*
X12517500Y-11454100D01*
X12517500Y-11631900D02*
X12593700Y-11708100D01*
X12593700Y-11631900D02*
X12517500Y-11708100D01*
X18359500Y-7059900D02*
X18435700Y-7136100D01*
X18435700Y-7059900D02*
X18359500Y-7136100D01*
X18359500Y-7313900D02*
X18435700Y-7390100D01*
X18435700Y-7313900D02*
X18359500Y-7390100D01*
X18359500Y-7567900D02*
X18435700Y-7644100D01*
X18435700Y-7567900D02*
X18359500Y-7644100D01*
X18359500Y-7821900D02*
X18435700Y-7898100D01*
X18435700Y-7821900D02*
X18359500Y-7898100D01*
X18359500Y-8075900D02*
X18435700Y-8152100D01*
X18435700Y-8075900D02*
X18359500Y-8152100D01*
X18359500Y-8329900D02*
X18435700Y-8406100D01*
X18435700Y-8329900D02*
X18359500Y-8406100D01*
X18359500Y-8583900D02*
X18435700Y-8660100D01*
X18435700Y-8583900D02*
X18359500Y-8660100D01*
X18359500Y-8837900D02*
X18435700Y-8914100D01*
X18435700Y-8837900D02*
X18359500Y-8914100D01*
X18359500Y-9091900D02*
X18435700Y-9168100D01*
X18435700Y-9091900D02*
X18359500Y-9168100D01*
X18359500Y-9345900D02*
X18435700Y-9422100D01*
X18435700Y-9345900D02*
X18359500Y-9422100D01*
X18359500Y-9599900D02*
X18435700Y-9676100D01*
X18435700Y-9599900D02*
X18359500Y-9676100D01*
X18359500Y-9853900D02*
X18435700Y-9930100D01*
X18435700Y-9853900D02*
X18359500Y-9930100D01*
X18359500Y-10107900D02*
X18435700Y-10184100D01*
X18435700Y-10107900D02*
X18359500Y-10184100D01*
X18359500Y-10361900D02*
X18435700Y-10438100D01*
X18435700Y-10361900D02*
X18359500Y-10438100D01*
X18359500Y-10615900D02*
X18435700Y-10692100D01*
X18435700Y-10615900D02*
X18359500Y-10692100D01*
X18359500Y-10869900D02*
X18435700Y-10946100D01*
X18435700Y-10869900D02*
X18359500Y-10946100D01*
X18359500Y-11123900D02*
X18435700Y-11200100D01*
X18435700Y-11123900D02*
X18359500Y-11200100D01*
X18359500Y-11377900D02*
X18435700Y-11454100D01*
X18435700Y-11377900D02*
X18359500Y-11454100D01*
X18359500Y-11631900D02*
X18435700Y-11708100D01*
X18435700Y-11631900D02*
X18359500Y-11708100D01*
X18613500Y-7059900D02*
X18689700Y-7136100D01*
X18689700Y-7059900D02*
X18613500Y-7136100D01*
X18613500Y-7313900D02*
X18689700Y-7390100D01*
X18689700Y-7313900D02*
X18613500Y-7390100D01*
X18613500Y-7567900D02*
X18689700Y-7644100D01*
X18689700Y-7567900D02*
X18613500Y-7644100D01*
X18613500Y-7821900D02*
X18689700Y-7898100D01*
X18689700Y-7821900D02*
X18613500Y-7898100D01*
X18613500Y-8075900D02*
X18689700Y-8152100D01*
X18689700Y-8075900D02*
X18613500Y-8152100D01*
X18613500Y-8329900D02*
X18689700Y-8406100D01*
X18689700Y-8329900D02*
X18613500Y-8406100D01*
X18613500Y-8583900D02*
X18689700Y-8660100D01*
X18689700Y-8583900D02*
X18613500Y-8660100D01*
X18613500Y-8837900D02*
X18689700Y-8914100D01*
X18689700Y-8837900D02*
X18613500Y-8914100D01*
X18613500Y-9091900D02*
X18689700Y-9168100D01*
X18689700Y-9091900D02*
X18613500Y-9168100D01*
X18613500Y-9345900D02*
X18689700Y-9422100D01*
X18689700Y-9345900D02*
X18613500Y-9422100D01*
X18613500Y-9599900D02*
X18689700Y-9676100D01*
X18689700Y-9599900D02*
X18613500Y-9676100D01*
X18613500Y-9853900D02*
X18689700Y-9930100D01*
X18689700Y-9853900D02*
X18613500Y-9930100D01*
X18613500Y-10107900D02*
X18689700Y-10184100D01*
X18689700Y-10107900D02*
X18613500Y-10184100D01*
X18613500Y-10361900D02*
X18689700Y-10438100D01*
X18689700Y-10361900D02*
X18613500Y-10438100D01*
X18613500Y-10615900D02*
X18689700Y-10692100D01*
X18689700Y-10615900D02*
X18613500Y-10692100D01*
X18613500Y-10869900D02*
X18689700Y-10946100D01*
X18689700Y-10869900D02*
X18613500Y-10946100D01*
X18613500Y-11123900D02*
X18689700Y-11200100D01*
X18689700Y-11123900D02*
X18613500Y-11200100D01*
X18613500Y-11377900D02*
X18689700Y-11454100D01*
X18689700Y-11377900D02*
X18613500Y-11454100D01*
X18613500Y-11631900D02*
X18689700Y-11708100D01*
X18689700Y-11631900D02*
X18613500Y-11708100D01*
X13936340Y-8859520D02*
G75*
G02*
X13856340Y-8859520I-40000J0D01*
G01*
X13856340Y-8859520D02*
G75*
G02*
X13936340Y-8859520I40000J0D01*
G01*
X14101440Y-8600020D02*
G75*
G02*
X14021440Y-8600020I-40000J0D01*
G01*
X14021440Y-8600020D02*
G75*
G02*
X14101440Y-8600020I40000J0D01*
G01*
X14855820Y-8915400D02*
G75*
G02*
X14775820Y-8915400I-40000J0D01*
G01*
X14775820Y-8915400D02*
G75*
G02*
X14855820Y-8915400I40000J0D01*
G01*
X15455260Y-8013700D02*
G75*
G02*
X15375260Y-8013700I-40000J0D01*
G01*
X15375260Y-8013700D02*
G75*
G02*
X15455260Y-8013700I40000J0D01*
G01*
X15490820Y-8714320D02*
G75*
G02*
X15410820Y-8714320I-40000J0D01*
G01*
X15410820Y-8714320D02*
G75*
G02*
X15490820Y-8714320I40000J0D01*
G01*
X15736249Y-13716190D02*
G75*
G02*
X15656249Y-13716190I-40000J0D01*
G01*
X15656249Y-13716190D02*
G75*
G02*
X15736249Y-13716190I40000J0D01*
G01*
X15996249Y-13715996D02*
G75*
G02*
X15916249Y-13715996I-40000J0D01*
G01*
X15916249Y-13715996D02*
G75*
G02*
X15996249Y-13715996I40000J0D01*
G01*
X17063080Y-11971020D02*
G75*
G02*
X16983080Y-11971020I-40000J0D01*
G01*
X16983080Y-11971020D02*
G75*
G02*
X17063080Y-11971020I40000J0D01*
G01*
X17776820Y-12174220D02*
G75*
G02*
X17696820Y-12174220I-40000J0D01*
G01*
X17696820Y-12174220D02*
G75*
G02*
X17776820Y-12174220I40000J0D01*
G01*
X15443200Y-13066400D02*
X15443200Y-13146400D01*
X15403200Y-13106400D02*
X15483200Y-13106400D01*
X15697200Y-13066400D02*
X15697200Y-13146400D01*
X15657200Y-13106400D02*
X15737200Y-13106400D01*
X15951200Y-13066400D02*
X15951200Y-13146400D01*
X15911200Y-13106400D02*
X15991200Y-13106400D01*
D13*
X13579201Y-9315811D02*
X13579201Y-9243969D01*
X13507359Y-9243969D01*
X13507359Y-9315811D01*
X13579201Y-9315811D01*
X13833201Y-9315811D02*
X13833201Y-9243969D01*
X13761359Y-9243969D01*
X13761359Y-9315811D01*
X13833201Y-9315811D01*
X14087201Y-9315811D02*
X14087201Y-9243969D01*
X14015359Y-9243969D01*
X14015359Y-9315811D01*
X14087201Y-9315811D01*
X14341201Y-9315811D02*
X14341201Y-9243969D01*
X14269359Y-9243969D01*
X14269359Y-9315811D01*
X14341201Y-9315811D01*
X14595201Y-9315811D02*
X14595201Y-9243969D01*
X14523359Y-9243969D01*
X14523359Y-9315811D01*
X14595201Y-9315811D01*
X14849201Y-9315811D02*
X14849201Y-9243969D01*
X14777359Y-9243969D01*
X14777359Y-9315811D01*
X14849201Y-9315811D01*
X15103201Y-9315811D02*
X15103201Y-9243969D01*
X15031359Y-9243969D01*
X15031359Y-9315811D01*
X15103201Y-9315811D01*
X15357201Y-9315811D02*
X15357201Y-9243969D01*
X15285359Y-9243969D01*
X15285359Y-9315811D01*
X15357201Y-9315811D01*
D11*
X12109877Y-14283984D02*
X12109877Y-14083984D01*
X12109877Y-14083984D02*
X12157496Y-14083984D01*
X12157496Y-14083984D02*
X12186067Y-14093508D01*
X12186067Y-14093508D02*
X12205115Y-14112555D01*
X12205115Y-14112555D02*
X12214639Y-14131603D01*
X12214639Y-14131603D02*
X12224162Y-14169698D01*
X12224162Y-14169698D02*
X12224162Y-14198269D01*
X12224162Y-14198269D02*
X12214639Y-14236365D01*
X12214639Y-14236365D02*
X12205115Y-14255412D01*
X12205115Y-14255412D02*
X12186067Y-14274460D01*
X12186067Y-14274460D02*
X12157496Y-14283984D01*
X12157496Y-14283984D02*
X12109877Y-14283984D01*
X12309877Y-14283984D02*
X12309877Y-14150650D01*
X12309877Y-14188746D02*
X12319401Y-14169698D01*
X12319401Y-14169698D02*
X12328924Y-14160174D01*
X12328924Y-14160174D02*
X12347972Y-14150650D01*
X12347972Y-14150650D02*
X12367020Y-14150650D01*
X12433686Y-14283984D02*
X12433686Y-14150650D01*
X12433686Y-14083984D02*
X12424162Y-14093508D01*
X12424162Y-14093508D02*
X12433686Y-14103031D01*
X12433686Y-14103031D02*
X12443210Y-14093508D01*
X12443210Y-14093508D02*
X12433686Y-14083984D01*
X12433686Y-14083984D02*
X12433686Y-14103031D01*
X12557496Y-14283984D02*
X12538448Y-14274460D01*
X12538448Y-14274460D02*
X12528924Y-14255412D01*
X12528924Y-14255412D02*
X12528924Y-14083984D01*
X12662258Y-14283984D02*
X12643210Y-14274460D01*
X12643210Y-14274460D02*
X12633686Y-14255412D01*
X12633686Y-14255412D02*
X12633686Y-14083984D01*
X12890829Y-14283984D02*
X12890829Y-14083984D01*
X12890829Y-14083984D02*
X12957496Y-14226841D01*
X12957496Y-14226841D02*
X13024162Y-14083984D01*
X13024162Y-14083984D02*
X13024162Y-14283984D01*
X13205115Y-14283984D02*
X13205115Y-14179222D01*
X13205115Y-14179222D02*
X13195591Y-14160174D01*
X13195591Y-14160174D02*
X13176543Y-14150650D01*
X13176543Y-14150650D02*
X13138448Y-14150650D01*
X13138448Y-14150650D02*
X13119401Y-14160174D01*
X13205115Y-14274460D02*
X13186067Y-14283984D01*
X13186067Y-14283984D02*
X13138448Y-14283984D01*
X13138448Y-14283984D02*
X13119401Y-14274460D01*
X13119401Y-14274460D02*
X13109877Y-14255412D01*
X13109877Y-14255412D02*
X13109877Y-14236365D01*
X13109877Y-14236365D02*
X13119401Y-14217317D01*
X13119401Y-14217317D02*
X13138448Y-14207793D01*
X13138448Y-14207793D02*
X13186067Y-14207793D01*
X13186067Y-14207793D02*
X13205115Y-14198269D01*
X13300353Y-14150650D02*
X13300353Y-14350650D01*
X13300353Y-14160174D02*
X13319401Y-14150650D01*
X13319401Y-14150650D02*
X13357496Y-14150650D01*
X13357496Y-14150650D02*
X13376543Y-14160174D01*
X13376543Y-14160174D02*
X13386067Y-14169698D01*
X13386067Y-14169698D02*
X13395591Y-14188746D01*
X13395591Y-14188746D02*
X13395591Y-14245888D01*
X13395591Y-14245888D02*
X13386067Y-14264936D01*
X13386067Y-14264936D02*
X13376543Y-14274460D01*
X13376543Y-14274460D02*
X13357496Y-14283984D01*
X13357496Y-14283984D02*
X13319401Y-14283984D01*
X13319401Y-14283984D02*
X13300353Y-14274460D01*
X13481305Y-14264936D02*
X13490829Y-14274460D01*
X13490829Y-14274460D02*
X13481305Y-14283984D01*
X13481305Y-14283984D02*
X13471782Y-14274460D01*
X13471782Y-14274460D02*
X13481305Y-14264936D01*
X13481305Y-14264936D02*
X13481305Y-14283984D01*
X13481305Y-14160174D02*
X13490829Y-14169698D01*
X13490829Y-14169698D02*
X13481305Y-14179222D01*
X13481305Y-14179222D02*
X13471782Y-14169698D01*
X13471782Y-14169698D02*
X13481305Y-14160174D01*
X13481305Y-14160174D02*
X13481305Y-14179222D01*
D12*
X11772900Y-14574400D02*
X11849100Y-14650600D01*
X11849100Y-14574400D02*
X11772900Y-14650600D01*
D11*
X12147972Y-14503984D02*
X12167020Y-14503984D01*
X12167020Y-14503984D02*
X12186067Y-14513508D01*
X12186067Y-14513508D02*
X12195591Y-14523031D01*
X12195591Y-14523031D02*
X12205115Y-14542079D01*
X12205115Y-14542079D02*
X12214639Y-14580174D01*
X12214639Y-14580174D02*
X12214639Y-14627793D01*
X12214639Y-14627793D02*
X12205115Y-14665888D01*
X12205115Y-14665888D02*
X12195591Y-14684936D01*
X12195591Y-14684936D02*
X12186067Y-14694460D01*
X12186067Y-14694460D02*
X12167020Y-14703984D01*
X12167020Y-14703984D02*
X12147972Y-14703984D01*
X12147972Y-14703984D02*
X12128924Y-14694460D01*
X12128924Y-14694460D02*
X12119401Y-14684936D01*
X12119401Y-14684936D02*
X12109877Y-14665888D01*
X12109877Y-14665888D02*
X12100353Y-14627793D01*
X12100353Y-14627793D02*
X12100353Y-14580174D01*
X12100353Y-14580174D02*
X12109877Y-14542079D01*
X12109877Y-14542079D02*
X12119401Y-14523031D01*
X12119401Y-14523031D02*
X12128924Y-14513508D01*
X12128924Y-14513508D02*
X12147972Y-14503984D01*
X12300353Y-14684936D02*
X12309877Y-14694460D01*
X12309877Y-14694460D02*
X12300353Y-14703984D01*
X12300353Y-14703984D02*
X12290829Y-14694460D01*
X12290829Y-14694460D02*
X12300353Y-14684936D01*
X12300353Y-14684936D02*
X12300353Y-14703984D01*
X12376543Y-14503984D02*
X12509877Y-14503984D01*
X12509877Y-14503984D02*
X12424162Y-14703984D01*
X12671782Y-14503984D02*
X12633686Y-14503984D01*
X12633686Y-14503984D02*
X12614639Y-14513508D01*
X12614639Y-14513508D02*
X12605115Y-14523031D01*
X12605115Y-14523031D02*
X12586067Y-14551603D01*
X12586067Y-14551603D02*
X12576543Y-14589698D01*
X12576543Y-14589698D02*
X12576543Y-14665888D01*
X12576543Y-14665888D02*
X12586067Y-14684936D01*
X12586067Y-14684936D02*
X12595591Y-14694460D01*
X12595591Y-14694460D02*
X12614639Y-14703984D01*
X12614639Y-14703984D02*
X12652734Y-14703984D01*
X12652734Y-14703984D02*
X12671782Y-14694460D01*
X12671782Y-14694460D02*
X12681305Y-14684936D01*
X12681305Y-14684936D02*
X12690829Y-14665888D01*
X12690829Y-14665888D02*
X12690829Y-14618269D01*
X12690829Y-14618269D02*
X12681305Y-14599222D01*
X12681305Y-14599222D02*
X12671782Y-14589698D01*
X12671782Y-14589698D02*
X12652734Y-14580174D01*
X12652734Y-14580174D02*
X12614639Y-14580174D01*
X12614639Y-14580174D02*
X12595591Y-14589698D01*
X12595591Y-14589698D02*
X12586067Y-14599222D01*
X12586067Y-14599222D02*
X12576543Y-14618269D01*
X12767020Y-14523031D02*
X12776543Y-14513508D01*
X12776543Y-14513508D02*
X12795591Y-14503984D01*
X12795591Y-14503984D02*
X12843210Y-14503984D01*
X12843210Y-14503984D02*
X12862258Y-14513508D01*
X12862258Y-14513508D02*
X12871782Y-14523031D01*
X12871782Y-14523031D02*
X12881305Y-14542079D01*
X12881305Y-14542079D02*
X12881305Y-14561127D01*
X12881305Y-14561127D02*
X12871782Y-14589698D01*
X12871782Y-14589698D02*
X12757496Y-14703984D01*
X12757496Y-14703984D02*
X12881305Y-14703984D01*
X12967020Y-14703984D02*
X12967020Y-14570650D01*
X12967020Y-14589698D02*
X12976543Y-14580174D01*
X12976543Y-14580174D02*
X12995591Y-14570650D01*
X12995591Y-14570650D02*
X13024163Y-14570650D01*
X13024163Y-14570650D02*
X13043210Y-14580174D01*
X13043210Y-14580174D02*
X13052734Y-14599222D01*
X13052734Y-14599222D02*
X13052734Y-14703984D01*
X13052734Y-14599222D02*
X13062258Y-14580174D01*
X13062258Y-14580174D02*
X13081305Y-14570650D01*
X13081305Y-14570650D02*
X13109877Y-14570650D01*
X13109877Y-14570650D02*
X13128924Y-14580174D01*
X13128924Y-14580174D02*
X13138448Y-14599222D01*
X13138448Y-14599222D02*
X13138448Y-14703984D01*
X13233686Y-14703984D02*
X13233686Y-14570650D01*
X13233686Y-14589698D02*
X13243210Y-14580174D01*
X13243210Y-14580174D02*
X13262258Y-14570650D01*
X13262258Y-14570650D02*
X13290829Y-14570650D01*
X13290829Y-14570650D02*
X13309877Y-14580174D01*
X13309877Y-14580174D02*
X13319401Y-14599222D01*
X13319401Y-14599222D02*
X13319401Y-14703984D01*
X13319401Y-14599222D02*
X13328924Y-14580174D01*
X13328924Y-14580174D02*
X13347972Y-14570650D01*
X13347972Y-14570650D02*
X13376543Y-14570650D01*
X13376543Y-14570650D02*
X13395591Y-14580174D01*
X13395591Y-14580174D02*
X13405115Y-14599222D01*
X13405115Y-14599222D02*
X13405115Y-14703984D01*
X13795591Y-14494460D02*
X13624163Y-14751603D01*
X14052734Y-14503984D02*
X14071782Y-14503984D01*
X14071782Y-14503984D02*
X14090829Y-14513508D01*
X14090829Y-14513508D02*
X14100353Y-14523031D01*
X14100353Y-14523031D02*
X14109877Y-14542079D01*
X14109877Y-14542079D02*
X14119401Y-14580174D01*
X14119401Y-14580174D02*
X14119401Y-14627793D01*
X14119401Y-14627793D02*
X14109877Y-14665888D01*
X14109877Y-14665888D02*
X14100353Y-14684936D01*
X14100353Y-14684936D02*
X14090829Y-14694460D01*
X14090829Y-14694460D02*
X14071782Y-14703984D01*
X14071782Y-14703984D02*
X14052734Y-14703984D01*
X14052734Y-14703984D02*
X14033686Y-14694460D01*
X14033686Y-14694460D02*
X14024163Y-14684936D01*
X14024163Y-14684936D02*
X14014639Y-14665888D01*
X14014639Y-14665888D02*
X14005115Y-14627793D01*
X14005115Y-14627793D02*
X14005115Y-14580174D01*
X14005115Y-14580174D02*
X14014639Y-14542079D01*
X14014639Y-14542079D02*
X14024163Y-14523031D01*
X14024163Y-14523031D02*
X14033686Y-14513508D01*
X14033686Y-14513508D02*
X14052734Y-14503984D01*
X14205115Y-14684936D02*
X14214639Y-14694460D01*
X14214639Y-14694460D02*
X14205115Y-14703984D01*
X14205115Y-14703984D02*
X14195591Y-14694460D01*
X14195591Y-14694460D02*
X14205115Y-14684936D01*
X14205115Y-14684936D02*
X14205115Y-14703984D01*
X14338448Y-14503984D02*
X14357496Y-14503984D01*
X14357496Y-14503984D02*
X14376544Y-14513508D01*
X14376544Y-14513508D02*
X14386067Y-14523031D01*
X14386067Y-14523031D02*
X14395591Y-14542079D01*
X14395591Y-14542079D02*
X14405115Y-14580174D01*
X14405115Y-14580174D02*
X14405115Y-14627793D01*
X14405115Y-14627793D02*
X14395591Y-14665888D01*
X14395591Y-14665888D02*
X14386067Y-14684936D01*
X14386067Y-14684936D02*
X14376544Y-14694460D01*
X14376544Y-14694460D02*
X14357496Y-14703984D01*
X14357496Y-14703984D02*
X14338448Y-14703984D01*
X14338448Y-14703984D02*
X14319401Y-14694460D01*
X14319401Y-14694460D02*
X14309877Y-14684936D01*
X14309877Y-14684936D02*
X14300353Y-14665888D01*
X14300353Y-14665888D02*
X14290829Y-14627793D01*
X14290829Y-14627793D02*
X14290829Y-14580174D01*
X14290829Y-14580174D02*
X14300353Y-14542079D01*
X14300353Y-14542079D02*
X14309877Y-14523031D01*
X14309877Y-14523031D02*
X14319401Y-14513508D01*
X14319401Y-14513508D02*
X14338448Y-14503984D01*
X14471782Y-14503984D02*
X14595591Y-14503984D01*
X14595591Y-14503984D02*
X14528925Y-14580174D01*
X14528925Y-14580174D02*
X14557496Y-14580174D01*
X14557496Y-14580174D02*
X14576544Y-14589698D01*
X14576544Y-14589698D02*
X14586067Y-14599222D01*
X14586067Y-14599222D02*
X14595591Y-14618269D01*
X14595591Y-14618269D02*
X14595591Y-14665888D01*
X14595591Y-14665888D02*
X14586067Y-14684936D01*
X14586067Y-14684936D02*
X14576544Y-14694460D01*
X14576544Y-14694460D02*
X14557496Y-14703984D01*
X14557496Y-14703984D02*
X14500353Y-14703984D01*
X14500353Y-14703984D02*
X14481306Y-14694460D01*
X14481306Y-14694460D02*
X14471782Y-14684936D01*
X14719401Y-14503984D02*
X14738448Y-14503984D01*
X14738448Y-14503984D02*
X14757496Y-14513508D01*
X14757496Y-14513508D02*
X14767020Y-14523031D01*
X14767020Y-14523031D02*
X14776544Y-14542079D01*
X14776544Y-14542079D02*
X14786067Y-14580174D01*
X14786067Y-14580174D02*
X14786067Y-14627793D01*
X14786067Y-14627793D02*
X14776544Y-14665888D01*
X14776544Y-14665888D02*
X14767020Y-14684936D01*
X14767020Y-14684936D02*
X14757496Y-14694460D01*
X14757496Y-14694460D02*
X14738448Y-14703984D01*
X14738448Y-14703984D02*
X14719401Y-14703984D01*
X14719401Y-14703984D02*
X14700353Y-14694460D01*
X14700353Y-14694460D02*
X14690829Y-14684936D01*
X14690829Y-14684936D02*
X14681306Y-14665888D01*
X14681306Y-14665888D02*
X14671782Y-14627793D01*
X14671782Y-14627793D02*
X14671782Y-14580174D01*
X14671782Y-14580174D02*
X14681306Y-14542079D01*
X14681306Y-14542079D02*
X14690829Y-14523031D01*
X14690829Y-14523031D02*
X14700353Y-14513508D01*
X14700353Y-14513508D02*
X14719401Y-14503984D01*
X14909877Y-14503984D02*
X14928925Y-14503984D01*
X14928925Y-14503984D02*
X14947972Y-14513508D01*
X14947972Y-14513508D02*
X14957496Y-14523031D01*
X14957496Y-14523031D02*
X14967020Y-14542079D01*
X14967020Y-14542079D02*
X14976544Y-14580174D01*
X14976544Y-14580174D02*
X14976544Y-14627793D01*
X14976544Y-14627793D02*
X14967020Y-14665888D01*
X14967020Y-14665888D02*
X14957496Y-14684936D01*
X14957496Y-14684936D02*
X14947972Y-14694460D01*
X14947972Y-14694460D02*
X14928925Y-14703984D01*
X14928925Y-14703984D02*
X14909877Y-14703984D01*
X14909877Y-14703984D02*
X14890829Y-14694460D01*
X14890829Y-14694460D02*
X14881306Y-14684936D01*
X14881306Y-14684936D02*
X14871782Y-14665888D01*
X14871782Y-14665888D02*
X14862258Y-14627793D01*
X14862258Y-14627793D02*
X14862258Y-14580174D01*
X14862258Y-14580174D02*
X14871782Y-14542079D01*
X14871782Y-14542079D02*
X14881306Y-14523031D01*
X14881306Y-14523031D02*
X14890829Y-14513508D01*
X14890829Y-14513508D02*
X14909877Y-14503984D01*
X15052734Y-14503984D02*
X15052734Y-14542079D01*
X15128925Y-14503984D02*
X15128925Y-14542079D01*
X15424163Y-14780174D02*
X15414639Y-14770650D01*
X15414639Y-14770650D02*
X15395591Y-14742079D01*
X15395591Y-14742079D02*
X15386068Y-14723031D01*
X15386068Y-14723031D02*
X15376544Y-14694460D01*
X15376544Y-14694460D02*
X15367020Y-14646841D01*
X15367020Y-14646841D02*
X15367020Y-14608746D01*
X15367020Y-14608746D02*
X15376544Y-14561127D01*
X15376544Y-14561127D02*
X15386068Y-14532555D01*
X15386068Y-14532555D02*
X15395591Y-14513508D01*
X15395591Y-14513508D02*
X15414639Y-14484936D01*
X15414639Y-14484936D02*
X15424163Y-14475412D01*
X15481306Y-14503984D02*
X15614639Y-14503984D01*
X15614639Y-14503984D02*
X15528925Y-14703984D01*
X15776544Y-14503984D02*
X15738448Y-14503984D01*
X15738448Y-14503984D02*
X15719401Y-14513508D01*
X15719401Y-14513508D02*
X15709877Y-14523031D01*
X15709877Y-14523031D02*
X15690829Y-14551603D01*
X15690829Y-14551603D02*
X15681306Y-14589698D01*
X15681306Y-14589698D02*
X15681306Y-14665888D01*
X15681306Y-14665888D02*
X15690829Y-14684936D01*
X15690829Y-14684936D02*
X15700353Y-14694460D01*
X15700353Y-14694460D02*
X15719401Y-14703984D01*
X15719401Y-14703984D02*
X15757496Y-14703984D01*
X15757496Y-14703984D02*
X15776544Y-14694460D01*
X15776544Y-14694460D02*
X15786068Y-14684936D01*
X15786068Y-14684936D02*
X15795591Y-14665888D01*
X15795591Y-14665888D02*
X15795591Y-14618269D01*
X15795591Y-14618269D02*
X15786068Y-14599222D01*
X15786068Y-14599222D02*
X15776544Y-14589698D01*
X15776544Y-14589698D02*
X15757496Y-14580174D01*
X15757496Y-14580174D02*
X15719401Y-14580174D01*
X15719401Y-14580174D02*
X15700353Y-14589698D01*
X15700353Y-14589698D02*
X15690829Y-14599222D01*
X15690829Y-14599222D02*
X15681306Y-14618269D01*
X16033687Y-14703984D02*
X16033687Y-14503984D01*
X16119401Y-14703984D02*
X16119401Y-14599222D01*
X16119401Y-14599222D02*
X16109877Y-14580174D01*
X16109877Y-14580174D02*
X16090830Y-14570650D01*
X16090830Y-14570650D02*
X16062258Y-14570650D01*
X16062258Y-14570650D02*
X16043210Y-14580174D01*
X16043210Y-14580174D02*
X16033687Y-14589698D01*
X16243210Y-14703984D02*
X16224163Y-14694460D01*
X16224163Y-14694460D02*
X16214639Y-14684936D01*
X16214639Y-14684936D02*
X16205115Y-14665888D01*
X16205115Y-14665888D02*
X16205115Y-14608746D01*
X16205115Y-14608746D02*
X16214639Y-14589698D01*
X16214639Y-14589698D02*
X16224163Y-14580174D01*
X16224163Y-14580174D02*
X16243210Y-14570650D01*
X16243210Y-14570650D02*
X16271782Y-14570650D01*
X16271782Y-14570650D02*
X16290830Y-14580174D01*
X16290830Y-14580174D02*
X16300353Y-14589698D01*
X16300353Y-14589698D02*
X16309877Y-14608746D01*
X16309877Y-14608746D02*
X16309877Y-14665888D01*
X16309877Y-14665888D02*
X16300353Y-14684936D01*
X16300353Y-14684936D02*
X16290830Y-14694460D01*
X16290830Y-14694460D02*
X16271782Y-14703984D01*
X16271782Y-14703984D02*
X16243210Y-14703984D01*
X16424163Y-14703984D02*
X16405115Y-14694460D01*
X16405115Y-14694460D02*
X16395591Y-14675412D01*
X16395591Y-14675412D02*
X16395591Y-14503984D01*
X16576544Y-14694460D02*
X16557496Y-14703984D01*
X16557496Y-14703984D02*
X16519401Y-14703984D01*
X16519401Y-14703984D02*
X16500353Y-14694460D01*
X16500353Y-14694460D02*
X16490830Y-14675412D01*
X16490830Y-14675412D02*
X16490830Y-14599222D01*
X16490830Y-14599222D02*
X16500353Y-14580174D01*
X16500353Y-14580174D02*
X16519401Y-14570650D01*
X16519401Y-14570650D02*
X16557496Y-14570650D01*
X16557496Y-14570650D02*
X16576544Y-14580174D01*
X16576544Y-14580174D02*
X16586068Y-14599222D01*
X16586068Y-14599222D02*
X16586068Y-14618269D01*
X16586068Y-14618269D02*
X16490830Y-14637317D01*
X16662258Y-14694460D02*
X16681306Y-14703984D01*
X16681306Y-14703984D02*
X16719401Y-14703984D01*
X16719401Y-14703984D02*
X16738449Y-14694460D01*
X16738449Y-14694460D02*
X16747972Y-14675412D01*
X16747972Y-14675412D02*
X16747972Y-14665888D01*
X16747972Y-14665888D02*
X16738449Y-14646841D01*
X16738449Y-14646841D02*
X16719401Y-14637317D01*
X16719401Y-14637317D02*
X16690830Y-14637317D01*
X16690830Y-14637317D02*
X16671782Y-14627793D01*
X16671782Y-14627793D02*
X16662258Y-14608746D01*
X16662258Y-14608746D02*
X16662258Y-14599222D01*
X16662258Y-14599222D02*
X16671782Y-14580174D01*
X16671782Y-14580174D02*
X16690830Y-14570650D01*
X16690830Y-14570650D02*
X16719401Y-14570650D01*
X16719401Y-14570650D02*
X16738449Y-14580174D01*
X16814639Y-14780174D02*
X16824163Y-14770650D01*
X16824163Y-14770650D02*
X16843211Y-14742079D01*
X16843211Y-14742079D02*
X16852734Y-14723031D01*
X16852734Y-14723031D02*
X16862258Y-14694460D01*
X16862258Y-14694460D02*
X16871782Y-14646841D01*
X16871782Y-14646841D02*
X16871782Y-14608746D01*
X16871782Y-14608746D02*
X16862258Y-14561127D01*
X16862258Y-14561127D02*
X16852734Y-14532555D01*
X16852734Y-14532555D02*
X16843211Y-14513508D01*
X16843211Y-14513508D02*
X16824163Y-14484936D01*
X16824163Y-14484936D02*
X16814639Y-14475412D01*
D12*
X11849100Y-14876500D02*
G75*
G02*
X11769100Y-14876500I-40000J0D01*
G01*
X11769100Y-14876500D02*
G75*
G02*
X11849100Y-14876500I40000J0D01*
G01*
D11*
X12147972Y-14767984D02*
X12167020Y-14767984D01*
X12167020Y-14767984D02*
X12186067Y-14777508D01*
X12186067Y-14777508D02*
X12195591Y-14787031D01*
X12195591Y-14787031D02*
X12205115Y-14806079D01*
X12205115Y-14806079D02*
X12214639Y-14844174D01*
X12214639Y-14844174D02*
X12214639Y-14891793D01*
X12214639Y-14891793D02*
X12205115Y-14929888D01*
X12205115Y-14929888D02*
X12195591Y-14948936D01*
X12195591Y-14948936D02*
X12186067Y-14958460D01*
X12186067Y-14958460D02*
X12167020Y-14967984D01*
X12167020Y-14967984D02*
X12147972Y-14967984D01*
X12147972Y-14967984D02*
X12128924Y-14958460D01*
X12128924Y-14958460D02*
X12119401Y-14948936D01*
X12119401Y-14948936D02*
X12109877Y-14929888D01*
X12109877Y-14929888D02*
X12100353Y-14891793D01*
X12100353Y-14891793D02*
X12100353Y-14844174D01*
X12100353Y-14844174D02*
X12109877Y-14806079D01*
X12109877Y-14806079D02*
X12119401Y-14787031D01*
X12119401Y-14787031D02*
X12128924Y-14777508D01*
X12128924Y-14777508D02*
X12147972Y-14767984D01*
X12300353Y-14948936D02*
X12309877Y-14958460D01*
X12309877Y-14958460D02*
X12300353Y-14967984D01*
X12300353Y-14967984D02*
X12290829Y-14958460D01*
X12290829Y-14958460D02*
X12300353Y-14948936D01*
X12300353Y-14948936D02*
X12300353Y-14967984D01*
X12424162Y-14853698D02*
X12405115Y-14844174D01*
X12405115Y-14844174D02*
X12395591Y-14834650D01*
X12395591Y-14834650D02*
X12386067Y-14815603D01*
X12386067Y-14815603D02*
X12386067Y-14806079D01*
X12386067Y-14806079D02*
X12395591Y-14787031D01*
X12395591Y-14787031D02*
X12405115Y-14777508D01*
X12405115Y-14777508D02*
X12424162Y-14767984D01*
X12424162Y-14767984D02*
X12462258Y-14767984D01*
X12462258Y-14767984D02*
X12481305Y-14777508D01*
X12481305Y-14777508D02*
X12490829Y-14787031D01*
X12490829Y-14787031D02*
X12500353Y-14806079D01*
X12500353Y-14806079D02*
X12500353Y-14815603D01*
X12500353Y-14815603D02*
X12490829Y-14834650D01*
X12490829Y-14834650D02*
X12481305Y-14844174D01*
X12481305Y-14844174D02*
X12462258Y-14853698D01*
X12462258Y-14853698D02*
X12424162Y-14853698D01*
X12424162Y-14853698D02*
X12405115Y-14863222D01*
X12405115Y-14863222D02*
X12395591Y-14872746D01*
X12395591Y-14872746D02*
X12386067Y-14891793D01*
X12386067Y-14891793D02*
X12386067Y-14929888D01*
X12386067Y-14929888D02*
X12395591Y-14948936D01*
X12395591Y-14948936D02*
X12405115Y-14958460D01*
X12405115Y-14958460D02*
X12424162Y-14967984D01*
X12424162Y-14967984D02*
X12462258Y-14967984D01*
X12462258Y-14967984D02*
X12481305Y-14958460D01*
X12481305Y-14958460D02*
X12490829Y-14948936D01*
X12490829Y-14948936D02*
X12500353Y-14929888D01*
X12500353Y-14929888D02*
X12500353Y-14891793D01*
X12500353Y-14891793D02*
X12490829Y-14872746D01*
X12490829Y-14872746D02*
X12481305Y-14863222D01*
X12481305Y-14863222D02*
X12462258Y-14853698D01*
X12624162Y-14767984D02*
X12643210Y-14767984D01*
X12643210Y-14767984D02*
X12662258Y-14777508D01*
X12662258Y-14777508D02*
X12671782Y-14787031D01*
X12671782Y-14787031D02*
X12681305Y-14806079D01*
X12681305Y-14806079D02*
X12690829Y-14844174D01*
X12690829Y-14844174D02*
X12690829Y-14891793D01*
X12690829Y-14891793D02*
X12681305Y-14929888D01*
X12681305Y-14929888D02*
X12671782Y-14948936D01*
X12671782Y-14948936D02*
X12662258Y-14958460D01*
X12662258Y-14958460D02*
X12643210Y-14967984D01*
X12643210Y-14967984D02*
X12624162Y-14967984D01*
X12624162Y-14967984D02*
X12605115Y-14958460D01*
X12605115Y-14958460D02*
X12595591Y-14948936D01*
X12595591Y-14948936D02*
X12586067Y-14929888D01*
X12586067Y-14929888D02*
X12576543Y-14891793D01*
X12576543Y-14891793D02*
X12576543Y-14844174D01*
X12576543Y-14844174D02*
X12586067Y-14806079D01*
X12586067Y-14806079D02*
X12595591Y-14787031D01*
X12595591Y-14787031D02*
X12605115Y-14777508D01*
X12605115Y-14777508D02*
X12624162Y-14767984D01*
X12814639Y-14767984D02*
X12833686Y-14767984D01*
X12833686Y-14767984D02*
X12852734Y-14777508D01*
X12852734Y-14777508D02*
X12862258Y-14787031D01*
X12862258Y-14787031D02*
X12871782Y-14806079D01*
X12871782Y-14806079D02*
X12881305Y-14844174D01*
X12881305Y-14844174D02*
X12881305Y-14891793D01*
X12881305Y-14891793D02*
X12871782Y-14929888D01*
X12871782Y-14929888D02*
X12862258Y-14948936D01*
X12862258Y-14948936D02*
X12852734Y-14958460D01*
X12852734Y-14958460D02*
X12833686Y-14967984D01*
X12833686Y-14967984D02*
X12814639Y-14967984D01*
X12814639Y-14967984D02*
X12795591Y-14958460D01*
X12795591Y-14958460D02*
X12786067Y-14948936D01*
X12786067Y-14948936D02*
X12776543Y-14929888D01*
X12776543Y-14929888D02*
X12767020Y-14891793D01*
X12767020Y-14891793D02*
X12767020Y-14844174D01*
X12767020Y-14844174D02*
X12776543Y-14806079D01*
X12776543Y-14806079D02*
X12786067Y-14787031D01*
X12786067Y-14787031D02*
X12795591Y-14777508D01*
X12795591Y-14777508D02*
X12814639Y-14767984D01*
X12967020Y-14967984D02*
X12967020Y-14834650D01*
X12967020Y-14853698D02*
X12976543Y-14844174D01*
X12976543Y-14844174D02*
X12995591Y-14834650D01*
X12995591Y-14834650D02*
X13024163Y-14834650D01*
X13024163Y-14834650D02*
X13043210Y-14844174D01*
X13043210Y-14844174D02*
X13052734Y-14863222D01*
X13052734Y-14863222D02*
X13052734Y-14967984D01*
X13052734Y-14863222D02*
X13062258Y-14844174D01*
X13062258Y-14844174D02*
X13081305Y-14834650D01*
X13081305Y-14834650D02*
X13109877Y-14834650D01*
X13109877Y-14834650D02*
X13128924Y-14844174D01*
X13128924Y-14844174D02*
X13138448Y-14863222D01*
X13138448Y-14863222D02*
X13138448Y-14967984D01*
X13233686Y-14967984D02*
X13233686Y-14834650D01*
X13233686Y-14853698D02*
X13243210Y-14844174D01*
X13243210Y-14844174D02*
X13262258Y-14834650D01*
X13262258Y-14834650D02*
X13290829Y-14834650D01*
X13290829Y-14834650D02*
X13309877Y-14844174D01*
X13309877Y-14844174D02*
X13319401Y-14863222D01*
X13319401Y-14863222D02*
X13319401Y-14967984D01*
X13319401Y-14863222D02*
X13328924Y-14844174D01*
X13328924Y-14844174D02*
X13347972Y-14834650D01*
X13347972Y-14834650D02*
X13376543Y-14834650D01*
X13376543Y-14834650D02*
X13395591Y-14844174D01*
X13395591Y-14844174D02*
X13405115Y-14863222D01*
X13405115Y-14863222D02*
X13405115Y-14967984D01*
X13795591Y-14758460D02*
X13624163Y-15015603D01*
X14052734Y-14767984D02*
X14071782Y-14767984D01*
X14071782Y-14767984D02*
X14090829Y-14777508D01*
X14090829Y-14777508D02*
X14100353Y-14787031D01*
X14100353Y-14787031D02*
X14109877Y-14806079D01*
X14109877Y-14806079D02*
X14119401Y-14844174D01*
X14119401Y-14844174D02*
X14119401Y-14891793D01*
X14119401Y-14891793D02*
X14109877Y-14929888D01*
X14109877Y-14929888D02*
X14100353Y-14948936D01*
X14100353Y-14948936D02*
X14090829Y-14958460D01*
X14090829Y-14958460D02*
X14071782Y-14967984D01*
X14071782Y-14967984D02*
X14052734Y-14967984D01*
X14052734Y-14967984D02*
X14033686Y-14958460D01*
X14033686Y-14958460D02*
X14024163Y-14948936D01*
X14024163Y-14948936D02*
X14014639Y-14929888D01*
X14014639Y-14929888D02*
X14005115Y-14891793D01*
X14005115Y-14891793D02*
X14005115Y-14844174D01*
X14005115Y-14844174D02*
X14014639Y-14806079D01*
X14014639Y-14806079D02*
X14024163Y-14787031D01*
X14024163Y-14787031D02*
X14033686Y-14777508D01*
X14033686Y-14777508D02*
X14052734Y-14767984D01*
X14205115Y-14948936D02*
X14214639Y-14958460D01*
X14214639Y-14958460D02*
X14205115Y-14967984D01*
X14205115Y-14967984D02*
X14195591Y-14958460D01*
X14195591Y-14958460D02*
X14205115Y-14948936D01*
X14205115Y-14948936D02*
X14205115Y-14967984D01*
X14338448Y-14767984D02*
X14357496Y-14767984D01*
X14357496Y-14767984D02*
X14376544Y-14777508D01*
X14376544Y-14777508D02*
X14386067Y-14787031D01*
X14386067Y-14787031D02*
X14395591Y-14806079D01*
X14395591Y-14806079D02*
X14405115Y-14844174D01*
X14405115Y-14844174D02*
X14405115Y-14891793D01*
X14405115Y-14891793D02*
X14395591Y-14929888D01*
X14395591Y-14929888D02*
X14386067Y-14948936D01*
X14386067Y-14948936D02*
X14376544Y-14958460D01*
X14376544Y-14958460D02*
X14357496Y-14967984D01*
X14357496Y-14967984D02*
X14338448Y-14967984D01*
X14338448Y-14967984D02*
X14319401Y-14958460D01*
X14319401Y-14958460D02*
X14309877Y-14948936D01*
X14309877Y-14948936D02*
X14300353Y-14929888D01*
X14300353Y-14929888D02*
X14290829Y-14891793D01*
X14290829Y-14891793D02*
X14290829Y-14844174D01*
X14290829Y-14844174D02*
X14300353Y-14806079D01*
X14300353Y-14806079D02*
X14309877Y-14787031D01*
X14309877Y-14787031D02*
X14319401Y-14777508D01*
X14319401Y-14777508D02*
X14338448Y-14767984D01*
X14471782Y-14767984D02*
X14595591Y-14767984D01*
X14595591Y-14767984D02*
X14528925Y-14844174D01*
X14528925Y-14844174D02*
X14557496Y-14844174D01*
X14557496Y-14844174D02*
X14576544Y-14853698D01*
X14576544Y-14853698D02*
X14586067Y-14863222D01*
X14586067Y-14863222D02*
X14595591Y-14882269D01*
X14595591Y-14882269D02*
X14595591Y-14929888D01*
X14595591Y-14929888D02*
X14586067Y-14948936D01*
X14586067Y-14948936D02*
X14576544Y-14958460D01*
X14576544Y-14958460D02*
X14557496Y-14967984D01*
X14557496Y-14967984D02*
X14500353Y-14967984D01*
X14500353Y-14967984D02*
X14481306Y-14958460D01*
X14481306Y-14958460D02*
X14471782Y-14948936D01*
X14786067Y-14967984D02*
X14671782Y-14967984D01*
X14728925Y-14967984D02*
X14728925Y-14767984D01*
X14728925Y-14767984D02*
X14709877Y-14796555D01*
X14709877Y-14796555D02*
X14690829Y-14815603D01*
X14690829Y-14815603D02*
X14671782Y-14825127D01*
X14967020Y-14767984D02*
X14871782Y-14767984D01*
X14871782Y-14767984D02*
X14862258Y-14863222D01*
X14862258Y-14863222D02*
X14871782Y-14853698D01*
X14871782Y-14853698D02*
X14890829Y-14844174D01*
X14890829Y-14844174D02*
X14938448Y-14844174D01*
X14938448Y-14844174D02*
X14957496Y-14853698D01*
X14957496Y-14853698D02*
X14967020Y-14863222D01*
X14967020Y-14863222D02*
X14976544Y-14882269D01*
X14976544Y-14882269D02*
X14976544Y-14929888D01*
X14976544Y-14929888D02*
X14967020Y-14948936D01*
X14967020Y-14948936D02*
X14957496Y-14958460D01*
X14957496Y-14958460D02*
X14938448Y-14967984D01*
X14938448Y-14967984D02*
X14890829Y-14967984D01*
X14890829Y-14967984D02*
X14871782Y-14958460D01*
X14871782Y-14958460D02*
X14862258Y-14948936D01*
X15052734Y-14767984D02*
X15052734Y-14806079D01*
X15128925Y-14767984D02*
X15128925Y-14806079D01*
X15424163Y-15044174D02*
X15414639Y-15034650D01*
X15414639Y-15034650D02*
X15395591Y-15006079D01*
X15395591Y-15006079D02*
X15386068Y-14987031D01*
X15386068Y-14987031D02*
X15376544Y-14958460D01*
X15376544Y-14958460D02*
X15367020Y-14910841D01*
X15367020Y-14910841D02*
X15367020Y-14872746D01*
X15367020Y-14872746D02*
X15376544Y-14825127D01*
X15376544Y-14825127D02*
X15386068Y-14796555D01*
X15386068Y-14796555D02*
X15395591Y-14777508D01*
X15395591Y-14777508D02*
X15414639Y-14748936D01*
X15414639Y-14748936D02*
X15424163Y-14739412D01*
X15509877Y-14967984D02*
X15547972Y-14967984D01*
X15547972Y-14967984D02*
X15567020Y-14958460D01*
X15567020Y-14958460D02*
X15576544Y-14948936D01*
X15576544Y-14948936D02*
X15595591Y-14920365D01*
X15595591Y-14920365D02*
X15605115Y-14882269D01*
X15605115Y-14882269D02*
X15605115Y-14806079D01*
X15605115Y-14806079D02*
X15595591Y-14787031D01*
X15595591Y-14787031D02*
X15586068Y-14777508D01*
X15586068Y-14777508D02*
X15567020Y-14767984D01*
X15567020Y-14767984D02*
X15528925Y-14767984D01*
X15528925Y-14767984D02*
X15509877Y-14777508D01*
X15509877Y-14777508D02*
X15500353Y-14787031D01*
X15500353Y-14787031D02*
X15490829Y-14806079D01*
X15490829Y-14806079D02*
X15490829Y-14853698D01*
X15490829Y-14853698D02*
X15500353Y-14872746D01*
X15500353Y-14872746D02*
X15509877Y-14882269D01*
X15509877Y-14882269D02*
X15528925Y-14891793D01*
X15528925Y-14891793D02*
X15567020Y-14891793D01*
X15567020Y-14891793D02*
X15586068Y-14882269D01*
X15586068Y-14882269D02*
X15595591Y-14872746D01*
X15595591Y-14872746D02*
X15605115Y-14853698D01*
X15843210Y-14967984D02*
X15843210Y-14767984D01*
X15928925Y-14967984D02*
X15928925Y-14863222D01*
X15928925Y-14863222D02*
X15919401Y-14844174D01*
X15919401Y-14844174D02*
X15900353Y-14834650D01*
X15900353Y-14834650D02*
X15871782Y-14834650D01*
X15871782Y-14834650D02*
X15852734Y-14844174D01*
X15852734Y-14844174D02*
X15843210Y-14853698D01*
X16052734Y-14967984D02*
X16033687Y-14958460D01*
X16033687Y-14958460D02*
X16024163Y-14948936D01*
X16024163Y-14948936D02*
X16014639Y-14929888D01*
X16014639Y-14929888D02*
X16014639Y-14872746D01*
X16014639Y-14872746D02*
X16024163Y-14853698D01*
X16024163Y-14853698D02*
X16033687Y-14844174D01*
X16033687Y-14844174D02*
X16052734Y-14834650D01*
X16052734Y-14834650D02*
X16081306Y-14834650D01*
X16081306Y-14834650D02*
X16100353Y-14844174D01*
X16100353Y-14844174D02*
X16109877Y-14853698D01*
X16109877Y-14853698D02*
X16119401Y-14872746D01*
X16119401Y-14872746D02*
X16119401Y-14929888D01*
X16119401Y-14929888D02*
X16109877Y-14948936D01*
X16109877Y-14948936D02*
X16100353Y-14958460D01*
X16100353Y-14958460D02*
X16081306Y-14967984D01*
X16081306Y-14967984D02*
X16052734Y-14967984D01*
X16233687Y-14967984D02*
X16214639Y-14958460D01*
X16214639Y-14958460D02*
X16205115Y-14939412D01*
X16205115Y-14939412D02*
X16205115Y-14767984D01*
X16386068Y-14958460D02*
X16367020Y-14967984D01*
X16367020Y-14967984D02*
X16328925Y-14967984D01*
X16328925Y-14967984D02*
X16309877Y-14958460D01*
X16309877Y-14958460D02*
X16300353Y-14939412D01*
X16300353Y-14939412D02*
X16300353Y-14863222D01*
X16300353Y-14863222D02*
X16309877Y-14844174D01*
X16309877Y-14844174D02*
X16328925Y-14834650D01*
X16328925Y-14834650D02*
X16367020Y-14834650D01*
X16367020Y-14834650D02*
X16386068Y-14844174D01*
X16386068Y-14844174D02*
X16395591Y-14863222D01*
X16395591Y-14863222D02*
X16395591Y-14882269D01*
X16395591Y-14882269D02*
X16300353Y-14901317D01*
X16471782Y-14958460D02*
X16490830Y-14967984D01*
X16490830Y-14967984D02*
X16528925Y-14967984D01*
X16528925Y-14967984D02*
X16547972Y-14958460D01*
X16547972Y-14958460D02*
X16557496Y-14939412D01*
X16557496Y-14939412D02*
X16557496Y-14929888D01*
X16557496Y-14929888D02*
X16547972Y-14910841D01*
X16547972Y-14910841D02*
X16528925Y-14901317D01*
X16528925Y-14901317D02*
X16500353Y-14901317D01*
X16500353Y-14901317D02*
X16481306Y-14891793D01*
X16481306Y-14891793D02*
X16471782Y-14872746D01*
X16471782Y-14872746D02*
X16471782Y-14863222D01*
X16471782Y-14863222D02*
X16481306Y-14844174D01*
X16481306Y-14844174D02*
X16500353Y-14834650D01*
X16500353Y-14834650D02*
X16528925Y-14834650D01*
X16528925Y-14834650D02*
X16547972Y-14844174D01*
X16624163Y-15044174D02*
X16633687Y-15034650D01*
X16633687Y-15034650D02*
X16652734Y-15006079D01*
X16652734Y-15006079D02*
X16662258Y-14987031D01*
X16662258Y-14987031D02*
X16671782Y-14958460D01*
X16671782Y-14958460D02*
X16681306Y-14910841D01*
X16681306Y-14910841D02*
X16681306Y-14872746D01*
X16681306Y-14872746D02*
X16671782Y-14825127D01*
X16671782Y-14825127D02*
X16662258Y-14796555D01*
X16662258Y-14796555D02*
X16652734Y-14777508D01*
X16652734Y-14777508D02*
X16633687Y-14748936D01*
X16633687Y-14748936D02*
X16624163Y-14739412D01*
D12*
X11809100Y-15100500D02*
X11809100Y-15180500D01*
X11769100Y-15140500D02*
X11849100Y-15140500D01*
D11*
X12147972Y-15031984D02*
X12167020Y-15031984D01*
X12167020Y-15031984D02*
X12186067Y-15041508D01*
X12186067Y-15041508D02*
X12195591Y-15051031D01*
X12195591Y-15051031D02*
X12205115Y-15070079D01*
X12205115Y-15070079D02*
X12214639Y-15108174D01*
X12214639Y-15108174D02*
X12214639Y-15155793D01*
X12214639Y-15155793D02*
X12205115Y-15193888D01*
X12205115Y-15193888D02*
X12195591Y-15212936D01*
X12195591Y-15212936D02*
X12186067Y-15222460D01*
X12186067Y-15222460D02*
X12167020Y-15231984D01*
X12167020Y-15231984D02*
X12147972Y-15231984D01*
X12147972Y-15231984D02*
X12128924Y-15222460D01*
X12128924Y-15222460D02*
X12119401Y-15212936D01*
X12119401Y-15212936D02*
X12109877Y-15193888D01*
X12109877Y-15193888D02*
X12100353Y-15155793D01*
X12100353Y-15155793D02*
X12100353Y-15108174D01*
X12100353Y-15108174D02*
X12109877Y-15070079D01*
X12109877Y-15070079D02*
X12119401Y-15051031D01*
X12119401Y-15051031D02*
X12128924Y-15041508D01*
X12128924Y-15041508D02*
X12147972Y-15031984D01*
X12300353Y-15212936D02*
X12309877Y-15222460D01*
X12309877Y-15222460D02*
X12300353Y-15231984D01*
X12300353Y-15231984D02*
X12290829Y-15222460D01*
X12290829Y-15222460D02*
X12300353Y-15212936D01*
X12300353Y-15212936D02*
X12300353Y-15231984D01*
X12424162Y-15117698D02*
X12405115Y-15108174D01*
X12405115Y-15108174D02*
X12395591Y-15098650D01*
X12395591Y-15098650D02*
X12386067Y-15079603D01*
X12386067Y-15079603D02*
X12386067Y-15070079D01*
X12386067Y-15070079D02*
X12395591Y-15051031D01*
X12395591Y-15051031D02*
X12405115Y-15041508D01*
X12405115Y-15041508D02*
X12424162Y-15031984D01*
X12424162Y-15031984D02*
X12462258Y-15031984D01*
X12462258Y-15031984D02*
X12481305Y-15041508D01*
X12481305Y-15041508D02*
X12490829Y-15051031D01*
X12490829Y-15051031D02*
X12500353Y-15070079D01*
X12500353Y-15070079D02*
X12500353Y-15079603D01*
X12500353Y-15079603D02*
X12490829Y-15098650D01*
X12490829Y-15098650D02*
X12481305Y-15108174D01*
X12481305Y-15108174D02*
X12462258Y-15117698D01*
X12462258Y-15117698D02*
X12424162Y-15117698D01*
X12424162Y-15117698D02*
X12405115Y-15127222D01*
X12405115Y-15127222D02*
X12395591Y-15136746D01*
X12395591Y-15136746D02*
X12386067Y-15155793D01*
X12386067Y-15155793D02*
X12386067Y-15193888D01*
X12386067Y-15193888D02*
X12395591Y-15212936D01*
X12395591Y-15212936D02*
X12405115Y-15222460D01*
X12405115Y-15222460D02*
X12424162Y-15231984D01*
X12424162Y-15231984D02*
X12462258Y-15231984D01*
X12462258Y-15231984D02*
X12481305Y-15222460D01*
X12481305Y-15222460D02*
X12490829Y-15212936D01*
X12490829Y-15212936D02*
X12500353Y-15193888D01*
X12500353Y-15193888D02*
X12500353Y-15155793D01*
X12500353Y-15155793D02*
X12490829Y-15136746D01*
X12490829Y-15136746D02*
X12481305Y-15127222D01*
X12481305Y-15127222D02*
X12462258Y-15117698D01*
X12624162Y-15031984D02*
X12643210Y-15031984D01*
X12643210Y-15031984D02*
X12662258Y-15041508D01*
X12662258Y-15041508D02*
X12671782Y-15051031D01*
X12671782Y-15051031D02*
X12681305Y-15070079D01*
X12681305Y-15070079D02*
X12690829Y-15108174D01*
X12690829Y-15108174D02*
X12690829Y-15155793D01*
X12690829Y-15155793D02*
X12681305Y-15193888D01*
X12681305Y-15193888D02*
X12671782Y-15212936D01*
X12671782Y-15212936D02*
X12662258Y-15222460D01*
X12662258Y-15222460D02*
X12643210Y-15231984D01*
X12643210Y-15231984D02*
X12624162Y-15231984D01*
X12624162Y-15231984D02*
X12605115Y-15222460D01*
X12605115Y-15222460D02*
X12595591Y-15212936D01*
X12595591Y-15212936D02*
X12586067Y-15193888D01*
X12586067Y-15193888D02*
X12576543Y-15155793D01*
X12576543Y-15155793D02*
X12576543Y-15108174D01*
X12576543Y-15108174D02*
X12586067Y-15070079D01*
X12586067Y-15070079D02*
X12595591Y-15051031D01*
X12595591Y-15051031D02*
X12605115Y-15041508D01*
X12605115Y-15041508D02*
X12624162Y-15031984D01*
X12814639Y-15031984D02*
X12833686Y-15031984D01*
X12833686Y-15031984D02*
X12852734Y-15041508D01*
X12852734Y-15041508D02*
X12862258Y-15051031D01*
X12862258Y-15051031D02*
X12871782Y-15070079D01*
X12871782Y-15070079D02*
X12881305Y-15108174D01*
X12881305Y-15108174D02*
X12881305Y-15155793D01*
X12881305Y-15155793D02*
X12871782Y-15193888D01*
X12871782Y-15193888D02*
X12862258Y-15212936D01*
X12862258Y-15212936D02*
X12852734Y-15222460D01*
X12852734Y-15222460D02*
X12833686Y-15231984D01*
X12833686Y-15231984D02*
X12814639Y-15231984D01*
X12814639Y-15231984D02*
X12795591Y-15222460D01*
X12795591Y-15222460D02*
X12786067Y-15212936D01*
X12786067Y-15212936D02*
X12776543Y-15193888D01*
X12776543Y-15193888D02*
X12767020Y-15155793D01*
X12767020Y-15155793D02*
X12767020Y-15108174D01*
X12767020Y-15108174D02*
X12776543Y-15070079D01*
X12776543Y-15070079D02*
X12786067Y-15051031D01*
X12786067Y-15051031D02*
X12795591Y-15041508D01*
X12795591Y-15041508D02*
X12814639Y-15031984D01*
X12967020Y-15231984D02*
X12967020Y-15098650D01*
X12967020Y-15117698D02*
X12976543Y-15108174D01*
X12976543Y-15108174D02*
X12995591Y-15098650D01*
X12995591Y-15098650D02*
X13024163Y-15098650D01*
X13024163Y-15098650D02*
X13043210Y-15108174D01*
X13043210Y-15108174D02*
X13052734Y-15127222D01*
X13052734Y-15127222D02*
X13052734Y-15231984D01*
X13052734Y-15127222D02*
X13062258Y-15108174D01*
X13062258Y-15108174D02*
X13081305Y-15098650D01*
X13081305Y-15098650D02*
X13109877Y-15098650D01*
X13109877Y-15098650D02*
X13128924Y-15108174D01*
X13128924Y-15108174D02*
X13138448Y-15127222D01*
X13138448Y-15127222D02*
X13138448Y-15231984D01*
X13233686Y-15231984D02*
X13233686Y-15098650D01*
X13233686Y-15117698D02*
X13243210Y-15108174D01*
X13243210Y-15108174D02*
X13262258Y-15098650D01*
X13262258Y-15098650D02*
X13290829Y-15098650D01*
X13290829Y-15098650D02*
X13309877Y-15108174D01*
X13309877Y-15108174D02*
X13319401Y-15127222D01*
X13319401Y-15127222D02*
X13319401Y-15231984D01*
X13319401Y-15127222D02*
X13328924Y-15108174D01*
X13328924Y-15108174D02*
X13347972Y-15098650D01*
X13347972Y-15098650D02*
X13376543Y-15098650D01*
X13376543Y-15098650D02*
X13395591Y-15108174D01*
X13395591Y-15108174D02*
X13405115Y-15127222D01*
X13405115Y-15127222D02*
X13405115Y-15231984D01*
X13795591Y-15022460D02*
X13624163Y-15279603D01*
X14052734Y-15031984D02*
X14071782Y-15031984D01*
X14071782Y-15031984D02*
X14090829Y-15041508D01*
X14090829Y-15041508D02*
X14100353Y-15051031D01*
X14100353Y-15051031D02*
X14109877Y-15070079D01*
X14109877Y-15070079D02*
X14119401Y-15108174D01*
X14119401Y-15108174D02*
X14119401Y-15155793D01*
X14119401Y-15155793D02*
X14109877Y-15193888D01*
X14109877Y-15193888D02*
X14100353Y-15212936D01*
X14100353Y-15212936D02*
X14090829Y-15222460D01*
X14090829Y-15222460D02*
X14071782Y-15231984D01*
X14071782Y-15231984D02*
X14052734Y-15231984D01*
X14052734Y-15231984D02*
X14033686Y-15222460D01*
X14033686Y-15222460D02*
X14024163Y-15212936D01*
X14024163Y-15212936D02*
X14014639Y-15193888D01*
X14014639Y-15193888D02*
X14005115Y-15155793D01*
X14005115Y-15155793D02*
X14005115Y-15108174D01*
X14005115Y-15108174D02*
X14014639Y-15070079D01*
X14014639Y-15070079D02*
X14024163Y-15051031D01*
X14024163Y-15051031D02*
X14033686Y-15041508D01*
X14033686Y-15041508D02*
X14052734Y-15031984D01*
X14205115Y-15212936D02*
X14214639Y-15222460D01*
X14214639Y-15222460D02*
X14205115Y-15231984D01*
X14205115Y-15231984D02*
X14195591Y-15222460D01*
X14195591Y-15222460D02*
X14205115Y-15212936D01*
X14205115Y-15212936D02*
X14205115Y-15231984D01*
X14338448Y-15031984D02*
X14357496Y-15031984D01*
X14357496Y-15031984D02*
X14376544Y-15041508D01*
X14376544Y-15041508D02*
X14386067Y-15051031D01*
X14386067Y-15051031D02*
X14395591Y-15070079D01*
X14395591Y-15070079D02*
X14405115Y-15108174D01*
X14405115Y-15108174D02*
X14405115Y-15155793D01*
X14405115Y-15155793D02*
X14395591Y-15193888D01*
X14395591Y-15193888D02*
X14386067Y-15212936D01*
X14386067Y-15212936D02*
X14376544Y-15222460D01*
X14376544Y-15222460D02*
X14357496Y-15231984D01*
X14357496Y-15231984D02*
X14338448Y-15231984D01*
X14338448Y-15231984D02*
X14319401Y-15222460D01*
X14319401Y-15222460D02*
X14309877Y-15212936D01*
X14309877Y-15212936D02*
X14300353Y-15193888D01*
X14300353Y-15193888D02*
X14290829Y-15155793D01*
X14290829Y-15155793D02*
X14290829Y-15108174D01*
X14290829Y-15108174D02*
X14300353Y-15070079D01*
X14300353Y-15070079D02*
X14309877Y-15051031D01*
X14309877Y-15051031D02*
X14319401Y-15041508D01*
X14319401Y-15041508D02*
X14338448Y-15031984D01*
X14471782Y-15031984D02*
X14595591Y-15031984D01*
X14595591Y-15031984D02*
X14528925Y-15108174D01*
X14528925Y-15108174D02*
X14557496Y-15108174D01*
X14557496Y-15108174D02*
X14576544Y-15117698D01*
X14576544Y-15117698D02*
X14586067Y-15127222D01*
X14586067Y-15127222D02*
X14595591Y-15146269D01*
X14595591Y-15146269D02*
X14595591Y-15193888D01*
X14595591Y-15193888D02*
X14586067Y-15212936D01*
X14586067Y-15212936D02*
X14576544Y-15222460D01*
X14576544Y-15222460D02*
X14557496Y-15231984D01*
X14557496Y-15231984D02*
X14500353Y-15231984D01*
X14500353Y-15231984D02*
X14481306Y-15222460D01*
X14481306Y-15222460D02*
X14471782Y-15212936D01*
X14786067Y-15231984D02*
X14671782Y-15231984D01*
X14728925Y-15231984D02*
X14728925Y-15031984D01*
X14728925Y-15031984D02*
X14709877Y-15060555D01*
X14709877Y-15060555D02*
X14690829Y-15079603D01*
X14690829Y-15079603D02*
X14671782Y-15089127D01*
X14967020Y-15031984D02*
X14871782Y-15031984D01*
X14871782Y-15031984D02*
X14862258Y-15127222D01*
X14862258Y-15127222D02*
X14871782Y-15117698D01*
X14871782Y-15117698D02*
X14890829Y-15108174D01*
X14890829Y-15108174D02*
X14938448Y-15108174D01*
X14938448Y-15108174D02*
X14957496Y-15117698D01*
X14957496Y-15117698D02*
X14967020Y-15127222D01*
X14967020Y-15127222D02*
X14976544Y-15146269D01*
X14976544Y-15146269D02*
X14976544Y-15193888D01*
X14976544Y-15193888D02*
X14967020Y-15212936D01*
X14967020Y-15212936D02*
X14957496Y-15222460D01*
X14957496Y-15222460D02*
X14938448Y-15231984D01*
X14938448Y-15231984D02*
X14890829Y-15231984D01*
X14890829Y-15231984D02*
X14871782Y-15222460D01*
X14871782Y-15222460D02*
X14862258Y-15212936D01*
X15052734Y-15031984D02*
X15052734Y-15070079D01*
X15128925Y-15031984D02*
X15128925Y-15070079D01*
X15424163Y-15308174D02*
X15414639Y-15298650D01*
X15414639Y-15298650D02*
X15395591Y-15270079D01*
X15395591Y-15270079D02*
X15386068Y-15251031D01*
X15386068Y-15251031D02*
X15376544Y-15222460D01*
X15376544Y-15222460D02*
X15367020Y-15174841D01*
X15367020Y-15174841D02*
X15367020Y-15136746D01*
X15367020Y-15136746D02*
X15376544Y-15089127D01*
X15376544Y-15089127D02*
X15386068Y-15060555D01*
X15386068Y-15060555D02*
X15395591Y-15041508D01*
X15395591Y-15041508D02*
X15414639Y-15012936D01*
X15414639Y-15012936D02*
X15424163Y-15003412D01*
X15481306Y-15031984D02*
X15605115Y-15031984D01*
X15605115Y-15031984D02*
X15538448Y-15108174D01*
X15538448Y-15108174D02*
X15567020Y-15108174D01*
X15567020Y-15108174D02*
X15586068Y-15117698D01*
X15586068Y-15117698D02*
X15595591Y-15127222D01*
X15595591Y-15127222D02*
X15605115Y-15146269D01*
X15605115Y-15146269D02*
X15605115Y-15193888D01*
X15605115Y-15193888D02*
X15595591Y-15212936D01*
X15595591Y-15212936D02*
X15586068Y-15222460D01*
X15586068Y-15222460D02*
X15567020Y-15231984D01*
X15567020Y-15231984D02*
X15509877Y-15231984D01*
X15509877Y-15231984D02*
X15490829Y-15222460D01*
X15490829Y-15222460D02*
X15481306Y-15212936D01*
X15843210Y-15231984D02*
X15843210Y-15031984D01*
X15928925Y-15231984D02*
X15928925Y-15127222D01*
X15928925Y-15127222D02*
X15919401Y-15108174D01*
X15919401Y-15108174D02*
X15900353Y-15098650D01*
X15900353Y-15098650D02*
X15871782Y-15098650D01*
X15871782Y-15098650D02*
X15852734Y-15108174D01*
X15852734Y-15108174D02*
X15843210Y-15117698D01*
X16052734Y-15231984D02*
X16033687Y-15222460D01*
X16033687Y-15222460D02*
X16024163Y-15212936D01*
X16024163Y-15212936D02*
X16014639Y-15193888D01*
X16014639Y-15193888D02*
X16014639Y-15136746D01*
X16014639Y-15136746D02*
X16024163Y-15117698D01*
X16024163Y-15117698D02*
X16033687Y-15108174D01*
X16033687Y-15108174D02*
X16052734Y-15098650D01*
X16052734Y-15098650D02*
X16081306Y-15098650D01*
X16081306Y-15098650D02*
X16100353Y-15108174D01*
X16100353Y-15108174D02*
X16109877Y-15117698D01*
X16109877Y-15117698D02*
X16119401Y-15136746D01*
X16119401Y-15136746D02*
X16119401Y-15193888D01*
X16119401Y-15193888D02*
X16109877Y-15212936D01*
X16109877Y-15212936D02*
X16100353Y-15222460D01*
X16100353Y-15222460D02*
X16081306Y-15231984D01*
X16081306Y-15231984D02*
X16052734Y-15231984D01*
X16233687Y-15231984D02*
X16214639Y-15222460D01*
X16214639Y-15222460D02*
X16205115Y-15203412D01*
X16205115Y-15203412D02*
X16205115Y-15031984D01*
X16386068Y-15222460D02*
X16367020Y-15231984D01*
X16367020Y-15231984D02*
X16328925Y-15231984D01*
X16328925Y-15231984D02*
X16309877Y-15222460D01*
X16309877Y-15222460D02*
X16300353Y-15203412D01*
X16300353Y-15203412D02*
X16300353Y-15127222D01*
X16300353Y-15127222D02*
X16309877Y-15108174D01*
X16309877Y-15108174D02*
X16328925Y-15098650D01*
X16328925Y-15098650D02*
X16367020Y-15098650D01*
X16367020Y-15098650D02*
X16386068Y-15108174D01*
X16386068Y-15108174D02*
X16395591Y-15127222D01*
X16395591Y-15127222D02*
X16395591Y-15146269D01*
X16395591Y-15146269D02*
X16300353Y-15165317D01*
X16471782Y-15222460D02*
X16490830Y-15231984D01*
X16490830Y-15231984D02*
X16528925Y-15231984D01*
X16528925Y-15231984D02*
X16547972Y-15222460D01*
X16547972Y-15222460D02*
X16557496Y-15203412D01*
X16557496Y-15203412D02*
X16557496Y-15193888D01*
X16557496Y-15193888D02*
X16547972Y-15174841D01*
X16547972Y-15174841D02*
X16528925Y-15165317D01*
X16528925Y-15165317D02*
X16500353Y-15165317D01*
X16500353Y-15165317D02*
X16481306Y-15155793D01*
X16481306Y-15155793D02*
X16471782Y-15136746D01*
X16471782Y-15136746D02*
X16471782Y-15127222D01*
X16471782Y-15127222D02*
X16481306Y-15108174D01*
X16481306Y-15108174D02*
X16500353Y-15098650D01*
X16500353Y-15098650D02*
X16528925Y-15098650D01*
X16528925Y-15098650D02*
X16547972Y-15108174D01*
X16624163Y-15308174D02*
X16633687Y-15298650D01*
X16633687Y-15298650D02*
X16652734Y-15270079D01*
X16652734Y-15270079D02*
X16662258Y-15251031D01*
X16662258Y-15251031D02*
X16671782Y-15222460D01*
X16671782Y-15222460D02*
X16681306Y-15174841D01*
X16681306Y-15174841D02*
X16681306Y-15136746D01*
X16681306Y-15136746D02*
X16671782Y-15089127D01*
X16671782Y-15089127D02*
X16662258Y-15060555D01*
X16662258Y-15060555D02*
X16652734Y-15041508D01*
X16652734Y-15041508D02*
X16633687Y-15012936D01*
X16633687Y-15012936D02*
X16624163Y-15003412D01*
D13*
X11834221Y-15440421D02*
X11834221Y-15368579D01*
X11762379Y-15368579D01*
X11762379Y-15440421D01*
X11834221Y-15440421D01*
D11*
X12214639Y-15495984D02*
X12100353Y-15495984D01*
X12157496Y-15495984D02*
X12157496Y-15295984D01*
X12157496Y-15295984D02*
X12138448Y-15324555D01*
X12138448Y-15324555D02*
X12119401Y-15343603D01*
X12119401Y-15343603D02*
X12100353Y-15353127D01*
X12300353Y-15476936D02*
X12309877Y-15486460D01*
X12309877Y-15486460D02*
X12300353Y-15495984D01*
X12300353Y-15495984D02*
X12290829Y-15486460D01*
X12290829Y-15486460D02*
X12300353Y-15476936D01*
X12300353Y-15476936D02*
X12300353Y-15495984D01*
X12433686Y-15295984D02*
X12452734Y-15295984D01*
X12452734Y-15295984D02*
X12471782Y-15305508D01*
X12471782Y-15305508D02*
X12481305Y-15315031D01*
X12481305Y-15315031D02*
X12490829Y-15334079D01*
X12490829Y-15334079D02*
X12500353Y-15372174D01*
X12500353Y-15372174D02*
X12500353Y-15419793D01*
X12500353Y-15419793D02*
X12490829Y-15457888D01*
X12490829Y-15457888D02*
X12481305Y-15476936D01*
X12481305Y-15476936D02*
X12471782Y-15486460D01*
X12471782Y-15486460D02*
X12452734Y-15495984D01*
X12452734Y-15495984D02*
X12433686Y-15495984D01*
X12433686Y-15495984D02*
X12414639Y-15486460D01*
X12414639Y-15486460D02*
X12405115Y-15476936D01*
X12405115Y-15476936D02*
X12395591Y-15457888D01*
X12395591Y-15457888D02*
X12386067Y-15419793D01*
X12386067Y-15419793D02*
X12386067Y-15372174D01*
X12386067Y-15372174D02*
X12395591Y-15334079D01*
X12395591Y-15334079D02*
X12405115Y-15315031D01*
X12405115Y-15315031D02*
X12414639Y-15305508D01*
X12414639Y-15305508D02*
X12433686Y-15295984D01*
X12690829Y-15495984D02*
X12576543Y-15495984D01*
X12633686Y-15495984D02*
X12633686Y-15295984D01*
X12633686Y-15295984D02*
X12614639Y-15324555D01*
X12614639Y-15324555D02*
X12595591Y-15343603D01*
X12595591Y-15343603D02*
X12576543Y-15353127D01*
X12862258Y-15295984D02*
X12824162Y-15295984D01*
X12824162Y-15295984D02*
X12805115Y-15305508D01*
X12805115Y-15305508D02*
X12795591Y-15315031D01*
X12795591Y-15315031D02*
X12776543Y-15343603D01*
X12776543Y-15343603D02*
X12767020Y-15381698D01*
X12767020Y-15381698D02*
X12767020Y-15457888D01*
X12767020Y-15457888D02*
X12776543Y-15476936D01*
X12776543Y-15476936D02*
X12786067Y-15486460D01*
X12786067Y-15486460D02*
X12805115Y-15495984D01*
X12805115Y-15495984D02*
X12843210Y-15495984D01*
X12843210Y-15495984D02*
X12862258Y-15486460D01*
X12862258Y-15486460D02*
X12871782Y-15476936D01*
X12871782Y-15476936D02*
X12881305Y-15457888D01*
X12881305Y-15457888D02*
X12881305Y-15410269D01*
X12881305Y-15410269D02*
X12871782Y-15391222D01*
X12871782Y-15391222D02*
X12862258Y-15381698D01*
X12862258Y-15381698D02*
X12843210Y-15372174D01*
X12843210Y-15372174D02*
X12805115Y-15372174D01*
X12805115Y-15372174D02*
X12786067Y-15381698D01*
X12786067Y-15381698D02*
X12776543Y-15391222D01*
X12776543Y-15391222D02*
X12767020Y-15410269D01*
X12967020Y-15495984D02*
X12967020Y-15362650D01*
X12967020Y-15381698D02*
X12976543Y-15372174D01*
X12976543Y-15372174D02*
X12995591Y-15362650D01*
X12995591Y-15362650D02*
X13024163Y-15362650D01*
X13024163Y-15362650D02*
X13043210Y-15372174D01*
X13043210Y-15372174D02*
X13052734Y-15391222D01*
X13052734Y-15391222D02*
X13052734Y-15495984D01*
X13052734Y-15391222D02*
X13062258Y-15372174D01*
X13062258Y-15372174D02*
X13081305Y-15362650D01*
X13081305Y-15362650D02*
X13109877Y-15362650D01*
X13109877Y-15362650D02*
X13128924Y-15372174D01*
X13128924Y-15372174D02*
X13138448Y-15391222D01*
X13138448Y-15391222D02*
X13138448Y-15495984D01*
X13233686Y-15495984D02*
X13233686Y-15362650D01*
X13233686Y-15381698D02*
X13243210Y-15372174D01*
X13243210Y-15372174D02*
X13262258Y-15362650D01*
X13262258Y-15362650D02*
X13290829Y-15362650D01*
X13290829Y-15362650D02*
X13309877Y-15372174D01*
X13309877Y-15372174D02*
X13319401Y-15391222D01*
X13319401Y-15391222D02*
X13319401Y-15495984D01*
X13319401Y-15391222D02*
X13328924Y-15372174D01*
X13328924Y-15372174D02*
X13347972Y-15362650D01*
X13347972Y-15362650D02*
X13376543Y-15362650D01*
X13376543Y-15362650D02*
X13395591Y-15372174D01*
X13395591Y-15372174D02*
X13405115Y-15391222D01*
X13405115Y-15391222D02*
X13405115Y-15495984D01*
X13795591Y-15286460D02*
X13624163Y-15543603D01*
X14052734Y-15295984D02*
X14071782Y-15295984D01*
X14071782Y-15295984D02*
X14090829Y-15305508D01*
X14090829Y-15305508D02*
X14100353Y-15315031D01*
X14100353Y-15315031D02*
X14109877Y-15334079D01*
X14109877Y-15334079D02*
X14119401Y-15372174D01*
X14119401Y-15372174D02*
X14119401Y-15419793D01*
X14119401Y-15419793D02*
X14109877Y-15457888D01*
X14109877Y-15457888D02*
X14100353Y-15476936D01*
X14100353Y-15476936D02*
X14090829Y-15486460D01*
X14090829Y-15486460D02*
X14071782Y-15495984D01*
X14071782Y-15495984D02*
X14052734Y-15495984D01*
X14052734Y-15495984D02*
X14033686Y-15486460D01*
X14033686Y-15486460D02*
X14024163Y-15476936D01*
X14024163Y-15476936D02*
X14014639Y-15457888D01*
X14014639Y-15457888D02*
X14005115Y-15419793D01*
X14005115Y-15419793D02*
X14005115Y-15372174D01*
X14005115Y-15372174D02*
X14014639Y-15334079D01*
X14014639Y-15334079D02*
X14024163Y-15315031D01*
X14024163Y-15315031D02*
X14033686Y-15305508D01*
X14033686Y-15305508D02*
X14052734Y-15295984D01*
X14205115Y-15476936D02*
X14214639Y-15486460D01*
X14214639Y-15486460D02*
X14205115Y-15495984D01*
X14205115Y-15495984D02*
X14195591Y-15486460D01*
X14195591Y-15486460D02*
X14205115Y-15476936D01*
X14205115Y-15476936D02*
X14205115Y-15495984D01*
X14338448Y-15295984D02*
X14357496Y-15295984D01*
X14357496Y-15295984D02*
X14376544Y-15305508D01*
X14376544Y-15305508D02*
X14386067Y-15315031D01*
X14386067Y-15315031D02*
X14395591Y-15334079D01*
X14395591Y-15334079D02*
X14405115Y-15372174D01*
X14405115Y-15372174D02*
X14405115Y-15419793D01*
X14405115Y-15419793D02*
X14395591Y-15457888D01*
X14395591Y-15457888D02*
X14386067Y-15476936D01*
X14386067Y-15476936D02*
X14376544Y-15486460D01*
X14376544Y-15486460D02*
X14357496Y-15495984D01*
X14357496Y-15495984D02*
X14338448Y-15495984D01*
X14338448Y-15495984D02*
X14319401Y-15486460D01*
X14319401Y-15486460D02*
X14309877Y-15476936D01*
X14309877Y-15476936D02*
X14300353Y-15457888D01*
X14300353Y-15457888D02*
X14290829Y-15419793D01*
X14290829Y-15419793D02*
X14290829Y-15372174D01*
X14290829Y-15372174D02*
X14300353Y-15334079D01*
X14300353Y-15334079D02*
X14309877Y-15315031D01*
X14309877Y-15315031D02*
X14319401Y-15305508D01*
X14319401Y-15305508D02*
X14338448Y-15295984D01*
X14576544Y-15362650D02*
X14576544Y-15495984D01*
X14528925Y-15286460D02*
X14481306Y-15429317D01*
X14481306Y-15429317D02*
X14605115Y-15429317D01*
X14719401Y-15295984D02*
X14738448Y-15295984D01*
X14738448Y-15295984D02*
X14757496Y-15305508D01*
X14757496Y-15305508D02*
X14767020Y-15315031D01*
X14767020Y-15315031D02*
X14776544Y-15334079D01*
X14776544Y-15334079D02*
X14786067Y-15372174D01*
X14786067Y-15372174D02*
X14786067Y-15419793D01*
X14786067Y-15419793D02*
X14776544Y-15457888D01*
X14776544Y-15457888D02*
X14767020Y-15476936D01*
X14767020Y-15476936D02*
X14757496Y-15486460D01*
X14757496Y-15486460D02*
X14738448Y-15495984D01*
X14738448Y-15495984D02*
X14719401Y-15495984D01*
X14719401Y-15495984D02*
X14700353Y-15486460D01*
X14700353Y-15486460D02*
X14690829Y-15476936D01*
X14690829Y-15476936D02*
X14681306Y-15457888D01*
X14681306Y-15457888D02*
X14671782Y-15419793D01*
X14671782Y-15419793D02*
X14671782Y-15372174D01*
X14671782Y-15372174D02*
X14681306Y-15334079D01*
X14681306Y-15334079D02*
X14690829Y-15315031D01*
X14690829Y-15315031D02*
X14700353Y-15305508D01*
X14700353Y-15305508D02*
X14719401Y-15295984D01*
X14909877Y-15295984D02*
X14928925Y-15295984D01*
X14928925Y-15295984D02*
X14947972Y-15305508D01*
X14947972Y-15305508D02*
X14957496Y-15315031D01*
X14957496Y-15315031D02*
X14967020Y-15334079D01*
X14967020Y-15334079D02*
X14976544Y-15372174D01*
X14976544Y-15372174D02*
X14976544Y-15419793D01*
X14976544Y-15419793D02*
X14967020Y-15457888D01*
X14967020Y-15457888D02*
X14957496Y-15476936D01*
X14957496Y-15476936D02*
X14947972Y-15486460D01*
X14947972Y-15486460D02*
X14928925Y-15495984D01*
X14928925Y-15495984D02*
X14909877Y-15495984D01*
X14909877Y-15495984D02*
X14890829Y-15486460D01*
X14890829Y-15486460D02*
X14881306Y-15476936D01*
X14881306Y-15476936D02*
X14871782Y-15457888D01*
X14871782Y-15457888D02*
X14862258Y-15419793D01*
X14862258Y-15419793D02*
X14862258Y-15372174D01*
X14862258Y-15372174D02*
X14871782Y-15334079D01*
X14871782Y-15334079D02*
X14881306Y-15315031D01*
X14881306Y-15315031D02*
X14890829Y-15305508D01*
X14890829Y-15305508D02*
X14909877Y-15295984D01*
X15052734Y-15295984D02*
X15052734Y-15334079D01*
X15128925Y-15295984D02*
X15128925Y-15334079D01*
X15424163Y-15572174D02*
X15414639Y-15562650D01*
X15414639Y-15562650D02*
X15395591Y-15534079D01*
X15395591Y-15534079D02*
X15386068Y-15515031D01*
X15386068Y-15515031D02*
X15376544Y-15486460D01*
X15376544Y-15486460D02*
X15367020Y-15438841D01*
X15367020Y-15438841D02*
X15367020Y-15400746D01*
X15367020Y-15400746D02*
X15376544Y-15353127D01*
X15376544Y-15353127D02*
X15386068Y-15324555D01*
X15386068Y-15324555D02*
X15395591Y-15305508D01*
X15395591Y-15305508D02*
X15414639Y-15276936D01*
X15414639Y-15276936D02*
X15424163Y-15267412D01*
X15528925Y-15381698D02*
X15509877Y-15372174D01*
X15509877Y-15372174D02*
X15500353Y-15362650D01*
X15500353Y-15362650D02*
X15490829Y-15343603D01*
X15490829Y-15343603D02*
X15490829Y-15334079D01*
X15490829Y-15334079D02*
X15500353Y-15315031D01*
X15500353Y-15315031D02*
X15509877Y-15305508D01*
X15509877Y-15305508D02*
X15528925Y-15295984D01*
X15528925Y-15295984D02*
X15567020Y-15295984D01*
X15567020Y-15295984D02*
X15586068Y-15305508D01*
X15586068Y-15305508D02*
X15595591Y-15315031D01*
X15595591Y-15315031D02*
X15605115Y-15334079D01*
X15605115Y-15334079D02*
X15605115Y-15343603D01*
X15605115Y-15343603D02*
X15595591Y-15362650D01*
X15595591Y-15362650D02*
X15586068Y-15372174D01*
X15586068Y-15372174D02*
X15567020Y-15381698D01*
X15567020Y-15381698D02*
X15528925Y-15381698D01*
X15528925Y-15381698D02*
X15509877Y-15391222D01*
X15509877Y-15391222D02*
X15500353Y-15400746D01*
X15500353Y-15400746D02*
X15490829Y-15419793D01*
X15490829Y-15419793D02*
X15490829Y-15457888D01*
X15490829Y-15457888D02*
X15500353Y-15476936D01*
X15500353Y-15476936D02*
X15509877Y-15486460D01*
X15509877Y-15486460D02*
X15528925Y-15495984D01*
X15528925Y-15495984D02*
X15567020Y-15495984D01*
X15567020Y-15495984D02*
X15586068Y-15486460D01*
X15586068Y-15486460D02*
X15595591Y-15476936D01*
X15595591Y-15476936D02*
X15605115Y-15457888D01*
X15605115Y-15457888D02*
X15605115Y-15419793D01*
X15605115Y-15419793D02*
X15595591Y-15400746D01*
X15595591Y-15400746D02*
X15586068Y-15391222D01*
X15586068Y-15391222D02*
X15567020Y-15381698D01*
X15843210Y-15495984D02*
X15843210Y-15295984D01*
X15928925Y-15495984D02*
X15928925Y-15391222D01*
X15928925Y-15391222D02*
X15919401Y-15372174D01*
X15919401Y-15372174D02*
X15900353Y-15362650D01*
X15900353Y-15362650D02*
X15871782Y-15362650D01*
X15871782Y-15362650D02*
X15852734Y-15372174D01*
X15852734Y-15372174D02*
X15843210Y-15381698D01*
X16052734Y-15495984D02*
X16033687Y-15486460D01*
X16033687Y-15486460D02*
X16024163Y-15476936D01*
X16024163Y-15476936D02*
X16014639Y-15457888D01*
X16014639Y-15457888D02*
X16014639Y-15400746D01*
X16014639Y-15400746D02*
X16024163Y-15381698D01*
X16024163Y-15381698D02*
X16033687Y-15372174D01*
X16033687Y-15372174D02*
X16052734Y-15362650D01*
X16052734Y-15362650D02*
X16081306Y-15362650D01*
X16081306Y-15362650D02*
X16100353Y-15372174D01*
X16100353Y-15372174D02*
X16109877Y-15381698D01*
X16109877Y-15381698D02*
X16119401Y-15400746D01*
X16119401Y-15400746D02*
X16119401Y-15457888D01*
X16119401Y-15457888D02*
X16109877Y-15476936D01*
X16109877Y-15476936D02*
X16100353Y-15486460D01*
X16100353Y-15486460D02*
X16081306Y-15495984D01*
X16081306Y-15495984D02*
X16052734Y-15495984D01*
X16233687Y-15495984D02*
X16214639Y-15486460D01*
X16214639Y-15486460D02*
X16205115Y-15467412D01*
X16205115Y-15467412D02*
X16205115Y-15295984D01*
X16386068Y-15486460D02*
X16367020Y-15495984D01*
X16367020Y-15495984D02*
X16328925Y-15495984D01*
X16328925Y-15495984D02*
X16309877Y-15486460D01*
X16309877Y-15486460D02*
X16300353Y-15467412D01*
X16300353Y-15467412D02*
X16300353Y-15391222D01*
X16300353Y-15391222D02*
X16309877Y-15372174D01*
X16309877Y-15372174D02*
X16328925Y-15362650D01*
X16328925Y-15362650D02*
X16367020Y-15362650D01*
X16367020Y-15362650D02*
X16386068Y-15372174D01*
X16386068Y-15372174D02*
X16395591Y-15391222D01*
X16395591Y-15391222D02*
X16395591Y-15410269D01*
X16395591Y-15410269D02*
X16300353Y-15429317D01*
X16471782Y-15486460D02*
X16490830Y-15495984D01*
X16490830Y-15495984D02*
X16528925Y-15495984D01*
X16528925Y-15495984D02*
X16547972Y-15486460D01*
X16547972Y-15486460D02*
X16557496Y-15467412D01*
X16557496Y-15467412D02*
X16557496Y-15457888D01*
X16557496Y-15457888D02*
X16547972Y-15438841D01*
X16547972Y-15438841D02*
X16528925Y-15429317D01*
X16528925Y-15429317D02*
X16500353Y-15429317D01*
X16500353Y-15429317D02*
X16481306Y-15419793D01*
X16481306Y-15419793D02*
X16471782Y-15400746D01*
X16471782Y-15400746D02*
X16471782Y-15391222D01*
X16471782Y-15391222D02*
X16481306Y-15372174D01*
X16481306Y-15372174D02*
X16500353Y-15362650D01*
X16500353Y-15362650D02*
X16528925Y-15362650D01*
X16528925Y-15362650D02*
X16547972Y-15372174D01*
X16624163Y-15572174D02*
X16633687Y-15562650D01*
X16633687Y-15562650D02*
X16652734Y-15534079D01*
X16652734Y-15534079D02*
X16662258Y-15515031D01*
X16662258Y-15515031D02*
X16671782Y-15486460D01*
X16671782Y-15486460D02*
X16681306Y-15438841D01*
X16681306Y-15438841D02*
X16681306Y-15400746D01*
X16681306Y-15400746D02*
X16671782Y-15353127D01*
X16671782Y-15353127D02*
X16662258Y-15324555D01*
X16662258Y-15324555D02*
X16652734Y-15305508D01*
X16652734Y-15305508D02*
X16633687Y-15276936D01*
X16633687Y-15276936D02*
X16624163Y-15267412D01*
M02*
