%TF.GenerationSoftware,KiCad,Pcbnew,9.0.2*%
%TF.CreationDate,2025-05-16T17:18:38+02:00*%
%TF.ProjectId,PCB_accueil_STM,5043425f-6163-4637-9565-696c5f53544d,rev?*%
%TF.SameCoordinates,Original*%
%TF.FileFunction,Copper,L2,Bot*%
%TF.FilePolarity,Positive*%
%FSLAX46Y46*%
G04 Gerber Fmt 4.6, Leading zero omitted, Abs format (unit mm)*
G04 Created by KiCad (PCBNEW 9.0.2) date 2025-05-16 17:18:38*
%MOMM*%
%LPD*%
G01*
G04 APERTURE LIST*
G04 Aperture macros list*
%AMRoundRect*
0 Rectangle with rounded corners*
0 $1 Rounding radius*
0 $2 $3 $4 $5 $6 $7 $8 $9 X,Y pos of 4 corners*
0 Add a 4 corners polygon primitive as box body*
4,1,4,$2,$3,$4,$5,$6,$7,$8,$9,$2,$3,0*
0 Add four circle primitives for the rounded corners*
1,1,$1+$1,$2,$3*
1,1,$1+$1,$4,$5*
1,1,$1+$1,$6,$7*
1,1,$1+$1,$8,$9*
0 Add four rect primitives between the rounded corners*
20,1,$1+$1,$2,$3,$4,$5,0*
20,1,$1+$1,$4,$5,$6,$7,0*
20,1,$1+$1,$6,$7,$8,$9,0*
20,1,$1+$1,$8,$9,$2,$3,0*%
G04 Aperture macros list end*
%TA.AperFunction,ComponentPad*%
%ADD10C,1.524000*%
%TD*%
%TA.AperFunction,WasherPad*%
%ADD11C,5.000000*%
%TD*%
%TA.AperFunction,ComponentPad*%
%ADD12R,1.300000X1.300000*%
%TD*%
%TA.AperFunction,ComponentPad*%
%ADD13C,1.300000*%
%TD*%
%TA.AperFunction,ComponentPad*%
%ADD14R,1.879600X1.879600*%
%TD*%
%TA.AperFunction,ComponentPad*%
%ADD15C,1.879600*%
%TD*%
%TA.AperFunction,SMDPad,CuDef*%
%ADD16R,0.760000X6.350000*%
%TD*%
%TA.AperFunction,SMDPad,CuDef*%
%ADD17RoundRect,0.250000X0.650000X-0.325000X0.650000X0.325000X-0.650000X0.325000X-0.650000X-0.325000X0*%
%TD*%
%TA.AperFunction,SMDPad,CuDef*%
%ADD18R,1.000000X1.600000*%
%TD*%
%TA.AperFunction,SMDPad,CuDef*%
%ADD19RoundRect,0.250000X-0.650000X0.325000X-0.650000X-0.325000X0.650000X-0.325000X0.650000X0.325000X0*%
%TD*%
%TA.AperFunction,ViaPad*%
%ADD20C,2.100000*%
%TD*%
%TA.AperFunction,Conductor*%
%ADD21C,0.600000*%
%TD*%
G04 APERTURE END LIST*
D10*
%TO.P,CN7,1,I2C3_SDA/PB11*%
%TO.N,unconnected-(CN7-I2C3_SDA{slash}PB11-Pad1)*%
X123016000Y-70980000D03*
%TO.P,CN7,2,PB2*%
%TO.N,unconnected-(CN7-PB2-Pad2)*%
X125556000Y-70980000D03*
%TO.P,CN7,3,PC5*%
%TO.N,unconnected-(CN7-PC5-Pad3)*%
X123016000Y-73520000D03*
%TO.P,CN7,4,PE4*%
%TO.N,unconnected-(CN7-PE4-Pad4)*%
X125556000Y-73520000D03*
%TO.P,CN7,5,VCC*%
%TO.N,unconnected-(CN7-VCC-Pad5)*%
X123016000Y-76060000D03*
%TO.P,CN7,6,5V_EXT*%
%TO.N,unconnected-(CN7-5V_EXT-Pad6)*%
X125556000Y-76060000D03*
%TO.P,CN7,7,BOOT0*%
%TO.N,unconnected-(CN7-BOOT0-Pad7)*%
X123016000Y-78600000D03*
%TO.P,CN7,8,GND*%
%TO.N,GND*%
X125556000Y-78600000D03*
%TO.P,CN7,9*%
%TO.N,unconnected-(CN7-Pad9)*%
X123016000Y-81140000D03*
%TO.P,CN7,10*%
%TO.N,unconnected-(CN7-Pad10)*%
X125556000Y-81140000D03*
%TO.P,CN7,11*%
%TO.N,unconnected-(CN7-Pad11)*%
X123016000Y-83680000D03*
%TO.P,CN7,12,IOREF*%
%TO.N,unconnected-(CN7-IOREF-Pad12)*%
X125556000Y-83680000D03*
%TO.P,CN7,13,PA13*%
%TO.N,unconnected-(CN7-PA13-Pad13)*%
X123016000Y-86220000D03*
%TO.P,CN7,14,NRST*%
%TO.N,unconnected-(CN7-NRST-Pad14)*%
X125556000Y-86220000D03*
%TO.P,CN7,15,PA14*%
%TO.N,unconnected-(CN7-PA14-Pad15)*%
X123016000Y-88760000D03*
%TO.P,CN7,16,3V3*%
%TO.N,+3V3*%
X125556000Y-88760000D03*
%TO.P,CN7,17*%
%TO.N,unconnected-(CN7-Pad17)*%
X123016000Y-91300000D03*
%TO.P,CN7,18,5V*%
%TO.N,VBAT*%
X125556000Y-91300000D03*
%TO.P,CN7,19,GND*%
%TO.N,unconnected-(CN7-GND-Pad19)*%
X123016000Y-93840000D03*
%TO.P,CN7,20,GND*%
%TO.N,GND2*%
X125556000Y-93840000D03*
%TO.P,CN7,21*%
%TO.N,unconnected-(CN7-Pad21)*%
X123016000Y-96380000D03*
%TO.P,CN7,22*%
%TO.N,unconnected-(CN7-Pad22)*%
X125556000Y-96380000D03*
%TO.P,CN7,23*%
%TO.N,unconnected-(CN7-Pad23)*%
X123016000Y-98920000D03*
%TO.P,CN7,24,VIN*%
%TO.N,unconnected-(CN7-VIN-Pad24)*%
X125556000Y-98920000D03*
%TO.P,CN7,25,PC14*%
%TO.N,unconnected-(CN7-PC14-Pad25)*%
X123016000Y-101460000D03*
%TO.P,CN7,26*%
%TO.N,unconnected-(CN7-Pad26)*%
X125556000Y-101460000D03*
%TO.P,CN7,27,PC15*%
%TO.N,unconnected-(CN7-PC15-Pad27)*%
X123016000Y-104000000D03*
%TO.P,CN7,28,I2C3_SCL/PC0*%
%TO.N,unconnected-(CN7-I2C3_SCL{slash}PC0-Pad28)*%
X125556000Y-104000000D03*
%TO.P,CN7,29,OSC_IN*%
%TO.N,unconnected-(CN7-OSC_IN-Pad29)*%
X123016000Y-106540000D03*
%TO.P,CN7,30,I2C3_SDA/PC1*%
%TO.N,unconnected-(CN7-I2C3_SDA{slash}PC1-Pad30)*%
X125556000Y-106540000D03*
%TO.P,CN7,31,OSC_OUT*%
%TO.N,unconnected-(CN7-OSC_OUT-Pad31)*%
X123016000Y-109080000D03*
%TO.P,CN7,32,PA1*%
%TO.N,unconnected-(CN7-PA1-Pad32)*%
X125556000Y-109080000D03*
%TO.P,CN7,33,VBAT*%
%TO.N,unconnected-(CN7-VBAT-Pad33)*%
X123016000Y-111620000D03*
%TO.P,CN7,34,PA0*%
%TO.N,unconnected-(CN7-PA0-Pad34)*%
X125556000Y-111620000D03*
%TO.P,CN7,35*%
%TO.N,unconnected-(CN7-Pad35)*%
X123016000Y-114160000D03*
%TO.P,CN7,36,PC3*%
%TO.N,unconnected-(CN7-PC3-Pad36)*%
X125556000Y-114160000D03*
%TO.P,CN7,37*%
%TO.N,unconnected-(CN7-Pad37)*%
X123016000Y-116700000D03*
%TO.P,CN7,38,PC2*%
%TO.N,/temoin_connexion_bas*%
X125556000Y-116700000D03*
%TD*%
%TO.P,CN10,1,PC4*%
%TO.N,unconnected-(CN10-PC4-Pad1)*%
X183976000Y-70980000D03*
%TO.P,CN10,2*%
%TO.N,unconnected-(CN10-Pad2)*%
X186516000Y-70980000D03*
%TO.P,CN10,3,I2C1_SCL/PB8*%
%TO.N,/I2C_SCL*%
X183976000Y-73520000D03*
%TO.P,CN10,4,I2C3_SDA/PB4*%
%TO.N,unconnected-(CN10-I2C3_SDA{slash}PB4-Pad4)*%
X186516000Y-73520000D03*
%TO.P,CN10,5,I2C1_SDA/PB9*%
%TO.N,/I2C_SDA*%
X183976000Y-76060000D03*
%TO.P,CN10,6,PB7*%
%TO.N,unconnected-(CN10-PB7-Pad6)*%
X186516000Y-76060000D03*
%TO.P,CN10,7,AVDD*%
%TO.N,unconnected-(CN10-AVDD-Pad7)*%
X183976000Y-78600000D03*
%TO.P,CN10,8,5V_USB*%
%TO.N,unconnected-(CN10-5V_USB-Pad8)*%
X186516000Y-78600000D03*
%TO.P,CN10,9,GND*%
%TO.N,GND3*%
X183976000Y-81140000D03*
%TO.P,CN10,10*%
%TO.N,unconnected-(CN10-Pad10)*%
X186516000Y-81140000D03*
%TO.P,CN10,11,PA5*%
%TO.N,/temoin_connexion_haut*%
X183976000Y-83680000D03*
%TO.P,CN10,12*%
%TO.N,unconnected-(CN10-Pad12)*%
X186516000Y-83680000D03*
%TO.P,CN10,13,PA6*%
%TO.N,/INT_LOW_BAT*%
X183976000Y-86220000D03*
%TO.P,CN10,14*%
%TO.N,unconnected-(CN10-Pad14)*%
X186516000Y-86220000D03*
%TO.P,CN10,15,I2C3_SCL/PA7*%
%TO.N,unconnected-(CN10-I2C3_SCL{slash}PA7-Pad15)*%
X183976000Y-88760000D03*
%TO.P,CN10,16,PB12*%
%TO.N,unconnected-(CN10-PB12-Pad16)*%
X186516000Y-88760000D03*
%TO.P,CN10,17,PA4*%
%TO.N,unconnected-(CN10-PA4-Pad17)*%
X183976000Y-91300000D03*
%TO.P,CN10,18*%
%TO.N,unconnected-(CN10-Pad18)*%
X186516000Y-91300000D03*
%TO.P,CN10,19,I2C1_SCL/PA9*%
%TO.N,unconnected-(CN10-I2C1_SCL{slash}PA9-Pad19)*%
X183976000Y-93840000D03*
%TO.P,CN10,20,GND*%
%TO.N,unconnected-(CN10-GND-Pad20)*%
X186516000Y-93840000D03*
%TO.P,CN10,21,PC12*%
%TO.N,unconnected-(CN10-PC12-Pad21)*%
X183976000Y-96380000D03*
%TO.P,CN10,22,LED2/PB0*%
%TO.N,unconnected-(CN10-LED2{slash}PB0-Pad22)*%
X186516000Y-96380000D03*
%TO.P,CN10,23,PC13*%
%TO.N,unconnected-(CN10-PC13-Pad23)*%
X183976000Y-98920000D03*
%TO.P,CN10,24,LED3/PB1*%
%TO.N,unconnected-(CN10-LED3{slash}PB1-Pad24)*%
X186516000Y-98920000D03*
%TO.P,CN10,25,PA8*%
%TO.N,unconnected-(CN10-PA8-Pad25)*%
X183976000Y-101460000D03*
%TO.P,CN10,26,PB15*%
%TO.N,unconnected-(CN10-PB15-Pad26)*%
X186516000Y-101460000D03*
%TO.P,CN10,27,PA15*%
%TO.N,unconnected-(CN10-PA15-Pad27)*%
X183976000Y-104000000D03*
%TO.P,CN10,28,I2C3_SDA/PB14*%
%TO.N,unconnected-(CN10-I2C3_SDA{slash}PB14-Pad28)*%
X186516000Y-104000000D03*
%TO.P,CN10,29,PC10*%
%TO.N,unconnected-(CN10-PC10-Pad29)*%
X183976000Y-106540000D03*
%TO.P,CN10,30,I2C3_SCL/PB13*%
%TO.N,unconnected-(CN10-I2C3_SCL{slash}PB13-Pad30)*%
X186516000Y-106540000D03*
%TO.P,CN10,31,I2C1_SDA/PA10*%
%TO.N,unconnected-(CN10-I2C1_SDA{slash}PA10-Pad31)*%
X183976000Y-109080000D03*
%TO.P,CN10,32,AGND*%
%TO.N,unconnected-(CN10-AGND-Pad32)*%
X186516000Y-109080000D03*
%TO.P,CN10,33,PC6*%
%TO.N,unconnected-(CN10-PC6-Pad33)*%
X183976000Y-111620000D03*
%TO.P,CN10,34,PB6*%
%TO.N,unconnected-(CN10-PB6-Pad34)*%
X186516000Y-111620000D03*
%TO.P,CN10,35,PA2*%
%TO.N,unconnected-(CN10-PA2-Pad35)*%
X183976000Y-114160000D03*
%TO.P,CN10,36,PD0*%
%TO.N,unconnected-(CN10-PD0-Pad36)*%
X186516000Y-114160000D03*
%TO.P,CN10,37,PA3*%
%TO.N,unconnected-(CN10-PA3-Pad37)*%
X183976000Y-116700000D03*
%TO.P,CN10,38,PD1*%
%TO.N,unconnected-(CN10-PD1-Pad38)*%
X186516000Y-116700000D03*
%TD*%
D11*
%TO.P,1PIN,*%
%TO.N,*%
X126016000Y-132200000D03*
%TD*%
%TO.P,1PIN,*%
%TO.N,*%
X184016000Y-132200000D03*
%TD*%
D12*
%TO.P,S1,1,COM*%
%TO.N,Net-(J3-Pin_7)*%
X156972000Y-131064000D03*
D13*
%TO.P,S1,2,NO*%
%TO.N,Net-(D1-A)*%
X159512000Y-131064000D03*
%TO.P,S1,3,NC*%
%TO.N,unconnected-(S1-NC-Pad3)*%
X154432000Y-131064000D03*
%TD*%
D11*
%TO.P,1PIN,*%
%TO.N,*%
X184016000Y-61200000D03*
%TD*%
D14*
%TO.P,J3,1,Pin_1*%
%TO.N,unconnected-(J3-Pin_1-Pad1)*%
X153212800Y-92798900D03*
D15*
%TO.P,J3,2,Pin_2*%
%TO.N,+3V3*%
X150672800Y-92798900D03*
%TO.P,J3,3,Pin_3*%
%TO.N,/I2C_SDA*%
X148132800Y-92798900D03*
%TO.P,J3,4,Pin_4*%
%TO.N,/I2C_SCL*%
X145592800Y-92798900D03*
%TO.P,J3,5,Pin_5*%
%TO.N,/INT_LOW_BAT*%
X143052800Y-92798900D03*
%TO.P,J3,6,Pin_6*%
%TO.N,unconnected-(J3-Pin_6-Pad6)*%
X140512800Y-92798900D03*
%TO.P,J3,7,Pin_7*%
%TO.N,Net-(J3-Pin_7)*%
X137972800Y-92798900D03*
%TO.P,J3,8,Pin_8*%
%TO.N,GND2*%
X135432800Y-92798900D03*
%TD*%
D11*
%TO.P,1PIN,*%
%TO.N,*%
X126016000Y-61195600D03*
%TD*%
D16*
%TO.P,J2,1*%
%TO.N,+3V3*%
X174711000Y-124635000D03*
%TO.P,J2,2*%
%TO.N,GND2*%
X173441000Y-124635000D03*
%TO.P,J2,3*%
X172171000Y-124635000D03*
%TO.P,J2,4*%
%TO.N,/I2C_SCL*%
X170901000Y-124635000D03*
%TO.P,J2,5*%
%TO.N,/I2C_SDA*%
X169631000Y-124635000D03*
%TO.P,J2,6*%
%TO.N,/temoin_connexion_bas*%
X168361000Y-124635000D03*
%TD*%
D17*
%TO.P,R2,1*%
%TO.N,/temoin_connexion_bas*%
X129500000Y-115475000D03*
%TO.P,R2,2*%
%TO.N,GND2*%
X129500000Y-112525000D03*
%TD*%
D18*
%TO.P,D1,1,K*%
%TO.N,VBAT*%
X129386200Y-91287600D03*
%TO.P,D1,2,A*%
%TO.N,Net-(D1-A)*%
X132386200Y-91287600D03*
%TD*%
D16*
%TO.P,J1,1*%
%TO.N,+3V3*%
X168427400Y-69631340D03*
%TO.P,J1,2*%
X169697400Y-69631340D03*
%TO.P,J1,3*%
%TO.N,GND*%
X170967400Y-69631340D03*
%TO.P,J1,4*%
%TO.N,/I2C_SCL*%
X172237400Y-69631340D03*
%TO.P,J1,5*%
%TO.N,/I2C_SDA*%
X173507400Y-69631340D03*
%TO.P,J1,6*%
%TO.N,/temoin_connexion_haut*%
X174777400Y-69631340D03*
%TD*%
D19*
%TO.P,R1,2*%
%TO.N,GND3*%
X178000000Y-75950000D03*
%TO.P,R1,1*%
%TO.N,/temoin_connexion_haut*%
X178000000Y-73000000D03*
%TD*%
D20*
%TO.N,+3V3*%
X154152600Y-80137000D03*
X177368200Y-121742200D03*
X154508200Y-87143200D03*
%TO.N,/I2C_SDA*%
X170230800Y-119710200D03*
X148158200Y-89154000D03*
%TO.N,Net-(J3-Pin_7)*%
X156962487Y-137161903D03*
X140614400Y-86000200D03*
%TO.N,Net-(D1-A)*%
X159562489Y-137159962D03*
X138963400Y-88595200D03*
%TD*%
D21*
%TO.N,/temoin_connexion_haut*%
X178000000Y-73000000D02*
X178000000Y-71000000D01*
X178000000Y-71000000D02*
X176631340Y-69631340D01*
X176631340Y-69631340D02*
X174777400Y-69631340D01*
%TO.N,GND3*%
X178000000Y-75950000D02*
X178000000Y-77500000D01*
X178000000Y-77500000D02*
X181640000Y-81140000D01*
X181640000Y-81140000D02*
X183976000Y-81140000D01*
%TO.N,/I2C_SCL*%
X182321200Y-65100200D02*
X182321200Y-68461002D01*
X177038000Y-129540000D02*
X170901000Y-129540000D01*
X172237400Y-73888600D02*
X172237400Y-69631340D01*
X170901000Y-129540000D02*
X170901000Y-124635000D01*
X173141765Y-64556340D02*
X181777340Y-64556340D01*
X182321200Y-73520000D02*
X182321200Y-68461002D01*
X164139000Y-81987000D02*
X172237400Y-73888600D01*
X182321200Y-73520000D02*
X183976000Y-73520000D01*
X172237400Y-65460705D02*
X173141765Y-64556340D01*
X172237400Y-69631340D02*
X172237400Y-65460705D01*
X187333002Y-68461002D02*
X188722000Y-69850000D01*
X145618200Y-92786200D02*
X145618200Y-81987000D01*
X181777340Y-64556340D02*
X182321200Y-65100200D01*
X188722000Y-69850000D02*
X188722000Y-117856000D01*
X145618200Y-81987000D02*
X164139000Y-81987000D01*
X188722000Y-117856000D02*
X177038000Y-129540000D01*
X182321200Y-68461002D02*
X187333002Y-68461002D01*
%TO.N,GND*%
X170967400Y-65746340D02*
X170877400Y-65656340D01*
X170877400Y-65656340D02*
X164975660Y-65656340D01*
X170967400Y-69631340D02*
X170967400Y-65746340D01*
X164975660Y-65656340D02*
X152032000Y-78600000D01*
X125556000Y-78600000D02*
X152032000Y-78600000D01*
%TO.N,/temoin_connexion_bas*%
X168361000Y-116700000D02*
X150876000Y-116700000D01*
X129500000Y-116700000D02*
X125556000Y-116700000D01*
X150876000Y-116700000D02*
X129500000Y-116700000D01*
X168361000Y-124635000D02*
X168361000Y-116700000D01*
X129500000Y-115475000D02*
X129500000Y-116700000D01*
%TO.N,+3V3*%
X168427400Y-69631340D02*
X169697400Y-69631340D01*
X168465500Y-74256900D02*
X168427400Y-74218800D01*
X168465500Y-74256900D02*
X169697400Y-74256900D01*
X174711000Y-124399400D02*
X177368200Y-121742200D01*
X154508200Y-87143200D02*
X150672800Y-90978600D01*
X163398200Y-80137000D02*
X168465500Y-75069700D01*
X168465500Y-75069700D02*
X168465500Y-74256900D01*
X154152600Y-80137000D02*
X163398200Y-80137000D01*
X140487400Y-80137000D02*
X131864400Y-88760000D01*
X168427400Y-74218800D02*
X168427400Y-69631340D01*
X154152600Y-80137000D02*
X140487400Y-80137000D01*
X174711000Y-124635000D02*
X174711000Y-124399400D01*
X131864400Y-88760000D02*
X125556000Y-88760000D01*
X150672800Y-90978600D02*
X150672800Y-92798900D01*
X169697400Y-74256900D02*
X169697400Y-69631340D01*
%TO.N,/I2C_SDA*%
X181221200Y-66362400D02*
X181221200Y-76060000D01*
X173507400Y-69631340D02*
X173507400Y-65746340D01*
X173507400Y-65746340D02*
X173597400Y-65656340D01*
X148158200Y-86664800D02*
X149529800Y-85293200D01*
X181221200Y-76060000D02*
X183976000Y-76060000D01*
X173507400Y-75412600D02*
X173507400Y-69631340D01*
X173597400Y-65656340D02*
X180515140Y-65656340D01*
X163626800Y-85293200D02*
X173507400Y-75412600D01*
X180515140Y-65656340D02*
X181221200Y-66362400D01*
X169631000Y-120310000D02*
X170230800Y-119710200D01*
X148158200Y-92786200D02*
X148158200Y-86664800D01*
X169631000Y-124635000D02*
X169631000Y-120310000D01*
X149529800Y-85293200D02*
X163626800Y-85293200D01*
%TO.N,GND3*%
X183836000Y-81280000D02*
X183976000Y-81140000D01*
%TO.N,/INT_LOW_BAT*%
X147167600Y-96875600D02*
X171094400Y-96875600D01*
X171094400Y-96875600D02*
X181750000Y-86220000D01*
X143078200Y-92786200D02*
X147167600Y-96875600D01*
X181750000Y-86220000D02*
X183976000Y-86220000D01*
%TO.N,Net-(J3-Pin_7)*%
X156972000Y-137152390D02*
X156972000Y-131064000D01*
X156962487Y-137161903D02*
X156972000Y-137152390D01*
X141249400Y-88925496D02*
X139729696Y-90445200D01*
X138332600Y-90445200D02*
X137972800Y-90805000D01*
X140614400Y-86000200D02*
X141249400Y-86635200D01*
X141249400Y-86635200D02*
X141249400Y-88925496D01*
X139729696Y-90445200D02*
X138332600Y-90445200D01*
X137972800Y-90805000D02*
X137972800Y-92798900D01*
%TO.N,GND2*%
X172171000Y-111015634D02*
X172171000Y-119232500D01*
X134404400Y-93840000D02*
X135458200Y-92786200D01*
X173441000Y-124635000D02*
X173441000Y-119232500D01*
X171899366Y-110744000D02*
X172171000Y-111015634D01*
X149960000Y-110744000D02*
X171899366Y-110744000D01*
X172171000Y-124635000D02*
X172171000Y-119232500D01*
X135458200Y-96242200D02*
X149960000Y-110744000D01*
X172171000Y-119232500D02*
X173441000Y-119232500D01*
X129500000Y-112525000D02*
X129500000Y-93840000D01*
X125556000Y-93840000D02*
X129500000Y-93840000D01*
X172171000Y-124635000D02*
X173441000Y-124635000D01*
X135458200Y-92786200D02*
X135458200Y-96242200D01*
X129500000Y-93840000D02*
X134404400Y-93840000D01*
%TO.N,VBAT*%
X125568400Y-91287600D02*
X125556000Y-91300000D01*
X129386200Y-91287600D02*
X125568400Y-91287600D01*
%TO.N,Net-(D1-A)*%
X135078600Y-88595200D02*
X138963400Y-88595200D01*
X159562800Y-137159651D02*
X159562800Y-131114800D01*
X159562489Y-137159962D02*
X159562800Y-137159651D01*
X159562800Y-131114800D02*
X159512000Y-131064000D01*
X132386200Y-91287600D02*
X135078600Y-88595200D01*
%TO.N,/temoin_connexion_haut*%
X175416400Y-78083600D02*
X181012800Y-83680000D01*
X174777400Y-69631340D02*
X174777400Y-77444600D01*
X181012800Y-83680000D02*
X183976000Y-83680000D01*
X175832800Y-78500000D02*
X175416400Y-78083600D01*
X174777400Y-77444600D02*
X175416400Y-78083600D01*
%TD*%
M02*
