%TF.GenerationSoftware,KiCad,Pcbnew,9.0.2*%
%TF.CreationDate,2025-05-16T17:18:38+02:00*%
%TF.ProjectId,PCB_accueil_STM,5043425f-6163-4637-9565-696c5f53544d,rev?*%
%TF.SameCoordinates,Original*%
%TF.FileFunction,Legend,Top*%
%TF.FilePolarity,Positive*%
%FSLAX46Y46*%
G04 Gerber Fmt 4.6, Leading zero omitted, Abs format (unit mm)*
G04 Created by KiCad (PCBNEW 9.0.2) date 2025-05-16 17:18:38*
%MOMM*%
%LPD*%
G01*
G04 APERTURE LIST*
%ADD10C,0.100000*%
%ADD11C,0.200000*%
%ADD12C,0.152400*%
%ADD13C,0.300000*%
%ADD14C,0.150000*%
%ADD15C,0.171450*%
%ADD16C,0.133350*%
%ADD17C,0.381000*%
%ADD18C,0.254000*%
G04 APERTURE END LIST*
D10*
X173736000Y-122428000D02*
X171704000Y-122428000D01*
X172720000Y-120904000D01*
X173736000Y-122428000D01*
G36*
X173736000Y-122428000D02*
G01*
X171704000Y-122428000D01*
X172720000Y-120904000D01*
X173736000Y-122428000D01*
G37*
X173228000Y-126492000D02*
X183896000Y-126492000D01*
X183896000Y-127508000D01*
X172212000Y-127508000D01*
X172212000Y-122428000D01*
X173228000Y-122428000D01*
X173228000Y-126492000D01*
G36*
X173228000Y-126492000D02*
G01*
X183896000Y-126492000D01*
X183896000Y-127508000D01*
X172212000Y-127508000D01*
X172212000Y-122428000D01*
X173228000Y-122428000D01*
X173228000Y-126492000D01*
G37*
X133858000Y-76200000D02*
X136906000Y-76200000D01*
X140716000Y-127000000D02*
X136652000Y-127000000D01*
X138684000Y-124968000D01*
X140716000Y-127000000D01*
G36*
X140716000Y-127000000D02*
G01*
X136652000Y-127000000D01*
X138684000Y-124968000D01*
X140716000Y-127000000D01*
G37*
X136906000Y-74676000D02*
X134874000Y-74676000D01*
X135382000Y-76708000D02*
X133858000Y-76708000D01*
X133096000Y-72136000D02*
X129032000Y-72136000D01*
X131064000Y-70104000D01*
X133096000Y-72136000D01*
G36*
X133096000Y-72136000D02*
G01*
X129032000Y-72136000D01*
X131064000Y-70104000D01*
X133096000Y-72136000D01*
G37*
X139192000Y-132740400D02*
X129286000Y-132740400D01*
X129286000Y-131597400D01*
X138176000Y-131597400D01*
X138176000Y-127000000D01*
X139192000Y-127000000D01*
X139192000Y-132740400D01*
G36*
X139192000Y-132740400D02*
G01*
X129286000Y-132740400D01*
X129286000Y-131597400D01*
X138176000Y-131597400D01*
X138176000Y-127000000D01*
X139192000Y-127000000D01*
X139192000Y-132740400D01*
G37*
X147396200Y-131038600D02*
X140538200Y-131013200D01*
X140538200Y-129997200D01*
X146380200Y-130022600D01*
X146380200Y-126466600D01*
X147396200Y-126466600D01*
X147396200Y-131038600D01*
G36*
X147396200Y-131038600D02*
G01*
X140538200Y-131013200D01*
X140538200Y-129997200D01*
X146380200Y-130022600D01*
X146380200Y-126466600D01*
X147396200Y-126466600D01*
X147396200Y-131038600D01*
G37*
X133858000Y-76708000D02*
X133858000Y-76200000D01*
X147904200Y-126466600D02*
X145872200Y-126466600D01*
X146888200Y-124942600D01*
X147904200Y-126466600D01*
G36*
X147904200Y-126466600D02*
G01*
X145872200Y-126466600D01*
X146888200Y-124942600D01*
X147904200Y-126466600D01*
G37*
X137922000Y-75692000D02*
G75*
G02*
X132842000Y-75692000I-2540000J0D01*
G01*
X132842000Y-75692000D02*
G75*
G02*
X137922000Y-75692000I2540000J0D01*
G01*
X136906000Y-75692000D02*
X133858000Y-75692000D01*
X136906000Y-76200000D02*
X136906000Y-75692000D01*
X133858000Y-75692000D02*
X133858000Y-75184000D01*
X133858000Y-75184000D02*
X136906000Y-75184000D01*
X135382000Y-78232000D02*
X135382000Y-76708000D01*
X136906000Y-75184000D02*
X136906000Y-74676000D01*
X131826000Y-79756000D02*
X130302000Y-79756000D01*
X130302000Y-72136000D01*
X131826000Y-72136000D01*
X131826000Y-79756000D01*
G36*
X131826000Y-79756000D02*
G01*
X130302000Y-79756000D01*
X130302000Y-72136000D01*
X131826000Y-72136000D01*
X131826000Y-79756000D01*
G37*
D11*
X174105673Y-125679331D02*
X174105673Y-124679331D01*
X174105673Y-124679331D02*
X174439006Y-125393616D01*
X174439006Y-125393616D02*
X174772339Y-124679331D01*
X174772339Y-124679331D02*
X174772339Y-125679331D01*
X175248530Y-125679331D02*
X175248530Y-125012664D01*
X175248530Y-124679331D02*
X175200911Y-124726950D01*
X175200911Y-124726950D02*
X175248530Y-124774569D01*
X175248530Y-124774569D02*
X175296149Y-124726950D01*
X175296149Y-124726950D02*
X175248530Y-124679331D01*
X175248530Y-124679331D02*
X175248530Y-124774569D01*
X176153291Y-125631712D02*
X176058053Y-125679331D01*
X176058053Y-125679331D02*
X175867577Y-125679331D01*
X175867577Y-125679331D02*
X175772339Y-125631712D01*
X175772339Y-125631712D02*
X175724720Y-125584092D01*
X175724720Y-125584092D02*
X175677101Y-125488854D01*
X175677101Y-125488854D02*
X175677101Y-125203140D01*
X175677101Y-125203140D02*
X175724720Y-125107902D01*
X175724720Y-125107902D02*
X175772339Y-125060283D01*
X175772339Y-125060283D02*
X175867577Y-125012664D01*
X175867577Y-125012664D02*
X176058053Y-125012664D01*
X176058053Y-125012664D02*
X176153291Y-125060283D01*
X176581863Y-125679331D02*
X176581863Y-125012664D01*
X176581863Y-125203140D02*
X176629482Y-125107902D01*
X176629482Y-125107902D02*
X176677101Y-125060283D01*
X176677101Y-125060283D02*
X176772339Y-125012664D01*
X176772339Y-125012664D02*
X176867577Y-125012664D01*
X177343768Y-125679331D02*
X177248530Y-125631712D01*
X177248530Y-125631712D02*
X177200911Y-125584092D01*
X177200911Y-125584092D02*
X177153292Y-125488854D01*
X177153292Y-125488854D02*
X177153292Y-125203140D01*
X177153292Y-125203140D02*
X177200911Y-125107902D01*
X177200911Y-125107902D02*
X177248530Y-125060283D01*
X177248530Y-125060283D02*
X177343768Y-125012664D01*
X177343768Y-125012664D02*
X177486625Y-125012664D01*
X177486625Y-125012664D02*
X177581863Y-125060283D01*
X177581863Y-125060283D02*
X177629482Y-125107902D01*
X177629482Y-125107902D02*
X177677101Y-125203140D01*
X177677101Y-125203140D02*
X177677101Y-125488854D01*
X177677101Y-125488854D02*
X177629482Y-125584092D01*
X177629482Y-125584092D02*
X177581863Y-125631712D01*
X177581863Y-125631712D02*
X177486625Y-125679331D01*
X177486625Y-125679331D02*
X177343768Y-125679331D01*
X178105673Y-125298378D02*
X178867578Y-125298378D01*
X179343768Y-124679331D02*
X179343768Y-125488854D01*
X179343768Y-125488854D02*
X179391387Y-125584092D01*
X179391387Y-125584092D02*
X179439006Y-125631712D01*
X179439006Y-125631712D02*
X179534244Y-125679331D01*
X179534244Y-125679331D02*
X179724720Y-125679331D01*
X179724720Y-125679331D02*
X179819958Y-125631712D01*
X179819958Y-125631712D02*
X179867577Y-125584092D01*
X179867577Y-125584092D02*
X179915196Y-125488854D01*
X179915196Y-125488854D02*
X179915196Y-124679331D01*
X180343768Y-125631712D02*
X180486625Y-125679331D01*
X180486625Y-125679331D02*
X180724720Y-125679331D01*
X180724720Y-125679331D02*
X180819958Y-125631712D01*
X180819958Y-125631712D02*
X180867577Y-125584092D01*
X180867577Y-125584092D02*
X180915196Y-125488854D01*
X180915196Y-125488854D02*
X180915196Y-125393616D01*
X180915196Y-125393616D02*
X180867577Y-125298378D01*
X180867577Y-125298378D02*
X180819958Y-125250759D01*
X180819958Y-125250759D02*
X180724720Y-125203140D01*
X180724720Y-125203140D02*
X180534244Y-125155521D01*
X180534244Y-125155521D02*
X180439006Y-125107902D01*
X180439006Y-125107902D02*
X180391387Y-125060283D01*
X180391387Y-125060283D02*
X180343768Y-124965045D01*
X180343768Y-124965045D02*
X180343768Y-124869807D01*
X180343768Y-124869807D02*
X180391387Y-124774569D01*
X180391387Y-124774569D02*
X180439006Y-124726950D01*
X180439006Y-124726950D02*
X180534244Y-124679331D01*
X180534244Y-124679331D02*
X180772339Y-124679331D01*
X180772339Y-124679331D02*
X180915196Y-124726950D01*
X181677101Y-125155521D02*
X181819958Y-125203140D01*
X181819958Y-125203140D02*
X181867577Y-125250759D01*
X181867577Y-125250759D02*
X181915196Y-125345997D01*
X181915196Y-125345997D02*
X181915196Y-125488854D01*
X181915196Y-125488854D02*
X181867577Y-125584092D01*
X181867577Y-125584092D02*
X181819958Y-125631712D01*
X181819958Y-125631712D02*
X181724720Y-125679331D01*
X181724720Y-125679331D02*
X181343768Y-125679331D01*
X181343768Y-125679331D02*
X181343768Y-124679331D01*
X181343768Y-124679331D02*
X181677101Y-124679331D01*
X181677101Y-124679331D02*
X181772339Y-124726950D01*
X181772339Y-124726950D02*
X181819958Y-124774569D01*
X181819958Y-124774569D02*
X181867577Y-124869807D01*
X181867577Y-124869807D02*
X181867577Y-124965045D01*
X181867577Y-124965045D02*
X181819958Y-125060283D01*
X181819958Y-125060283D02*
X181772339Y-125107902D01*
X181772339Y-125107902D02*
X181677101Y-125155521D01*
X181677101Y-125155521D02*
X181343768Y-125155521D01*
X174105673Y-128899219D02*
X174105673Y-127899219D01*
X174105673Y-127899219D02*
X174486625Y-127899219D01*
X174486625Y-127899219D02*
X174581863Y-127946838D01*
X174581863Y-127946838D02*
X174629482Y-127994457D01*
X174629482Y-127994457D02*
X174677101Y-128089695D01*
X174677101Y-128089695D02*
X174677101Y-128232552D01*
X174677101Y-128232552D02*
X174629482Y-128327790D01*
X174629482Y-128327790D02*
X174581863Y-128375409D01*
X174581863Y-128375409D02*
X174486625Y-128423028D01*
X174486625Y-128423028D02*
X174105673Y-128423028D01*
X175105673Y-128899219D02*
X175105673Y-128232552D01*
X175105673Y-128423028D02*
X175153292Y-128327790D01*
X175153292Y-128327790D02*
X175200911Y-128280171D01*
X175200911Y-128280171D02*
X175296149Y-128232552D01*
X175296149Y-128232552D02*
X175391387Y-128232552D01*
X175867578Y-128899219D02*
X175772340Y-128851600D01*
X175772340Y-128851600D02*
X175724721Y-128803980D01*
X175724721Y-128803980D02*
X175677102Y-128708742D01*
X175677102Y-128708742D02*
X175677102Y-128423028D01*
X175677102Y-128423028D02*
X175724721Y-128327790D01*
X175724721Y-128327790D02*
X175772340Y-128280171D01*
X175772340Y-128280171D02*
X175867578Y-128232552D01*
X175867578Y-128232552D02*
X176010435Y-128232552D01*
X176010435Y-128232552D02*
X176105673Y-128280171D01*
X176105673Y-128280171D02*
X176153292Y-128327790D01*
X176153292Y-128327790D02*
X176200911Y-128423028D01*
X176200911Y-128423028D02*
X176200911Y-128708742D01*
X176200911Y-128708742D02*
X176153292Y-128803980D01*
X176153292Y-128803980D02*
X176105673Y-128851600D01*
X176105673Y-128851600D02*
X176010435Y-128899219D01*
X176010435Y-128899219D02*
X175867578Y-128899219D01*
X177058054Y-128232552D02*
X177058054Y-129042076D01*
X177058054Y-129042076D02*
X177010435Y-129137314D01*
X177010435Y-129137314D02*
X176962816Y-129184933D01*
X176962816Y-129184933D02*
X176867578Y-129232552D01*
X176867578Y-129232552D02*
X176724721Y-129232552D01*
X176724721Y-129232552D02*
X176629483Y-129184933D01*
X177058054Y-128851600D02*
X176962816Y-128899219D01*
X176962816Y-128899219D02*
X176772340Y-128899219D01*
X176772340Y-128899219D02*
X176677102Y-128851600D01*
X176677102Y-128851600D02*
X176629483Y-128803980D01*
X176629483Y-128803980D02*
X176581864Y-128708742D01*
X176581864Y-128708742D02*
X176581864Y-128423028D01*
X176581864Y-128423028D02*
X176629483Y-128327790D01*
X176629483Y-128327790D02*
X176677102Y-128280171D01*
X176677102Y-128280171D02*
X176772340Y-128232552D01*
X176772340Y-128232552D02*
X176962816Y-128232552D01*
X176962816Y-128232552D02*
X177058054Y-128280171D01*
X177534245Y-128899219D02*
X177534245Y-128232552D01*
X177534245Y-128423028D02*
X177581864Y-128327790D01*
X177581864Y-128327790D02*
X177629483Y-128280171D01*
X177629483Y-128280171D02*
X177724721Y-128232552D01*
X177724721Y-128232552D02*
X177819959Y-128232552D01*
X178581864Y-128899219D02*
X178581864Y-128375409D01*
X178581864Y-128375409D02*
X178534245Y-128280171D01*
X178534245Y-128280171D02*
X178439007Y-128232552D01*
X178439007Y-128232552D02*
X178248531Y-128232552D01*
X178248531Y-128232552D02*
X178153293Y-128280171D01*
X178581864Y-128851600D02*
X178486626Y-128899219D01*
X178486626Y-128899219D02*
X178248531Y-128899219D01*
X178248531Y-128899219D02*
X178153293Y-128851600D01*
X178153293Y-128851600D02*
X178105674Y-128756361D01*
X178105674Y-128756361D02*
X178105674Y-128661123D01*
X178105674Y-128661123D02*
X178153293Y-128565885D01*
X178153293Y-128565885D02*
X178248531Y-128518266D01*
X178248531Y-128518266D02*
X178486626Y-128518266D01*
X178486626Y-128518266D02*
X178581864Y-128470647D01*
X179058055Y-128899219D02*
X179058055Y-128232552D01*
X179058055Y-128327790D02*
X179105674Y-128280171D01*
X179105674Y-128280171D02*
X179200912Y-128232552D01*
X179200912Y-128232552D02*
X179343769Y-128232552D01*
X179343769Y-128232552D02*
X179439007Y-128280171D01*
X179439007Y-128280171D02*
X179486626Y-128375409D01*
X179486626Y-128375409D02*
X179486626Y-128899219D01*
X179486626Y-128375409D02*
X179534245Y-128280171D01*
X179534245Y-128280171D02*
X179629483Y-128232552D01*
X179629483Y-128232552D02*
X179772340Y-128232552D01*
X179772340Y-128232552D02*
X179867579Y-128280171D01*
X179867579Y-128280171D02*
X179915198Y-128375409D01*
X179915198Y-128375409D02*
X179915198Y-128899219D01*
X180391388Y-128899219D02*
X180391388Y-128232552D01*
X180391388Y-128327790D02*
X180439007Y-128280171D01*
X180439007Y-128280171D02*
X180534245Y-128232552D01*
X180534245Y-128232552D02*
X180677102Y-128232552D01*
X180677102Y-128232552D02*
X180772340Y-128280171D01*
X180772340Y-128280171D02*
X180819959Y-128375409D01*
X180819959Y-128375409D02*
X180819959Y-128899219D01*
X180819959Y-128375409D02*
X180867578Y-128280171D01*
X180867578Y-128280171D02*
X180962816Y-128232552D01*
X180962816Y-128232552D02*
X181105673Y-128232552D01*
X181105673Y-128232552D02*
X181200912Y-128280171D01*
X181200912Y-128280171D02*
X181248531Y-128375409D01*
X181248531Y-128375409D02*
X181248531Y-128899219D01*
X182153292Y-128899219D02*
X182153292Y-128375409D01*
X182153292Y-128375409D02*
X182105673Y-128280171D01*
X182105673Y-128280171D02*
X182010435Y-128232552D01*
X182010435Y-128232552D02*
X181819959Y-128232552D01*
X181819959Y-128232552D02*
X181724721Y-128280171D01*
X182153292Y-128851600D02*
X182058054Y-128899219D01*
X182058054Y-128899219D02*
X181819959Y-128899219D01*
X181819959Y-128899219D02*
X181724721Y-128851600D01*
X181724721Y-128851600D02*
X181677102Y-128756361D01*
X181677102Y-128756361D02*
X181677102Y-128661123D01*
X181677102Y-128661123D02*
X181724721Y-128565885D01*
X181724721Y-128565885D02*
X181819959Y-128518266D01*
X181819959Y-128518266D02*
X182058054Y-128518266D01*
X182058054Y-128518266D02*
X182153292Y-128470647D01*
X182486626Y-128232552D02*
X182867578Y-128232552D01*
X182629483Y-127899219D02*
X182629483Y-128756361D01*
X182629483Y-128756361D02*
X182677102Y-128851600D01*
X182677102Y-128851600D02*
X182772340Y-128899219D01*
X182772340Y-128899219D02*
X182867578Y-128899219D01*
X183200912Y-128899219D02*
X183200912Y-128232552D01*
X183200912Y-127899219D02*
X183153293Y-127946838D01*
X183153293Y-127946838D02*
X183200912Y-127994457D01*
X183200912Y-127994457D02*
X183248531Y-127946838D01*
X183248531Y-127946838D02*
X183200912Y-127899219D01*
X183200912Y-127899219D02*
X183200912Y-127994457D01*
X183819959Y-128899219D02*
X183724721Y-128851600D01*
X183724721Y-128851600D02*
X183677102Y-128803980D01*
X183677102Y-128803980D02*
X183629483Y-128708742D01*
X183629483Y-128708742D02*
X183629483Y-128423028D01*
X183629483Y-128423028D02*
X183677102Y-128327790D01*
X183677102Y-128327790D02*
X183724721Y-128280171D01*
X183724721Y-128280171D02*
X183819959Y-128232552D01*
X183819959Y-128232552D02*
X183962816Y-128232552D01*
X183962816Y-128232552D02*
X184058054Y-128280171D01*
X184058054Y-128280171D02*
X184105673Y-128327790D01*
X184105673Y-128327790D02*
X184153292Y-128423028D01*
X184153292Y-128423028D02*
X184153292Y-128708742D01*
X184153292Y-128708742D02*
X184105673Y-128803980D01*
X184105673Y-128803980D02*
X184058054Y-128851600D01*
X184058054Y-128851600D02*
X183962816Y-128899219D01*
X183962816Y-128899219D02*
X183819959Y-128899219D01*
X184581864Y-128232552D02*
X184581864Y-128899219D01*
X184581864Y-128327790D02*
X184629483Y-128280171D01*
X184629483Y-128280171D02*
X184724721Y-128232552D01*
X184724721Y-128232552D02*
X184867578Y-128232552D01*
X184867578Y-128232552D02*
X184962816Y-128280171D01*
X184962816Y-128280171D02*
X185010435Y-128375409D01*
X185010435Y-128375409D02*
X185010435Y-128899219D01*
X140688816Y-128159131D02*
X141260244Y-128159131D01*
X140974530Y-129159131D02*
X140974530Y-128159131D01*
X141974530Y-129111512D02*
X141879292Y-129159131D01*
X141879292Y-129159131D02*
X141688816Y-129159131D01*
X141688816Y-129159131D02*
X141593578Y-129111512D01*
X141593578Y-129111512D02*
X141545959Y-129016273D01*
X141545959Y-129016273D02*
X141545959Y-128635321D01*
X141545959Y-128635321D02*
X141593578Y-128540083D01*
X141593578Y-128540083D02*
X141688816Y-128492464D01*
X141688816Y-128492464D02*
X141879292Y-128492464D01*
X141879292Y-128492464D02*
X141974530Y-128540083D01*
X141974530Y-128540083D02*
X142022149Y-128635321D01*
X142022149Y-128635321D02*
X142022149Y-128730559D01*
X142022149Y-128730559D02*
X141545959Y-128825797D01*
X141879292Y-128111512D02*
X141736435Y-128254369D01*
X142450721Y-129159131D02*
X142450721Y-128492464D01*
X142450721Y-128587702D02*
X142498340Y-128540083D01*
X142498340Y-128540083D02*
X142593578Y-128492464D01*
X142593578Y-128492464D02*
X142736435Y-128492464D01*
X142736435Y-128492464D02*
X142831673Y-128540083D01*
X142831673Y-128540083D02*
X142879292Y-128635321D01*
X142879292Y-128635321D02*
X142879292Y-129159131D01*
X142879292Y-128635321D02*
X142926911Y-128540083D01*
X142926911Y-128540083D02*
X143022149Y-128492464D01*
X143022149Y-128492464D02*
X143165006Y-128492464D01*
X143165006Y-128492464D02*
X143260245Y-128540083D01*
X143260245Y-128540083D02*
X143307864Y-128635321D01*
X143307864Y-128635321D02*
X143307864Y-129159131D01*
X143926911Y-129159131D02*
X143831673Y-129111512D01*
X143831673Y-129111512D02*
X143784054Y-129063892D01*
X143784054Y-129063892D02*
X143736435Y-128968654D01*
X143736435Y-128968654D02*
X143736435Y-128682940D01*
X143736435Y-128682940D02*
X143784054Y-128587702D01*
X143784054Y-128587702D02*
X143831673Y-128540083D01*
X143831673Y-128540083D02*
X143926911Y-128492464D01*
X143926911Y-128492464D02*
X144069768Y-128492464D01*
X144069768Y-128492464D02*
X144165006Y-128540083D01*
X144165006Y-128540083D02*
X144212625Y-128587702D01*
X144212625Y-128587702D02*
X144260244Y-128682940D01*
X144260244Y-128682940D02*
X144260244Y-128968654D01*
X144260244Y-128968654D02*
X144212625Y-129063892D01*
X144212625Y-129063892D02*
X144165006Y-129111512D01*
X144165006Y-129111512D02*
X144069768Y-129159131D01*
X144069768Y-129159131D02*
X143926911Y-129159131D01*
X144688816Y-129159131D02*
X144688816Y-128492464D01*
X144688816Y-128159131D02*
X144641197Y-128206750D01*
X144641197Y-128206750D02*
X144688816Y-128254369D01*
X144688816Y-128254369D02*
X144736435Y-128206750D01*
X144736435Y-128206750D02*
X144688816Y-128159131D01*
X144688816Y-128159131D02*
X144688816Y-128254369D01*
X145165006Y-128492464D02*
X145165006Y-129159131D01*
X145165006Y-128587702D02*
X145212625Y-128540083D01*
X145212625Y-128540083D02*
X145307863Y-128492464D01*
X145307863Y-128492464D02*
X145450720Y-128492464D01*
X145450720Y-128492464D02*
X145545958Y-128540083D01*
X145545958Y-128540083D02*
X145593577Y-128635321D01*
X145593577Y-128635321D02*
X145593577Y-129159131D01*
X141403101Y-132379019D02*
X141069768Y-131902828D01*
X140831673Y-132379019D02*
X140831673Y-131379019D01*
X140831673Y-131379019D02*
X141212625Y-131379019D01*
X141212625Y-131379019D02*
X141307863Y-131426638D01*
X141307863Y-131426638D02*
X141355482Y-131474257D01*
X141355482Y-131474257D02*
X141403101Y-131569495D01*
X141403101Y-131569495D02*
X141403101Y-131712352D01*
X141403101Y-131712352D02*
X141355482Y-131807590D01*
X141355482Y-131807590D02*
X141307863Y-131855209D01*
X141307863Y-131855209D02*
X141212625Y-131902828D01*
X141212625Y-131902828D02*
X140831673Y-131902828D01*
X142212625Y-132331400D02*
X142117387Y-132379019D01*
X142117387Y-132379019D02*
X141926911Y-132379019D01*
X141926911Y-132379019D02*
X141831673Y-132331400D01*
X141831673Y-132331400D02*
X141784054Y-132236161D01*
X141784054Y-132236161D02*
X141784054Y-131855209D01*
X141784054Y-131855209D02*
X141831673Y-131759971D01*
X141831673Y-131759971D02*
X141926911Y-131712352D01*
X141926911Y-131712352D02*
X142117387Y-131712352D01*
X142117387Y-131712352D02*
X142212625Y-131759971D01*
X142212625Y-131759971D02*
X142260244Y-131855209D01*
X142260244Y-131855209D02*
X142260244Y-131950447D01*
X142260244Y-131950447D02*
X141784054Y-132045685D01*
X143117387Y-132331400D02*
X143022149Y-132379019D01*
X143022149Y-132379019D02*
X142831673Y-132379019D01*
X142831673Y-132379019D02*
X142736435Y-132331400D01*
X142736435Y-132331400D02*
X142688816Y-132283780D01*
X142688816Y-132283780D02*
X142641197Y-132188542D01*
X142641197Y-132188542D02*
X142641197Y-131902828D01*
X142641197Y-131902828D02*
X142688816Y-131807590D01*
X142688816Y-131807590D02*
X142736435Y-131759971D01*
X142736435Y-131759971D02*
X142831673Y-131712352D01*
X142831673Y-131712352D02*
X143022149Y-131712352D01*
X143022149Y-131712352D02*
X143117387Y-131759971D01*
X143545959Y-132379019D02*
X143545959Y-131379019D01*
X143974530Y-132379019D02*
X143974530Y-131855209D01*
X143974530Y-131855209D02*
X143926911Y-131759971D01*
X143926911Y-131759971D02*
X143831673Y-131712352D01*
X143831673Y-131712352D02*
X143688816Y-131712352D01*
X143688816Y-131712352D02*
X143593578Y-131759971D01*
X143593578Y-131759971D02*
X143545959Y-131807590D01*
X144879292Y-132379019D02*
X144879292Y-131855209D01*
X144879292Y-131855209D02*
X144831673Y-131759971D01*
X144831673Y-131759971D02*
X144736435Y-131712352D01*
X144736435Y-131712352D02*
X144545959Y-131712352D01*
X144545959Y-131712352D02*
X144450721Y-131759971D01*
X144879292Y-132331400D02*
X144784054Y-132379019D01*
X144784054Y-132379019D02*
X144545959Y-132379019D01*
X144545959Y-132379019D02*
X144450721Y-132331400D01*
X144450721Y-132331400D02*
X144403102Y-132236161D01*
X144403102Y-132236161D02*
X144403102Y-132140923D01*
X144403102Y-132140923D02*
X144450721Y-132045685D01*
X144450721Y-132045685D02*
X144545959Y-131998066D01*
X144545959Y-131998066D02*
X144784054Y-131998066D01*
X144784054Y-131998066D02*
X144879292Y-131950447D01*
X145355483Y-132379019D02*
X145355483Y-131712352D01*
X145355483Y-131902828D02*
X145403102Y-131807590D01*
X145403102Y-131807590D02*
X145450721Y-131759971D01*
X145450721Y-131759971D02*
X145545959Y-131712352D01*
X145545959Y-131712352D02*
X145641197Y-131712352D01*
X146403102Y-131712352D02*
X146403102Y-132521876D01*
X146403102Y-132521876D02*
X146355483Y-132617114D01*
X146355483Y-132617114D02*
X146307864Y-132664733D01*
X146307864Y-132664733D02*
X146212626Y-132712352D01*
X146212626Y-132712352D02*
X146069769Y-132712352D01*
X146069769Y-132712352D02*
X145974531Y-132664733D01*
X146403102Y-132331400D02*
X146307864Y-132379019D01*
X146307864Y-132379019D02*
X146117388Y-132379019D01*
X146117388Y-132379019D02*
X146022150Y-132331400D01*
X146022150Y-132331400D02*
X145974531Y-132283780D01*
X145974531Y-132283780D02*
X145926912Y-132188542D01*
X145926912Y-132188542D02*
X145926912Y-131902828D01*
X145926912Y-131902828D02*
X145974531Y-131807590D01*
X145974531Y-131807590D02*
X146022150Y-131759971D01*
X146022150Y-131759971D02*
X146117388Y-131712352D01*
X146117388Y-131712352D02*
X146307864Y-131712352D01*
X146307864Y-131712352D02*
X146403102Y-131759971D01*
X147260245Y-132331400D02*
X147165007Y-132379019D01*
X147165007Y-132379019D02*
X146974531Y-132379019D01*
X146974531Y-132379019D02*
X146879293Y-132331400D01*
X146879293Y-132331400D02*
X146831674Y-132236161D01*
X146831674Y-132236161D02*
X146831674Y-131855209D01*
X146831674Y-131855209D02*
X146879293Y-131759971D01*
X146879293Y-131759971D02*
X146974531Y-131712352D01*
X146974531Y-131712352D02*
X147165007Y-131712352D01*
X147165007Y-131712352D02*
X147260245Y-131759971D01*
X147260245Y-131759971D02*
X147307864Y-131855209D01*
X147307864Y-131855209D02*
X147307864Y-131950447D01*
X147307864Y-131950447D02*
X146831674Y-132045685D01*
D12*
X143430882Y-94978243D02*
X143472006Y-94895996D01*
X143472006Y-94895996D02*
X143472006Y-94772624D01*
X143472006Y-94772624D02*
X143430882Y-94649253D01*
X143430882Y-94649253D02*
X143348634Y-94567005D01*
X143348634Y-94567005D02*
X143266387Y-94525882D01*
X143266387Y-94525882D02*
X143101891Y-94484758D01*
X143101891Y-94484758D02*
X142978520Y-94484758D01*
X142978520Y-94484758D02*
X142814025Y-94525882D01*
X142814025Y-94525882D02*
X142731777Y-94567005D01*
X142731777Y-94567005D02*
X142649530Y-94649253D01*
X142649530Y-94649253D02*
X142608406Y-94772624D01*
X142608406Y-94772624D02*
X142608406Y-94854872D01*
X142608406Y-94854872D02*
X142649530Y-94978243D01*
X142649530Y-94978243D02*
X142690653Y-95019367D01*
X142690653Y-95019367D02*
X142978520Y-95019367D01*
X142978520Y-95019367D02*
X142978520Y-94854872D01*
X142608406Y-95389482D02*
X143472006Y-95389482D01*
X143472006Y-95389482D02*
X143472006Y-95718472D01*
X143472006Y-95718472D02*
X143430882Y-95800720D01*
X143430882Y-95800720D02*
X143389758Y-95841843D01*
X143389758Y-95841843D02*
X143307510Y-95882967D01*
X143307510Y-95882967D02*
X143184139Y-95882967D01*
X143184139Y-95882967D02*
X143101891Y-95841843D01*
X143101891Y-95841843D02*
X143060768Y-95800720D01*
X143060768Y-95800720D02*
X143019644Y-95718472D01*
X143019644Y-95718472D02*
X143019644Y-95389482D01*
X143472006Y-96417577D02*
X143472006Y-96582072D01*
X143472006Y-96582072D02*
X143430882Y-96664320D01*
X143430882Y-96664320D02*
X143348634Y-96746567D01*
X143348634Y-96746567D02*
X143184139Y-96787691D01*
X143184139Y-96787691D02*
X142896272Y-96787691D01*
X142896272Y-96787691D02*
X142731777Y-96746567D01*
X142731777Y-96746567D02*
X142649530Y-96664320D01*
X142649530Y-96664320D02*
X142608406Y-96582072D01*
X142608406Y-96582072D02*
X142608406Y-96417577D01*
X142608406Y-96417577D02*
X142649530Y-96335329D01*
X142649530Y-96335329D02*
X142731777Y-96253082D01*
X142731777Y-96253082D02*
X142896272Y-96211958D01*
X142896272Y-96211958D02*
X143184139Y-96211958D01*
X143184139Y-96211958D02*
X143348634Y-96253082D01*
X143348634Y-96253082D02*
X143430882Y-96335329D01*
X143430882Y-96335329D02*
X143472006Y-96417577D01*
X143472006Y-97157806D02*
X142772901Y-97157806D01*
X142772901Y-97157806D02*
X142690653Y-97198929D01*
X142690653Y-97198929D02*
X142649530Y-97240053D01*
X142649530Y-97240053D02*
X142608406Y-97322301D01*
X142608406Y-97322301D02*
X142608406Y-97486796D01*
X142608406Y-97486796D02*
X142649530Y-97569044D01*
X142649530Y-97569044D02*
X142690653Y-97610167D01*
X142690653Y-97610167D02*
X142772901Y-97651291D01*
X142772901Y-97651291D02*
X143472006Y-97651291D01*
X143472006Y-97939158D02*
X143472006Y-98432644D01*
X142608406Y-98185901D02*
X143472006Y-98185901D01*
D11*
X129980235Y-129777623D02*
X129384997Y-129777623D01*
X129384997Y-129777623D02*
X129325473Y-130372861D01*
X129325473Y-130372861D02*
X129384997Y-130313338D01*
X129384997Y-130313338D02*
X129504044Y-130253814D01*
X129504044Y-130253814D02*
X129801663Y-130253814D01*
X129801663Y-130253814D02*
X129920711Y-130313338D01*
X129920711Y-130313338D02*
X129980235Y-130372861D01*
X129980235Y-130372861D02*
X130039758Y-130491909D01*
X130039758Y-130491909D02*
X130039758Y-130789528D01*
X130039758Y-130789528D02*
X129980235Y-130908576D01*
X129980235Y-130908576D02*
X129920711Y-130968100D01*
X129920711Y-130968100D02*
X129801663Y-131027623D01*
X129801663Y-131027623D02*
X129504044Y-131027623D01*
X129504044Y-131027623D02*
X129384997Y-130968100D01*
X129384997Y-130968100D02*
X129325473Y-130908576D01*
X130396901Y-129777623D02*
X130813568Y-131027623D01*
X130813568Y-131027623D02*
X131230234Y-129777623D01*
X132539759Y-129718100D02*
X131468330Y-131325242D01*
X133611187Y-131027623D02*
X132896902Y-131027623D01*
X133254045Y-131027623D02*
X133254045Y-129777623D01*
X133254045Y-129777623D02*
X133134997Y-129956195D01*
X133134997Y-129956195D02*
X133015949Y-130075242D01*
X133015949Y-130075242D02*
X132896902Y-130134766D01*
X134146902Y-130908576D02*
X134206425Y-130968100D01*
X134206425Y-130968100D02*
X134146902Y-131027623D01*
X134146902Y-131027623D02*
X134087378Y-130968100D01*
X134087378Y-130968100D02*
X134146902Y-130908576D01*
X134146902Y-130908576D02*
X134146902Y-131027623D01*
X135337378Y-129777623D02*
X134742140Y-129777623D01*
X134742140Y-129777623D02*
X134682616Y-130372861D01*
X134682616Y-130372861D02*
X134742140Y-130313338D01*
X134742140Y-130313338D02*
X134861187Y-130253814D01*
X134861187Y-130253814D02*
X135158806Y-130253814D01*
X135158806Y-130253814D02*
X135277854Y-130313338D01*
X135277854Y-130313338D02*
X135337378Y-130372861D01*
X135337378Y-130372861D02*
X135396901Y-130491909D01*
X135396901Y-130491909D02*
X135396901Y-130789528D01*
X135396901Y-130789528D02*
X135337378Y-130908576D01*
X135337378Y-130908576D02*
X135277854Y-130968100D01*
X135277854Y-130968100D02*
X135158806Y-131027623D01*
X135158806Y-131027623D02*
X134861187Y-131027623D01*
X134861187Y-131027623D02*
X134742140Y-130968100D01*
X134742140Y-130968100D02*
X134682616Y-130908576D01*
X135873092Y-130670480D02*
X136468330Y-130670480D01*
X135754044Y-131027623D02*
X136170711Y-129777623D01*
X136170711Y-129777623D02*
X136587377Y-131027623D01*
D13*
X150914510Y-132867638D02*
X151295463Y-132867638D01*
X151295463Y-132867638D02*
X151485939Y-132962876D01*
X151485939Y-132962876D02*
X151676415Y-133153352D01*
X151676415Y-133153352D02*
X151771653Y-133534304D01*
X151771653Y-133534304D02*
X151771653Y-134200971D01*
X151771653Y-134200971D02*
X151676415Y-134581923D01*
X151676415Y-134581923D02*
X151485939Y-134772400D01*
X151485939Y-134772400D02*
X151295463Y-134867638D01*
X151295463Y-134867638D02*
X150914510Y-134867638D01*
X150914510Y-134867638D02*
X150724034Y-134772400D01*
X150724034Y-134772400D02*
X150533558Y-134581923D01*
X150533558Y-134581923D02*
X150438320Y-134200971D01*
X150438320Y-134200971D02*
X150438320Y-133534304D01*
X150438320Y-133534304D02*
X150533558Y-133153352D01*
X150533558Y-133153352D02*
X150724034Y-132962876D01*
X150724034Y-132962876D02*
X150914510Y-132867638D01*
X153295463Y-133820019D02*
X152628796Y-133820019D01*
X152628796Y-134867638D02*
X152628796Y-132867638D01*
X152628796Y-132867638D02*
X153581177Y-132867638D01*
X155009749Y-133820019D02*
X154343082Y-133820019D01*
X154343082Y-134867638D02*
X154343082Y-132867638D01*
X154343082Y-132867638D02*
X155295463Y-132867638D01*
X130367453Y-134672912D02*
X129867453Y-133958626D01*
X129510310Y-134672912D02*
X129510310Y-133172912D01*
X129510310Y-133172912D02*
X130081739Y-133172912D01*
X130081739Y-133172912D02*
X130224596Y-133244341D01*
X130224596Y-133244341D02*
X130296025Y-133315769D01*
X130296025Y-133315769D02*
X130367453Y-133458626D01*
X130367453Y-133458626D02*
X130367453Y-133672912D01*
X130367453Y-133672912D02*
X130296025Y-133815769D01*
X130296025Y-133815769D02*
X130224596Y-133887198D01*
X130224596Y-133887198D02*
X130081739Y-133958626D01*
X130081739Y-133958626D02*
X129510310Y-133958626D01*
X131581739Y-134601484D02*
X131438882Y-134672912D01*
X131438882Y-134672912D02*
X131153168Y-134672912D01*
X131153168Y-134672912D02*
X131010310Y-134601484D01*
X131010310Y-134601484D02*
X130938882Y-134458626D01*
X130938882Y-134458626D02*
X130938882Y-133887198D01*
X130938882Y-133887198D02*
X131010310Y-133744341D01*
X131010310Y-133744341D02*
X131153168Y-133672912D01*
X131153168Y-133672912D02*
X131438882Y-133672912D01*
X131438882Y-133672912D02*
X131581739Y-133744341D01*
X131581739Y-133744341D02*
X131653168Y-133887198D01*
X131653168Y-133887198D02*
X131653168Y-134030055D01*
X131653168Y-134030055D02*
X130938882Y-134172912D01*
X132938882Y-134601484D02*
X132796024Y-134672912D01*
X132796024Y-134672912D02*
X132510310Y-134672912D01*
X132510310Y-134672912D02*
X132367453Y-134601484D01*
X132367453Y-134601484D02*
X132296024Y-134530055D01*
X132296024Y-134530055D02*
X132224596Y-134387198D01*
X132224596Y-134387198D02*
X132224596Y-133958626D01*
X132224596Y-133958626D02*
X132296024Y-133815769D01*
X132296024Y-133815769D02*
X132367453Y-133744341D01*
X132367453Y-133744341D02*
X132510310Y-133672912D01*
X132510310Y-133672912D02*
X132796024Y-133672912D01*
X132796024Y-133672912D02*
X132938882Y-133744341D01*
X133581738Y-134672912D02*
X133581738Y-133172912D01*
X134224596Y-134672912D02*
X134224596Y-133887198D01*
X134224596Y-133887198D02*
X134153167Y-133744341D01*
X134153167Y-133744341D02*
X134010310Y-133672912D01*
X134010310Y-133672912D02*
X133796024Y-133672912D01*
X133796024Y-133672912D02*
X133653167Y-133744341D01*
X133653167Y-133744341D02*
X133581738Y-133815769D01*
X135581739Y-134672912D02*
X135581739Y-133887198D01*
X135581739Y-133887198D02*
X135510310Y-133744341D01*
X135510310Y-133744341D02*
X135367453Y-133672912D01*
X135367453Y-133672912D02*
X135081739Y-133672912D01*
X135081739Y-133672912D02*
X134938881Y-133744341D01*
X135581739Y-134601484D02*
X135438881Y-134672912D01*
X135438881Y-134672912D02*
X135081739Y-134672912D01*
X135081739Y-134672912D02*
X134938881Y-134601484D01*
X134938881Y-134601484D02*
X134867453Y-134458626D01*
X134867453Y-134458626D02*
X134867453Y-134315769D01*
X134867453Y-134315769D02*
X134938881Y-134172912D01*
X134938881Y-134172912D02*
X135081739Y-134101484D01*
X135081739Y-134101484D02*
X135438881Y-134101484D01*
X135438881Y-134101484D02*
X135581739Y-134030055D01*
X136296024Y-134672912D02*
X136296024Y-133672912D01*
X136296024Y-133958626D02*
X136367453Y-133815769D01*
X136367453Y-133815769D02*
X136438882Y-133744341D01*
X136438882Y-133744341D02*
X136581739Y-133672912D01*
X136581739Y-133672912D02*
X136724596Y-133672912D01*
X137867453Y-133672912D02*
X137867453Y-134887198D01*
X137867453Y-134887198D02*
X137796024Y-135030055D01*
X137796024Y-135030055D02*
X137724595Y-135101484D01*
X137724595Y-135101484D02*
X137581738Y-135172912D01*
X137581738Y-135172912D02*
X137367453Y-135172912D01*
X137367453Y-135172912D02*
X137224595Y-135101484D01*
X137867453Y-134601484D02*
X137724595Y-134672912D01*
X137724595Y-134672912D02*
X137438881Y-134672912D01*
X137438881Y-134672912D02*
X137296024Y-134601484D01*
X137296024Y-134601484D02*
X137224595Y-134530055D01*
X137224595Y-134530055D02*
X137153167Y-134387198D01*
X137153167Y-134387198D02*
X137153167Y-133958626D01*
X137153167Y-133958626D02*
X137224595Y-133815769D01*
X137224595Y-133815769D02*
X137296024Y-133744341D01*
X137296024Y-133744341D02*
X137438881Y-133672912D01*
X137438881Y-133672912D02*
X137724595Y-133672912D01*
X137724595Y-133672912D02*
X137867453Y-133744341D01*
X139153167Y-134601484D02*
X139010310Y-134672912D01*
X139010310Y-134672912D02*
X138724596Y-134672912D01*
X138724596Y-134672912D02*
X138581738Y-134601484D01*
X138581738Y-134601484D02*
X138510310Y-134458626D01*
X138510310Y-134458626D02*
X138510310Y-133887198D01*
X138510310Y-133887198D02*
X138581738Y-133744341D01*
X138581738Y-133744341D02*
X138724596Y-133672912D01*
X138724596Y-133672912D02*
X139010310Y-133672912D01*
X139010310Y-133672912D02*
X139153167Y-133744341D01*
X139153167Y-133744341D02*
X139224596Y-133887198D01*
X139224596Y-133887198D02*
X139224596Y-134030055D01*
X139224596Y-134030055D02*
X138510310Y-134172912D01*
X130010310Y-136302114D02*
X130224596Y-136373542D01*
X130224596Y-136373542D02*
X130296025Y-136444971D01*
X130296025Y-136444971D02*
X130367453Y-136587828D01*
X130367453Y-136587828D02*
X130367453Y-136802114D01*
X130367453Y-136802114D02*
X130296025Y-136944971D01*
X130296025Y-136944971D02*
X130224596Y-137016400D01*
X130224596Y-137016400D02*
X130081739Y-137087828D01*
X130081739Y-137087828D02*
X129510310Y-137087828D01*
X129510310Y-137087828D02*
X129510310Y-135587828D01*
X129510310Y-135587828D02*
X130010310Y-135587828D01*
X130010310Y-135587828D02*
X130153168Y-135659257D01*
X130153168Y-135659257D02*
X130224596Y-135730685D01*
X130224596Y-135730685D02*
X130296025Y-135873542D01*
X130296025Y-135873542D02*
X130296025Y-136016400D01*
X130296025Y-136016400D02*
X130224596Y-136159257D01*
X130224596Y-136159257D02*
X130153168Y-136230685D01*
X130153168Y-136230685D02*
X130010310Y-136302114D01*
X130010310Y-136302114D02*
X129510310Y-136302114D01*
X131653168Y-137087828D02*
X131653168Y-136302114D01*
X131653168Y-136302114D02*
X131581739Y-136159257D01*
X131581739Y-136159257D02*
X131438882Y-136087828D01*
X131438882Y-136087828D02*
X131153168Y-136087828D01*
X131153168Y-136087828D02*
X131010310Y-136159257D01*
X131653168Y-137016400D02*
X131510310Y-137087828D01*
X131510310Y-137087828D02*
X131153168Y-137087828D01*
X131153168Y-137087828D02*
X131010310Y-137016400D01*
X131010310Y-137016400D02*
X130938882Y-136873542D01*
X130938882Y-136873542D02*
X130938882Y-136730685D01*
X130938882Y-136730685D02*
X131010310Y-136587828D01*
X131010310Y-136587828D02*
X131153168Y-136516400D01*
X131153168Y-136516400D02*
X131510310Y-136516400D01*
X131510310Y-136516400D02*
X131653168Y-136444971D01*
X132153168Y-136087828D02*
X132724596Y-136087828D01*
X132367453Y-135587828D02*
X132367453Y-136873542D01*
X132367453Y-136873542D02*
X132438882Y-137016400D01*
X132438882Y-137016400D02*
X132581739Y-137087828D01*
X132581739Y-137087828D02*
X132724596Y-137087828D01*
X133010311Y-136087828D02*
X133581739Y-136087828D01*
X133224596Y-135587828D02*
X133224596Y-136873542D01*
X133224596Y-136873542D02*
X133296025Y-137016400D01*
X133296025Y-137016400D02*
X133438882Y-137087828D01*
X133438882Y-137087828D02*
X133581739Y-137087828D01*
X134653168Y-137016400D02*
X134510311Y-137087828D01*
X134510311Y-137087828D02*
X134224597Y-137087828D01*
X134224597Y-137087828D02*
X134081739Y-137016400D01*
X134081739Y-137016400D02*
X134010311Y-136873542D01*
X134010311Y-136873542D02*
X134010311Y-136302114D01*
X134010311Y-136302114D02*
X134081739Y-136159257D01*
X134081739Y-136159257D02*
X134224597Y-136087828D01*
X134224597Y-136087828D02*
X134510311Y-136087828D01*
X134510311Y-136087828D02*
X134653168Y-136159257D01*
X134653168Y-136159257D02*
X134724597Y-136302114D01*
X134724597Y-136302114D02*
X134724597Y-136444971D01*
X134724597Y-136444971D02*
X134010311Y-136587828D01*
X135367453Y-137087828D02*
X135367453Y-136087828D01*
X135367453Y-136373542D02*
X135438882Y-136230685D01*
X135438882Y-136230685D02*
X135510311Y-136159257D01*
X135510311Y-136159257D02*
X135653168Y-136087828D01*
X135653168Y-136087828D02*
X135796025Y-136087828D01*
X136296024Y-137087828D02*
X136296024Y-136087828D01*
X136296024Y-135587828D02*
X136224596Y-135659257D01*
X136224596Y-135659257D02*
X136296024Y-135730685D01*
X136296024Y-135730685D02*
X136367453Y-135659257D01*
X136367453Y-135659257D02*
X136296024Y-135587828D01*
X136296024Y-135587828D02*
X136296024Y-135730685D01*
X137581739Y-137016400D02*
X137438882Y-137087828D01*
X137438882Y-137087828D02*
X137153168Y-137087828D01*
X137153168Y-137087828D02*
X137010310Y-137016400D01*
X137010310Y-137016400D02*
X136938882Y-136873542D01*
X136938882Y-136873542D02*
X136938882Y-136302114D01*
X136938882Y-136302114D02*
X137010310Y-136159257D01*
X137010310Y-136159257D02*
X137153168Y-136087828D01*
X137153168Y-136087828D02*
X137438882Y-136087828D01*
X137438882Y-136087828D02*
X137581739Y-136159257D01*
X137581739Y-136159257D02*
X137653168Y-136302114D01*
X137653168Y-136302114D02*
X137653168Y-136444971D01*
X137653168Y-136444971D02*
X136938882Y-136587828D01*
D10*
X138225884Y-74135850D02*
X138225884Y-72835850D01*
X138225884Y-72835850D02*
X138606836Y-72835850D01*
X138606836Y-72835850D02*
X138702074Y-72897755D01*
X138702074Y-72897755D02*
X138749693Y-72959660D01*
X138749693Y-72959660D02*
X138797312Y-73083469D01*
X138797312Y-73083469D02*
X138797312Y-73269184D01*
X138797312Y-73269184D02*
X138749693Y-73392993D01*
X138749693Y-73392993D02*
X138702074Y-73454898D01*
X138702074Y-73454898D02*
X138606836Y-73516803D01*
X138606836Y-73516803D02*
X138225884Y-73516803D01*
X139225884Y-73640612D02*
X139987789Y-73640612D01*
X140463979Y-74135850D02*
X140463979Y-72835850D01*
X140463979Y-72835850D02*
X141035407Y-74135850D01*
X141035407Y-74135850D02*
X141035407Y-72835850D01*
X141511598Y-72835850D02*
X141511598Y-73888231D01*
X141511598Y-73888231D02*
X141559217Y-74012041D01*
X141559217Y-74012041D02*
X141606836Y-74073946D01*
X141606836Y-74073946D02*
X141702074Y-74135850D01*
X141702074Y-74135850D02*
X141892550Y-74135850D01*
X141892550Y-74135850D02*
X141987788Y-74073946D01*
X141987788Y-74073946D02*
X142035407Y-74012041D01*
X142035407Y-74012041D02*
X142083026Y-73888231D01*
X142083026Y-73888231D02*
X142083026Y-72835850D01*
X143130645Y-74012041D02*
X143083026Y-74073946D01*
X143083026Y-74073946D02*
X142940169Y-74135850D01*
X142940169Y-74135850D02*
X142844931Y-74135850D01*
X142844931Y-74135850D02*
X142702074Y-74073946D01*
X142702074Y-74073946D02*
X142606836Y-73950136D01*
X142606836Y-73950136D02*
X142559217Y-73826326D01*
X142559217Y-73826326D02*
X142511598Y-73578707D01*
X142511598Y-73578707D02*
X142511598Y-73392993D01*
X142511598Y-73392993D02*
X142559217Y-73145374D01*
X142559217Y-73145374D02*
X142606836Y-73021565D01*
X142606836Y-73021565D02*
X142702074Y-72897755D01*
X142702074Y-72897755D02*
X142844931Y-72835850D01*
X142844931Y-72835850D02*
X142940169Y-72835850D01*
X142940169Y-72835850D02*
X143083026Y-72897755D01*
X143083026Y-72897755D02*
X143130645Y-72959660D01*
X144035407Y-74135850D02*
X143559217Y-74135850D01*
X143559217Y-74135850D02*
X143559217Y-72835850D01*
X144368741Y-73454898D02*
X144702074Y-73454898D01*
X144844931Y-74135850D02*
X144368741Y-74135850D01*
X144368741Y-74135850D02*
X144368741Y-72835850D01*
X144368741Y-72835850D02*
X144844931Y-72835850D01*
X145463979Y-72835850D02*
X145654455Y-72835850D01*
X145654455Y-72835850D02*
X145749693Y-72897755D01*
X145749693Y-72897755D02*
X145844931Y-73021565D01*
X145844931Y-73021565D02*
X145892550Y-73269184D01*
X145892550Y-73269184D02*
X145892550Y-73702517D01*
X145892550Y-73702517D02*
X145844931Y-73950136D01*
X145844931Y-73950136D02*
X145749693Y-74073946D01*
X145749693Y-74073946D02*
X145654455Y-74135850D01*
X145654455Y-74135850D02*
X145463979Y-74135850D01*
X145463979Y-74135850D02*
X145368741Y-74073946D01*
X145368741Y-74073946D02*
X145273503Y-73950136D01*
X145273503Y-73950136D02*
X145225884Y-73702517D01*
X145225884Y-73702517D02*
X145225884Y-73269184D01*
X145225884Y-73269184D02*
X145273503Y-73021565D01*
X145273503Y-73021565D02*
X145368741Y-72897755D01*
X145368741Y-72897755D02*
X145463979Y-72835850D01*
X146321122Y-73640612D02*
X147083027Y-73640612D01*
X147463979Y-72835850D02*
X147702074Y-74135850D01*
X147702074Y-74135850D02*
X147892550Y-73207279D01*
X147892550Y-73207279D02*
X148083026Y-74135850D01*
X148083026Y-74135850D02*
X148321122Y-72835850D01*
X149035407Y-73454898D02*
X149178264Y-73516803D01*
X149178264Y-73516803D02*
X149225883Y-73578707D01*
X149225883Y-73578707D02*
X149273502Y-73702517D01*
X149273502Y-73702517D02*
X149273502Y-73888231D01*
X149273502Y-73888231D02*
X149225883Y-74012041D01*
X149225883Y-74012041D02*
X149178264Y-74073946D01*
X149178264Y-74073946D02*
X149083026Y-74135850D01*
X149083026Y-74135850D02*
X148702074Y-74135850D01*
X148702074Y-74135850D02*
X148702074Y-72835850D01*
X148702074Y-72835850D02*
X149035407Y-72835850D01*
X149035407Y-72835850D02*
X149130645Y-72897755D01*
X149130645Y-72897755D02*
X149178264Y-72959660D01*
X149178264Y-72959660D02*
X149225883Y-73083469D01*
X149225883Y-73083469D02*
X149225883Y-73207279D01*
X149225883Y-73207279D02*
X149178264Y-73331088D01*
X149178264Y-73331088D02*
X149130645Y-73392993D01*
X149130645Y-73392993D02*
X149035407Y-73454898D01*
X149035407Y-73454898D02*
X148702074Y-73454898D01*
X150178264Y-72835850D02*
X149702074Y-72835850D01*
X149702074Y-72835850D02*
X149654455Y-73454898D01*
X149654455Y-73454898D02*
X149702074Y-73392993D01*
X149702074Y-73392993D02*
X149797312Y-73331088D01*
X149797312Y-73331088D02*
X150035407Y-73331088D01*
X150035407Y-73331088D02*
X150130645Y-73392993D01*
X150130645Y-73392993D02*
X150178264Y-73454898D01*
X150178264Y-73454898D02*
X150225883Y-73578707D01*
X150225883Y-73578707D02*
X150225883Y-73888231D01*
X150225883Y-73888231D02*
X150178264Y-74012041D01*
X150178264Y-74012041D02*
X150130645Y-74073946D01*
X150130645Y-74073946D02*
X150035407Y-74135850D01*
X150035407Y-74135850D02*
X149797312Y-74135850D01*
X149797312Y-74135850D02*
X149702074Y-74073946D01*
X149702074Y-74073946D02*
X149654455Y-74012041D01*
X151130645Y-72835850D02*
X150654455Y-72835850D01*
X150654455Y-72835850D02*
X150606836Y-73454898D01*
X150606836Y-73454898D02*
X150654455Y-73392993D01*
X150654455Y-73392993D02*
X150749693Y-73331088D01*
X150749693Y-73331088D02*
X150987788Y-73331088D01*
X150987788Y-73331088D02*
X151083026Y-73392993D01*
X151083026Y-73392993D02*
X151130645Y-73454898D01*
X151130645Y-73454898D02*
X151178264Y-73578707D01*
X151178264Y-73578707D02*
X151178264Y-73888231D01*
X151178264Y-73888231D02*
X151130645Y-74012041D01*
X151130645Y-74012041D02*
X151083026Y-74073946D01*
X151083026Y-74073946D02*
X150987788Y-74135850D01*
X150987788Y-74135850D02*
X150749693Y-74135850D01*
X150749693Y-74135850D02*
X150654455Y-74073946D01*
X150654455Y-74073946D02*
X150606836Y-74012041D01*
X139416360Y-76228777D02*
X139416360Y-75547825D01*
X139416360Y-75547825D02*
X139368741Y-75424015D01*
X139368741Y-75424015D02*
X139273503Y-75362111D01*
X139273503Y-75362111D02*
X139083027Y-75362111D01*
X139083027Y-75362111D02*
X138987789Y-75424015D01*
X139416360Y-76166873D02*
X139321122Y-76228777D01*
X139321122Y-76228777D02*
X139083027Y-76228777D01*
X139083027Y-76228777D02*
X138987789Y-76166873D01*
X138987789Y-76166873D02*
X138940170Y-76043063D01*
X138940170Y-76043063D02*
X138940170Y-75919253D01*
X138940170Y-75919253D02*
X138987789Y-75795444D01*
X138987789Y-75795444D02*
X139083027Y-75733539D01*
X139083027Y-75733539D02*
X139321122Y-75733539D01*
X139321122Y-75733539D02*
X139416360Y-75671634D01*
X139797313Y-75362111D02*
X140035408Y-76228777D01*
X140035408Y-76228777D02*
X140273503Y-75362111D01*
X141035408Y-76166873D02*
X140940170Y-76228777D01*
X140940170Y-76228777D02*
X140749694Y-76228777D01*
X140749694Y-76228777D02*
X140654456Y-76166873D01*
X140654456Y-76166873D02*
X140606837Y-76043063D01*
X140606837Y-76043063D02*
X140606837Y-75547825D01*
X140606837Y-75547825D02*
X140654456Y-75424015D01*
X140654456Y-75424015D02*
X140749694Y-75362111D01*
X140749694Y-75362111D02*
X140940170Y-75362111D01*
X140940170Y-75362111D02*
X141035408Y-75424015D01*
X141035408Y-75424015D02*
X141083027Y-75547825D01*
X141083027Y-75547825D02*
X141083027Y-75671634D01*
X141083027Y-75671634D02*
X140606837Y-75795444D01*
X141940170Y-76166873D02*
X141844932Y-76228777D01*
X141844932Y-76228777D02*
X141654456Y-76228777D01*
X141654456Y-76228777D02*
X141559218Y-76166873D01*
X141559218Y-76166873D02*
X141511599Y-76104968D01*
X141511599Y-76104968D02*
X141463980Y-75981158D01*
X141463980Y-75981158D02*
X141463980Y-75609730D01*
X141463980Y-75609730D02*
X141511599Y-75485920D01*
X141511599Y-75485920D02*
X141559218Y-75424015D01*
X141559218Y-75424015D02*
X141654456Y-75362111D01*
X141654456Y-75362111D02*
X141844932Y-75362111D01*
X141844932Y-75362111D02*
X141940170Y-75424015D01*
X143559218Y-76228777D02*
X143559218Y-75547825D01*
X143559218Y-75547825D02*
X143511599Y-75424015D01*
X143511599Y-75424015D02*
X143416361Y-75362111D01*
X143416361Y-75362111D02*
X143225885Y-75362111D01*
X143225885Y-75362111D02*
X143130647Y-75424015D01*
X143559218Y-76166873D02*
X143463980Y-76228777D01*
X143463980Y-76228777D02*
X143225885Y-76228777D01*
X143225885Y-76228777D02*
X143130647Y-76166873D01*
X143130647Y-76166873D02*
X143083028Y-76043063D01*
X143083028Y-76043063D02*
X143083028Y-75919253D01*
X143083028Y-75919253D02*
X143130647Y-75795444D01*
X143130647Y-75795444D02*
X143225885Y-75733539D01*
X143225885Y-75733539D02*
X143463980Y-75733539D01*
X143463980Y-75733539D02*
X143559218Y-75671634D01*
X144035409Y-75362111D02*
X144035409Y-76228777D01*
X144035409Y-75485920D02*
X144083028Y-75424015D01*
X144083028Y-75424015D02*
X144178266Y-75362111D01*
X144178266Y-75362111D02*
X144321123Y-75362111D01*
X144321123Y-75362111D02*
X144416361Y-75424015D01*
X144416361Y-75424015D02*
X144463980Y-75547825D01*
X144463980Y-75547825D02*
X144463980Y-76228777D01*
X144797314Y-75362111D02*
X145178266Y-75362111D01*
X144940171Y-74928777D02*
X144940171Y-76043063D01*
X144940171Y-76043063D02*
X144987790Y-76166873D01*
X144987790Y-76166873D02*
X145083028Y-76228777D01*
X145083028Y-76228777D02*
X145178266Y-76228777D01*
X145892552Y-76166873D02*
X145797314Y-76228777D01*
X145797314Y-76228777D02*
X145606838Y-76228777D01*
X145606838Y-76228777D02*
X145511600Y-76166873D01*
X145511600Y-76166873D02*
X145463981Y-76043063D01*
X145463981Y-76043063D02*
X145463981Y-75547825D01*
X145463981Y-75547825D02*
X145511600Y-75424015D01*
X145511600Y-75424015D02*
X145606838Y-75362111D01*
X145606838Y-75362111D02*
X145797314Y-75362111D01*
X145797314Y-75362111D02*
X145892552Y-75424015D01*
X145892552Y-75424015D02*
X145940171Y-75547825D01*
X145940171Y-75547825D02*
X145940171Y-75671634D01*
X145940171Y-75671634D02*
X145463981Y-75795444D01*
X146368743Y-75362111D02*
X146368743Y-76228777D01*
X146368743Y-75485920D02*
X146416362Y-75424015D01*
X146416362Y-75424015D02*
X146511600Y-75362111D01*
X146511600Y-75362111D02*
X146654457Y-75362111D01*
X146654457Y-75362111D02*
X146749695Y-75424015D01*
X146749695Y-75424015D02*
X146797314Y-75547825D01*
X146797314Y-75547825D02*
X146797314Y-76228777D01*
X147273505Y-75362111D02*
X147273505Y-76228777D01*
X147273505Y-75485920D02*
X147321124Y-75424015D01*
X147321124Y-75424015D02*
X147416362Y-75362111D01*
X147416362Y-75362111D02*
X147559219Y-75362111D01*
X147559219Y-75362111D02*
X147654457Y-75424015D01*
X147654457Y-75424015D02*
X147702076Y-75547825D01*
X147702076Y-75547825D02*
X147702076Y-76228777D01*
X148559219Y-76166873D02*
X148463981Y-76228777D01*
X148463981Y-76228777D02*
X148273505Y-76228777D01*
X148273505Y-76228777D02*
X148178267Y-76166873D01*
X148178267Y-76166873D02*
X148130648Y-76043063D01*
X148130648Y-76043063D02*
X148130648Y-75547825D01*
X148130648Y-75547825D02*
X148178267Y-75424015D01*
X148178267Y-75424015D02*
X148273505Y-75362111D01*
X148273505Y-75362111D02*
X148463981Y-75362111D01*
X148463981Y-75362111D02*
X148559219Y-75424015D01*
X148559219Y-75424015D02*
X148606838Y-75547825D01*
X148606838Y-75547825D02*
X148606838Y-75671634D01*
X148606838Y-75671634D02*
X148130648Y-75795444D01*
X138654455Y-78321704D02*
X138654455Y-77021704D01*
X138654455Y-78259800D02*
X138559217Y-78321704D01*
X138559217Y-78321704D02*
X138368741Y-78321704D01*
X138368741Y-78321704D02*
X138273503Y-78259800D01*
X138273503Y-78259800D02*
X138225884Y-78197895D01*
X138225884Y-78197895D02*
X138178265Y-78074085D01*
X138178265Y-78074085D02*
X138178265Y-77702657D01*
X138178265Y-77702657D02*
X138225884Y-77578847D01*
X138225884Y-77578847D02*
X138273503Y-77516942D01*
X138273503Y-77516942D02*
X138368741Y-77455038D01*
X138368741Y-77455038D02*
X138559217Y-77455038D01*
X138559217Y-77455038D02*
X138654455Y-77516942D01*
X139511598Y-78259800D02*
X139416360Y-78321704D01*
X139416360Y-78321704D02*
X139225884Y-78321704D01*
X139225884Y-78321704D02*
X139130646Y-78259800D01*
X139130646Y-78259800D02*
X139083027Y-78135990D01*
X139083027Y-78135990D02*
X139083027Y-77640752D01*
X139083027Y-77640752D02*
X139130646Y-77516942D01*
X139130646Y-77516942D02*
X139225884Y-77455038D01*
X139225884Y-77455038D02*
X139416360Y-77455038D01*
X139416360Y-77455038D02*
X139511598Y-77516942D01*
X139511598Y-77516942D02*
X139559217Y-77640752D01*
X139559217Y-77640752D02*
X139559217Y-77764561D01*
X139559217Y-77764561D02*
X139083027Y-77888371D01*
X141178265Y-78259800D02*
X141083027Y-78321704D01*
X141083027Y-78321704D02*
X140892551Y-78321704D01*
X140892551Y-78321704D02*
X140797313Y-78259800D01*
X140797313Y-78259800D02*
X140749694Y-78197895D01*
X140749694Y-78197895D02*
X140702075Y-78074085D01*
X140702075Y-78074085D02*
X140702075Y-77702657D01*
X140702075Y-77702657D02*
X140749694Y-77578847D01*
X140749694Y-77578847D02*
X140797313Y-77516942D01*
X140797313Y-77516942D02*
X140892551Y-77455038D01*
X140892551Y-77455038D02*
X141083027Y-77455038D01*
X141083027Y-77455038D02*
X141178265Y-77516942D01*
X141987789Y-78259800D02*
X141892551Y-78321704D01*
X141892551Y-78321704D02*
X141702075Y-78321704D01*
X141702075Y-78321704D02*
X141606837Y-78259800D01*
X141606837Y-78259800D02*
X141559218Y-78135990D01*
X141559218Y-78135990D02*
X141559218Y-77640752D01*
X141559218Y-77640752D02*
X141606837Y-77516942D01*
X141606837Y-77516942D02*
X141702075Y-77455038D01*
X141702075Y-77455038D02*
X141892551Y-77455038D01*
X141892551Y-77455038D02*
X141987789Y-77516942D01*
X141987789Y-77516942D02*
X142035408Y-77640752D01*
X142035408Y-77640752D02*
X142035408Y-77764561D01*
X142035408Y-77764561D02*
X141559218Y-77888371D01*
X143654456Y-78259800D02*
X143559218Y-78321704D01*
X143559218Y-78321704D02*
X143368742Y-78321704D01*
X143368742Y-78321704D02*
X143273504Y-78259800D01*
X143273504Y-78259800D02*
X143225885Y-78197895D01*
X143225885Y-78197895D02*
X143178266Y-78074085D01*
X143178266Y-78074085D02*
X143178266Y-77702657D01*
X143178266Y-77702657D02*
X143225885Y-77578847D01*
X143225885Y-77578847D02*
X143273504Y-77516942D01*
X143273504Y-77516942D02*
X143368742Y-77455038D01*
X143368742Y-77455038D02*
X143559218Y-77455038D01*
X143559218Y-77455038D02*
X143654456Y-77516942D01*
X144225885Y-78321704D02*
X144130647Y-78259800D01*
X144130647Y-78259800D02*
X144083028Y-78197895D01*
X144083028Y-78197895D02*
X144035409Y-78074085D01*
X144035409Y-78074085D02*
X144035409Y-77702657D01*
X144035409Y-77702657D02*
X144083028Y-77578847D01*
X144083028Y-77578847D02*
X144130647Y-77516942D01*
X144130647Y-77516942D02*
X144225885Y-77455038D01*
X144225885Y-77455038D02*
X144368742Y-77455038D01*
X144368742Y-77455038D02*
X144463980Y-77516942D01*
X144463980Y-77516942D02*
X144511599Y-77578847D01*
X144511599Y-77578847D02*
X144559218Y-77702657D01*
X144559218Y-77702657D02*
X144559218Y-78074085D01*
X144559218Y-78074085D02*
X144511599Y-78197895D01*
X144511599Y-78197895D02*
X144463980Y-78259800D01*
X144463980Y-78259800D02*
X144368742Y-78321704D01*
X144368742Y-78321704D02*
X144225885Y-78321704D01*
X144130647Y-77145514D02*
X144321123Y-76959800D01*
X144321123Y-76959800D02*
X144511599Y-77145514D01*
X144844933Y-77455038D02*
X145225885Y-77455038D01*
X144987790Y-77021704D02*
X144987790Y-78135990D01*
X144987790Y-78135990D02*
X145035409Y-78259800D01*
X145035409Y-78259800D02*
X145130647Y-78321704D01*
X145130647Y-78321704D02*
X145225885Y-78321704D01*
X145940171Y-78259800D02*
X145844933Y-78321704D01*
X145844933Y-78321704D02*
X145654457Y-78321704D01*
X145654457Y-78321704D02*
X145559219Y-78259800D01*
X145559219Y-78259800D02*
X145511600Y-78135990D01*
X145511600Y-78135990D02*
X145511600Y-77640752D01*
X145511600Y-77640752D02*
X145559219Y-77516942D01*
X145559219Y-77516942D02*
X145654457Y-77455038D01*
X145654457Y-77455038D02*
X145844933Y-77455038D01*
X145844933Y-77455038D02*
X145940171Y-77516942D01*
X145940171Y-77516942D02*
X145987790Y-77640752D01*
X145987790Y-77640752D02*
X145987790Y-77764561D01*
X145987790Y-77764561D02*
X145511600Y-77888371D01*
X145844933Y-76959800D02*
X145702076Y-77145514D01*
D13*
X152565558Y-128263638D02*
X152565558Y-126263638D01*
X152565558Y-126263638D02*
X153327463Y-126263638D01*
X153327463Y-126263638D02*
X153517939Y-126358876D01*
X153517939Y-126358876D02*
X153613177Y-126454114D01*
X153613177Y-126454114D02*
X153708415Y-126644590D01*
X153708415Y-126644590D02*
X153708415Y-126930304D01*
X153708415Y-126930304D02*
X153613177Y-127120780D01*
X153613177Y-127120780D02*
X153517939Y-127216019D01*
X153517939Y-127216019D02*
X153327463Y-127311257D01*
X153327463Y-127311257D02*
X152565558Y-127311257D01*
X154946510Y-126263638D02*
X155327463Y-126263638D01*
X155327463Y-126263638D02*
X155517939Y-126358876D01*
X155517939Y-126358876D02*
X155708415Y-126549352D01*
X155708415Y-126549352D02*
X155803653Y-126930304D01*
X155803653Y-126930304D02*
X155803653Y-127596971D01*
X155803653Y-127596971D02*
X155708415Y-127977923D01*
X155708415Y-127977923D02*
X155517939Y-128168400D01*
X155517939Y-128168400D02*
X155327463Y-128263638D01*
X155327463Y-128263638D02*
X154946510Y-128263638D01*
X154946510Y-128263638D02*
X154756034Y-128168400D01*
X154756034Y-128168400D02*
X154565558Y-127977923D01*
X154565558Y-127977923D02*
X154470320Y-127596971D01*
X154470320Y-127596971D02*
X154470320Y-126930304D01*
X154470320Y-126930304D02*
X154565558Y-126549352D01*
X154565558Y-126549352D02*
X154756034Y-126358876D01*
X154756034Y-126358876D02*
X154946510Y-126263638D01*
X156470320Y-126263638D02*
X156946510Y-128263638D01*
X156946510Y-128263638D02*
X157327463Y-126835066D01*
X157327463Y-126835066D02*
X157708415Y-128263638D01*
X157708415Y-128263638D02*
X158184606Y-126263638D01*
X158946510Y-127216019D02*
X159613177Y-127216019D01*
X159898891Y-128263638D02*
X158946510Y-128263638D01*
X158946510Y-128263638D02*
X158946510Y-126263638D01*
X158946510Y-126263638D02*
X159898891Y-126263638D01*
X161898891Y-128263638D02*
X161232224Y-127311257D01*
X160756034Y-128263638D02*
X160756034Y-126263638D01*
X160756034Y-126263638D02*
X161517939Y-126263638D01*
X161517939Y-126263638D02*
X161708415Y-126358876D01*
X161708415Y-126358876D02*
X161803653Y-126454114D01*
X161803653Y-126454114D02*
X161898891Y-126644590D01*
X161898891Y-126644590D02*
X161898891Y-126930304D01*
X161898891Y-126930304D02*
X161803653Y-127120780D01*
X161803653Y-127120780D02*
X161708415Y-127216019D01*
X161708415Y-127216019D02*
X161517939Y-127311257D01*
X161517939Y-127311257D02*
X160756034Y-127311257D01*
D14*
X148359255Y-58203240D02*
X148359255Y-57453240D01*
X148716398Y-57453240D02*
X148716398Y-58060383D01*
X148716398Y-58060383D02*
X148752112Y-58131811D01*
X148752112Y-58131811D02*
X148787827Y-58167526D01*
X148787827Y-58167526D02*
X148859255Y-58203240D01*
X148859255Y-58203240D02*
X149002112Y-58203240D01*
X149002112Y-58203240D02*
X149073541Y-58167526D01*
X149073541Y-58167526D02*
X149109255Y-58131811D01*
X149109255Y-58131811D02*
X149144969Y-58060383D01*
X149144969Y-58060383D02*
X149144969Y-57453240D01*
X149394969Y-57453240D02*
X149823541Y-57453240D01*
X149609255Y-58203240D02*
X149609255Y-57453240D01*
X151037827Y-58203240D02*
X150609256Y-58203240D01*
X150823541Y-58203240D02*
X150823541Y-57453240D01*
X150823541Y-57453240D02*
X150752113Y-57560383D01*
X150752113Y-57560383D02*
X150680684Y-57631811D01*
X150680684Y-57631811D02*
X150609256Y-57667526D01*
X151930685Y-57917526D02*
X152502114Y-57917526D01*
X153823542Y-57488954D02*
X153752114Y-57453240D01*
X153752114Y-57453240D02*
X153644971Y-57453240D01*
X153644971Y-57453240D02*
X153537828Y-57488954D01*
X153537828Y-57488954D02*
X153466399Y-57560383D01*
X153466399Y-57560383D02*
X153430685Y-57631811D01*
X153430685Y-57631811D02*
X153394971Y-57774668D01*
X153394971Y-57774668D02*
X153394971Y-57881811D01*
X153394971Y-57881811D02*
X153430685Y-58024668D01*
X153430685Y-58024668D02*
X153466399Y-58096097D01*
X153466399Y-58096097D02*
X153537828Y-58167526D01*
X153537828Y-58167526D02*
X153644971Y-58203240D01*
X153644971Y-58203240D02*
X153716399Y-58203240D01*
X153716399Y-58203240D02*
X153823542Y-58167526D01*
X153823542Y-58167526D02*
X153859256Y-58131811D01*
X153859256Y-58131811D02*
X153859256Y-57881811D01*
X153859256Y-57881811D02*
X153716399Y-57881811D01*
X154180685Y-58203240D02*
X154180685Y-57703240D01*
X154180685Y-57846097D02*
X154216399Y-57774668D01*
X154216399Y-57774668D02*
X154252114Y-57738954D01*
X154252114Y-57738954D02*
X154323542Y-57703240D01*
X154323542Y-57703240D02*
X154394971Y-57703240D01*
X154930685Y-58167526D02*
X154859257Y-58203240D01*
X154859257Y-58203240D02*
X154716400Y-58203240D01*
X154716400Y-58203240D02*
X154644971Y-58167526D01*
X154644971Y-58167526D02*
X154609257Y-58096097D01*
X154609257Y-58096097D02*
X154609257Y-57810383D01*
X154609257Y-57810383D02*
X154644971Y-57738954D01*
X154644971Y-57738954D02*
X154716400Y-57703240D01*
X154716400Y-57703240D02*
X154859257Y-57703240D01*
X154859257Y-57703240D02*
X154930685Y-57738954D01*
X154930685Y-57738954D02*
X154966400Y-57810383D01*
X154966400Y-57810383D02*
X154966400Y-57881811D01*
X154966400Y-57881811D02*
X154609257Y-57953240D01*
X155287828Y-57703240D02*
X155287828Y-58203240D01*
X155287828Y-57774668D02*
X155323542Y-57738954D01*
X155323542Y-57738954D02*
X155394971Y-57703240D01*
X155394971Y-57703240D02*
X155502114Y-57703240D01*
X155502114Y-57703240D02*
X155573542Y-57738954D01*
X155573542Y-57738954D02*
X155609257Y-57810383D01*
X155609257Y-57810383D02*
X155609257Y-58203240D01*
X156073542Y-58203240D02*
X156002113Y-58167526D01*
X156002113Y-58167526D02*
X155966399Y-58131811D01*
X155966399Y-58131811D02*
X155930685Y-58060383D01*
X155930685Y-58060383D02*
X155930685Y-57846097D01*
X155930685Y-57846097D02*
X155966399Y-57774668D01*
X155966399Y-57774668D02*
X156002113Y-57738954D01*
X156002113Y-57738954D02*
X156073542Y-57703240D01*
X156073542Y-57703240D02*
X156180685Y-57703240D01*
X156180685Y-57703240D02*
X156252113Y-57738954D01*
X156252113Y-57738954D02*
X156287828Y-57774668D01*
X156287828Y-57774668D02*
X156323542Y-57846097D01*
X156323542Y-57846097D02*
X156323542Y-58060383D01*
X156323542Y-58060383D02*
X156287828Y-58131811D01*
X156287828Y-58131811D02*
X156252113Y-58167526D01*
X156252113Y-58167526D02*
X156180685Y-58203240D01*
X156180685Y-58203240D02*
X156073542Y-58203240D01*
X156644970Y-58203240D02*
X156644970Y-57453240D01*
X156644970Y-57738954D02*
X156716399Y-57703240D01*
X156716399Y-57703240D02*
X156859256Y-57703240D01*
X156859256Y-57703240D02*
X156930684Y-57738954D01*
X156930684Y-57738954D02*
X156966399Y-57774668D01*
X156966399Y-57774668D02*
X157002113Y-57846097D01*
X157002113Y-57846097D02*
X157002113Y-58060383D01*
X157002113Y-58060383D02*
X156966399Y-58131811D01*
X156966399Y-58131811D02*
X156930684Y-58167526D01*
X156930684Y-58167526D02*
X156859256Y-58203240D01*
X156859256Y-58203240D02*
X156716399Y-58203240D01*
X156716399Y-58203240D02*
X156644970Y-58167526D01*
X157430684Y-58203240D02*
X157359255Y-58167526D01*
X157359255Y-58167526D02*
X157323541Y-58096097D01*
X157323541Y-58096097D02*
X157323541Y-57453240D01*
X158002112Y-58167526D02*
X157930684Y-58203240D01*
X157930684Y-58203240D02*
X157787827Y-58203240D01*
X157787827Y-58203240D02*
X157716398Y-58167526D01*
X157716398Y-58167526D02*
X157680684Y-58096097D01*
X157680684Y-58096097D02*
X157680684Y-57810383D01*
X157680684Y-57810383D02*
X157716398Y-57738954D01*
X157716398Y-57738954D02*
X157787827Y-57703240D01*
X157787827Y-57703240D02*
X157930684Y-57703240D01*
X157930684Y-57703240D02*
X158002112Y-57738954D01*
X158002112Y-57738954D02*
X158037827Y-57810383D01*
X158037827Y-57810383D02*
X158037827Y-57881811D01*
X158037827Y-57881811D02*
X157680684Y-57953240D01*
X148323541Y-59374984D02*
X148430684Y-59410698D01*
X148430684Y-59410698D02*
X148609255Y-59410698D01*
X148609255Y-59410698D02*
X148680684Y-59374984D01*
X148680684Y-59374984D02*
X148716398Y-59339269D01*
X148716398Y-59339269D02*
X148752112Y-59267841D01*
X148752112Y-59267841D02*
X148752112Y-59196412D01*
X148752112Y-59196412D02*
X148716398Y-59124984D01*
X148716398Y-59124984D02*
X148680684Y-59089269D01*
X148680684Y-59089269D02*
X148609255Y-59053555D01*
X148609255Y-59053555D02*
X148466398Y-59017841D01*
X148466398Y-59017841D02*
X148394969Y-58982126D01*
X148394969Y-58982126D02*
X148359255Y-58946412D01*
X148359255Y-58946412D02*
X148323541Y-58874984D01*
X148323541Y-58874984D02*
X148323541Y-58803555D01*
X148323541Y-58803555D02*
X148359255Y-58732126D01*
X148359255Y-58732126D02*
X148394969Y-58696412D01*
X148394969Y-58696412D02*
X148466398Y-58660698D01*
X148466398Y-58660698D02*
X148644969Y-58660698D01*
X148644969Y-58660698D02*
X148752112Y-58696412D01*
X149394970Y-58910698D02*
X149394970Y-59410698D01*
X149073541Y-58910698D02*
X149073541Y-59303555D01*
X149073541Y-59303555D02*
X149109255Y-59374984D01*
X149109255Y-59374984D02*
X149180684Y-59410698D01*
X149180684Y-59410698D02*
X149287827Y-59410698D01*
X149287827Y-59410698D02*
X149359255Y-59374984D01*
X149359255Y-59374984D02*
X149394970Y-59339269D01*
X149752112Y-59410698D02*
X149752112Y-58910698D01*
X149752112Y-58660698D02*
X149716398Y-58696412D01*
X149716398Y-58696412D02*
X149752112Y-58732126D01*
X149752112Y-58732126D02*
X149787826Y-58696412D01*
X149787826Y-58696412D02*
X149752112Y-58660698D01*
X149752112Y-58660698D02*
X149752112Y-58732126D01*
X150037826Y-58910698D02*
X150216398Y-59410698D01*
X150216398Y-59410698D02*
X150394969Y-58910698D01*
X150680684Y-59410698D02*
X150680684Y-58910698D01*
X150680684Y-58660698D02*
X150644970Y-58696412D01*
X150644970Y-58696412D02*
X150680684Y-58732126D01*
X150680684Y-58732126D02*
X150716398Y-58696412D01*
X150716398Y-58696412D02*
X150680684Y-58660698D01*
X150680684Y-58660698D02*
X150680684Y-58732126D01*
X151037827Y-59410698D02*
X151037827Y-58660698D01*
X151037827Y-58660698D02*
X151216398Y-58660698D01*
X151216398Y-58660698D02*
X151323541Y-58696412D01*
X151323541Y-58696412D02*
X151394970Y-58767841D01*
X151394970Y-58767841D02*
X151430684Y-58839269D01*
X151430684Y-58839269D02*
X151466398Y-58982126D01*
X151466398Y-58982126D02*
X151466398Y-59089269D01*
X151466398Y-59089269D02*
X151430684Y-59232126D01*
X151430684Y-59232126D02*
X151394970Y-59303555D01*
X151394970Y-59303555D02*
X151323541Y-59374984D01*
X151323541Y-59374984D02*
X151216398Y-59410698D01*
X151216398Y-59410698D02*
X151037827Y-59410698D01*
X152073541Y-59374984D02*
X152002113Y-59410698D01*
X152002113Y-59410698D02*
X151859256Y-59410698D01*
X151859256Y-59410698D02*
X151787827Y-59374984D01*
X151787827Y-59374984D02*
X151752113Y-59303555D01*
X151752113Y-59303555D02*
X151752113Y-59017841D01*
X151752113Y-59017841D02*
X151787827Y-58946412D01*
X151787827Y-58946412D02*
X151859256Y-58910698D01*
X151859256Y-58910698D02*
X152002113Y-58910698D01*
X152002113Y-58910698D02*
X152073541Y-58946412D01*
X152073541Y-58946412D02*
X152109256Y-59017841D01*
X152109256Y-59017841D02*
X152109256Y-59089269D01*
X152109256Y-59089269D02*
X151752113Y-59160698D01*
X152430684Y-59410698D02*
X152430684Y-58660698D01*
X152430684Y-58660698D02*
X152716398Y-58660698D01*
X152716398Y-58660698D02*
X152787827Y-58696412D01*
X152787827Y-58696412D02*
X152823541Y-58732126D01*
X152823541Y-58732126D02*
X152859255Y-58803555D01*
X152859255Y-58803555D02*
X152859255Y-58910698D01*
X152859255Y-58910698D02*
X152823541Y-58982126D01*
X152823541Y-58982126D02*
X152787827Y-59017841D01*
X152787827Y-59017841D02*
X152716398Y-59053555D01*
X152716398Y-59053555D02*
X152430684Y-59053555D01*
X153287827Y-59410698D02*
X153216398Y-59374984D01*
X153216398Y-59374984D02*
X153180684Y-59339269D01*
X153180684Y-59339269D02*
X153144970Y-59267841D01*
X153144970Y-59267841D02*
X153144970Y-59053555D01*
X153144970Y-59053555D02*
X153180684Y-58982126D01*
X153180684Y-58982126D02*
X153216398Y-58946412D01*
X153216398Y-58946412D02*
X153287827Y-58910698D01*
X153287827Y-58910698D02*
X153394970Y-58910698D01*
X153394970Y-58910698D02*
X153466398Y-58946412D01*
X153466398Y-58946412D02*
X153502113Y-58982126D01*
X153502113Y-58982126D02*
X153537827Y-59053555D01*
X153537827Y-59053555D02*
X153537827Y-59267841D01*
X153537827Y-59267841D02*
X153502113Y-59339269D01*
X153502113Y-59339269D02*
X153466398Y-59374984D01*
X153466398Y-59374984D02*
X153394970Y-59410698D01*
X153394970Y-59410698D02*
X153287827Y-59410698D01*
X153823541Y-59374984D02*
X153894969Y-59410698D01*
X153894969Y-59410698D02*
X154037826Y-59410698D01*
X154037826Y-59410698D02*
X154109255Y-59374984D01*
X154109255Y-59374984D02*
X154144969Y-59303555D01*
X154144969Y-59303555D02*
X154144969Y-59267841D01*
X154144969Y-59267841D02*
X154109255Y-59196412D01*
X154109255Y-59196412D02*
X154037826Y-59160698D01*
X154037826Y-59160698D02*
X153930684Y-59160698D01*
X153930684Y-59160698D02*
X153859255Y-59124984D01*
X153859255Y-59124984D02*
X153823541Y-59053555D01*
X153823541Y-59053555D02*
X153823541Y-59017841D01*
X153823541Y-59017841D02*
X153859255Y-58946412D01*
X153859255Y-58946412D02*
X153930684Y-58910698D01*
X153930684Y-58910698D02*
X154037826Y-58910698D01*
X154037826Y-58910698D02*
X154109255Y-58946412D01*
X154359255Y-58910698D02*
X154644969Y-58910698D01*
X154466398Y-58660698D02*
X154466398Y-59303555D01*
X154466398Y-59303555D02*
X154502112Y-59374984D01*
X154502112Y-59374984D02*
X154573541Y-59410698D01*
X154573541Y-59410698D02*
X154644969Y-59410698D01*
X155216398Y-58910698D02*
X155216398Y-59410698D01*
X154894969Y-58910698D02*
X154894969Y-59303555D01*
X154894969Y-59303555D02*
X154930683Y-59374984D01*
X154930683Y-59374984D02*
X155002112Y-59410698D01*
X155002112Y-59410698D02*
X155109255Y-59410698D01*
X155109255Y-59410698D02*
X155180683Y-59374984D01*
X155180683Y-59374984D02*
X155216398Y-59339269D01*
X155573540Y-59410698D02*
X155573540Y-58910698D01*
X155573540Y-59053555D02*
X155609254Y-58982126D01*
X155609254Y-58982126D02*
X155644969Y-58946412D01*
X155644969Y-58946412D02*
X155716397Y-58910698D01*
X155716397Y-58910698D02*
X155787826Y-58910698D01*
X156323540Y-59374984D02*
X156252112Y-59410698D01*
X156252112Y-59410698D02*
X156109255Y-59410698D01*
X156109255Y-59410698D02*
X156037826Y-59374984D01*
X156037826Y-59374984D02*
X156002112Y-59303555D01*
X156002112Y-59303555D02*
X156002112Y-59017841D01*
X156002112Y-59017841D02*
X156037826Y-58946412D01*
X156037826Y-58946412D02*
X156109255Y-58910698D01*
X156109255Y-58910698D02*
X156252112Y-58910698D01*
X156252112Y-58910698D02*
X156323540Y-58946412D01*
X156323540Y-58946412D02*
X156359255Y-59017841D01*
X156359255Y-59017841D02*
X156359255Y-59089269D01*
X156359255Y-59089269D02*
X156002112Y-59160698D01*
X157252112Y-58910698D02*
X157252112Y-59410698D01*
X157252112Y-58982126D02*
X157287826Y-58946412D01*
X157287826Y-58946412D02*
X157359255Y-58910698D01*
X157359255Y-58910698D02*
X157466398Y-58910698D01*
X157466398Y-58910698D02*
X157537826Y-58946412D01*
X157537826Y-58946412D02*
X157573541Y-59017841D01*
X157573541Y-59017841D02*
X157573541Y-59410698D01*
X158037826Y-58660698D02*
X157966397Y-58696412D01*
X157966397Y-58696412D02*
X157930683Y-58767841D01*
X157930683Y-58767841D02*
X157966397Y-58839269D01*
X157966397Y-58839269D02*
X158037826Y-58874984D01*
X158037826Y-58874984D02*
X158109254Y-58839269D01*
X158109254Y-58839269D02*
X158144969Y-58767841D01*
X158144969Y-58767841D02*
X158109254Y-58696412D01*
X158109254Y-58696412D02*
X158037826Y-58660698D01*
X158644969Y-58660698D02*
X158716398Y-58660698D01*
X158716398Y-58660698D02*
X158787826Y-58696412D01*
X158787826Y-58696412D02*
X158823541Y-58732126D01*
X158823541Y-58732126D02*
X158859255Y-58803555D01*
X158859255Y-58803555D02*
X158894969Y-58946412D01*
X158894969Y-58946412D02*
X158894969Y-59124984D01*
X158894969Y-59124984D02*
X158859255Y-59267841D01*
X158859255Y-59267841D02*
X158823541Y-59339269D01*
X158823541Y-59339269D02*
X158787826Y-59374984D01*
X158787826Y-59374984D02*
X158716398Y-59410698D01*
X158716398Y-59410698D02*
X158644969Y-59410698D01*
X158644969Y-59410698D02*
X158573541Y-59374984D01*
X158573541Y-59374984D02*
X158537826Y-59339269D01*
X158537826Y-59339269D02*
X158502112Y-59267841D01*
X158502112Y-59267841D02*
X158466398Y-59124984D01*
X158466398Y-59124984D02*
X158466398Y-58946412D01*
X158466398Y-58946412D02*
X158502112Y-58803555D01*
X158502112Y-58803555D02*
X158537826Y-58732126D01*
X158537826Y-58732126D02*
X158573541Y-58696412D01*
X158573541Y-58696412D02*
X158644969Y-58660698D01*
X159359255Y-58660698D02*
X159430684Y-58660698D01*
X159430684Y-58660698D02*
X159502112Y-58696412D01*
X159502112Y-58696412D02*
X159537827Y-58732126D01*
X159537827Y-58732126D02*
X159573541Y-58803555D01*
X159573541Y-58803555D02*
X159609255Y-58946412D01*
X159609255Y-58946412D02*
X159609255Y-59124984D01*
X159609255Y-59124984D02*
X159573541Y-59267841D01*
X159573541Y-59267841D02*
X159537827Y-59339269D01*
X159537827Y-59339269D02*
X159502112Y-59374984D01*
X159502112Y-59374984D02*
X159430684Y-59410698D01*
X159430684Y-59410698D02*
X159359255Y-59410698D01*
X159359255Y-59410698D02*
X159287827Y-59374984D01*
X159287827Y-59374984D02*
X159252112Y-59339269D01*
X159252112Y-59339269D02*
X159216398Y-59267841D01*
X159216398Y-59267841D02*
X159180684Y-59124984D01*
X159180684Y-59124984D02*
X159180684Y-58946412D01*
X159180684Y-58946412D02*
X159216398Y-58803555D01*
X159216398Y-58803555D02*
X159252112Y-58732126D01*
X159252112Y-58732126D02*
X159287827Y-58696412D01*
X159287827Y-58696412D02*
X159359255Y-58660698D01*
X160323541Y-59410698D02*
X159894970Y-59410698D01*
X160109255Y-59410698D02*
X160109255Y-58660698D01*
X160109255Y-58660698D02*
X160037827Y-58767841D01*
X160037827Y-58767841D02*
X159966398Y-58839269D01*
X159966398Y-58839269D02*
X159894970Y-58874984D01*
X148716398Y-60618156D02*
X148359255Y-60618156D01*
X148359255Y-60618156D02*
X148359255Y-59868156D01*
X149073541Y-60618156D02*
X149002112Y-60582442D01*
X149002112Y-60582442D02*
X148966398Y-60546727D01*
X148966398Y-60546727D02*
X148930684Y-60475299D01*
X148930684Y-60475299D02*
X148930684Y-60261013D01*
X148930684Y-60261013D02*
X148966398Y-60189584D01*
X148966398Y-60189584D02*
X149002112Y-60153870D01*
X149002112Y-60153870D02*
X149073541Y-60118156D01*
X149073541Y-60118156D02*
X149180684Y-60118156D01*
X149180684Y-60118156D02*
X149252112Y-60153870D01*
X149252112Y-60153870D02*
X149287827Y-60189584D01*
X149287827Y-60189584D02*
X149323541Y-60261013D01*
X149323541Y-60261013D02*
X149323541Y-60475299D01*
X149323541Y-60475299D02*
X149287827Y-60546727D01*
X149287827Y-60546727D02*
X149252112Y-60582442D01*
X149252112Y-60582442D02*
X149180684Y-60618156D01*
X149180684Y-60618156D02*
X149073541Y-60618156D01*
X149966398Y-60118156D02*
X149966398Y-60618156D01*
X149644969Y-60118156D02*
X149644969Y-60511013D01*
X149644969Y-60511013D02*
X149680683Y-60582442D01*
X149680683Y-60582442D02*
X149752112Y-60618156D01*
X149752112Y-60618156D02*
X149859255Y-60618156D01*
X149859255Y-60618156D02*
X149930683Y-60582442D01*
X149930683Y-60582442D02*
X149966398Y-60546727D01*
X150323540Y-60118156D02*
X150323540Y-60618156D01*
X150323540Y-60189584D02*
X150359254Y-60153870D01*
X150359254Y-60153870D02*
X150430683Y-60118156D01*
X150430683Y-60118156D02*
X150537826Y-60118156D01*
X150537826Y-60118156D02*
X150609254Y-60153870D01*
X150609254Y-60153870D02*
X150644969Y-60225299D01*
X150644969Y-60225299D02*
X150644969Y-60618156D01*
X151287825Y-60582442D02*
X151216397Y-60618156D01*
X151216397Y-60618156D02*
X151073540Y-60618156D01*
X151073540Y-60618156D02*
X151002111Y-60582442D01*
X151002111Y-60582442D02*
X150966397Y-60511013D01*
X150966397Y-60511013D02*
X150966397Y-60225299D01*
X150966397Y-60225299D02*
X151002111Y-60153870D01*
X151002111Y-60153870D02*
X151073540Y-60118156D01*
X151073540Y-60118156D02*
X151216397Y-60118156D01*
X151216397Y-60118156D02*
X151287825Y-60153870D01*
X151287825Y-60153870D02*
X151323540Y-60225299D01*
X151323540Y-60225299D02*
X151323540Y-60296727D01*
X151323540Y-60296727D02*
X150966397Y-60368156D01*
X151073540Y-59832442D02*
X151180682Y-59939584D01*
X151609254Y-60582442D02*
X151680682Y-60618156D01*
X151680682Y-60618156D02*
X151823539Y-60618156D01*
X151823539Y-60618156D02*
X151894968Y-60582442D01*
X151894968Y-60582442D02*
X151930682Y-60511013D01*
X151930682Y-60511013D02*
X151930682Y-60475299D01*
X151930682Y-60475299D02*
X151894968Y-60403870D01*
X151894968Y-60403870D02*
X151823539Y-60368156D01*
X151823539Y-60368156D02*
X151716397Y-60368156D01*
X151716397Y-60368156D02*
X151644968Y-60332442D01*
X151644968Y-60332442D02*
X151609254Y-60261013D01*
X151609254Y-60261013D02*
X151609254Y-60225299D01*
X151609254Y-60225299D02*
X151644968Y-60153870D01*
X151644968Y-60153870D02*
X151716397Y-60118156D01*
X151716397Y-60118156D02*
X151823539Y-60118156D01*
X151823539Y-60118156D02*
X151894968Y-60153870D01*
X152823540Y-60618156D02*
X152823540Y-59868156D01*
X152823540Y-59868156D02*
X153002111Y-59868156D01*
X153002111Y-59868156D02*
X153109254Y-59903870D01*
X153109254Y-59903870D02*
X153180683Y-59975299D01*
X153180683Y-59975299D02*
X153216397Y-60046727D01*
X153216397Y-60046727D02*
X153252111Y-60189584D01*
X153252111Y-60189584D02*
X153252111Y-60296727D01*
X153252111Y-60296727D02*
X153216397Y-60439584D01*
X153216397Y-60439584D02*
X153180683Y-60511013D01*
X153180683Y-60511013D02*
X153109254Y-60582442D01*
X153109254Y-60582442D02*
X153002111Y-60618156D01*
X153002111Y-60618156D02*
X152823540Y-60618156D01*
X153573540Y-59868156D02*
X153573540Y-60475299D01*
X153573540Y-60475299D02*
X153609254Y-60546727D01*
X153609254Y-60546727D02*
X153644969Y-60582442D01*
X153644969Y-60582442D02*
X153716397Y-60618156D01*
X153716397Y-60618156D02*
X153859254Y-60618156D01*
X153859254Y-60618156D02*
X153930683Y-60582442D01*
X153930683Y-60582442D02*
X153966397Y-60546727D01*
X153966397Y-60546727D02*
X154002111Y-60475299D01*
X154002111Y-60475299D02*
X154002111Y-59868156D01*
X154359254Y-60618156D02*
X154359254Y-59868156D01*
X154359254Y-59868156D02*
X154644968Y-59868156D01*
X154644968Y-59868156D02*
X154716397Y-59903870D01*
X154716397Y-59903870D02*
X154752111Y-59939584D01*
X154752111Y-59939584D02*
X154787825Y-60011013D01*
X154787825Y-60011013D02*
X154787825Y-60118156D01*
X154787825Y-60118156D02*
X154752111Y-60189584D01*
X154752111Y-60189584D02*
X154716397Y-60225299D01*
X154716397Y-60225299D02*
X154644968Y-60261013D01*
X154644968Y-60261013D02*
X154359254Y-60261013D01*
X155109254Y-59868156D02*
X155109254Y-60475299D01*
X155109254Y-60475299D02*
X155144968Y-60546727D01*
X155144968Y-60546727D02*
X155180683Y-60582442D01*
X155180683Y-60582442D02*
X155252111Y-60618156D01*
X155252111Y-60618156D02*
X155394968Y-60618156D01*
X155394968Y-60618156D02*
X155466397Y-60582442D01*
X155466397Y-60582442D02*
X155502111Y-60546727D01*
X155502111Y-60546727D02*
X155537825Y-60475299D01*
X155537825Y-60475299D02*
X155537825Y-59868156D01*
X155894968Y-60618156D02*
X155894968Y-59868156D01*
X156216397Y-60582442D02*
X156323540Y-60618156D01*
X156323540Y-60618156D02*
X156502111Y-60618156D01*
X156502111Y-60618156D02*
X156573540Y-60582442D01*
X156573540Y-60582442D02*
X156609254Y-60546727D01*
X156609254Y-60546727D02*
X156644968Y-60475299D01*
X156644968Y-60475299D02*
X156644968Y-60403870D01*
X156644968Y-60403870D02*
X156609254Y-60332442D01*
X156609254Y-60332442D02*
X156573540Y-60296727D01*
X156573540Y-60296727D02*
X156502111Y-60261013D01*
X156502111Y-60261013D02*
X156359254Y-60225299D01*
X156359254Y-60225299D02*
X156287825Y-60189584D01*
X156287825Y-60189584D02*
X156252111Y-60153870D01*
X156252111Y-60153870D02*
X156216397Y-60082442D01*
X156216397Y-60082442D02*
X156216397Y-60011013D01*
X156216397Y-60011013D02*
X156252111Y-59939584D01*
X156252111Y-59939584D02*
X156287825Y-59903870D01*
X156287825Y-59903870D02*
X156359254Y-59868156D01*
X156359254Y-59868156D02*
X156537825Y-59868156D01*
X156537825Y-59868156D02*
X156644968Y-59903870D01*
X156966397Y-60332442D02*
X157537826Y-60332442D01*
X157894968Y-60618156D02*
X157894968Y-59868156D01*
X157894968Y-59868156D02*
X158073539Y-59868156D01*
X158073539Y-59868156D02*
X158180682Y-59903870D01*
X158180682Y-59903870D02*
X158252111Y-59975299D01*
X158252111Y-59975299D02*
X158287825Y-60046727D01*
X158287825Y-60046727D02*
X158323539Y-60189584D01*
X158323539Y-60189584D02*
X158323539Y-60296727D01*
X158323539Y-60296727D02*
X158287825Y-60439584D01*
X158287825Y-60439584D02*
X158252111Y-60511013D01*
X158252111Y-60511013D02*
X158180682Y-60582442D01*
X158180682Y-60582442D02*
X158073539Y-60618156D01*
X158073539Y-60618156D02*
X157894968Y-60618156D01*
X158609254Y-60403870D02*
X158966397Y-60403870D01*
X158537825Y-60618156D02*
X158787825Y-59868156D01*
X158787825Y-59868156D02*
X159037825Y-60618156D01*
X159537825Y-60225299D02*
X159644968Y-60261013D01*
X159644968Y-60261013D02*
X159680682Y-60296727D01*
X159680682Y-60296727D02*
X159716396Y-60368156D01*
X159716396Y-60368156D02*
X159716396Y-60475299D01*
X159716396Y-60475299D02*
X159680682Y-60546727D01*
X159680682Y-60546727D02*
X159644968Y-60582442D01*
X159644968Y-60582442D02*
X159573539Y-60618156D01*
X159573539Y-60618156D02*
X159287825Y-60618156D01*
X159287825Y-60618156D02*
X159287825Y-59868156D01*
X159287825Y-59868156D02*
X159537825Y-59868156D01*
X159537825Y-59868156D02*
X159609254Y-59903870D01*
X159609254Y-59903870D02*
X159644968Y-59939584D01*
X159644968Y-59939584D02*
X159680682Y-60011013D01*
X159680682Y-60011013D02*
X159680682Y-60082442D01*
X159680682Y-60082442D02*
X159644968Y-60153870D01*
X159644968Y-60153870D02*
X159609254Y-60189584D01*
X159609254Y-60189584D02*
X159537825Y-60225299D01*
X159537825Y-60225299D02*
X159287825Y-60225299D01*
X160002111Y-60403870D02*
X160359254Y-60403870D01*
X159930682Y-60618156D02*
X160180682Y-59868156D01*
X160180682Y-59868156D02*
X160430682Y-60618156D01*
X160894968Y-59868156D02*
X160894968Y-60403870D01*
X160894968Y-60403870D02*
X160859253Y-60511013D01*
X160859253Y-60511013D02*
X160787825Y-60582442D01*
X160787825Y-60582442D02*
X160680682Y-60618156D01*
X160680682Y-60618156D02*
X160609253Y-60618156D01*
X161252111Y-60618156D02*
X161252111Y-59868156D01*
X148752112Y-61825614D02*
X148323541Y-61825614D01*
X148537826Y-61825614D02*
X148537826Y-61075614D01*
X148537826Y-61075614D02*
X148466398Y-61182757D01*
X148466398Y-61182757D02*
X148394969Y-61254185D01*
X148394969Y-61254185D02*
X148323541Y-61289900D01*
X149037827Y-61147042D02*
X149073541Y-61111328D01*
X149073541Y-61111328D02*
X149144970Y-61075614D01*
X149144970Y-61075614D02*
X149323541Y-61075614D01*
X149323541Y-61075614D02*
X149394970Y-61111328D01*
X149394970Y-61111328D02*
X149430684Y-61147042D01*
X149430684Y-61147042D02*
X149466398Y-61218471D01*
X149466398Y-61218471D02*
X149466398Y-61289900D01*
X149466398Y-61289900D02*
X149430684Y-61397042D01*
X149430684Y-61397042D02*
X149002112Y-61825614D01*
X149002112Y-61825614D02*
X149466398Y-61825614D01*
X150323541Y-61039900D02*
X149680684Y-62004185D01*
X150716398Y-61075614D02*
X150787827Y-61075614D01*
X150787827Y-61075614D02*
X150859255Y-61111328D01*
X150859255Y-61111328D02*
X150894970Y-61147042D01*
X150894970Y-61147042D02*
X150930684Y-61218471D01*
X150930684Y-61218471D02*
X150966398Y-61361328D01*
X150966398Y-61361328D02*
X150966398Y-61539900D01*
X150966398Y-61539900D02*
X150930684Y-61682757D01*
X150930684Y-61682757D02*
X150894970Y-61754185D01*
X150894970Y-61754185D02*
X150859255Y-61789900D01*
X150859255Y-61789900D02*
X150787827Y-61825614D01*
X150787827Y-61825614D02*
X150716398Y-61825614D01*
X150716398Y-61825614D02*
X150644970Y-61789900D01*
X150644970Y-61789900D02*
X150609255Y-61754185D01*
X150609255Y-61754185D02*
X150573541Y-61682757D01*
X150573541Y-61682757D02*
X150537827Y-61539900D01*
X150537827Y-61539900D02*
X150537827Y-61361328D01*
X150537827Y-61361328D02*
X150573541Y-61218471D01*
X150573541Y-61218471D02*
X150609255Y-61147042D01*
X150609255Y-61147042D02*
X150644970Y-61111328D01*
X150644970Y-61111328D02*
X150716398Y-61075614D01*
X151644970Y-61075614D02*
X151287827Y-61075614D01*
X151287827Y-61075614D02*
X151252113Y-61432757D01*
X151252113Y-61432757D02*
X151287827Y-61397042D01*
X151287827Y-61397042D02*
X151359256Y-61361328D01*
X151359256Y-61361328D02*
X151537827Y-61361328D01*
X151537827Y-61361328D02*
X151609256Y-61397042D01*
X151609256Y-61397042D02*
X151644970Y-61432757D01*
X151644970Y-61432757D02*
X151680684Y-61504185D01*
X151680684Y-61504185D02*
X151680684Y-61682757D01*
X151680684Y-61682757D02*
X151644970Y-61754185D01*
X151644970Y-61754185D02*
X151609256Y-61789900D01*
X151609256Y-61789900D02*
X151537827Y-61825614D01*
X151537827Y-61825614D02*
X151359256Y-61825614D01*
X151359256Y-61825614D02*
X151287827Y-61789900D01*
X151287827Y-61789900D02*
X151252113Y-61754185D01*
X152537827Y-61039900D02*
X151894970Y-62004185D01*
X152752113Y-61147042D02*
X152787827Y-61111328D01*
X152787827Y-61111328D02*
X152859256Y-61075614D01*
X152859256Y-61075614D02*
X153037827Y-61075614D01*
X153037827Y-61075614D02*
X153109256Y-61111328D01*
X153109256Y-61111328D02*
X153144970Y-61147042D01*
X153144970Y-61147042D02*
X153180684Y-61218471D01*
X153180684Y-61218471D02*
X153180684Y-61289900D01*
X153180684Y-61289900D02*
X153144970Y-61397042D01*
X153144970Y-61397042D02*
X152716398Y-61825614D01*
X152716398Y-61825614D02*
X153180684Y-61825614D01*
X153644970Y-61075614D02*
X153716399Y-61075614D01*
X153716399Y-61075614D02*
X153787827Y-61111328D01*
X153787827Y-61111328D02*
X153823542Y-61147042D01*
X153823542Y-61147042D02*
X153859256Y-61218471D01*
X153859256Y-61218471D02*
X153894970Y-61361328D01*
X153894970Y-61361328D02*
X153894970Y-61539900D01*
X153894970Y-61539900D02*
X153859256Y-61682757D01*
X153859256Y-61682757D02*
X153823542Y-61754185D01*
X153823542Y-61754185D02*
X153787827Y-61789900D01*
X153787827Y-61789900D02*
X153716399Y-61825614D01*
X153716399Y-61825614D02*
X153644970Y-61825614D01*
X153644970Y-61825614D02*
X153573542Y-61789900D01*
X153573542Y-61789900D02*
X153537827Y-61754185D01*
X153537827Y-61754185D02*
X153502113Y-61682757D01*
X153502113Y-61682757D02*
X153466399Y-61539900D01*
X153466399Y-61539900D02*
X153466399Y-61361328D01*
X153466399Y-61361328D02*
X153502113Y-61218471D01*
X153502113Y-61218471D02*
X153537827Y-61147042D01*
X153537827Y-61147042D02*
X153573542Y-61111328D01*
X153573542Y-61111328D02*
X153644970Y-61075614D01*
X154180685Y-61147042D02*
X154216399Y-61111328D01*
X154216399Y-61111328D02*
X154287828Y-61075614D01*
X154287828Y-61075614D02*
X154466399Y-61075614D01*
X154466399Y-61075614D02*
X154537828Y-61111328D01*
X154537828Y-61111328D02*
X154573542Y-61147042D01*
X154573542Y-61147042D02*
X154609256Y-61218471D01*
X154609256Y-61218471D02*
X154609256Y-61289900D01*
X154609256Y-61289900D02*
X154573542Y-61397042D01*
X154573542Y-61397042D02*
X154144970Y-61825614D01*
X154144970Y-61825614D02*
X154609256Y-61825614D01*
X155287828Y-61075614D02*
X154930685Y-61075614D01*
X154930685Y-61075614D02*
X154894971Y-61432757D01*
X154894971Y-61432757D02*
X154930685Y-61397042D01*
X154930685Y-61397042D02*
X155002114Y-61361328D01*
X155002114Y-61361328D02*
X155180685Y-61361328D01*
X155180685Y-61361328D02*
X155252114Y-61397042D01*
X155252114Y-61397042D02*
X155287828Y-61432757D01*
X155287828Y-61432757D02*
X155323542Y-61504185D01*
X155323542Y-61504185D02*
X155323542Y-61682757D01*
X155323542Y-61682757D02*
X155287828Y-61754185D01*
X155287828Y-61754185D02*
X155252114Y-61789900D01*
X155252114Y-61789900D02*
X155180685Y-61825614D01*
X155180685Y-61825614D02*
X155002114Y-61825614D01*
X155002114Y-61825614D02*
X154930685Y-61789900D01*
X154930685Y-61789900D02*
X154894971Y-61754185D01*
D13*
X160566510Y-132867638D02*
X160947463Y-132867638D01*
X160947463Y-132867638D02*
X161137939Y-132962876D01*
X161137939Y-132962876D02*
X161328415Y-133153352D01*
X161328415Y-133153352D02*
X161423653Y-133534304D01*
X161423653Y-133534304D02*
X161423653Y-134200971D01*
X161423653Y-134200971D02*
X161328415Y-134581923D01*
X161328415Y-134581923D02*
X161137939Y-134772400D01*
X161137939Y-134772400D02*
X160947463Y-134867638D01*
X160947463Y-134867638D02*
X160566510Y-134867638D01*
X160566510Y-134867638D02*
X160376034Y-134772400D01*
X160376034Y-134772400D02*
X160185558Y-134581923D01*
X160185558Y-134581923D02*
X160090320Y-134200971D01*
X160090320Y-134200971D02*
X160090320Y-133534304D01*
X160090320Y-133534304D02*
X160185558Y-133153352D01*
X160185558Y-133153352D02*
X160376034Y-132962876D01*
X160376034Y-132962876D02*
X160566510Y-132867638D01*
X162280796Y-134867638D02*
X162280796Y-132867638D01*
X162280796Y-132867638D02*
X163423653Y-134867638D01*
X163423653Y-134867638D02*
X163423653Y-132867638D01*
D10*
X131933750Y-81905819D02*
X132505178Y-81905819D01*
X132219464Y-82905819D02*
X132219464Y-81905819D01*
X132838512Y-82905819D02*
X132838512Y-82239152D01*
X132838512Y-82429628D02*
X132886131Y-82334390D01*
X132886131Y-82334390D02*
X132933750Y-82286771D01*
X132933750Y-82286771D02*
X133028988Y-82239152D01*
X133028988Y-82239152D02*
X133124226Y-82239152D01*
X133600417Y-82905819D02*
X133505179Y-82858200D01*
X133505179Y-82858200D02*
X133457560Y-82810580D01*
X133457560Y-82810580D02*
X133409941Y-82715342D01*
X133409941Y-82715342D02*
X133409941Y-82429628D01*
X133409941Y-82429628D02*
X133457560Y-82334390D01*
X133457560Y-82334390D02*
X133505179Y-82286771D01*
X133505179Y-82286771D02*
X133600417Y-82239152D01*
X133600417Y-82239152D02*
X133743274Y-82239152D01*
X133743274Y-82239152D02*
X133838512Y-82286771D01*
X133838512Y-82286771D02*
X133886131Y-82334390D01*
X133886131Y-82334390D02*
X133933750Y-82429628D01*
X133933750Y-82429628D02*
X133933750Y-82715342D01*
X133933750Y-82715342D02*
X133886131Y-82810580D01*
X133886131Y-82810580D02*
X133838512Y-82858200D01*
X133838512Y-82858200D02*
X133743274Y-82905819D01*
X133743274Y-82905819D02*
X133600417Y-82905819D01*
X134790893Y-82239152D02*
X134790893Y-82905819D01*
X134362322Y-82239152D02*
X134362322Y-82762961D01*
X134362322Y-82762961D02*
X134409941Y-82858200D01*
X134409941Y-82858200D02*
X134505179Y-82905819D01*
X134505179Y-82905819D02*
X134648036Y-82905819D01*
X134648036Y-82905819D02*
X134743274Y-82858200D01*
X134743274Y-82858200D02*
X134790893Y-82810580D01*
X136028989Y-82239152D02*
X136028989Y-83239152D01*
X136028989Y-82286771D02*
X136124227Y-82239152D01*
X136124227Y-82239152D02*
X136314703Y-82239152D01*
X136314703Y-82239152D02*
X136409941Y-82286771D01*
X136409941Y-82286771D02*
X136457560Y-82334390D01*
X136457560Y-82334390D02*
X136505179Y-82429628D01*
X136505179Y-82429628D02*
X136505179Y-82715342D01*
X136505179Y-82715342D02*
X136457560Y-82810580D01*
X136457560Y-82810580D02*
X136409941Y-82858200D01*
X136409941Y-82858200D02*
X136314703Y-82905819D01*
X136314703Y-82905819D02*
X136124227Y-82905819D01*
X136124227Y-82905819D02*
X136028989Y-82858200D01*
X137076608Y-82905819D02*
X136981370Y-82858200D01*
X136981370Y-82858200D02*
X136933751Y-82810580D01*
X136933751Y-82810580D02*
X136886132Y-82715342D01*
X136886132Y-82715342D02*
X136886132Y-82429628D01*
X136886132Y-82429628D02*
X136933751Y-82334390D01*
X136933751Y-82334390D02*
X136981370Y-82286771D01*
X136981370Y-82286771D02*
X137076608Y-82239152D01*
X137076608Y-82239152D02*
X137219465Y-82239152D01*
X137219465Y-82239152D02*
X137314703Y-82286771D01*
X137314703Y-82286771D02*
X137362322Y-82334390D01*
X137362322Y-82334390D02*
X137409941Y-82429628D01*
X137409941Y-82429628D02*
X137409941Y-82715342D01*
X137409941Y-82715342D02*
X137362322Y-82810580D01*
X137362322Y-82810580D02*
X137314703Y-82858200D01*
X137314703Y-82858200D02*
X137219465Y-82905819D01*
X137219465Y-82905819D02*
X137076608Y-82905819D01*
X138267084Y-82239152D02*
X138267084Y-82905819D01*
X137838513Y-82239152D02*
X137838513Y-82762961D01*
X137838513Y-82762961D02*
X137886132Y-82858200D01*
X137886132Y-82858200D02*
X137981370Y-82905819D01*
X137981370Y-82905819D02*
X138124227Y-82905819D01*
X138124227Y-82905819D02*
X138219465Y-82858200D01*
X138219465Y-82858200D02*
X138267084Y-82810580D01*
X138743275Y-82905819D02*
X138743275Y-82239152D01*
X138743275Y-82429628D02*
X138790894Y-82334390D01*
X138790894Y-82334390D02*
X138838513Y-82286771D01*
X138838513Y-82286771D02*
X138933751Y-82239152D01*
X138933751Y-82239152D02*
X139028989Y-82239152D01*
X140267085Y-82905819D02*
X140171847Y-82858200D01*
X140171847Y-82858200D02*
X140124228Y-82762961D01*
X140124228Y-82762961D02*
X140124228Y-81905819D01*
X141028990Y-82858200D02*
X140933752Y-82905819D01*
X140933752Y-82905819D02*
X140743276Y-82905819D01*
X140743276Y-82905819D02*
X140648038Y-82858200D01*
X140648038Y-82858200D02*
X140600419Y-82762961D01*
X140600419Y-82762961D02*
X140600419Y-82382009D01*
X140600419Y-82382009D02*
X140648038Y-82286771D01*
X140648038Y-82286771D02*
X140743276Y-82239152D01*
X140743276Y-82239152D02*
X140933752Y-82239152D01*
X140933752Y-82239152D02*
X141028990Y-82286771D01*
X141028990Y-82286771D02*
X141076609Y-82382009D01*
X141076609Y-82382009D02*
X141076609Y-82477247D01*
X141076609Y-82477247D02*
X140600419Y-82572485D01*
X141457562Y-82858200D02*
X141552800Y-82905819D01*
X141552800Y-82905819D02*
X141743276Y-82905819D01*
X141743276Y-82905819D02*
X141838514Y-82858200D01*
X141838514Y-82858200D02*
X141886133Y-82762961D01*
X141886133Y-82762961D02*
X141886133Y-82715342D01*
X141886133Y-82715342D02*
X141838514Y-82620104D01*
X141838514Y-82620104D02*
X141743276Y-82572485D01*
X141743276Y-82572485D02*
X141600419Y-82572485D01*
X141600419Y-82572485D02*
X141505181Y-82524866D01*
X141505181Y-82524866D02*
X141457562Y-82429628D01*
X141457562Y-82429628D02*
X141457562Y-82382009D01*
X141457562Y-82382009D02*
X141505181Y-82286771D01*
X141505181Y-82286771D02*
X141600419Y-82239152D01*
X141600419Y-82239152D02*
X141743276Y-82239152D01*
X141743276Y-82239152D02*
X141838514Y-82286771D01*
X142933753Y-82239152D02*
X143314705Y-82239152D01*
X143076610Y-82905819D02*
X143076610Y-82048676D01*
X143076610Y-82048676D02*
X143124229Y-81953438D01*
X143124229Y-81953438D02*
X143219467Y-81905819D01*
X143219467Y-81905819D02*
X143314705Y-81905819D01*
X143648039Y-82905819D02*
X143648039Y-82239152D01*
X143648039Y-81905819D02*
X143600420Y-81953438D01*
X143600420Y-81953438D02*
X143648039Y-82001057D01*
X143648039Y-82001057D02*
X143695658Y-81953438D01*
X143695658Y-81953438D02*
X143648039Y-81905819D01*
X143648039Y-81905819D02*
X143648039Y-82001057D01*
X144267086Y-82905819D02*
X144171848Y-82858200D01*
X144171848Y-82858200D02*
X144124229Y-82762961D01*
X144124229Y-82762961D02*
X144124229Y-81905819D01*
X144600420Y-82858200D02*
X144695658Y-82905819D01*
X144695658Y-82905819D02*
X144886134Y-82905819D01*
X144886134Y-82905819D02*
X144981372Y-82858200D01*
X144981372Y-82858200D02*
X145028991Y-82762961D01*
X145028991Y-82762961D02*
X145028991Y-82715342D01*
X145028991Y-82715342D02*
X144981372Y-82620104D01*
X144981372Y-82620104D02*
X144886134Y-82572485D01*
X144886134Y-82572485D02*
X144743277Y-82572485D01*
X144743277Y-82572485D02*
X144648039Y-82524866D01*
X144648039Y-82524866D02*
X144600420Y-82429628D01*
X144600420Y-82429628D02*
X144600420Y-82382009D01*
X144600420Y-82382009D02*
X144648039Y-82286771D01*
X144648039Y-82286771D02*
X144743277Y-82239152D01*
X144743277Y-82239152D02*
X144886134Y-82239152D01*
X144886134Y-82239152D02*
X144981372Y-82286771D01*
X146648039Y-82905819D02*
X146648039Y-81905819D01*
X146648039Y-82858200D02*
X146552801Y-82905819D01*
X146552801Y-82905819D02*
X146362325Y-82905819D01*
X146362325Y-82905819D02*
X146267087Y-82858200D01*
X146267087Y-82858200D02*
X146219468Y-82810580D01*
X146219468Y-82810580D02*
X146171849Y-82715342D01*
X146171849Y-82715342D02*
X146171849Y-82429628D01*
X146171849Y-82429628D02*
X146219468Y-82334390D01*
X146219468Y-82334390D02*
X146267087Y-82286771D01*
X146267087Y-82286771D02*
X146362325Y-82239152D01*
X146362325Y-82239152D02*
X146552801Y-82239152D01*
X146552801Y-82239152D02*
X146648039Y-82286771D01*
X147505182Y-82858200D02*
X147409944Y-82905819D01*
X147409944Y-82905819D02*
X147219468Y-82905819D01*
X147219468Y-82905819D02*
X147124230Y-82858200D01*
X147124230Y-82858200D02*
X147076611Y-82762961D01*
X147076611Y-82762961D02*
X147076611Y-82382009D01*
X147076611Y-82382009D02*
X147124230Y-82286771D01*
X147124230Y-82286771D02*
X147219468Y-82239152D01*
X147219468Y-82239152D02*
X147409944Y-82239152D01*
X147409944Y-82239152D02*
X147505182Y-82286771D01*
X147505182Y-82286771D02*
X147552801Y-82382009D01*
X147552801Y-82382009D02*
X147552801Y-82477247D01*
X147552801Y-82477247D02*
X147076611Y-82572485D01*
X148743278Y-82905819D02*
X148743278Y-81905819D01*
X148743278Y-82286771D02*
X148838516Y-82239152D01*
X148838516Y-82239152D02*
X149028992Y-82239152D01*
X149028992Y-82239152D02*
X149124230Y-82286771D01*
X149124230Y-82286771D02*
X149171849Y-82334390D01*
X149171849Y-82334390D02*
X149219468Y-82429628D01*
X149219468Y-82429628D02*
X149219468Y-82715342D01*
X149219468Y-82715342D02*
X149171849Y-82810580D01*
X149171849Y-82810580D02*
X149124230Y-82858200D01*
X149124230Y-82858200D02*
X149028992Y-82905819D01*
X149028992Y-82905819D02*
X148838516Y-82905819D01*
X148838516Y-82905819D02*
X148743278Y-82858200D01*
X150076611Y-82905819D02*
X150076611Y-82382009D01*
X150076611Y-82382009D02*
X150028992Y-82286771D01*
X150028992Y-82286771D02*
X149933754Y-82239152D01*
X149933754Y-82239152D02*
X149743278Y-82239152D01*
X149743278Y-82239152D02*
X149648040Y-82286771D01*
X150076611Y-82858200D02*
X149981373Y-82905819D01*
X149981373Y-82905819D02*
X149743278Y-82905819D01*
X149743278Y-82905819D02*
X149648040Y-82858200D01*
X149648040Y-82858200D02*
X149600421Y-82762961D01*
X149600421Y-82762961D02*
X149600421Y-82667723D01*
X149600421Y-82667723D02*
X149648040Y-82572485D01*
X149648040Y-82572485D02*
X149743278Y-82524866D01*
X149743278Y-82524866D02*
X149981373Y-82524866D01*
X149981373Y-82524866D02*
X150076611Y-82477247D01*
X150409945Y-82239152D02*
X150790897Y-82239152D01*
X150552802Y-81905819D02*
X150552802Y-82762961D01*
X150552802Y-82762961D02*
X150600421Y-82858200D01*
X150600421Y-82858200D02*
X150695659Y-82905819D01*
X150695659Y-82905819D02*
X150790897Y-82905819D01*
X150981374Y-82239152D02*
X151362326Y-82239152D01*
X151124231Y-81905819D02*
X151124231Y-82762961D01*
X151124231Y-82762961D02*
X151171850Y-82858200D01*
X151171850Y-82858200D02*
X151267088Y-82905819D01*
X151267088Y-82905819D02*
X151362326Y-82905819D01*
X152076612Y-82858200D02*
X151981374Y-82905819D01*
X151981374Y-82905819D02*
X151790898Y-82905819D01*
X151790898Y-82905819D02*
X151695660Y-82858200D01*
X151695660Y-82858200D02*
X151648041Y-82762961D01*
X151648041Y-82762961D02*
X151648041Y-82382009D01*
X151648041Y-82382009D02*
X151695660Y-82286771D01*
X151695660Y-82286771D02*
X151790898Y-82239152D01*
X151790898Y-82239152D02*
X151981374Y-82239152D01*
X151981374Y-82239152D02*
X152076612Y-82286771D01*
X152076612Y-82286771D02*
X152124231Y-82382009D01*
X152124231Y-82382009D02*
X152124231Y-82477247D01*
X152124231Y-82477247D02*
X151648041Y-82572485D01*
X152552803Y-82905819D02*
X152552803Y-82239152D01*
X152552803Y-82429628D02*
X152600422Y-82334390D01*
X152600422Y-82334390D02*
X152648041Y-82286771D01*
X152648041Y-82286771D02*
X152743279Y-82239152D01*
X152743279Y-82239152D02*
X152838517Y-82239152D01*
X153171851Y-82905819D02*
X153171851Y-82239152D01*
X153171851Y-81905819D02*
X153124232Y-81953438D01*
X153124232Y-81953438D02*
X153171851Y-82001057D01*
X153171851Y-82001057D02*
X153219470Y-81953438D01*
X153219470Y-81953438D02*
X153171851Y-81905819D01*
X153171851Y-81905819D02*
X153171851Y-82001057D01*
X154028993Y-82858200D02*
X153933755Y-82905819D01*
X153933755Y-82905819D02*
X153743279Y-82905819D01*
X153743279Y-82905819D02*
X153648041Y-82858200D01*
X153648041Y-82858200D02*
X153600422Y-82762961D01*
X153600422Y-82762961D02*
X153600422Y-82382009D01*
X153600422Y-82382009D02*
X153648041Y-82286771D01*
X153648041Y-82286771D02*
X153743279Y-82239152D01*
X153743279Y-82239152D02*
X153933755Y-82239152D01*
X153933755Y-82239152D02*
X154028993Y-82286771D01*
X154028993Y-82286771D02*
X154076612Y-82382009D01*
X154076612Y-82382009D02*
X154076612Y-82477247D01*
X154076612Y-82477247D02*
X153600422Y-82572485D01*
X158867733Y-78067360D02*
X155448000Y-82448400D01*
X158867733Y-78067360D02*
X158636845Y-79316196D01*
X158867733Y-78067360D02*
X157712315Y-78594530D01*
X155448000Y-82448400D02*
X154817089Y-82448400D01*
X123637312Y-119017180D02*
X123589693Y-119064800D01*
X123589693Y-119064800D02*
X123446836Y-119112419D01*
X123446836Y-119112419D02*
X123351598Y-119112419D01*
X123351598Y-119112419D02*
X123208741Y-119064800D01*
X123208741Y-119064800D02*
X123113503Y-118969561D01*
X123113503Y-118969561D02*
X123065884Y-118874323D01*
X123065884Y-118874323D02*
X123018265Y-118683847D01*
X123018265Y-118683847D02*
X123018265Y-118540990D01*
X123018265Y-118540990D02*
X123065884Y-118350514D01*
X123065884Y-118350514D02*
X123113503Y-118255276D01*
X123113503Y-118255276D02*
X123208741Y-118160038D01*
X123208741Y-118160038D02*
X123351598Y-118112419D01*
X123351598Y-118112419D02*
X123446836Y-118112419D01*
X123446836Y-118112419D02*
X123589693Y-118160038D01*
X123589693Y-118160038D02*
X123637312Y-118207657D01*
X124065884Y-119112419D02*
X124065884Y-118112419D01*
X124065884Y-118112419D02*
X124637312Y-119112419D01*
X124637312Y-119112419D02*
X124637312Y-118112419D01*
X125018265Y-118112419D02*
X125684931Y-118112419D01*
X125684931Y-118112419D02*
X125256360Y-119112419D01*
X184079333Y-119017180D02*
X184031714Y-119064800D01*
X184031714Y-119064800D02*
X183888857Y-119112419D01*
X183888857Y-119112419D02*
X183793619Y-119112419D01*
X183793619Y-119112419D02*
X183650762Y-119064800D01*
X183650762Y-119064800D02*
X183555524Y-118969561D01*
X183555524Y-118969561D02*
X183507905Y-118874323D01*
X183507905Y-118874323D02*
X183460286Y-118683847D01*
X183460286Y-118683847D02*
X183460286Y-118540990D01*
X183460286Y-118540990D02*
X183507905Y-118350514D01*
X183507905Y-118350514D02*
X183555524Y-118255276D01*
X183555524Y-118255276D02*
X183650762Y-118160038D01*
X183650762Y-118160038D02*
X183793619Y-118112419D01*
X183793619Y-118112419D02*
X183888857Y-118112419D01*
X183888857Y-118112419D02*
X184031714Y-118160038D01*
X184031714Y-118160038D02*
X184079333Y-118207657D01*
X184507905Y-119112419D02*
X184507905Y-118112419D01*
X184507905Y-118112419D02*
X185079333Y-119112419D01*
X185079333Y-119112419D02*
X185079333Y-118112419D01*
X186079333Y-119112419D02*
X185507905Y-119112419D01*
X185793619Y-119112419D02*
X185793619Y-118112419D01*
X185793619Y-118112419D02*
X185698381Y-118255276D01*
X185698381Y-118255276D02*
X185603143Y-118350514D01*
X185603143Y-118350514D02*
X185507905Y-118398133D01*
X186698381Y-118112419D02*
X186793619Y-118112419D01*
X186793619Y-118112419D02*
X186888857Y-118160038D01*
X186888857Y-118160038D02*
X186936476Y-118207657D01*
X186936476Y-118207657D02*
X186984095Y-118302895D01*
X186984095Y-118302895D02*
X187031714Y-118493371D01*
X187031714Y-118493371D02*
X187031714Y-118731466D01*
X187031714Y-118731466D02*
X186984095Y-118921942D01*
X186984095Y-118921942D02*
X186936476Y-119017180D01*
X186936476Y-119017180D02*
X186888857Y-119064800D01*
X186888857Y-119064800D02*
X186793619Y-119112419D01*
X186793619Y-119112419D02*
X186698381Y-119112419D01*
X186698381Y-119112419D02*
X186603143Y-119064800D01*
X186603143Y-119064800D02*
X186555524Y-119017180D01*
X186555524Y-119017180D02*
X186507905Y-118921942D01*
X186507905Y-118921942D02*
X186460286Y-118731466D01*
X186460286Y-118731466D02*
X186460286Y-118493371D01*
X186460286Y-118493371D02*
X186507905Y-118302895D01*
X186507905Y-118302895D02*
X186555524Y-118207657D01*
X186555524Y-118207657D02*
X186603143Y-118160038D01*
X186603143Y-118160038D02*
X186698381Y-118112419D01*
D12*
X145267730Y-94320958D02*
X145226606Y-94444329D01*
X145226606Y-94444329D02*
X145226606Y-94649948D01*
X145226606Y-94649948D02*
X145267730Y-94732196D01*
X145267730Y-94732196D02*
X145308853Y-94773320D01*
X145308853Y-94773320D02*
X145391101Y-94814443D01*
X145391101Y-94814443D02*
X145473349Y-94814443D01*
X145473349Y-94814443D02*
X145555596Y-94773320D01*
X145555596Y-94773320D02*
X145596720Y-94732196D01*
X145596720Y-94732196D02*
X145637844Y-94649948D01*
X145637844Y-94649948D02*
X145678968Y-94485453D01*
X145678968Y-94485453D02*
X145720091Y-94403205D01*
X145720091Y-94403205D02*
X145761215Y-94362082D01*
X145761215Y-94362082D02*
X145843463Y-94320958D01*
X145843463Y-94320958D02*
X145925710Y-94320958D01*
X145925710Y-94320958D02*
X146007958Y-94362082D01*
X146007958Y-94362082D02*
X146049082Y-94403205D01*
X146049082Y-94403205D02*
X146090206Y-94485453D01*
X146090206Y-94485453D02*
X146090206Y-94691072D01*
X146090206Y-94691072D02*
X146049082Y-94814443D01*
X145308853Y-95678043D02*
X145267730Y-95636919D01*
X145267730Y-95636919D02*
X145226606Y-95513548D01*
X145226606Y-95513548D02*
X145226606Y-95431300D01*
X145226606Y-95431300D02*
X145267730Y-95307929D01*
X145267730Y-95307929D02*
X145349977Y-95225681D01*
X145349977Y-95225681D02*
X145432225Y-95184558D01*
X145432225Y-95184558D02*
X145596720Y-95143434D01*
X145596720Y-95143434D02*
X145720091Y-95143434D01*
X145720091Y-95143434D02*
X145884587Y-95184558D01*
X145884587Y-95184558D02*
X145966834Y-95225681D01*
X145966834Y-95225681D02*
X146049082Y-95307929D01*
X146049082Y-95307929D02*
X146090206Y-95431300D01*
X146090206Y-95431300D02*
X146090206Y-95513548D01*
X146090206Y-95513548D02*
X146049082Y-95636919D01*
X146049082Y-95636919D02*
X146007958Y-95678043D01*
X145226606Y-96459396D02*
X145226606Y-96048158D01*
X145226606Y-96048158D02*
X146090206Y-96048158D01*
X147807730Y-94320958D02*
X147766606Y-94444329D01*
X147766606Y-94444329D02*
X147766606Y-94649948D01*
X147766606Y-94649948D02*
X147807730Y-94732196D01*
X147807730Y-94732196D02*
X147848853Y-94773320D01*
X147848853Y-94773320D02*
X147931101Y-94814443D01*
X147931101Y-94814443D02*
X148013349Y-94814443D01*
X148013349Y-94814443D02*
X148095596Y-94773320D01*
X148095596Y-94773320D02*
X148136720Y-94732196D01*
X148136720Y-94732196D02*
X148177844Y-94649948D01*
X148177844Y-94649948D02*
X148218968Y-94485453D01*
X148218968Y-94485453D02*
X148260091Y-94403205D01*
X148260091Y-94403205D02*
X148301215Y-94362082D01*
X148301215Y-94362082D02*
X148383463Y-94320958D01*
X148383463Y-94320958D02*
X148465710Y-94320958D01*
X148465710Y-94320958D02*
X148547958Y-94362082D01*
X148547958Y-94362082D02*
X148589082Y-94403205D01*
X148589082Y-94403205D02*
X148630206Y-94485453D01*
X148630206Y-94485453D02*
X148630206Y-94691072D01*
X148630206Y-94691072D02*
X148589082Y-94814443D01*
X147766606Y-95184558D02*
X148630206Y-95184558D01*
X148630206Y-95184558D02*
X148630206Y-95390177D01*
X148630206Y-95390177D02*
X148589082Y-95513548D01*
X148589082Y-95513548D02*
X148506834Y-95595796D01*
X148506834Y-95595796D02*
X148424587Y-95636919D01*
X148424587Y-95636919D02*
X148260091Y-95678043D01*
X148260091Y-95678043D02*
X148136720Y-95678043D01*
X148136720Y-95678043D02*
X147972225Y-95636919D01*
X147972225Y-95636919D02*
X147889977Y-95595796D01*
X147889977Y-95595796D02*
X147807730Y-95513548D01*
X147807730Y-95513548D02*
X147766606Y-95390177D01*
X147766606Y-95390177D02*
X147766606Y-95184558D01*
X148013349Y-96007034D02*
X148013349Y-96418272D01*
X147766606Y-95924786D02*
X148630206Y-96212653D01*
X148630206Y-96212653D02*
X147766606Y-96500519D01*
X140475596Y-94238710D02*
X140516720Y-94279834D01*
X140516720Y-94279834D02*
X140557844Y-94362082D01*
X140557844Y-94362082D02*
X140475596Y-94526577D01*
X140475596Y-94526577D02*
X140516720Y-94608824D01*
X140516720Y-94608824D02*
X140557844Y-94649948D01*
X140228853Y-95472424D02*
X140187730Y-95431300D01*
X140187730Y-95431300D02*
X140146606Y-95307929D01*
X140146606Y-95307929D02*
X140146606Y-95225681D01*
X140146606Y-95225681D02*
X140187730Y-95102310D01*
X140187730Y-95102310D02*
X140269977Y-95020062D01*
X140269977Y-95020062D02*
X140352225Y-94978939D01*
X140352225Y-94978939D02*
X140516720Y-94937815D01*
X140516720Y-94937815D02*
X140640091Y-94937815D01*
X140640091Y-94937815D02*
X140804587Y-94978939D01*
X140804587Y-94978939D02*
X140886834Y-95020062D01*
X140886834Y-95020062D02*
X140969082Y-95102310D01*
X140969082Y-95102310D02*
X141010206Y-95225681D01*
X141010206Y-95225681D02*
X141010206Y-95307929D01*
X141010206Y-95307929D02*
X140969082Y-95431300D01*
X140969082Y-95431300D02*
X140927958Y-95472424D01*
X140598968Y-95842539D02*
X140598968Y-96130405D01*
X140146606Y-96253777D02*
X140146606Y-95842539D01*
X140146606Y-95842539D02*
X141010206Y-95842539D01*
X141010206Y-95842539D02*
X141010206Y-96253777D01*
X140475596Y-96500519D02*
X140516720Y-96541643D01*
X140516720Y-96541643D02*
X140557844Y-96623891D01*
X140557844Y-96623891D02*
X140475596Y-96788386D01*
X140475596Y-96788386D02*
X140516720Y-96870633D01*
X140516720Y-96870633D02*
X140557844Y-96911757D01*
X151170206Y-94238710D02*
X150306606Y-94526577D01*
X150306606Y-94526577D02*
X151170206Y-94814443D01*
X150306606Y-95102311D02*
X151170206Y-95102311D01*
X151170206Y-95102311D02*
X151170206Y-95431301D01*
X151170206Y-95431301D02*
X151129082Y-95513549D01*
X151129082Y-95513549D02*
X151087958Y-95554672D01*
X151087958Y-95554672D02*
X151005710Y-95595796D01*
X151005710Y-95595796D02*
X150882339Y-95595796D01*
X150882339Y-95595796D02*
X150800091Y-95554672D01*
X150800091Y-95554672D02*
X150758968Y-95513549D01*
X150758968Y-95513549D02*
X150717844Y-95431301D01*
X150717844Y-95431301D02*
X150717844Y-95102311D01*
X151170206Y-95965911D02*
X150471101Y-95965911D01*
X150471101Y-95965911D02*
X150388853Y-96007034D01*
X150388853Y-96007034D02*
X150347730Y-96048158D01*
X150347730Y-96048158D02*
X150306606Y-96130406D01*
X150306606Y-96130406D02*
X150306606Y-96294901D01*
X150306606Y-96294901D02*
X150347730Y-96377149D01*
X150347730Y-96377149D02*
X150388853Y-96418272D01*
X150388853Y-96418272D02*
X150471101Y-96459396D01*
X150471101Y-96459396D02*
X151170206Y-96459396D01*
D15*
X138195049Y-96743064D02*
X137871199Y-95771514D01*
X137871199Y-95771514D02*
X137547349Y-96743064D01*
D12*
X153669082Y-94814443D02*
X153710206Y-94732196D01*
X153710206Y-94732196D02*
X153710206Y-94608824D01*
X153710206Y-94608824D02*
X153669082Y-94485453D01*
X153669082Y-94485453D02*
X153586834Y-94403205D01*
X153586834Y-94403205D02*
X153504587Y-94362082D01*
X153504587Y-94362082D02*
X153340091Y-94320958D01*
X153340091Y-94320958D02*
X153216720Y-94320958D01*
X153216720Y-94320958D02*
X153052225Y-94362082D01*
X153052225Y-94362082D02*
X152969977Y-94403205D01*
X152969977Y-94403205D02*
X152887730Y-94485453D01*
X152887730Y-94485453D02*
X152846606Y-94608824D01*
X152846606Y-94608824D02*
X152846606Y-94691072D01*
X152846606Y-94691072D02*
X152887730Y-94814443D01*
X152887730Y-94814443D02*
X152928853Y-94855567D01*
X152928853Y-94855567D02*
X153216720Y-94855567D01*
X153216720Y-94855567D02*
X153216720Y-94691072D01*
X152846606Y-95225682D02*
X153710206Y-95225682D01*
X153710206Y-95225682D02*
X152846606Y-95719167D01*
X152846606Y-95719167D02*
X153710206Y-95719167D01*
X152846606Y-96130406D02*
X153710206Y-96130406D01*
X153710206Y-96130406D02*
X153710206Y-96336025D01*
X153710206Y-96336025D02*
X153669082Y-96459396D01*
X153669082Y-96459396D02*
X153586834Y-96541644D01*
X153586834Y-96541644D02*
X153504587Y-96582767D01*
X153504587Y-96582767D02*
X153340091Y-96623891D01*
X153340091Y-96623891D02*
X153216720Y-96623891D01*
X153216720Y-96623891D02*
X153052225Y-96582767D01*
X153052225Y-96582767D02*
X152969977Y-96541644D01*
X152969977Y-96541644D02*
X152887730Y-96459396D01*
X152887730Y-96459396D02*
X152846606Y-96336025D01*
X152846606Y-96336025D02*
X152846606Y-96130406D01*
D16*
X137078620Y-96498761D02*
X136934686Y-96498761D01*
X136934686Y-96498761D02*
X136862720Y-96462778D01*
X136862720Y-96462778D02*
X136790753Y-96390811D01*
X136790753Y-96390811D02*
X136754770Y-96246878D01*
X136754770Y-96246878D02*
X136754770Y-95994995D01*
X136754770Y-95994995D02*
X136790753Y-95851061D01*
X136790753Y-95851061D02*
X136862720Y-95779095D01*
X136862720Y-95779095D02*
X136934686Y-95743111D01*
X136934686Y-95743111D02*
X137078620Y-95743111D01*
X137078620Y-95743111D02*
X137150586Y-95779095D01*
X137150586Y-95779095D02*
X137222553Y-95851061D01*
X137222553Y-95851061D02*
X137258536Y-95994995D01*
X137258536Y-95994995D02*
X137258536Y-96246878D01*
X137258536Y-96246878D02*
X137222553Y-96390811D01*
X137222553Y-96390811D02*
X137150586Y-96462778D01*
X137150586Y-96462778D02*
X137078620Y-96498761D01*
X136430920Y-96498761D02*
X136430920Y-95887045D01*
X136430920Y-95887045D02*
X136394937Y-95815078D01*
X136394937Y-95815078D02*
X136358953Y-95779095D01*
X136358953Y-95779095D02*
X136286987Y-95743111D01*
X136286987Y-95743111D02*
X136143053Y-95743111D01*
X136143053Y-95743111D02*
X136071087Y-95779095D01*
X136071087Y-95779095D02*
X136035103Y-95815078D01*
X136035103Y-95815078D02*
X135999120Y-95887045D01*
X135999120Y-95887045D02*
X135999120Y-96498761D01*
X135747237Y-96498761D02*
X135315437Y-96498761D01*
X135531337Y-95743111D02*
X135531337Y-96498761D01*
%TO.C,CN7*%
D10*
X122000000Y-69964000D02*
X126572000Y-69964000D01*
X126572000Y-117716000D01*
X122000000Y-117716000D01*
X122000000Y-69964000D01*
%TO.C,CN10*%
X182960000Y-69964000D02*
X187532000Y-69964000D01*
X187532000Y-117716000D01*
X182960000Y-117716000D01*
X182960000Y-69964000D01*
D17*
%TO.C,1PIN*%
X128302000Y-132200000D02*
G75*
G02*
X123730000Y-132200000I-2286000J0D01*
G01*
X123730000Y-132200000D02*
G75*
G02*
X128302000Y-132200000I2286000J0D01*
G01*
X186302000Y-132200000D02*
G75*
G02*
X181730000Y-132200000I-2286000J0D01*
G01*
X181730000Y-132200000D02*
G75*
G02*
X186302000Y-132200000I2286000J0D01*
G01*
D11*
%TO.C,S1*%
X151972000Y-129814000D02*
X161972000Y-129814000D01*
X151972000Y-132314000D02*
X151972000Y-129814000D01*
D10*
X156972000Y-132864000D02*
X156972000Y-132864000D01*
X156972000Y-132964000D02*
X156972000Y-132964000D01*
D11*
X161972000Y-129814000D02*
X161972000Y-132314000D01*
X161972000Y-132314000D02*
X151972000Y-132314000D01*
D10*
X156972000Y-132864000D02*
G75*
G02*
X156972000Y-132964000I0J-50000D01*
G01*
X156972000Y-132964000D02*
G75*
G02*
X156972000Y-132864000I0J50000D01*
G01*
D17*
%TO.C,1PIN*%
X186302000Y-61200000D02*
G75*
G02*
X181730000Y-61200000I-2286000J0D01*
G01*
X181730000Y-61200000D02*
G75*
G02*
X186302000Y-61200000I2286000J0D01*
G01*
D18*
%TO.C,J3*%
X134988300Y-94640400D02*
X136131300Y-94640400D01*
X137274300Y-94640400D02*
X138417300Y-94640400D01*
X137845800Y-95211900D02*
X137845800Y-94068900D01*
D17*
%TO.C,1PIN*%
X128302000Y-61195600D02*
G75*
G02*
X123730000Y-61195600I-2286000J0D01*
G01*
X123730000Y-61195600D02*
G75*
G02*
X128302000Y-61195600I2286000J0D01*
G01*
%TD*%
M02*
